<svg xmlns="http://www.w3.org/2000/svg" xmlns:xlink="http://www.w3.org/1999/xlink" width="288" height="124" viewBox="0 0 288 124">
    <defs>
        <path id="prefix__a" d="M0 0H288V124H0z"/>
    </defs>
    <g fill="none" fill-rule="evenodd">
        <mask id="prefix__b" fill="#fff">
            <use xlink:href="#prefix__a"/>
        </mask>
        <use fill="#0E004E" xlink:href="#prefix__a"/>
        <path fill="#FFAB07" d="M70.4 180.652l.354-.01c1.388-.022 2.442.177 2.646.944h.997c.189-.523-.693-.335-.397-.934h.2c.596.003 1.12.053.999.534.358.017.424-.162.801-.13-.348-.387-.754-.63-.4-.938l.58.279c.814.382 1.872.8 2.62.39 0 .668.538.975 1.6.933.291-.207.665-.358.8-.665.434-.026.09.473.2.665.842-.016 1.251-.322 1.8-.534-.511.727.637.375.801.4.2.036.812.423.799.403.305.45-.186 1.178.2 2h-.6c-.16.596.136.892.4 1.203H84c.157-.46-.188-.587-.603-.668l-.05.316c-.054.366-.044.56.25 1.152h-.8v-1.334c-.471.176.09 1.039-.599 1.07-.076.45.885.21.6.8.749-.012.57-.15 1.202 0l-.249.154c-.187.125-.312.263.25.246-.571.066-.73.406-1.203.534-.078.323.914-.073.6.401-.82.309-1.986-.14-2.597-.401-.45.44.597 1.022.197 1.87-.99.245-1.699.02-2.2-.4-1.026-.062-1.2.444-1.199 1.068-1.172-.017-2.06-.229-2.2-.934-1.17.2-1.039-.464-1.8-.534-.75.338.422.506.2.934l-.405.013c-1.657.036-2.967-.16-3.395-.947h-1c-.131-.403-.637-.554-.8-.936h-1.4c.005-.315-.344-.395-.2-.8-.058-.273-.535-.268-.802-.403 0-.711-.377-1.17-1.199-1.335.082-.987-1.204-1.065-1.199-2.004-.233.023-.357-.026-.4-.131-.976.025-.672.076-1.4.267-.58-.77-1.084-1.592-1.6-2.404.905-.15 2.743.319 3-.265.646.436 1.484.217 1.8-.27.443-.072.285.255.6.27.145-.378 1.455-.378 1.6 0 .619-.256 1.677-.471 2.399-.27-1.007-.506 1.257-.181 1.002.4zm11.365 5.662h-.53v.372h.53v-.372zM11.036 175c.736-.005.783.426 1.78.255-.082.303.36.275.198.633 1.54.019 1.721.713 3.36.378.086.2.622.107.397.506.88-.1 1.187.167 1.978.124.16.531 1.815.998 2.965 1.141v.506l.58.031c1.87.108 3.101.275 4.364.98.616-.07.624-.529 1.383-.505-.413-.328-.6-.798-1.58-.76 1.06-.546 1.14.614 2.371.378v.382c2.284.269 3.308 1.342 5.143 1.895.229.782-1.22.485-.989 1.266-.423.058-.376-.182-.396-.38-.153.746-.722 1.224-.79 2.023l.139-.054c.121-.043.259-.076.453-.073-.457.047-.188.555-.79.506.105-.58-.666-.509-1.186-.379.152-.435-.111-.604-.793-.505.166-.147.262-.34.198-.63-.776.116-.734.271-1.58.124.11-.579-.851-.47-1.583-.508-.121-.595-1.298-.518-2.373-.504.176-.41-.645-.18-.791-.38-.243.056-.406.161-.396.38-.3-.442-1.352-.4-2.373-.38-.237-.819-2.069-.615-2.57-1.264.883.279 2.256.244 2.767.758.557-.128-.053-.536 0-.758-1.714-.089-3.171-.676-5.402-.75-.014.02-.03.031-.05.034-.034.004-.069-.012-.1-.038-.123-.004-.25-.005-.38-.004v-.38c-.6-.122-2.004.271-1.976-.254-.168.274-.728.296-1.383.255.082-.313-.418-.428-.97-.471-.045.057-.067.13-.012.252-.653.01-.5.128-1.05 0v-.282l-.145-.005c-.011-.003.012-.251 0-.255-.221-.014-.451.513-.79 0-.592.004.277.938-.593.76-.08.304.9-.07.593.38-.944-.14-.444.644-.99.758-1.165-.022-2.302-.124-2.967-.127-.394.506-1.388.63-1.383 1.39-.56.107-.51-.175-.99-.123-.681.111.05.505-.394.884-.823-.42-1.748.655-1.978 1.392-1.337.03-1.906.552-2.57 1.01-.639-.01-.422-.573-1.386-.38-.267.04-.163.32-.197.508-.69-.192-1.435-.348-2.174-.508-.237.355-.714.558-1.582.508.084-.266-.136-.335-.198-.508h-1.187c-.457.13.006.849-.791.76l-.082-.22c-.046-.13-.018-.13.082-.413-1.379.525-2.35-1.233-3.756-1.517-.845.69-1.651-.132-2.573.378-.285-.476.546-.24.396-.63-.028-.234-.67-.077-.789-.256-.245-.812-.922-1.348-1.384-2.02-.602-.417-1.541-.618-1.387-1.52.202.084.207.293.595.255-.012-.544-.942-.495-.595-1.266.52.037.852-.046.793-.38-.324.257-.806.413-1.582.38-.362-.192-.606-.456-.595-.887 0 .426 1.287.022 1.188.508.467-.165.84-.39 1.187-.632l.501.1c1.443.28 3.648.645 4.64.024.525.324 1.478.338 1.78-.124 1.784.285 2.624-.347 4.153 0 .63-.397 1.584-.59 2.173-1.011v.505c.742.279.964-.598.99 0 .231-.022.167-.229.197-.378l.536-.006c.354-.001.679.016.848.13.668-.222 1.741-.162 2.373-.251.11-.017.182-.033.227-.048l.027-.012c.035.018.08.037.142.06.089.03.947.069 1.186 0 .04-.011.27-.255.198-.255.215-.006.178.299.594.255.83-.093 2.128-.772 2.373.127.498-.525 2.362-.176 2.57-.888 1.084.764 3.41-.008 3.757 1.266.678-.308.012-.729.396-1.266zm20.148 8.017v.967c.843.177.843-1.147 0-.967zm-40.417.306h-.534v.354h.534v-.354zm39.6-.16l-.01.087c-.024.318 0 1.08.276.59.036-.226.041-1.227-.266-.677zm-27.39-.064c.113.34-.333.304-.705.32v.482c-.51.028-.108-.568-.236-.802h.942zm-.241-.761v.324h-.472v-.324h.472zM86 181.01c-.276.637-.692.36-.21.987-1.197.065-.958-1.116.21-.987zm-51.265.33v.32h-.47v-.32h.47zM87 181.097c-.271.31-.235.876-.97.802-.155-.664.299-.826.97-.802zm-27.047.741c-.257-.224-.39-.57-.953-.486.232-.378 1.225-.182.953.486zm-53.982-.66v.644c-.312-.162-.46-.436-.942-.486.074-.216.59-.132.942-.158zm4.957.578c-.571.118-.226-.558-.928-.326.084-.316 1.305-.29.928.326zm19.281-1.52v.53c.775.26.775-.794 0-.53zm-45.442 1.086h-.534v.356h.534v-.356zM180.127 171c.826.364 2.774-.06 3.026.705 2.675-.23 4.51 1.262 6.86.987v.563c.656-.003 1.087-.299 1.209.28.615-.692 1.198.314 1.818-.28-.014.534 1.976.331 2.02 0 .792-.133.51.487 1.41.28.095.301-.287.27-.604.28-.24.373.97.366 0 .426.55.418 1.556-.035 2.018-.142-.174.731 2.06-.219 1.616.703 1.148.271 1.878-.434 2.622-.561 1.373-.238 3.372.24 4.035-.426.345-.049.38.114.405.284.853-.593 2.822-.434 4.438-.284-.11.774-2.286.524-1.815 1.269h-1.009c-.007.332.346.415.2.845h-1.211l-.113.334c-.286.804-.708 1.54-2.308 1.075.574.59-.322.595.402.845-.77.164-.879.794-.803 1.55-.75.292-2.411.523-2.625-.283-.292.313-.946.374-1.615.423l.009-.117c.006-.154-.02-.287-.21-.306-.67.404-.914.33-1.819.423-.175.45.312.441.608.564-.099.4-.632.498-1.21.563-.118-.296-.5-.402-.405-.845-.174-.585-2.161.101-2.016-.705-.47.76-1.29-.378-1.617.283-.69-.126-.92-.577-1.613-.705-.718-.219-.121.478-.608.422-.651-.247-1.193-.572-1.61-.985-.56-.128-1.896.288-1.817-.282-1.116.427-1.72-.28-1.817-.985-.354.08-1.185-.172-1.211.14-.187-.149-.744-.042-.605-.424-.908.072-1.51-.07-2.22-.138-.134-.985-2.047-.731-2.42-1.549-2.233-.299-3.964.43-5.854-.143-.073-.238.156-.264.406-.282-.106-.24-1.29-.064-1.012.425-.485.055-.437-.258-1.008-.143-.026-.486.173-.815 1.008-.703.027-.252-.245-.296-.2-.566-.244.16-.366.405-1.008.284v.703l-.263-.014c-.553-.02-1.002.034-1.15.296-.716-.345-.861-1.088-1.816-1.269.298-.628-.593-.43-.404-.985-.619.104-.595-.241-1.21-.138.026-.49-.175-.817-1.011-.707v-.705c2.747-.362 5.194-.152 8.074-.28v.565c1.258-.567 4.286-.64 4.841.42.528-.052.564-.45 1.412-.28.168-.399-.284-.366-.2-.705zm14.375 9.178c.254.04.158.32.468.324-.042.128-.234.158-.234.32-.19-.084-.382-.168-.706-.162.154-.162.54-.164.472-.482zm-59.649.079v.486h-.706v-.486h.706zm-29.707.002c.238.104.244.372.708.324-.04.188-.428.134-.708.158v-.482zm96.95-1.125v.732h.806c.048-.46-.603-.446-.807-.732zm-195.33.188h-.531v.356h.53v-.356zm6-1h-.533v.356h.534v-.356zm175.322-.115c-.474.673 1.13.826.887.182-.042-.269-.535-.166-.887-.182zM118.298 172c.224.17.565.257.396.715 1.313-.32 1.926.572 2.982.856.232-.023.168-.26.198-.428l.666.049c1.754.114 3.328.085 4.701-.477.743.542 1.685-.12 2.385-.43.398-.049.621.03.596.287 2.361-.174 3.728.369 4.57 1.285.176.46-.514.296-.594.571.584.547.71-.431.994-.571 1.227.119 1.94.603 1.788 1.715-.274.454-.198-.506-.2-.716l-.512-.044c-.518-.039-.714-.024-1.476.044.225.453.019.323 0 .86-.771-.066-1.245.356-1.389-.288-1.652.774-4.251.234-6.162.287-.285.03-.07.426-.398.428-.797-.397-1.438.316-2.385-.287-.44-.078-.284.277-.596.287-5.571-.053-8.955 1.033-14.312.858-.451.104-.06.814-.792.715l-.093-.283c-.032-.114 0-.139.093-.432-.51-.327-1.089-.06-1.394-.284-.267.092-.368.303-.395.57-.066.276 1.377-.164 1.39.429-.76-.025-1.447.005-1.787.284.098-.431-.628-.082-1.392 0 .196-.364.697-.596 0-.856.277-.277.24-.779.992-.717-.032-.167-.36-.119-.596-.14.48-1.017-.859-1.312-.597-1.715-.626-.069-.702.258-1.39.144-.078-.614-1.373-.348-1.589-.86 1.301-.544 3.315.297 3.973-.713.812-.113 2.225.465 3.182.714.81-.5-.603-.607-.397-1.142 1.831.16 2.454.819 4.371.284.34.09.328.432.596.572.371-.353.064-1.195.797-1.285.614-.013.59.433.596.857h1.389c.236-.646-.88-.32-.594-1 1.156.237 1.358-.017 2.384-.143zm68.815 5.22c-.233.375.701.824.811.366-.532.055-.537-.248-.811-.366zm-55.301.037c.222.026.159.292.188.486h-.948c-.303-.634.82-.058.76-.486zm-106.077.081v.324h-.47v-.324h.47zm86.031-1.03h-.532v.384h.532v-.384zm-6.802.006c.285.496-1.213.496-.928 0h.928zm-97.065-1.08H7.1v.531H7.9v-.53zm129.835.104v.324h-.468v-.324h.468zm.317-1.254c.07.372.76.216.949.482-.097.772-1.253.112-.95-.482zm60.17-1.991v.482c.502-.118 1.734.29 1.554-.324.172-.292.238.098.223.324-.888.45-2.825.378-3.998.162.089-.31 1.016-.014.666-.644l.627.06c.244.015.357-.005.928-.06zm-219.213-7.696l.134-.05c.037-.016.068-.032.094-.047l.016-.012.01.009c.036.03.082.062.14.1.502.322 1.442.044 1.969.587.78.19.401-.483 1.18-.292-.078-.284-.762-.116-.588-.587h1.378c-.545.449-.035.589.391 1.026.744-.377 2.782.215 3.154-.439.434-.084.279.279.59.292.099-.416 1.115-.144 1.182-.587l.21.077c.616.21 2.011.575 1.757-.369.68.48 2.267.543 2.757 0-.254.46 1.632.46 1.378 0h3.35c-.227.46.308.356.392.587.268-.047.164-.368.197-.587.415.472 2.037.046 1.97.879.286-.403 1.316-.25.786-.879.985-.003 1.3.496 1.773.879.7.228.118-.5.591-.44.42-.067.377.21.393.44.402-.26.056-.542.788-.292-.26 1.035-3.318.578-2.56 1.905-1.169-.184-.968.65-2.165.439-.21.107-.024.445-.393.736-.355.018-.415-.182-.79-.147.086.231.619.125.395.587-.666-.057-2.236.065-3.35.147-.188.013-.152.17-.195.294-.184-.108-.3-.268-.393-.441-3.343.096-6.163-.197-8.663 0v-.44c-1.228.695-2.634.224-4.335.292-1.02.04-2.287.286-3.742.295l-3.11.03c-2.887.026-5.98.016-8.309-.325.107-.26.102-.609.395-.731l-.137-.035c-.205-.057-.363-.153-.258-.701-.674.158-.473 1.301-.592 0-.592-.146-.35.326-.394.588-1.087-.46-2.617.49-3.15-.44l-.074.1c-.185.251-.396.48-1.107.34.34.139.322.542.985.44-.815.55-2.388-.363-3.15.147-.497-.218-.586-.738-1.578-.587v-.44l-.222-.046c-.388-.074-1.153-.189-1.55.045-.21.549.49.42.395.88 1.14.216 1.247-.34 2.167-.291-.044 1.188-2.542.55-3.15 1.32-.715-.325-1.614-.524-2.562-.294-.271.592.428.463.394.879l-.161.02c-.526.051-1.156.022-1.02.568-1.713-.348-1.118 1.023-2.166 1.174.694-.448-.056-2.466 1.182-2.054-.238-.313-1.07-.184-.79-.882-.62-.071-.695.264-1.377.148.557-.637-.794-.92-.395-1.905.793.496.549-.007.592-.736.659.488 3.018-.292 3.348.439.796-.69 1.757-.421 3.347-.587.231-.022.166-.266.196-.44.98.11 1.109-.052 1.971.148.617-.102.255-.393.196-.734.318-.062.66.547.2.587-.151.29 1.343-.131.59-.292 1.422-.419 4.374.673 5.51 0 .621-.17.48.232.79.292 1.149-.764 2.27.255 3.938 0 .23-.024.165-.268.196-.44 1.555.456 4.687-.264 5.909.44.45-.543 2.154-.153 2.363-.879.063-.384.4.418.787.292zm80.727 4.941v.324h-.47v-.324h.47zm-6.999 0v.324h-.472v-.324h.472zm11.835.17c-.05-.006-.097-.012-.142-.016l.142.016zM57.821 163c.01.42.853.306.8.767.645.158.151-.414.8-.256l.415.141c.483.159.905.249 1.58.115.343-.417 1.836-.504 2.197 0h2.199c1.147-.643 2.329.657 4.395.258-.282.563 1.196.003 1.2.384.349.08.27-.344.396-.384 1.768-.567 3.98.208 4.197 1.28h-1.398c-.924.786-1.26 2.147-3.196 1.922-.06.34.418.33.798.384.034.363-1.23-.107-1.198.255-.153.483 1.06.089.797.641-1.355-.23-1.146.546-2.195.514.811.121 1.405.379 2.195.513-.264.509-1.54.378-2.595.383.173-.41-.307-.4-.6-.512-.506-.134-.884.43-.4.512-.038.145-.198.07-.198 0-.196-.003-.156-.156-.2-.258-1.24.541-2.907-.402-4.395-.509.185-.589-.422-.672-1.2-.643-.286.03-.067.382-.4.385-.281-.199-2.502-.635-2.395.129-1.45-.175-3.145-.146-4.397.129-.174.037-.168.127-.196.255l-.113-.132c-.181-.2-.415-.367-1.087-.252.005-.113.194-.104.345-.121l.054-.008c.691-.077-.356-.551.116-.63l.082-.01c.786-.117.148.675.603.769.751.099.953-.156 1.596-.129.261-.554-.95-.157-.797-.64.225-.027.108-.129 0-.129-.363-.367 1.228.411 1.596 0-.579-.507-.314-1.32 0-1.922-1 .348-1.691-.166-1.798-.767l-.54.004c-.357.002-.686-.015-.858-.133.214.117.063.472.599.385-.382.318-.867-.16-1.398.129.178.72 1.204.51.4 1.28-.081.305.91-.07.597.383.648.16.155-.414.8-.255.09.938-1.234.239-2.197.384-.299-.685.154-1.055-.199-1.663h-1.2c-.165.275-.752.283-.798.638-.706-.373-.755-.124-1.598 0 .164-.363-.283-.331-.2-.638h.999c-.107-.105-.209-.21-.2-.389-1.093-.067-1.373-.654-1.997-1.022-.463.247.312.779-.202 1.153-.644.114-.28-.42-.598-.514-.452.054.105.751-.798.514.345.248.743.463 1.396.51-1.014.515-2.07-.509-2.593 0-.148-.29-.18-.653-.4-.895-.438-.024-.637.105-.601.385-.289-.287-1.013-.291-.8-.898.605.63 1.073-.212 1.599.384 1.511-.925 4.3-1.267 5.793-.896.246-.739 2.609-.121 2.997-.77.636-.109.758.112 1 .257.003-.55 1.575-.099 1.397-.767h1.997zm166.635-3.615c1.949-.781 4.183.37 6.61.132.593.614 2.652.274 3.803.523.432.633 1.245 1.018 2.803.916.765 1.154 3.144.532 3.807 1.828.8.044 1.993-.167 2.001.393.868.132 1.112-.146 1.602-.261v.393c.524.036.862-.047.803-.393l.132.107c.382.297.842.542 1.868.416-.52.552.549.211.802.393.036.024-.039.252 0 .26.633.123 1.667-.052 2.204.131.189.065.05.319.199.392.398.204 1.202.039.8.654-.957-.144-.923.358-1 .785-.34.048-.378-.103-.399-.26-.495.182-.355.448-.204.781-.785-.164-.595.31-.598.656-.293-.115-.777-.104-.602-.523-.23.392-.135.712-.4 1.306-.956-.413-.275.466-1.001.523-.715.203-.121-.443-.6-.392-.3.199-.324.574-.404.916-.542-.255-1.552-.206-1.4-.916-.837-.112-1.09.16-1.402.392.315.477.301-.304.803-.13.046.232-.204.654.4.521-.502.254-1.002.362-1.566.414.008.023.025.05.053.079-.122.155-.186.064-.17-.069-.698.055-1.5.035-2.523.1-.272.041-.167.327-.2.524-1.86-.1-.997.188-2.803-.132-.202-.391.447-.232.801-.26-.568-.354-1.733.1-3.204-.131.228-.411-.314-.318-.401-.525-.255.031-.262.39 0 .393-.294.17-.923-.753-1.8-.26-.203-.524.596-.394.399-.916-.46.538-1.444.467-2.405.392v-.653l.17.005c.22.003.407-.014.432-.135-.285-.34-.416-.775-1.202-.786-.388-.02.49.73-.598.523-.293.497.549.253.4.654-.904-.371-.218.387-1.203.262.43.112.464.48.401.914-.785.12-.146-.69-.602-.784-.596.047-.51.537-1.4.391.074-1.223-.41-2.085-.603-3.134-.642-.15-.853-.58-1.602-.656.198-.336.424-1.035-.4-1.046-.451.099-.077.734-.2 1.046-.564-.325-.068-1.225-.8-1.7-.514.39.139.729-.201 1.177h-1.203c.094-.619-.171-.195-.8-.26.027-.236-.244-.278-.2-.523-.81-.182-.632.28-1.2.26.388-1.046.187-1.327-.403-2.222-.626.115-1.044.364-1 .914-.518-.446-1.241-.758-1.602-1.305-.556.287.03.932 0 1.305-1.57.199-1.797-1.583-1.001-2.09-.682-.164-.31-1.018-.398-1.569 1.823.249 1.923.025 3.403.392.232-.021.168-.237.2-.392 1.707.101 3.75-.487 4.804.26zm1.524 10.346h-.53c.066-.274-.136-.304-.351-.32-.504-.256 1.095-.176.881.32zM67 169.296c.198.03.183.286.169.548.6.261 1.089-.514.681-.732-.11.666-.795-.426-.85.184zm170.502-.07c-.013.11-.04.215-.27.181l.02.106c.04.17.138.304.516.249-.044-.21.045-.505-.266-.536zm4.389.097h-.8v.354l.363-.01c.293-.015.526-.072.437-.344zM51 167c.14.003.11.152.142.251.045.17.358.103.572.124.15.452-.323 1.45.286 1.5-.045.168-.358.1-.572.125.064-.523-.68-.925 0-1.252.067-.264-.203-.238-.428-.248v-.5zm-88.147 1.34v.32h-.706v-.32h.706zM65.141 166c-.047.41-.293.427 0 .779.948.088 1.416-.076 1.917-.22v.552c-.53-.016-.884.058-1.065.224 1.015.135 1.78.403 2.556.665 1.303-.557-.655-.773-.425-1.442-1.152-.105-1.588-.58-2.983-.557zm-10.172 1.254c.264.556-1.274.75-.914 0h.914zm-105.32.727c-.107-.44.487-.396.267-.908-1.06-.419-1.182 1.114-.268.908zm11.32-.713c.189.618-1.125.618-.94 0h.94zm10.365-1.02c-.316.316-.807.466-.98.913-.806.322-2.188.112-2.354.553 2.396.312 5.474.51 7.648-.18.604-.14.238.63.979.364.36-.278.967-.317 1.373-.55l-.224-.032c-.698-.117-1.333-.38-.364-.704l-.677.092c-.68.08-1.442.078-1.48-.642-1.75-.359-2.888.997-3.92.187zm256.692-.227c.132.735-.439 1.948.73 1.979.632-.518-.338-1.102.244-1.647-.483-.004-.31-.453-.974-.332zm-277.125.292h-.802v.374h.802v-.374zM-55 166c.324.332.99.4 1 .979-.6.11-.61-.242-1-.293V166zm3 .02c-.441.232-.537.763-1 .98v-.857c.544.264.29-.247 1-.124zm276.715-.02c-.052.403.416.529.236 1-.372-.056-.202-.394-.944-.253V166h.708zm-256.393.792c.025-.296.683-.15.533-.563-.55-.168-1.01.619-.533.563zm1.446-.48h-.536v.375h.536v-.374zm-4.001 0h-.534v.375h.534v-.374zm1.999 0h-.532v.375h.532v-.374zm88.269-.143h.706l-.01.149c-.004.169.031.313.246.335-.352.48-1.054-.118-.942-.484zm8.383-.337c.452.039.658-.204 0-.184.088-1.046-.618-.118 0 .184zm183.79-.6v.536c.78.261.78-.797 0-.536zm-204.237-.137v.644c-.424-.02-.498.196-.942.162v-.806h.942zm-1.118.164v.482h-.706v-.482h.706zm-44.086.054h-.534v.374h.534v-.374zm-2.769-1.068h-.982c-.168.742 1.032.616.982 0zm5.029.037c-.23.457 1.084.623.965.375-.379-.078-.205-.593-.965-.375zm-1.819-.064v.564c.778.277.778-.84 0-.564zm161.528.041c.276.024.2.292.236.482h-.944c.04-.19.43-.136.708-.162v-.32zM176 162.453c-1.455.157-2.895-.094-3.014 1.16-.637.008-1.032-.15-1.317-.385-.408-.023-.085.455-.187.642h-1.317c.203-.526-.65-.329-.753-.642-.608.4-2.048.228-2.448.772h-3.768c-.596-.109.336-.171.568-.13 1.72-.626 4.468-.548 6.21-1.157.594-.15.46.203.754.255.222-.017.161-.235.187-.385 1.01.05 2.166-.12 2.87-.34l.145-.047c.68-.24 1.918-.363 2.07.257zm45.842-1.375c.706.35-.665.54-.842.792.45.325.286.977 1.05 1.13.307-.672.916-.115 1.477-.337-.695-.345 1.083-.317 1.473-.454v-.34c-.738-.141-1.212-.009-2.107 0 .143-.456-.477-1.093-1.051-.79zM218 163.097c.51.108 1.182.078.955.806H218v-.806zm-12.012-14.938c-.137.37.413.266.6.411.496-.07 1.202.002 1.195-.41.242.153.362.39.997.273-.059.186-.498.112-.799.137.505.31 2.283.927 2.593.134.721-.127.28.536.401.818-.872.301-1.665-.167-2.393.134-.294.52.89.029.598.546-.726.088-1.062-.093-1.397-.272-.273.676-1.241 1.241.8 1.09.263.278-1.882.072-2.595.134l-.05.114c-.098.252-.118.421-.748.568.371.626 1.243.223 2.195.272.212.763 2.586.05 2.79.817-2.336-.071-3.898-.49-5.782.135-.075.631-.244.785 0 1.363-1.343-.145-1.866.27-2.99.27-.118.633 1.205.187.597.818-.481-.646-1.499.532-1.993-.273-1.211.535-4.324 1.073-5.985.41-.618.083-1.02.603-.398.815-.113.331-1.288-.063-1.195.41.212.368 1.076.24 1.683.265l.11.006c1.306.109 3.167-.302 3.79.274-2.662-.066-4.618.32-7.18 0 .115 1.03-1.963.563-1.992 1.495-2.348.352-5.009-.128-7.18.137-.29.03-.07.408-.4.408-.929.04-2.23-.95-2.392.137l-.168-.006c-.22-.004-.405.014-.432.143-.82.06-.748-.489-1.395-.545-.606-.052-.339.494-.8.545-1.27-.428-1.522.686-2.79.68-.203.586-.81.9-1.594 1.089-.602.135-.353-.303-.4-.545-.673.222-2.26-.18-2.194.545h-3.39c-.16.933-2.682.255-3.19.952-1.108-.12-1.545.216-1.994.544-1.033-.436-1.03.043-2.394 0-.156-.844-1.18-1.1-1.993-1.496.123-.72-.735-.771-.8-1.362-.472-.128-.589-.504-1.395-.407-.068.499 1.147.125.8.815h-.8c.163-.47-.296-.521-.198-.952l-.54.006c-.358.002-.686-.017-.854-.143-.049-.437.35-.577.197-1.088-.35-.216-1.062-.18-1.595-.272v-.68c-.412-.083-1.387.22-1.196-.274-.24.154-.362.39-.997.274-.058-.223.19-.236.2-.41-1.604.021-3.172.688-5.386.68l.345-.275c.187-.155.356-.322.453-.54l-.276-.013c-.979-.037-2.064-.014-2.539.791.324-.12.764-.208.946-.323.611.508-.72.397-1.096.672l-.027.098-.06.01c-.006.02-.01.041-.008.064l-.056-.053-.043.007c-.677.082-1.726-.092-1.627.517-1.244-.17-1.668.221-2.594.27-.08-.328.366-.294.202-.68h-.6c-.586.115.26.344 0 .68-.17-.29-.735-.314-1.395-.27.084-.883-.967-.545-1.596-.682.81-.783-.264-.817-.599-1.498 1.903-.333 2.806-1.35 5.185-1.362.647-.737 2.354-.752 3.19-1.36 1.428-.102 2.405.06 3.393 0 1.798-.11 3.007-.945 5.583-.816.565-.52.836-1.243 2.193-1.226-.24.752.157 1.255-.598 1.772-.271-.044-.166-.343-.2-.546-.6.088-.774.472-.797.954.736.451 1.762.7 2.19 1.36l.406-.054c.612-.08 1.237-.138 1.79.053.587-.116-.26-.341 0-.681-.062-.183-.5-.112-.796-.134.683-.688-.554-.501-.41-1.186-.587.054-1.216-.217-1.815.016.097-.19.702-.102.444-.481 1.038.16.749-.402 1.785-.243l-.092.212c-.052.123-.02.123.092.394-.115.051-.232.081-.351.097l-.053-.035c.814.575 1.524.005 1.795-.544.406.13.432.524.398.952 1.136-.017.1-.722.401-1.362l.171-.01c.446-.023.803.015.625.42 1.204.142 1.358-.694 2.195-.41-.026.457-.82.258-1.197.41-.351.138-.464.617-.998.544.254.524-.032.63.198 1.226.681.49 2.112.15 2.193-.544-.025-.39-.83-.25-1.393-.274.535-.18.211-.94 1.393-.68-.836.658 1.138.455.402 1.087h.599c.615-.245.105-.417.198-.952.386.237.644.56 1.597.411.332-.137.139-.63.596-.683.247-.438-.645-.101-.398-.545.4-.045.625.03.598.274.445-.059.08-.673.201-.955.454-.003 1.055.095 1.048-.224l-.003-.02.01.023c.305.624 1.535.617 1.338 1.584.615-.034.476-.582.996-.682-.5-.583.157-.904.2-1.496 1.319.253 2.792-1.128 3.988-.137.542.1-.144-.643.4-.543.784.624 3.281.742 3.986 0 1.424.31 3.404-.108 3.99-.819.572.1.968.29 1.595.274.28-.008.045-.216.198-.274.384-.138 2.704.17 2.394-.137 1.335 0 4.349.366 5.981-.133.635-.117.619.213.998.27.677-.22 1.244-.514 1.996-.678.083.283-.138.359-.201.541.2.366 1.727-.179 1.595.411.537.095.388-.282.6-.41l.239-.004c.774-.003 1.659.066 1.752-.404.762.477.633-.093 1.795 0 .037-.293-.704-.06-.996-.134.202-.228.925-.098.996-.41.567-.024.393.461 1.199.273.073-.23-.156-.257-.4-.274 2.403-.399 4.239.088 6.58 0zm7.882 11.535c.268-.122.716-.11.551-.552.372-.222.105 1.2.187 1.654.396.117.427.507.37.966-1.025-.033-.422 1.154-1.294 1.238.57-.978-.752-1.481-1.658-1.79.41-.775-.15-.885 0-2.068.536.315.932.308 1.291-.139.558-.05.382.45.553.69zm-3.253 2.264c-.436.247-.158-.673-.234-.916.438-.248.158.67.234.916zM53 148c-.496.457-1.54.556-1.393 1.44h-.594l.04.11c.124.313.394.885-.04 1.069.047.231.341.298.795.262.201.659-.83.5-.597 1.18-.362-.48-.669-.313-1.59-.264.384.463-.004.758 0 1.31-.161-.07-.323-.136-.597-.13.725.173.725.741 0 .917.56.112.382.707.397 1.176-.606-.093-.724.135-1.192.132.649.447.544 1.789-.2 2.096l-.087-.026c-.385-.134-1.22-.554-1.104.155-.9-.062-.375-1.062-1.39-1.048l.106.12c.238.282.581.802.09 1.06-.737-.017-.499-.189-.398-.524-.396-.044-.62.028-.596.263-.386-.224-.428-.68-.396-1.179h-.797c-.95.589-.556 1.759-.198 2.357-1.109-.099-1.514-.662-2.186-1.05-.381.056-.856.05-.797.395-.256-.223-.653-.355-1.193-.394-.412.032-.054.577-.397.656h-1.192c-.574.76-2.53 1.221-3.381.393-.559-.02-.498.37-.793.524h-1.99v-.524c-.767.023-1.463.005-1.986-.132-.064-.307-.314-.49-.201-.917-.56.003-1.671.815-.795.917-.689.362-1.967-.01-2.782 0l-.327-.498c-.379-.56-.83-1.072-1.861-1.203.532-.295-.282-.657.2-.916-1.522-.527-2.018-1.728-3.578-2.225.407-.905 2.882.268 3.18-.788 2.6.326 3.976-.738 5.766-.525.232-.02.167-.238.197-.392 1.195-.025 2.73.85 3.381 0 .642-.161.152.426.796.263-.038-.247.734-.738.197-1.179.506-.17 1.627-.403 2.188-.132.197-.964 2.539.132 2.784-.917l.372.143c.542.204 1.123.364 1.415-.143.615-.012.593.395.596.787.625.342 1.376.24 1.989 0-.419.41-.419.506 0 .918-.78-.079-.235.719-1.194.523v.784c.205.217.846.144 1.194.262v.314c.012.368.114.677.797.602-.226.16-.57.238-.399.656-.261-.168-.732-.168-.996 0-.038.376.053.667.399.785.722-.201.867-.725 1.592-.261.606-.623-.422-1.292-.995-1.572.65-.294 1.069-2.22 0-2.093-.069-.248.996-.604 0-.656-.033-.283.704-.059.995-.132-.289-.761.528-.873.197-1.31.627-.147.483.207.795.264.194-.223.55-.337 1.194-.263.437-.632 1.756-.92 2.981-.653.233-.02.169-.239.2-.395 1.836.137 1.694-.338 3.379-.392zm101.028 10c-.137.607.236.91.95 1 .094-.579-.087-.995-.95-1zm-2.966-2c-.382.872 1.147.72.829 1.557.809.026 1.078.193 1.865.443.609-.3.297-1.099 1.244-1.223-.62-.658-1.626.1-2.28-.109.017-.287.888-.117.619-.556-.76-.036-1.834.095-2.277-.112zm-58.5-9c-.028.335.105.563.4.677.597.137.352-.301.396-.542.448.374 1.244.51.995 1.358.583-.1.712-.512.995-.816.784.738 2.737.133 3.58-.27.469-.003.59.233 1.195.137.06.544.634.74 1.195.949.454-.189.152-.998-.595-.816 1.255-.878 2.835.912 4.374.272.274.043.166.34.201.544 1.2-.005 2.046.229 3.381.133.634.745 3.296.104 3.979.815.752.196.382-.372.995-.272 1.414.992 3.846-.31 4.579 1.223.19-.231.547-.35 1.191-.273.257.536-.58.328-.596.679 1.04.237-.03 1.919 1.393 1.897.551 1.112.786 2.337 1.79 3.12.567.445 1.466.62 1.99 1.084-1.183.131-.944-.713-2.188-.54.44.42 1.269.58 1.59 1.083-1.534-.398-2.38-1.27-4.972-.949-.624-.603-2.266-.548-2.986-.406-.068.273.04.423.399.406.028.087-.03.115-.111.127l-.087.01c-.196.001-.155.165-.201.27-.389-.323-.402-.899-.794-1.22-.203.088-.206.313-.598.27-.208-.625-.904-.92-1.193-1.492-.618.25-.946-.26-1.195-.27-.312-.016-.68.221-.615.264l.02.006c-.25-.03-.531-.356-.797-.406-.743-.14-1.534.099-2.787 0-.127-.137-.457-.14-.396-.407-.958-.065-1.55.122-1.79.543-1.02-.005-1.912.236-2.59.679-.623-.029-.536-.536-1.391-.41.197-.584-.223-.75-.397-1.081-.636.151-.86.591-1.791.542-.026.241.245.283.197.54-1.15-.03-.814-.37-.995.136-.731-.084-.752-.662-1.193-.949-.47.358-.67.897-1.193 1.222-.446-.059-.635-.291-.995-.41-.648.194-.718.777-1.988.543-.377.334-.43.886-.4 1.493-1.018.12-1.28.755-2.187.949-.78.082-.235-.745-1.196-.543.177.332.598.5.4 1.085-.926.081-1.203-.183-1.79 0-.437-.672 1.292-1.37-.202-1.491v-.95c1.129-.073.578-.937.6-1.492h-.797c.021.35.111.65.398.816.034.293-.708.06-.998.133.398-.266.13-.773 0-1.082 1.31.095.844-.492.797-1.086-1.005-.22-.767-1.284-.797-2.17-.9-.378-.713-1.502-.791-2.442.803.036.777-.166 1.35-.011.095-.095.225-.162.377-.158.058.236-.037.368-.35.353.073.186.551.1.35.472-.149.017-.262 0-.344-.038.076.466.378.78 1.003.873-.026.696.049 1.324.794 1.493.309.484-.674.083-.597.406.301.251.343.67.597.95 1.495-.862-.33-1.728-.2-2.849.646-.076 1.002.044 1.195.273.419-.167.13-.817.598-.949.708-.214.12.46.596.406.739-.03.558-.48.397-.815-1.427-.204-1.3.65-2.586.543-.032-.937-1.193-1-.597-1.763.833-.162.357.571.796.68.708.21.122-.463.598-.409-.003-.38-.544.324-.397-.27l.412.03c1.342.09 1.688-.019 2.57-.437zm-9.506 1c.636.227.357 1.127 1.133 1.247-.6.421-.149 1.28.755 1.385-.167.504.333.736 0 .968h.944c-.061.463-.029.853.375.97.192.416-.418.246-.752.279.108.445-.057.695-.378.829.625.787.763 1.935 1.699 2.492-.782.571.848 1.285-.19 1.8-.796.214.042-.77-.754-.553-.07-.237.147-.263.375-.279-.38-.227-.539-.617-1.32-.554.1-.626-.15-.997-.754-1.107l-.453-2.1c-.205-.931-.42-1.854-.68-2.745-.514-.18-.652-.63-1.51-.554.26-.558-.338-.49-.567-.692-.595-.067-.141.633-.563.692-.88-.026-.073-.764-.19-1.11.857.08 1.413-.068 1.699-.414l.327.118c.352.13.659.293.615.714.433-.194.07-.966.189-1.386zm-43.163 9.233h-.797v.534h.532c.013-.228.337-.246.265-.534zm-4.129.09h-.528v.354h.528v-.354zM-34.02 146c-.145.413.676.163.393.671h1.57c-.012.727.91.807 1.569 1.075.581-.453 1.924-.385 2.55-.806.035.646.472 1.02.787 1.474l.615-.123c.956-.193 1.87-.413 2.327-.948.706.321-.363.543-.59.67.945.393 2.23.2 3.337-.135-.013.576-.936.525-.588 1.343.117.113 1.175.345.195.403.408.398 1.032-.18 1.766 0v.535c.457-.089.149-.703.982-.535l-.12.482c-.154.702-.163 1.472 1.296 1.259-.177-.237-.797-.172-.587-.668.25.182.85.132 1.372.132.524.04-.522-.52.391-.402.087-.462-.077-.75-.195-1.075.193-.206.467.658 1.178.538l-.002.186c-.011.439-.047.891.395 1.022.592-.086.898-.368.783-.94l.218.087c.5.207.93.459.96.985.388-.488 1.306-.316 1.765-.401.103-.017.271-.4.198-.402.27.008.05.198.195.27.49.225 1.47.203 1.96.533.545-.172.179-.868.394-.938.713-.127.165.605.785.537.501-.352.126-1.242-.195-1.477.773-.17.508.369.783.538 1.116.305 2.345-.556 2.552 0 .072-.31.858-.126.783-.538.56.309-.275.788 0 1.345-.771.213-.067-.582-.586-.538-.707.488.754 1.656-.983 1.478-.064.488.218.743.391 1.07.735-.012.56-.15 1.178 0v1.474c-1.414.281.118-.765-1.371-.537-.198-.401.435-.235.785-.266l-.039-.164c-.07-.247-.205-.45-.746-.373-.448.185-.075.933-.198 1.34-.732.143-.31-.503-.98-.402.048-.146.39-.09.392-.266-.415-.247-.569-.463-1.178-.27.591.16.441.826.59.938-.585.436-.41-.783-1.373-.537.141.487.484.832.783 1.208.338.007.51-.1.59-.265-.074.309-.12 1.79-.392 2.413-.512-.362-2.014-.502-1.571-1.343-.868-.062-.975.185-1.57 0 .192-.138.387-.27.589-.401-.475-.167-.682-.519-1.568-.404l.121-.317c.077-.216.131-.448.074-.756-.937-.036-2.428.917-.785 1.073l-.154.19c-.21.252-.459.474-1.024.483-.29-.384.383-.77-.783-.673.09-.457.037-.813-.735-.68v.009c-.332.116-1.266-.477-.065-.137-.05-.35-.229-.32.21-.531-.783-.077-1.797-.9-2.55-.402-.599.005-.47-.485-1.177-.405.049-.143.39-.09.392-.266-.024-.297-.832-.057-1.176-.135.151-.119.211-.305.196-.537-.175.104-.445.145-.785.134-.038.473.462.576.785.804-1.01.239-1.897-.756-2.356-1.341l-.381-.009c-.548-.01-1.057.006-1.188.28-.59.134-.347-.301-.392-.538-1.208.242-.683-.698-1.372-.806-.67.998 1.186 1.421.586 2.82l-.658-.894c-.108-.149-.216-.298-.322-.45-.781.117-.986.117-1.766 0-.405.037-.046.595-.59.537-.613-.119-1.022-.372-.98-.94-.339.335-.506.22-.196-.135-.431-.37-1.396.02-1.962 0 .003-.976-1.265-1.05-2.156-1.071-.268.04-.165.335-.198.538-.16.132-1.182-1.15 0-1.208-.025-.295-.832-.057-1.178-.137l-.128-.495c-.107-.439-.182-.942.128-1.246l-.073-.093c-.163-.2-.373-.365-.907-.31.222-.475.127-1.163.98-1.208zM147 156v.637c.939.072 1.338-.543 2.026-.272-.585-.047-1.217.624-.225.635.237-.429.889-.429 1.126 0 .31-.46-.463-.48-.451-.818-.78-.067-2.138.1-2.252 0-.05-.071-.006-.18-.224-.182zm-158.022.307c-.088.203.19.716-.162.692-.488-.139-.51-.675-.816-.967.645-.179.334.455.978.275zm206.017-.1c.109.83-1.521.732-.819 0h.819zm-111.058.465c-.488.068-.619-.112-.934-.162-.075-.284 1.304-.288.934.162zm-.695-.93v-.484c.688-.236.688.722 0 .484zm111.773-1.635c-.137.832.686.493 1.328.437.203.138.06.539.567.44-.023-.811 2.164.046 2.088-.44l-.212.005c-.458.018-.944.055-.735-.442-1.488-.451-1.757.713-3.036 0zM-5.38 155.662c-.092.306-.302-.104-.238-.324.092-.306.3.104.238.324zm113.235-.324v.324h-.708v-.324h.708zm-14.089-1.024h-.53v.372h.53v-.372zm-54.555-.082v.535c.774.266.774-.797 0-.535zM84.009 152l-.007.223c-.02.923.077 1.73.917 1.777.231-.73-.02-1.937-.91-2zm-110.156 1.34v.32h-.706v-.32h.706zm14.418-.305c-.21.213-.324.49-.247.915.819.127.893-.307.976-.731-.31-.01-.336-.234-.73-.184zm165.528.303h-.598v.324h.598v-.324zm-116.65-1.117c-.417.495.686.8.796.36-.419-.018-.21-.458-.797-.36zM161 152.097c.663.004.997.274 1 .806-.432-.188-.764-.458-1-.806zm-178.99-.067c-.08.396.361.36.197.824.453-.228.744.422.793 0-.318-.234.235-1.017-.99-.824zm1.357.287c-.075.247.165.715.266.368.075-.25-.162-.718-.266-.368zM-7.15 152c-.439.169-.55-.106-.851.258l.146.007c.177.009.332.037.28.256-.08-.001-.16.106 0 .13.392-.679.442.695.568.263l.006-.355c.001-.234-.018-.449-.149-.559zm162.149.129V153h-2v-.497c.372-.364 1.413.421 1.167-.496.4-.053.363.227.833.122zm-72.265.852c-.85.15-.328-.63-.472-.962.852-.15.33.63.472.962zm78.109-.966c.304.638-.774.332-.472.97-.522-.022-.102-.686-.236-.97h.708zm-.817.163c.208.128.534.174.944.162.13.356-.45.228-.474.482-.414-.038-.534-.276-.47-.644zm-2.62.347c.02-.014-.025-.154 0-.16l.26-.055c1.054-.188-1.472.803-.26.215zM202 151.136v.726c1.032-.15 2.85.413 3-.543-.606-.42-2.061-.065-3-.183zm-170.98.036c.292.226 1.218.006.922.642-.72.076-1.027-.14-.922-.642zm131.98.01c-.087.24-.246.409-.332.645l-.28-.05c-.227-.047-.419-.13-.384-.432.197-.186.585-.182.996-.162zm-7.018.424c-.076.34-1.118.034-.944-.324.762-.2.178.524.944.324zm-124.247-.268v.324h-.47v-.324h.47zM48 150.059c.277.71.11 1.166 0 1.92.28-.089.991.187.96-.16-.585-.296.222-.757 0-1.277-.7.153-.09-.78-.96-.483zm-63.153.766c-.18-.252-.748-.242-.706-.644.62-.05.772.224.706.644zm3-.07c-.22-.173-.87-.047-.708-.483.612-.094.848.064.708.482zM190 150.59c.292-.104.98.218 1-.18-.292.103-.979-.222-1 .18zM85.499 149c.492.176.08.775.472 1-.77-.045-.422-.617-.942-.777.4.039.442-.085.47-.223zm-106.6 1.316h-.797v.368h.796v-.368zm65.074-1.3c.19.614-.688.496-.705.968-.714-.198.255-.556 0-.968h.705zm-58.694.162c.546.048.54.432.234.644-.32-.046-.194-.4-.234-.644zm133.456.16v.324h-.47v-.324h.47zm-39 0v.324h-.47v-.324h.47zm-95.859-.239v.802c-.486-.094-.892-.25-.706-.802h.706zm226.121.39c.075.285-1.304.289-.934-.161.488-.068.619.112.934.162zm-229.262-.149v.32h-.47v-.32h.47zM-35.833 148c.77.05.572.612.706 1-.294-.304-.91-.436-.706-1zm224.833.359c-.163.442-.675.32-1 .162.093-.364.7-.064 1-.162zm-218.234-.043h-.532v.368h.532v-.368zm-3.002-1h-.528v.368h.528v-.368zm-3.583-.499v-.644c.77-.034.928.756 0 .644zm170.747-3.567c.416.638-1.114.712-.909.16.44.066.396-.296.909-.16zM144.2 129c1.707.26 2.933.861 5 .861.287-.028.07-.427.4-.43l.346.129c.496.188.955.402 1.054.877 1.147-.199 1.327.295 1.8.577.372-.02.67-.095.8-.286-.462-.197-.839-.454-1.002-.867 1.04.034 1.25.996 2.201.29.673.236.883.802 1.201 1.294-.858.15-1.162.702-1.601 1.15-.714.118-.992-.303-.6-.575h-.6c-.011.22-.174.584-.996.575-.1 1.27 1.338 1.435 1.397 2.59l-.152-.051c-.589-.205-1.737-.647-2.047-.094l.127.077.125.066-.028.008c-.069.025-.145.069-.224.138-.355.31.535.708.4 1.151-.448-.11-.782-.303-1.402-.287-.569.02-.365.598-.397 1.006-1.1.396-1.46-.57-3.001-.286-.146.44.204.523.198.861h-.8c.364.79-.962.363-.599 1.15-.824-.015-1.252.253-2.201.147-.749.753-2.974.449-3.2 1.582-.922-.136-1.32.105-1.399.574-2.943-.126-5.733 1.897-7.398-.143-1.082.31-2.797.184-2.8-.72-.556-.131-1.879.294-1.799-.287-.137.335-.912.208-1.003.576-.84-.404-1.592-.872-1.6-1.873-.927-.09-1.238.263-1.6.577-.51-.412-.477.054-.8 0-1.562-.257-2.335-1.71-2.8-3.02-.033-.17-.364-.121-.6-.144.19-1-.384-1.448-1.4-1.584-.375-.332.634-1.572-.8-1.438.242-.606-.322-.63-.4-1.006l.256-.008c.827-.013 1.767.056 1.945-.423 1.007.636 2.264.204 4 .286.545-.711 2.778-.206 3.398-.861.649-.083 1.009.04 1.2.286.19-.342.74-.426.6-1.008 1.207.125 1.797.125 3 0-.018 1.034 1.84.23 2.4.577.145-.44-.203-.525-.198-.863.711-.195.422.327.9.298l.098-.012c.442-.018.087-.608.203-.862 2.549.69 3.386-.434 6.597 0v.431c1.412-.087 2.461-.436 3.801-.575V129zm52.792 10.018c-.4.515 1.52.797 1.986.283.254.896-1.76.035-1.805.699-.793-.528-1.264-.293-2.168 0-.1-.689 1.423-.788 1.084-.84-.03-.306.64-.065.903-.142zM248 134.835c-1.111.433-2.95.124-4.538.123-.349.315-1.408.189-1.383.733-1.36.347-2.692-.044-3.75.49-.63.105-.748-.105-.988-.243-.24.502-1.562.336-1.972.733-.584-.057-.889.083-1.381 0-.19-.03-.46-.248-.394-.243-.141-.008-.713.534-.99 0-.297.385-1.583.16-1.578.735-1.002-.522-2.975-.441-3.551-1.225-.647-.034-.42.475-.987.49-1.49-.531-2.727.166-4.738 0-.305-.519 1.098.026.79-.49l-.307-.054c-.616-.11-1.209-.232-1.469-.56-1.803.223-3.734.03-5.327 0 .127.125.452.125.394.367l-.653.01c-1.143.024-2.007.07-2.907.118-.019.158-.369.108-.381.265-.032.192 1.136.192 1.105 0-.005-.11-.223-.088-.367-.113-.058-.435.59.4 1.292.229.033.099-.074.109-.185.116v.23c-.144-.315-1.146-.315-1.293 0-1.068.008-1.443-.832-2.214-.346-.026-.145.036-.236.153-.292l-.565.02-.302.01c-.25.027-.26.365 0 .367-1.792.149-2.884.688-4.934.366-.541.265.196.564-.196.859-.585-.448-1.728.359-2.566-.244-.943.434-3.084.128-3.749.734-.198-.49-1.336-.397-2.172-.49-.168.525-.243.475-.593.98-.738.073-2.147-.272-1.777.49-1.768-.002-2.227-1.198-3.945-.857-.333-.365-1.181-.41-1.582-.736.223-.31.546-.56.593-.979.624.056.771-.175 1.185-.247.667-.004.857.285 1.185.49.664-.24 1.398-.438 2.564-.366.446-.337 1.793-.629 2.37-.49.231-.02.166-.224.196-.367 1.84.192 3.558-.547 4.54-.123.42.056.376-.175.394-.367l1.992-.01c2.046-.012 4.476-.06 6.101-.357l.195.04c.626.14 1.586.433 1.975-.04.627-.138.45.24.99.244.604.003 1.759-.719 2.168 0 .63-.76 2.133.515 2.763-.244.408.27 2.216.443 2.566 0 .88.508 2.268-.03 2.764-.492.349.03.989-.123.79.244 2.212.003 4.363.052 6.316.248l.149.02c.717.101 3.03.515 3.798.469.79-.046 1.362-.492 2.167-.489.112.27-.374.174-.392.367.5.097.749.351 1.382.367 1.244-.468 3.35.22 4.736.123-.159-.606-1.76-.655-2.566-.49-.62-.638-2.644-.402-3.552-.859l.217-.003c.967-.004 2.995.119 3.335.739 1.157-.576 2.886-.067 4.341-.369.037-.348-1.289.15-.987-.367 2.395-.333 4.121.238 5.725.736zM-31.515 129c.773.402 1.986.517 1.966 1.448l.811-.057c.763-.047 1.373-.023 1.747.451.47.053-.11-.598.59-.394-.084.275.135.347.196.527 1.07-.147.749.639 1.966.394-.372.995 1.289.628.983 1.579h1.181c.566 1.914-2.263 1.555-2.164 3.157-.229-.022-.35.03-.394.134-.523-.046-.688-.329-1.177-.396-.443.056-.007.698-.395.79-.63-.939-2.286 0-3.54-.133.154-.585-.26-.788-.197-1.316-.517-.037-.644.182-.59.528-.986.234-1.858.038-2.753-.132.105-.507-.35-.643-.197-1.184.2.085.204.301.591.262-.068-.35-.517-.443-.985-.526-.315.358-.252.97-.39 1.448-.659-.132-.645.181-.592.525-.048-.363-.972-.14-1.179-.393-.487.242-.628.72-1.377.788-.595-.085-.902-.361-.787-.92-.696-.069-1.012.113-1.18.392.315.536.112 1.42.394 1.975-.35.293-1.802-.15-1.376.66-1.605-.24-1.887.403-3.146.393.23-.857-.543-1.041-1.18-1.314.126-.136.452-.138.393-.394-.56-.197-1.284-.282-1.77-.527.979-.38-.41-.662-.394-1.185l-.25.018c-.48.042-.32.09-.93.245.203-.796-.625-.899-.785-1.447H-50v-.526c1.398.232 1.196-.603 2.36-.526-.291-.59.577-.407.394-.922.955.096 1.656-.475 2.36-.133.251-.708 1.73-.595 1.966-1.314.169.395 1.638.389 1.575-.133l.104.135c.25.306.31.194.878-.002v.394h.982c-.645-.716.355-.357.197-1.316.177.54 2.024-.04 1.967.657.23-.02.165-.24.195-.396.842.244.66-.161.985-.394.092-.065.68-.09.785-.132.266-.098.46-.371.591-.394 1.057-.173 2.325.386 3.146-.394zm225.536 9.85H195v-.685c-.765-.08-1.09.147-.979.686zm-72.25-.537h-.542v.374h.542v-.374zm.998 0h-.538v.374h.538v-.374zm71.998-.983h-.534v.34h.534v-.34zm-241.148.331c-.092.306-.302-.102-.238-.322.09-.306.3.102.238.322zM4 137.591c-.17.36-1.105.128-.99-.322.654-.208.337.53.99.322zm205.975-.186c.24.562-1.36.428-.887-.162.352.012.844-.078.887.162zm-.975-.15c-.34.15-.324.593-.99.483-.09-.504.424-.514.99-.482zm18.968.003c.072.426-.492.416-.942.484v-.484h.942zm-41.114.081v.322h-.708v-.322h.708zm27.351-.935c1.828.118-.047.824-.205-.158.175-.03.195.06.205.158zm-67-.184v.56c.786.279.786-.839 0-.56zm-137-8.218c1.718.403 4.082.36 5.133 1.22-.178-.635 2.133-.071 1.382-1.22 1.244.696 3.479.344 4.74.543v.677l.333.005c.737.017.797.064 1.444.13-.027.65.055 1.225.392 1.628.787.042.067-.95 1.186-.68l-.103.399c-.128.542-.185 1.21.696 1.229.3.928-.575 1.05-.394 1.898.144.352.937.258.986.679-1.727.079-2.163 1.044-3.357 1.49-1.157-.064-2.16-.234-3.356-.271.015-.598-1.146-.39-.79-1.22l-.29.09c-.347.118-.644.27-.698.586-.778-.248-1.153.273-1.777.273-1.164-.002-2.188-1.09-3.357-.273-.422.066-.377-.192-.395-.406-.933.062-.64.56-1.382.136-.267.043-.164.337-.196.543-.808.057-.798-.445-1.777-.273-1.152 1.327-4.776.434-6.518.136-.596-.003-.189.682-.79.679-.787-.352-1.374-1.295-.987-2.033-.283-.392-.932-.534-1.578-.68-.358-2.056-2.677-2.769-3.752-4.337.639-.077.993.043 1.185.272.153-.346.981-.23.988-.677-.044.555 1.043.316 1.972.405.397.037.246.241.395.272.778.148 2.79-.283 3.949-.408.218-.024.097-.253.2-.27.811-.138 1.495.11 1.973-.274.674.037.95.345 1.777.275.025-.245-.241-.287-.196-.543.857-.057 2.632 1.002 2.961 0zM234 136.526c.49.317 1.546.053 2-.173-.599.105-1.813-.215-2 .173zm-21.999-.94c.288-.093 1.032.201.998-.172-.291.094-1.033-.202-.998.173zm-130.503-5.534c1.43-.244 1.6.102 2.41-.262.53.223 1.319.276 1.605.66.436.023.09-.471.203-.66.455.082.82-.104 1.405 0 .361.062 1.041.425 2.005.262l.217-.039c.52-.102-.08-.068.587.04 1.063.173 2.81.118 4.14.13l.277.002c3.192.053 6.646-.228 9.636 0 .44.033.212.222.404.265 1.17.256 2.556-.132 3.613.131l-.524.157c-.69.204-1.489.383-2.088-.024-1.551.52-3.232.955-5.617.924-1.178 1.253-4.953.795-7.834.924.09.81-.684.156-1.403.664.124.582.8.533 1 .79-.017-.024-.49.503.203.792-.28.437-1.889-.008-2.006.53-.196-.003-.155-.16-.201-.264-.993.834-3.945-.126-4.619.529-1.498.195-1.418-.654-2.811-.529-.036.29.165.42.603.397-1.08.24-4.175-.717-4.616.529-.687-.478-2.493-.911-3.816-.529-.554.055-.19-.494-.602-.53-.677.217-.452 1.025-1.406 1.059-.692-.23-1.09-.622-1.608 0-.49-.25-.714-.676-1.805-.529v-.792c-.331-.268-1.2-.181-1.405-.53-1.015.259-.21 1.711-2.008 1.454.24-.642-.58-.59-1.003-.795-.808-.09-.494.558-1.205.53l-.015-.116c-.043-.413 0-.884-.79-.81.121-.56-.145-.871-.198-1.32-.523-.08-.724.053-.603.396-.45-.055-.08-.65-.201-.926-.752.014-.573.152-1.206 0 .028-.456-.172-.766-1.004-.661.276-.663-.334-.747-1.205-.658-.03-.156.044-.235.203-.266v-.263c2.854.992 6.205-.162 9.635-.264-.064-.529 1.18-.194 1.206-.66.917.464 3.39.276 3.413-.663 3.485.098 7.605-.744 9.034.925zm63.52 4.167c-.091.587.168.84.777.753-.161-.533.275-.489.195-.942-.452-.059-.748.03-.972.19zm-191.25.098h-.535v.366h.534v-.366zM233 134.34v.32h-1v-.32h1zm-89-1.216h-.943c-.297.738.645.486.943.752v-.752zm-3.23.19h-.54v.373h.54v-.374zm-71.659-.211l-.02.154c-.047.428.024.77.829.6l-.079-.297c-.077-.27-.209-.5-.73-.457zM-35.51 132h-.483c-.048.802.168 1.374.483 1.854-.126.034-.318.004-.322.146h.807c.154-.948-.45-1.22-.485-2zm1.745.113c.058.33-.272.923.53.74.077-.42-.064-.694-.53-.74zm44.786.017c-.11.581.214.834.979.746l-.03-.153c-.083-.376-.226-.707-.95-.593zm114.748.182h-.538v.376h.538v-.376zm2.136-1h-.81v.376h.81v-.376zm27.82-.398c-.346-.134-.506-.404-.47-.802.792-.166.368.5.47.802zm-157.957-.6h-.536v.371h.536v-.37zm217.967-8.136v.644h-.47v-.644h.47zm-62.735.078c-.1.33-.257.608-.834.482.028-.188-.037-.286-.166-.324.021-.354.708-.068 1-.158zm75.935-7.833c.517-.455.838.118 1.959.255.86.108 1.805-.144 2.541 0 .03.008.128.364.196.388.42.134 1.359-.13 1.369.255-.827.418-2.814-.098-4.106.255-.052.59-.21.622 0 1.158-.94.188-.819-.32-1.565-.258-.531.27.522.373 0 .772-1.055-.155-.892.493-.98.64-.796-.032-.784-.597-1.173-.899-.304.146-.408.42-.978.388v1.409l-.403.107c-1.07.288-2.08.613-2.14 1.564h-.977v-.642c-.53.425-1.506.553-1.37 1.413-.352-.249-1.786-.198-1.566.643-.283.068-1.01-.152-.977.129-.454-.038-.449-.345-.195-.515l-.25.013c-.4.013-.697-.04-.534-.4-.784.127-1.717.159-2.737.13-.055-.563.2-1.332-.59-1.413.942-.608-.026-1.176-.39-1.67.352-.015.414.157.782.13l-.04-.027c-.192-.12-.716-.38.04-.36.143-.347-.922.094-.782-.256-.056-.525.272.023.782-.129-.27-.247-.234-.7-.976-.64-.372.311-.42.836-.39 1.412-.92-.218-.257.603-1.173.385.59-.517-.827-1.175-.279-2.071l.07-.1-.026.034c-.275.31-1.18.204-.941.854-.403.176-.601-.028-.816.03l-.023-.005c.235.035.146.293.174.469h-.515c-.192-.357.241-.29.334-.452-.043.014-.086.041-.131.084.05-.447-.234-1.022-.392-1.669-.076.037-.145.065-.207.087.306.113-.195.362-.1.552-.327-.023-.188-.347-.071-.506-.465.09-.566-.24-1.383-.003-.113-.985 1.366-.487 2.347-.514.23-.022.166-.235.195-.384 1.586.169 1.583-.9 2.936-.514.228-.02.165-.235.196-.386 1.736-.487 3.013.448 4.5.512.384.019.748-.341 1.562-.126.23-.02.167-.235.197-.386l.471-.047c.825-.077 1.612-.087 1.68.559.676.019 1.136-.11.979-.641l.76-.021c1.787-.043 3.636-.025 5.106.407zM182.732 114c1.602-.024 3.21.413 5.109.269.319.714 1.296.198 2.159.408-.062.587-1.078.518-1.964.538-.4.403-1.228.507-2.16.54l-.23.146c-.564.369-1.074.771-2.128.8l.014.322c.01.402-.06.746-.8.627-.254.536.645.279.392.813-.895-.059-.963-.69-2.161-.541-.62-.066-.444.415-1.18.27-.173-.593-.732-.715-1.57-.542 1.272.776-.078 1.477-.197 2.434h-1.178c.5-.883-1.098-1.618-.198-1.892-.145-.126-.356-.205-.588-.27-.44.057-.081.665-.198.946-1.182.003-1.158-.827-1.572-1.351-.547.78-.083 1.899-.587 2.435-.71.079-1.11-.049-1.182-.405-.118.504-1.264.299-.98 1.079-.892-.372-1.25.147-1.18.813l-.374-.216c-.373-.217-.736-.442-1.001-.73-.426-.024-.089.479-.197.675-.731.005-.703-.509-1.18-.675-.347.032-.447.232-.392.54-.71.038-.532-.535-1.18-.54-.245.054.346.785-.786.54v.81c-.689.068-1.278.204-2.16.139-.338-.131-.398-.452-.786-.543-.815-.019-.701.6-1.77.405.081-.324-.358-.294-.196-.676-.349.03-.984-.136-.786.27-.165.024-.185-.051-.197-.134-.005-.13-.24-.105-.394-.136.062-.185.494-.112.786-.136-.213-.754-2.219-.143-2.356.407-1.074-.758-2.74.51-4.126 0-.074-.232.153-.256.392-.27-.916-.476-2.686-.209-3.93-.137-.115-.55-.764-.734-1.768-.675.048-.71-1.285-.47-1.375-1.082-.172-.434.509-.281.589-.542-.219-.344-.54-.618-.59-1.083-.294.75-1.115-.41-1.177.272-.294-.116-.422-.341-.396-.677l.385-.037c.988-.086 2.135-.102 2.76.309.686-.395 1.694-.292 1.573-.946.994.195 1.471-.049 2.16.405.84-.173 2.395-1.198 3.144-.541 1.286-.558 3.973-.151 4.52-1.22 1.02.074 1.585-.393 1.964.272.547-.391 2.258-.41 2.555.136 2.497-.264 4.793.057 7.271-.136 2.213-.958 6.16-.034 8.253-.81v-.677c.938.423 2.094.013 3.144 0zm37.287 6.503c0-.013.906.108.806.174.642-.421-.88-.454-.806-.174zm-71.285-.166v.324h-.468v-.324h.468zm66.317.09c.526-.05.53.239.802.355.425-.49-.695-.792-.802-.355zM22.736 119.34v.32h-.472v-.32h.472zm-38.243-6.168v.443l.755-.004c.939 0 1.818.043 2.209.45.284-.311 1.514-.896 1.978 0 .7-.016-.42-.492.198-.446.704-.229.12.505.595.446.41-.236 1.05-.299 1.58-.446.703.553 1.391.43 2.157.156l.262-.097-.012.005c-.549.282.108.824-1.024.681v.74c.813.232 1.942.226 2.968.298-.128-.15-.454-.155-.395-.448.883-.217.606.436 1.384.299l.087-.044c.4-.187 1.596-.587 1.693.044 4.226.14 7.615-.018 11.073 0 2.663.013 6.12.336 8.703-.299 1.413.65 4.024-.583 6.328.299.64.184.15-.483.79-.299.43-.241.506.257.79.299 2.354.367 5.22-.302 7.318.445.853-.545 2.895-.203 4.351-.296 2.81.878 6.227.213 9.491.59.492.061.87.375 1.384.449 1.904.27 4.08-.155 6.133.147-.26.64.94.183.79.744 2.869.219 4.666 1.246 6.921 1.929-.396.813-.699.038-1.187 0-2.09-.172-4.988-.05-7.517-.297-.382-.037-.26-.273-.393-.297-1.199-.22-2.707.074-3.758-.148-.13.026-.22.02-.284-.005l.001.06h-.346v-.252l.185.001-.043-.112c-.024-.054-.054-.103-.106-.136-.665.192-1.277.422-1.583.889.208.785 2.78-.205 2.967.594-1.76.215-3.372-.29-4.547.446-.763-.585-.98-.361-2.177-.299-.048-.483.724-.345.99-.592-.197-.249-.914-.105-.99-.446-.668-.057-.31.658-1.187.446.08.286.907.013.595.592-2.832.037-6.612-.538-8.899-.592-.703.23-.119-.503-.594-.446-.88.352-2.195.32-2.175 0-.26.147-1.674.686-1.78 0-.07.164-.863.621-.79 0-2.389 1.306-5.969-.048-9.294.446l-.112.152c-.179.232-.41.426-1.075.293.33-.445.695-.863 1.583-.891-.129-.15-.456-.153-.396-.446-.161.374-.903.315-1.583.298-.294.045.213.622-.395.742-.507.005-.242-.11-.198-.297h-2.967c-.348.035-.449.256-.397.594-1.316.203-1.588-.607-2.37 0-.777-.456-2.395-.279-2.968-.891.756.024 1.44-.008 1.78-.297-.275-.546-1.888-.277-2.767-.295-.555-.015-1.099-.144-1.754-.043l-.223.043c-.233.022-.168.27-.2.444-.656-.15-2.15.327-2.174-.298-1.695.123-4.66-.163-6.13 0-.48.053-.58.584-.594-.146-1.832.037-3.543-.013-5.14-.15-.27.047-.167.371-.2.594-1.745-.15-3.517.496-4.744-.15-.203-.497.613-.23.987-.294-1.02-.524-2.089-1.009-3.558-1.188l.112.248c.205.428.181.335-.905.346.017.232-.094.566.198.594-.453.607-.263-.476-.594-.448-.793 0-.547.778-.593 1.337-.715-.118-1.29-.594-1.582.15-.77-.069-1.404-.333-.989-.893.465.357 1.125-.012 1.98-.146-.868-.144-1.587-.393-2.374-.594-.43-.026-.09.526-.197.74l-.257-.015c-.543-.02-.983.035-1.128.313-1.134-.112-.784-.33-1.78 0 .57-1.1-.36-1.612 0-2.672-.3-.45-.867.122-1.384 0v-1.038c.514.086.712-.06.593-.445 1.378.044 2.593-.035 2.967-.745 2.504.242 3.51-1.072 5.933-.443zm32.36 5.166v.324h-.706v-.324h.706zm-3.125-.318c-.247.646-1.325.424-2 .318.036.887-.305.173-.728.157.235 1.144 2.101-.096 2.909.475.17-.38.744-.41 1.091-.632-.814.232-.559-.463-1.272-.318zm130.515-.279v-.482c.686-.236.686.718 0 .482zM-11 117.118h-1c-.01.716.562.652 1 .764v-.764zm224.5-1.059c-.051.138-.21.204-.5.173v.533c.344-.006.551.082.752.176.345-.224.39-.864-.252-.882zm-2.598-.737h-.804v.356h.804v-.356zm-234.903.097c.034.348-.708.072-.998.16-.034-.346.71-.07.998-.16zm-2.854-1.343c.222.282.868.266.706.806-.926.202-.702-.382-.706-.806zM-48.31 103c.835.308.545.643 1.608.268-.5.98 1.554.99 2.014 1.731.203-.086.207-.303.602-.265.034-.29-.713-.061-1.007-.134.087-.21.634-.114.405-.533h1.408c.28.17.085.654.603.667.619.101.246-.46 1.007-.268v-.664c.25.32.777.463.603 1.066.28.436 1.242.422 1.006 1.2h.603c.267-.289-.394-.973 0-1.468-.637-.754.803.122.605.667 1.184-.294 1.577-.195 2.213.267.453-.098.079-.747.2-1.068.488.3 1.18.465 1.7.743v-.313c.396-.033.692.466.285.494.226.17.386.386.43.677.6-.3 1.233.192 1.41-.266-.107-.206-.211-.009-.203.13-.206-.127-.406-.261-.603-.397.54-.499.149-.333 0-.934.82-.056.738.488 1.207.667.543-.705.668-.22 1.41-.533.247-.432-.652-.103-.404-.533.236.021.357-.03.405-.134.326.228.33.67.803.801-.294.56-1.246.684-1.813 1.063.619.156.157.463-.198.136-.615.163.292.509-.203.668-.633.064-.457-.411-1.207-.269.99.391-.878 1.327.603 1.602-.531.517.246 1.113 0 1.865-.417-.348-.763-.494-1.004 0-.716.207-.123-.452-.604-.4-.43.037-.968.68-.604.799-.807.177-.97-1.22-1.207-1.865-.765-.195-.039.595-.805.398.176.327.602.49.402 1.068.234-.022.17-.242.2-.4.157.297.67.358.603.799-1.67-.709.222 1.878-1.205 2.135-.374-.553-.536-1.246-.806-1.867-.675-.253-.735.654-.805 0-1.375.557.328 1.46.202 2.4-1.138-.204-.696-1.936-2.213-1.466l-.054.148c-.093.275-.131.596.457.65-.382.338-.707-.122-1.208.135-.017.187-.034.377.2.399-.248.175-1.027-1.519-1.811-1.865h-1.006c.676-1.428-1.912-.69-1.81-1.736-.246-.192-.769-.2-1.006-.4.025.518.468 1.336 0 2-.108.008-.19.005-.254-.006.006.04.006.08-.005.114-.069.219-.226-.075-.178-.231-.046-.156.115-.396.033-.543-.227-.414-.857-.766-1.004-1.199-.646-.117-.417.346-.807.4-.668.044-.215-.655-1.208-.4-.208-.439-.564-.783-1.205-.932-.355.03-.46.228-.403.533-1.09-.124-.53-1.338-2.013-1.202v-.664c-.6.477-2.5-.11-3.017-.534-.154.21-.64.2-.605.534-1.543-.406-2.96-.57-4.627-.269.201-.443-.279-.435-.805-.399.144-.308 2.848-.068 2.818-.934.757.104.962-.16 1.608-.134-.498.16.273 1.161-.804.932.694.368 1.466-.352 1.408-.932.653-.075.938.093 1.41.134.296-.058-.08-.169 0-.399.819-.394 1.256-.11 2.213 0 .52-.033-.275-.229 0-.533.44.672 1.194-.257 1.41.265.996-.785 2.93-.752 4.425-.265.456-.143.077-.838.202-1.201zm12.078 9.312h-.536v.376h.536v-.376zm.715-1.308c.36 0 .518 1.192-.234.964-.172-.492.404-.472.234-.964zm-12.63-.665v.322h-.706v-.322h.706zm1.378-.02v.374h.538l-.02-.111c-.04-.18-.138-.318-.518-.262zm7.136-1.007c-.075.255.164.73.267.375.073-.255-.167-.728-.267-.375zm6.597-.026h-.928c-.285.57 1.213.57.928 0zm162.728-.996c-.11.665.21.96.308 1.447-.274.03-.77-.133-.615.263-.514-.615-1.32-.98-1.385-1.975.789-.104 1.17.14 1.692.265zm-40.854-4.544l.036.02c1.261.868 2.536-.71 3.972-.126.448-.094.435-.485.99-.51.74-.133.641.269.994.382.266-.082.369-.273.396-.51.07.657 1.473.773 2.382.51.44.356 1.03.612 1.987.637-.273.895 2.048.128 2.183.762.19-.003.154-.155.197-.253 1.059.128 1.327.76 2.382.89.442.07.282-.242.597-.256 1.337-.093 1.837.35 3.176.256 1.41.977 4.583.035 5.558 1.272 2.506-.303 4.564.7 6.948.89.072-.217-.155-.24-.398-.253.344-.253 1.751-.112 1.789.253 2.196-.221 3.039.427 3.968 1.02.716.075.586-.391 1.19-.383.121.476.952.49.795 1.143-.954-.226-.638.355-.992.51-.324-.008-1.115-.629-1.192 0-2.406-.664-5.26-1.037-8.336-1.27l-.418.29c-.208.147-.407.299-.576.47-.424-.362-1.36-.399-2.382-.38-.054-.44-1.477-.597-1.587-.254-1.908-.263-4.487.338-5.559-.637-.244.395-1.021.447-1.192.891-.529.15-.234-.305-.396-.38-.447-.212-3.162-.18-2.58 0-.685.137-1.48-.745-2.38-.892-1.125.427-3.26.202-4.967.253.1-.4-.608-.288-.396-.762-1.335-.035-1.901-.563-2.78-.891.05-.138.396-.084.4-.255-1.217-.194-1.74-.834-3.178-.891.098-.4-.359-.447-.197-.89-.828.49-1.888.016-2.58.128.053-.333.067-.637-.597-.509v-.138c-.06-.034-.117-.194-.086-.296.022-.073.055-.088.086-.07v-.387c.871-.23 1.99.491 2.183-.128.993-.04.297.55.56.744zm17.588 5.69c-.207.003-.165.195-.21.32-.252-.025-.182-.295-.216-.483l.144-.02c.658-.061 1.397.214.282.182zm24.737-.182c.24.104.246.368.708.322-.094.4-.916.01-.708-.322zM-40 108.001c.258.347.228.883.833.999.463-.388-.11-1.03-.833-.999zm4 .013l.002.23c.015.453.14.834.998.742l-.002-.23c-.015-.454-.14-.835-.998-.742zm-1.798.788c-.074-.784.724-.204.798 0v-.56c-.56-.192-1.386.288-.798.56zm-9.152-.376c.528-.058.53.25.804.373.426-.517-.695-.839-.804-.373zm.157-.206v.56c.781.275.781-.833 0-.56zm173.776-.617c-.076.342-1.12.036-.946-.32.764-.198.18.52.946.32zm-160.214-.288h-.538v.37h.538v-.37zm-19-1h-.538v.37h.538v-.37zm4-.003h-.538v.376h.538v-.376zm-6.867-.997h-.804v.37h.804v-.37zM70.82 94.167v.423c1.35-.073 2.908-1.156 3.795 0 .426-.73 1.17.448 1.598-.282.899.517 2.687.803 3.594 1.681.114-.26 1.016-.523.8.137 1.188.25 2.41-.389 2.598.562 1.443-.035 1.559.867 1.796 1.677-.236-.35-.823.285-.797.28-.238.032-.119-.276-.2-.28-.179-.001-1.062.246-1.598.421-.467.151-.948.675-1.798.56-.07.281.04.438.398.419-.493.354-1.248.525-1.996.7-.063.558 1.16.212 1.398.56.118.793-1.317-.372-1.2.42-.339-.276-1.389-.051-1.397-.56-1.934.349-3.35.296-4.395 1.12-.033.397.676.273.4.838-.794.044-.953-.358-1.2-.697-.586.009-.588.424-.999.556-.934-.712-3.214.86-4.193-.278-.461.38-1.077.645-2.198.56-.11-.249-.102-.579-.4-.7-.71-.218-.12.474-.6.418-.774-.292-2.026-.257-2.795-.556-.137-1.305-1.158-1.988-2.398-2.519-.52.24.25 1.386-.998 1.118.051-1.156-1.635-1.093-1.597-2.237-.584-.478-1.65-.619-1.4-1.681.684-.228.6.017 1.001.282.446-.061.08-.692.198-.983.41.034 1.218.364 1-.418.525-.042.514.293.6.56.378-.06.5-.303.997-.279v.56h.998c.475-1.147 3.358.224 3.196-1.26.444-.079.285.266.602.28l.257-.259c.212-.217.41-.446.54-.72 1.981-.216 4.056-.904 6.393-.423zM230 93.592h-1.19l.01.375c0 .247-.026.474-.208.592-1.483-.026-2.195.768-3.566.414.121.287.308.526.993.417.415.543-2.083-.465-1.585.414-.44.076-.282-.263-.595-.278-.641-.17-.152.45-.792.278.15.404 1.631-.127 1.783.277.285.431-1.474.431-1.19 0-.437.385-1.017.672-2.18.553-.582.19-.575.795-1.58.692-.087.545-1.108.52-.596 1.105-.574.338-1.734.264-1.783.97l-.577-.003c-.798.001-1.498.07-1.405.692-4.694.641-9.02 1.54-14.659 1.52-.254.688 1.173.196 1.388.555-.42.861-3.433-.094-3.763.828-.964.07-1.26-.407-.989-.828-.552.504-1.383.524-2.378.414-.085-.29.136-.364.198-.553-1.05.993-2.954-.771-3.566.553-.64-.197-1.11-.515-.989-1.243-.535-.58-1.558-.03-2.575-.138-.273-.366-.671-.642-1.191-.83-.522-.042-.65.191-.594.55-.915.053-1.137.172-1.98 0l.006-.225c.009-.484-.03-.936-.403-1.156-.595-.139-.351.31-.395.553-1.418-.067-1.248.974-2.575.967-.703.215-.121-.469-.597-.414-.51.143-.75.928-1.581.414-.31.203-.416.54-.4.97-.682.016-.92-.28-.79-.829-.604.117-1.742.593-2.18 0-.639-.172-.151.445-.79.275 0-.46-.8-.366-.994-.69.667-.643-1.097-1.378-.79-2.629-1.293.091-.864 1.881-.992 2.35-1.233-.494.12-2.08-.79-2.903-.628.07-.7-.249-1.386-.139.28-.794-1.087-.44-.794-1.242-.168-.206-.498-.299-.99-.28-.035-.256 2.273-.065 1.98-.967.756-.12.034.684.991.417.101-.029.444-.4.99 0 .053.038.168.543.2.55.8.287 1.286.17 2.178-.136.644.055 1.038.289 1.386.555.269-.044.165-.349.197-.555l.53.063c1.084.12 2.664.223 3.036-.341.44-.076.282.265.597.278 1.823-.951 5.51-.654 7.724-.967.429.024.087-.493.197-.692 1.693.127 3.308-.493 3.96.414.384-.036.09-.542.505-.557l.093.004c.703.017.796.458.789.967l.283-.018c1.11-.085.753-.25 1.105-.396.68-.103.252.562.99.414.523-1.069 2.305.31 2.97-.414 1.173.852 3.1-.498 4.162.278.883-.536 2.712-.41 4.357-.414 1.56-.738 3.684-.247 5.744-.555.204-.134.4-.273.596-.415 3.863.043 6.164-.169 9.903-.138.217-.034.135-.275.396-.276.984.098 2.595-.244 2.972.276.592-.373 3.12-.558 3.169.277zm-54 8.71c-.065.13-.13.262-.124.482-.563.24-.385-.47-.876-.32.272-.358.58-.368 1-.162zM7.747 89.429l.37-.013c1.64-.042 2.948.142 3.156 1.063.871.189 1.214-.047 1.958.129.071.224-.154.247-.393.264 2.465.329 5.973.076 9.206.128.105.108.205.215.198.396 5.966.083 11.713-.097 17.628.13.72.83 3.278.428 4.113 1.182.213.624-1.63-.129-1.176.654-.159-.119-.585-.06-.608-.274l.001-.039-.024.059c-.309.542-1.974-.317-1.72.779-.68.071-1.857-.193-1.959.264-.031.371 1.21-.11 1.176.26.072.4-.638.274-.98.395.085.205.616.112.393.524-.787 0-.702.58-1.176.79-.612.024-1.439-.092-1.763.13-.21.49.487.373.393.787-1.758.119-3.147.076-4.702.525.37.231.92.347 1.372.523-.216.264-1.053-.16-1.765 0-.228.022-.163.24-.195.396-1.643.036-1.8 1.066-3.917.787-.916.639-3.875.446-4.896 0-.182-.321-1.308.267-1.176.259-.231.015-.52-.274-.782-.26-.42.019-.402.283-.785.392-.276.081-.697-.075-.978 0-.21.055-.143.228-.393.264-.543.075-2.355.127-2.546 0-.747-.5-2.31-.349-3.134-.918-.43.278-.948.5-1.566.654-1.161-.464-1.494 0-2.156-.918-.775.183-1.233.574-2.545.393.072-.441-.825-.233-.785-.653-1.349.244-2.718.003-3.134 1.046-2.223-.197-2.694.598-4.114 0 .442-.996-1.015-.717-1.37-1.178-.107-.292.375-.188.392-.393-.652-.264-.717-.92-1.764-.92.084-.754-.098-1.332-.783-1.574-.23-1.64-.988-2.925-.783-4.854 1.046.044 1.872-.058 2.155-.525 1.14-.126 2.56.231 3.328-.13.125-.058.41-.51.393 0l.393-.187c.512-.238 1.005-.419 1.763-.337.193.018.492.258.39.26.646-.022 1.594-.142 2.35-.26.438-.068 2.125-.93 2.94 0zm46.826 7.78c.544.264-.08 1.08 0 .158-.582.02-.4-.196 0-.158zm170.28.129v.324h-.706v-.324h.706zm.389-.595v-.486c.688-.236.688.722 0 .486zm-31.506-2.405v.324h-.472v-.324h.472zM115.515 83c2 1.176 7.313-.43 9.038.914h1.373c.214 1.12 2.755.696 3.537 1.437 1.166-.081 1.75.227 2.946.128-.09.28.282.25.591.262.005.744-1.99.157-1.767 1.046-1.556-.16-1.396.813-2.554.915.042.419-.349.552-.197 1.044-1.416.498-2.292 1.351-2.948 2.35-1.079.067-1.364.661-1.965 1.044-1.46-.45-3.12-.092-4.32-.128-.655.694-2.7.47-3.734.914.243-.424-.638-.101-.393-.523-1.726.146-2.792.318-4.125.914-.574-.396-2.034-.245-1.965.524-2.736.58-4.111-.59-6.091-.915-.065-.435-.571-.58-.392-1.175-.633-.102-.58-.662-1.377-.656-.287-1.376-1.563-2.093-1.571-3.656-.447-.223-.654-.608-.59-1.174 1.272-.292 2.283-1.292 3.93-.914l.943-.364c1.256-.478 1.972-.66 4.559-.682.293-.372.924-.518 1.373-.783v.783c.285-.29.999-.294.787-.914 1.236.044 3.515-.003 4.912-.131.018 0-.014-.239 0-.26zm-143.321-3.999c.017.44.255.733.796.814.13 1.77-1.06 2.634-.796 4.494-1.065.403-1.712 1.097-1.986 2.042-.8.132-1.066.631-2.184.547.415 2.008-3.192 1.26-3.178 2.995-.83.068-2.247-.268-1.99.545-.779.1-2.271-.287-2.184.408-.195-.503-1.587-.181-1.391-.953-.984-.086-1.323.271-1.787.545-.479.054-.432-.252-.993-.137-.073-.627-.243-.785 0-1.36-.999-.149-2.715.03-3.774 0-.27.039-.164.338-.2.541h-1.588c-.558.237-.186.36-.2.82-.311-.06-.168-.429-.794-.275-.202.088-.206.315-.595.274.084.215.624.117.396.545-.607-.1-.583.235-1.192.135-.707-.558-1.954-.747-2.185-1.632h-.793c.083-.286-.138-.364-.199-.547-.739-.142-.39.46-.794.547-.697-.115-.81-.628-.795-1.227-.961-.113-1.47-.534-1.788-1.087.067-.454.81-.445.793-.956h1.392v.682h.597c.185-.872 1.003-1.306.794-2.452 1.353-.57 3.688-.468 4.766-1.223.442-.077.283.26.597.271.916-.589 2.863-.032 2.782-1.499.997-.133 2.38 0 2.381-.815.341-.052.377.105.399.27 1.103-.468 3.31-.182 4.171-.815 1.807.296 3.148-1.162 4.174-.137.17-.746 2.289-.155 2.582-.817 1.443.54 2.841-.585 4.766-.543zM167.102 79c-.143.416.202.494.199.814.869-.66 4.026-.605 4.57.406.525-.182.93-.45 1.39-.677l.245.092c.83.303 2.157.672 2.732.315-.028.142.044.258.2.27 4.294.344 9.001-.037 13.703 0 3.328.029 6.821.207 10.132.273 1.167.022 3.668-.111 5.362 0 .442.028.271.224.595.27 1.388.197 4.018-.302 4.77.542-.902-.153-2.729.325-2.982-.27-.187.231-.624.295-.992.406-1.875.098-4.174-.783-5.56-.136-2.402.128-5.08-.142-6.754.406-5.86.268-10.906-.167-15.891.543-.46-.35-2.274-.742-2.183.274-1.324-.28-1.837.009-3.376 0-.331.271.593.275.593.27-.035.301-2.149.832-2.184.136l-.257.25c-.211.21-.407.433-.539.699-.673.008-1.088-.16-1.39-.406-.187.23-.624.295-.992.406v.812c-.836.21-.03-.7-.595-.676-.454-.016-.549.212-.581.484l-.016.19-.035-.072c-.326-.62-1.01-.123-.758.618-.825.34-2.246.275-2.184 1.222-1.309-.125-1.924.222-2.584.539-.798-.357-.64-1.094-.992-1.624-.359-.544-1.251-.956-1.192-1.63-.847.009-1.144.396-.992 1.086-.314-.238-.484-.573-.796-.813.037-.156.2-.075.197 0 .537.091.387-.281.6-.41-.3-.538-.895-.17-1.392-.405-.05-.688-.614-1.026-.994-1.493-.862-.05-.305.655-.597.68-.894-.16-1.278-.661-2.582-.543 1.43-1.198 5.436-.204 6.158-1.628.54-.098-.142.64.398.542.465-.224.882-.48.992-.948 1.713.084 2.427-.512 4.172-.406.285-.032.07-.405.395-.408l.54.138c.512.127.957.187 1.447-.138zm-96.276-2.99c.809.72 2.146 1.083 4.228.947-.23.607.81.359 1.21.544.288-.032.068-.408.4-.408.936.635 3.284-.595 4.429.27 1.66-.663 4.497-.312 6.646 0 .612-.167-.221-.466 0-.811.895.028.906.65 2.014.541.001-.396-.934-.459-.404-.814 2.654.337 5.663-.006 7.651 1.222-.012.22-.995.758 0 .81-.342.428-.935.17-1.609.137l-.166.125c-.617.454-1.332.841-2.855.685-.443.338-.538.902-1.009 1.22h-3.22c-.043.647-1.038.656-1.006 1.354-1.63.104-2.782-1.512-4.026-.407-.542-.22-1.106-.43-1.814-.542-.435-.022-.093.481-.202.68-1.715-.074-2.016-.301-3.623 0-.885.605-.684 1.404-.603 2.437-.467-.14-.418-.626-.404-1.085-.424-.121-.65-.377-1.007-.542-1.651.364-1.918-.235-3.22-.405-.546-.097.144.638-.404.542-.773-.384.044-1.623-1.21-2.032-.678-.054-.314.599-1.204.405.425-.508.12-1.431-1.01-1.625.002-1.265-1.03-1.833-1.408-2.842 1.737.176 2.202-.507 3.826-.406zM46.208 69c.258.281.63.48.792.827-.19.424-.735.594-.594 1.246h-.792c-.082 1.37-1.557 1.766-1.382 3.315-.603-.098-.72.142-1.185.139.15.75-.314 1.07-.198 1.795-.622.16-.482-.218-.792-.277-.435.02-.082.586-.196.83-.822-.536-2.02-.493-1.975.552-1.232.338-3.012.29-3.755.968-1.62-.539-2.878.764-4.743.14-.36.25-.91.375-.789.965-1.884-.21-1.79.958-3.755.692-.124.464.255 1.284-.196 1.52-.786.133-.083-.772-.792-.693-.232.024-.166.253-.197.414-1.803-.245-1.92.685-3.557.554.052-.405-.446-.425-.394-.829-.802-.19-.626.299-1.186.275l-.09-.07c-.4-.285-1.543-.871-1.49-.483-.17.026-.187-.051-.199-.135-.006-.136-.241-.11-.396-.14.05-.149.393-.094.396-.277-.295-.16-.483-.397-.988-.414-.087-1.227-1.961-1.206-2.173-2.346-.062-.189-.495-.117-.792-.14.202-.739-.27-1.008-.79-1.242.393-.079.326-.666.594-.83.809-.496 2.547-.164 2.963-.968 1.206.272 1.274-.07 2.173-.275-.059.32-.386.57 0 .827.765.076.965-.245 1.778-.139.448-.194.165-.897.99-.827v1.105c.485-.35.31-1.163 1.383-1.105v.827c.683-.667 1.66-1.134 2.767-.827.463-.41 1.17-.656 2.369-.553.233-.02.168-.252.2-.415 1.627.27 1.996-.781 3.16-.414.267-.043.163-.346.197-.552l.814-.14c.466-.079.826-.126 1.359-.135-.086-.263.27-.834-.395-.692.116-.628 1.888.414 1.779-.552.991-.091 2.513.19 2.569-.555.894-.101 1.807-.017 2.568-.139.255-.04.042-.216.197-.273 1.547-.571 3.22-.032 4.743-.276.029-.007-.022-.252 0-.278zm-80.44 10.318h-.537v.364h.538v-.364zm22.202-2.978v.32h-.94v-.32h.94zm25.648-.679c-.09.306-.3-.102-.236-.322.088-.306.3.102.236.322zm-4.65-12.51c.21.525-.687.659-.788 1.094-.055.234.352.518.393.409-.183.475-1.097.975-.788 2.051-.9.335-1.37.968-1.184 2.05-.297.207-.596.411-.988.549v1.365c-1.759.061-2.62.739-4.149.958.088-.47-.077-.766-.197-1.095-1.273-.06-2.314.04-3.158.275-.095 1.3-1.925 1.404-3.555 1.642-.45.46-1.083.798-2.171.819-.503.062.2.96-.792.684.203.776-.246 1.102-.987 1.23-.093.292.281.26.593.271-.357.12-.619.3-.79.547-2.017-.431-4.532-.676-6.715-.272.107-.577-.633-.564-.788-.956-.628.686-1.339-.266-2.372-.137l-.006-.133c-.026-.346-.144-.629-.782-.55-.023-1.17-1.47-1.352-1.58-2.46h-1.383c.227-.432-.31-.334-.395-.548-.093-.292.281-.26.593-.275.116-.443-.136-.635-.198-.956-.395-.046-.618.027-.592.275-.22-.577-1.26-.587-1.185-1.369 1.333.11 2.622-.044 3.751-.41.614-.01.59.412.595.821 1.531-.351 3.305-.535 4.342-1.23.561-.023.387.46 1.185.273.201-.09.206-.315.594-.274-.005-.132-.242-.105-.394-.137-.27-.4.934.16.986.41.457-.373 1.596.12 2.173-.273.518.382 2.046.382 2.565 0 .641.012.638.47.99.685.419.062.375-.197.394-.411.29-.062.71.081.988 0 .281-.084.008-.315.196-.411.49-.247 1.59-.06 1.775-.547.738-.143.314.513.988.412.216-.034.134-.271.396-.275.084-.378-.736-.129-.788-.409.642-.813 1.77-.501 2.961-.82.158-.474-.295-.527-.198-.956.527.046.693.341 1.184.409.293-.117.287-.442.396-.684 1.47.06 1.598-.809 3.159-.681.231-.024.168-.25.198-.413.862.097 1.112-.233 1.975-.136.366-.022.12-.464.394-.545 1.025.066 2.452-.15 3.16.134zM20.735 74.34v.32h-.47v-.32h.47zm93.024-9.975c.292.02.713-.21.622-.265l-.027-.01c.299.051.03.354.2.409.418.137 1.603-.205 1.79.411.54.097-.143-.643.396-.545.614.08.48.67.797.953.528-.049.67-.356.797-.682l.364-.01c1.29-.028 2.71.03 3.214-.536.458.232 1.076.354 1.99.275.099.513 1.764.814 2.184.27 1.106-.028 1.439.47 2.788.275.103.108.204.22.198.408 1.788-.284 3.264-.117 4.375-.682 1.001.477 3.72-.657 4.572.274.723-.616 1.437-.254 2.386 0 .603-.17-.216-.47 0-.82 1.17.517 3.622.151 5.17.409l.16.204c.178.229.326.476.24.886-.695.207-1.279.49-2.189.547-.645 2.147-2.651 3.361-4.375 4.768-.611.103-.24-.467-.993-.27-.61.353-.888.935-1.393 1.362-.755-.437-1.628-.79-2.783-.955-.523.581-2.968.202-4.375.547-.789.193-1.076.57-1.592.953-1.993-.115-2.89-.337-4.772 0-.654-.445-2.023-.008-3.183 0-.23.022-.166.25-.198.408l-1.087.044c-.935.029-1.662-.016-2.295-.452-.56.298-1.78-.16-2.781-.27.214-.74-.537-.815-.399-1.5-.73-.23-1.545-.395-2.185-.683l-.035-.167c-.114-.495-.333-.916-1.159-.924.064-.772-.672-.993-.6-1.77-.59-.12-1.21-.617-1.588-.138-.318-.508-.81-.897-.993-1.5 1.48-.03 2.42-.43 3.181-.953l.637.01c.994.005 1.888-.056 2.146-.556.527-.298.204.232.795.275zM242.007 58c.561-.024.464.414.993.414l-.091.543c-.019.093-.043.188-.106.424-.65.07-.42-.687-.993-.278-.688.76.78 1.206.396 2.215-.2.09-.206.318-.595.277.327 1.988-1.096 3.167-.993 4.842h-.991c-.358.833-1.261 1.632-.993 2.49-1.113.283-1.664.962-2.782 1.242-.224.294-.074.404-.396.83h-2.78v-.414c-1.291.306-2.274-.273-3.373-.138.163-.39-.282-.359-.2-.692-.454.55-.41-.055-1.19 0-.284.172-.377.476-.397.83-1.664.203-3.736-.041-4.368-.968-.723.042-1.291-.022-1.787-.137l-.114-.36c-.111-.33-.282-.617-.877-.61-.093-.58.1-1.362-.597-1.52-.093-.582.101-1.362-.595-1.522-.046-.706.158-1.586-.993-1.521-.297.057.079.177 0 .414-.796.136-1.194.136-1.984 0 .134-.557-.193-.79-.201-1.246 2.475.203 2.901-1.02 5.558-.69.447-.06.081-.68.2-.968.402.04.53.275.795.414.436-.017.084-.587.197-.828 1.816.25 2.154-.53 3.572-.553-.387.734 1.187.094.796.828.583-.485 1.317-.172 1.586-.692 1.019.214 2.133 1.706 2.98.417.604.084.566.62 1.589.414-.128-.142-.457-.144-.396-.414l.389-.065c1.67-.292 3.133-.73 3.58-1.875.43-.022.09.493.198.694.276-.732 1.799-.593 1.986-1.383.457.375 1.114.607 2.183.553l-.163-.061c-.336-.134-.683-.33-.233-.631.718-.132.202.598.595.692.625-.025.67-.455.595-.967zm-257.24 10.32h-.535v.359h.536v-.36zm-18.153-9.18c1.155-.056 2.337-.267 3.222.305l.145.103c.235.186 1.196.362.99.683l-.462.06c-.722.102-1.353.27-1.319.893-1.305-.31-.839.604-1.783.544.253 1.626-1.103 2.145-.992 3.675-1.85.091-1.505 1.69-3.366 1.773-.371.24.234.396-.2.678-.254-.184-.857-.133-1.386-.133.12-.491-.603-.403-.593-.82-.187.375-1.221.16-.99.82-1.535.12-3.023-1.004-3.765.133-1.095-.345-2.062.457-3.366 0-.067-.815-1.317-.819-2.178-1.088-.023-.338-.372-.42 0-.68-.242-.198-.757-.206-.99-.41-.633.13.052.982-.397 1.5-.174-.47-1.617-.071-1.386-.819-.897.071-1.427-.108-1.585-.546-.681-.056-1.11.055-1.584.137.03-.384-.596-.317-.596-.679-.753-.095-2.442.415-1.584.542-.784.45-1.621-.82-2.377-.408-.365.612-1.692 1.71-2.573 1.091.05-.28.876-.032.79-.408-.741-.216-.913-.825-1.584-1.09-.639-.17-.15.44-.792.273.019-.423-.597-.407-1.19-.41l-.057-.132c-.178-.362-.475-.647-1.328-.547-.104-.503-.567-.753-.197-1.229 1.374-.165 2.123.087 2.772-.543 1.88-.238 2.89.601 4.16 0 .64.014.422.618 1.385.41.27-.042.167-.342.199-.545.755.365 1.717.308 2.577.545.143.04.38.374.593.41.803.126.505-.518.99 0 .55-.033.56-.436.988-.547.485.262 1.66.132 2.18 0 .12.418.481.668 1.19.68.645.037.573-.423.99-.543.925-.026 2.055.726 2.575.133.64-.167.151.444.792.276l1.155-.329c.927-.26 1.899-.488 3.201-.49-.126-.526.816-.21 1.39-.543.156-.092.235-.152.273-.188l.018-.02.007.008c.035.028.154.061.49.063.495 0 .855-.746 1.388-.407.357-.574 1.068-.904 1.388-1.5h.99c.26-.456 1.36-.336 1.583-.818.17-.022.187.054.199.137zm129.21.12c.67.042 1.825-.263 2.176.275l-1.053.014c-.688.011-1.102.032-1.911.123-.123.538 1.086.16 1.58.272-3.136.651-8.332-.112-11.07.818-.607.185.37.61-.198.823l-.482-.017c-.799-.022-1.522.01-1.495.563l-.944-.005c-.938 0-1.795.057-2.019.55-.67.064-1.077-.09-1.583 0l-.204.04c-.519.115.104.116-.784-.04-.423-.077-.658.052-1.187 0-1.67.528-3.807.736-5.929.955-.564.521-1.292.93-1.976 1.368.197-.504.01-1.268.79-1.368-.26-.412-1.154-.387-1.58-.682v-.955c-1.644-.053-2.67-.525-3.955-.82.676-.777 2.476-.295 2.966-.959 1.689-.06 3.065-.338 4.942-.271.985-.593 3.564-.087 4.546-.684 6.808-.3 13.09-.392 19.37 0zM239 59.139v.724l.392-.054c.354-.054.657-.143.601-.492-.467.04-.547-.203-.993-.178zM60.773 48c.45.395.07 1.35.194 1.965-.9-.125-.448.657-1.37.524.144.62-.61.638-.586 1.178-.412.117-1.168.005-.977.522-.68-.104-.753.195-1.37.133-.347.973-1.95 1.209-3.33.784-.622.283-.8.863-.978 1.442-.793.18-.618-.283-1.175-.262-.487.675-1.736.846-2.936 1.047-.184.472.772.183 1.176.262.26.269-1.844.07-2.547.132-1.418.682-4.414.033-5.284 1.31l-1.707.207c-1.247.155-2.45.342-3.38.708-.976.044-1.83-.06-2.545.26-.14.064-.273.363-.392.396-.553.14-.97.106-1.387.208l-.18.052c-.524.187-1.108.083-1.761.132-.469-.776-1.65-1.079-2.543-1.573-.086-.857-.91-1.223-1.96-1.44-.773-1.226-2.01-2.145-2.739-3.404-.334-.212-1.122-.12-.979-.653.102-.46 1.295-.185.98-.917.755.068.955-.233 1.761-.132.93-1.21 5.176-.203 6.851-.916 1.267.275 3.456.11 5.088-.132.39-.058.312-.151.588-.262 2.419-.185 4.578.083 6.656 0l.553-.022c.822-.039 1.704-.125 2.186-.501.435-.072.279.25.586.262 1.27-.723 4.58-.08 5.874-.786 2.24.049 4.671-.143 6.263-.132.281.03.068.394.393.394.74.018.405-.69.977-.786zm137.122 3c.268.04.164.325.196.516 2.169.239 4.46-.248 5.757.386.394-.269 2.054-.47 2.383 0 1.413-.804 3.923.169 5.359.132-.066.3.03.494.195.644.753-.112.755-.715 1.985-.514-.143.35.395.258.396.514l1.068-.068c.507-.035.977-.081 1.713-.191.297.883-.748.89-.794 1.55-.177-.1-.448-.138-.795-.13-.51.033.273.22 0 .516-.844.134-1.219 1.055-2.18.386-.646.829-.712 2.034-1.984 2.454l-.02-.167c-.03-.354.043-.642.416-.737-.13-.133-.457-.135-.396-.386-.368.149-.139.683-.996.516-.06-.298.574-.143.596-.39-.504-.059-.561-.407-.794-.644-.699.19-.47.986-.594 1.547-.814-.01-.4.777-1.39.646v-.903c-1.147-.186-.496.795-.993 1.034-.595.13-.353-.29-.395-.516-.622-.06-.888.11-.795.516-.991-.243-1.628.018-2.777 0-.25.611-1.704.44-1.59 1.289-.539-.079-.777-.354-.793-.774-1.632.404-2.018-.738-4.168-.385l.02-.184c.125-1.347-.197-3.28-2.797-3.172-.354.527 1.346.444 0 .517-.061.337.414.332.792.385-.834.915.745 2.175-.792 2.454v-.907c-.206.128-.403.258-.597.39-.76-.259.309-.951-.595-1.163-.612-.097-.24.447-.99.26-.247.417.641.096.395.513-.61-.095-.242.445-.994.261.723-.482-.216-.482 0-1.29-.113.44-.593.643-1.586.516-.271.563.769.272.595.774-1.055.132-.954 1.013-1.983 1.159-.243-.63.684-.5.594-1.03.078-.312-.905.07-.594-.39-.555-.056.155.707-.398.646-.516-.265-.683-.758-.993-1.159-.288.284-.93.341-1.587.386.448-.199.448-.319 0-.516-.25.215-.514.7-.993.386.172-.399.674-.383-.396-.386.312-.098.297-.412.794-.386.639-.114.271.425.794.386l.186-.048c.283-.082.69-.24.211-.338.044-.188.592-.047.595-.26-.462-.341-1.068-.205-1.786-.128l.094-.06c.212-.122.448-.229.304-.584-.496.064-1.199-.007-1.192.384-.71-.18-.662-.47-1.587-.255-.193-.684 1.17-.36 1.19-.904.44-.073.282.246.596.257.425-.154.462-.56.792-.773.66-.09.32.265.2.387 1.487.224 1.445-.903 2.778-.387l.273-.26c.509-.47 1.075-.903 1.91-1.158.183.505-.69.323-.397.902.92-.18 1.448-.609 2.58-.647.085.248.567.235.398.647 1.667-.378 2.629-1.216 4.564-1.42.167-.32.632-.449.992-.646zm-2.653 7.741v-.482c.688-.236.688.718 0 .482zm-7.127-2.476c-.233.364.876.67.799.353-.419-.016-.21-.454-.8-.353zm-.348.059h-.534v.352h.534v-.352zm.6 0c-.072.24.164.692.265.352.073-.242-.165-.692-.264-.352zM46.766 55.32h-.53v.358h.53v-.358zM186 53.17c-.373.176-.308.776-1 .644.311-.236.441-.648 1-.644zm-34.714-11.052v.396l.423.03c1.16.088 2.547.242 3.336-.164.975.6 2.962-.237 3.564.661h2.375c.345.768 1.638.133 1.98.79.44.075.283-.25.594-.262 1.565.185 3.418-.192 4.752-.133l.292.014c.458.025 1.033.09 1.093.38 3.235.132 5.946-.03 9.107.266l-.13.24c-.2.365-.142.271.328.683-1.572.05-2.47.552-3.762.79.31.1.297.418.792.394-.888.201-.557 1.211-1.782 1.186-.365.02-.12.447-.395.53-.955-.068-1.607.07-1.584.656-1.457-.048-2.074.466-3.167.66-.269.04-.165.33-.2.527-1.884.414-4.208.535-5.54 1.317-.08.315.899-.072.593.395-.98.038-1.15-.463-1.784-.657-1.361.19-1.957.891-3.165 1.184-.891-.156-1.17-.715-1.19-1.45-.74-.007-1.367.055-1.78.266-.349-.034-.451-.227-.396-.528l-1.174-.066c-1.431-.083-2.83-.187-3.973-.461-.835.425-1.814.538-2.77.394-.091-.555.277-1.416-.397-1.581-.78.673-.108 1.504-.395 2.504-.61.099-.242-.453-.99-.262-.36-1.63-.335-3.24-.397-4.614-1.336.165-.477 1.885-.593 2.637-.86-.133-1.098.146-1.584.262-.76-.328.28-1.857-1.188-1.713.126-.56-.175-.866 0-1.316.122-.32.595-.332.395-.923-.148-.447-.315-.218 0-.792-.853-.17-.244.63-.99.528.085.207.623.112.398.526l-.167-.005c-.217-.003-.4.015-.426.14-.3-.813-1.2-1.225-1.389-2.111.738-.14.313.494.992.395.267-.038.163-.33.196-.524 1.024-.07.799.694 1.586.789.294-.287.206-.829.593-1.055h1.584c.232-.022.168-.24.196-.396.885-.113 1.633-.319 2.772-.265.668-.447 2.308-.448 3.367-.262zm-30.246.969c.53.076 1 .566 1.96.545-.538.531-2.233.33-3.528.546-.145.022-.9.41-1.569.409-.005.32.338.403.197.817l-.17.007c-.983.022-2.646-.212-1.988.54-1.26-.24-.934.626-2.157.409.442.329.533.903 1.764.683.146.466-.721.227-.785.546-.25.629.996.217 1.178.547-.237.88-2.24.534-2.551 1.363h-1.176c-.228.024-.165.25-.196.409h-1.567c-.375.76.742.483.786.956l-1.404.01c-2.052.019-3.572.059-5.656.127-.207-.95-2.57-.398-2.748-1.365-.211.445-1.375.223-2.156.272-.123-.641-.87-.846-1.567-1.092-.241-.56-.338-1.219-1.177-1.365-.413.041.283.367-.196.548-.825-.702-2.466-.832-3.334-1.502.894-.107 1.452-.442 2.55-.408l.352-.29c.547-.442 1.156-.841 2.391-.802.054-.464 1.013-.298.981-.819 1.507-.262 3.175.078 4.51-.274.112-.027.176-.27.196-.272l.672-.1c.79-.115 1.686-.226 2.272-.17.35.03.442.276.782.27.543-.008 1.27-.223 1.96-.27 1.352-.1 3.412.267 4.12-.275 1.996.462 4.895-.338 7.254 0zM-44.864 39c.124.346.751.36.78.77.583-.085-.188-.273 0-.512.889.096 2.038.024 2.336.513.63.157.148-.417.778-.258-.086.368 1.141.376 1.558.258.366-.104.071-.599.586-.387-.116.333.076.462.583.387-.34.994.953.91.584 1.92.706-.218.418-1.09.779-1.536v1.153l.008.108c.005.14-.02.259-.202.275.1.192.288.325.389.513h.974c.385.175-.061.895.584.897.134-.338.458-.55.972-.639.28-.164.119.578 0 1.023-.815-.016-1.086.234-1.751 0l-.248.167c-.298.208-.554.442-.531.86-.693.199-.117-.435-.585-.384-.728.325.411.486.196.897-.868-.038-.803.258-1.752.384.04-.225-.197-.642.388-.513.323-.916-1.057-1.034-.585-1.666h-.78c.062.446.299.487 0 .898-.933-.216-1.651-.016-2.336.258-.517-.513-1.653-.621-2.141-1.156-.313-.063-.55.095-.713.181.514.125.764.411.65.922h-1.353c-.629.394.674.413.678.416.042.128-1.552.47-.678 1.384l-.06-.015c.046.063.078.187.054.272-.067.222-.221-.075-.174-.233.014-.049.032-.073.052-.08-.094-.08-.097-.22-.325-.22-.26.023-.187.254-.222.416-.58-1.004.61-2.118 1.125-2.91l.017.005c-.016-.057-.024-.143-.025-.267h-.779l-.364.466c-.602.78-1.152 1.593-1.192 2.738-.769-.16-.58.304-.587.644-1.038.258-.465-.548-1.362-.384-.062-.427-.029-.79.39-.898-.047-.139-.389-.088-.39-.258-.288.057.077.165 0 .385-1.204.196-.624-.785-1.557-.77-.097-.402.351-.45.194-.896-.334.164-.392.513-.779.642.695.207-.152.342-.195.77-.779.04-1.08-.23-1.948-.131.12-.846-1.065-.835-.972-1.665-.928.392-1.753-.234-1.947-1.025-.884-.24-.266.51-.974.382.435-1.354-1.88-.505-1.95-1.28-.037.003-.6.562-.778.128-.253-.625-.231.106-.777-.258-.346-.227-.19-.9-.779-.769.061-.3.921-.075.779-.513.375.015.204.27.08.418l-.076.09.028-.028c.333-.274 1.838.22 1.524-.48.375.27.306.825.974.899.316-.305.385-.771.78-1.028.415-.057.37.185.389.387 1.644.184 1.429-.853 2.922-.77.025.232-.24.27-.195.512 1.025.035 1.956-.531 2.92-.129.182-.133.718-.036.584-.383 1.448.14 3.28-.346 3.894.258.605-.266.736-.26 1.169.125.265-.036.162-.318.195-.51.71-.039 1.267.02 1.753.127.071.218-.152.242-.39.258.033.15.355.108.585.125-.038-.528-.582-.726-1.169-.896.126-.13.448-.132.39-.384zM-38 45.13c-.445.094-.585.491-.746.87-.287-.127-.258-.57-.248-.995.358.016.814-.068.994.125zm-2.263-.036c.69.138-.306.408 0 .806-.622.048-.776-.222-.708-.644l.22.006c.248.002.457-.022.488-.168zM-43.801 45H-43l-.045.338c-.057.38-.191.713-.955.656l.125-.296c.079-.2.132-.415.074-.698zM35 34.32c-.367.836-1.83.706-3.187.548-.571.565-2.023.408-2.988.684-.21.06-.186.221-.198.41h-.995c-.142.509.34.589.198 1.096l-.631-.012c-1.14-.01-2.144.071-2.358.699-.31.576 1.106-.033.797.546-1.626-.206-1.967.471-3.187.55-.367.018-.12.46-.397.544-1.68-.058-2.767.292-3.189 1.097-2.332.177-4.609.393-6.97.546.939.852-1.921.905-2.987 1.235-.195.497.97.063.595.684-.877-.09-2.728.06-4.18 0 .314-.538-.518-.286-.598-.55-.46-.039-.221.397-.599.41-.806-.263-1.363-.704-2.789-.544.14-.463-.407-.45-.595-.686-.606-.052-.415.444-.599.686-.712-.196-.912-.743-1.194-1.235-.809-.05-.22.852-.4 1.235-1.537-.066-4.179-.777-4.979.272-.857.179-.63-.386-.996-.548-.617-.012-.594.414-.599.82-2.32-.18-1.93 1.506-3.782 1.645-.71.213-.122-.464-.6-.41-.511.15-.822.44-.795.958-1.959-.25-3.358-.886-3.586-2.327-.38-.24-.716-.514-.797-.958-.298-.161-.487-.396-.994-.412.062-.318-.034-.527-.2-.683-.03-.254-.675-.085-.798-.276.142-1.099-1.671-.859-1.394-2.053.807.19.63-.298 1.196-.276-.213.512.494.392.399.825 1.49-.64 3.5-.58 5.177-.275l.625-.193c1.36-.412 2.782-.776 4.555-.903 1.013-.946 3.861-.633 4.382-1.917.966-.146 3.046-.128 4.183-.548 2.794 1.021 6.4.1 10.556.274 2.348-.507 5.091-.444 8.366-.548 2.304-.607 4.053-.195 6.972-.41.215-.034.134-.272.4-.275 1.956.05 6.72-.26 9.16.275zM243.856 38c-.246.398.641.093.397.493.64.108.273-.407.796-.372 2.935.16 6.064-.448 7.951.74h-.018c-.181-.032-1.646-.394-1.175.494-.566.02-.389-.417-1.194-.25-.668.885-2.696.252-4.374.371v.372c1.077.212 2.496.358 3.38.982-.574.201-1.67.079-2.449-.058l-.334-.063c-.283-.06-.418-.018-.398-.248-.214.03-.135.245-.396.248.042.427 1.476-.014 1.39.493-1.023.18-.854-.375-1.789-.248.017.482 1.072.323 1.39.616-.181.626-2.055-.309-2.185.494-.582-.105.259-.313 0-.616-.732-.045-.832.306-.992.616-1.563.188-3.055-.708-4.174 0 .154.478 1.867-.01 1.589.738.958-.023 1.696-.416 2.585-.124-.194.168-.672.16-.797.368-.926-.587-1.012.416-2.582.124-.307.2.353.452.397.369-.241.442-3.456.528-3.578 1.231l-.423.027c-1.871.137-4.171.493-5.339-.271-1.196.53-1.345-.5-2.185-.863.204-.349.204-.513 0-.861l-.677-.248c-.74-.265-1.532-.494-2.705-.49-.696.032.501.456-.198.49-.622.142-.48-.191-.795-.245.444-.286.535-.927.198-1.355-.397-.04-.62.026-.594.248-.304-.88-1.414-1.26-1.79-2.096-.738-.005-.787.416-1.788.25.196-.579 2.165-.056 2.187-.743l.891-.048c1.602-.078 3.99-.14 5.468.172.071-.283.871-.117.795-.492 3.065.014 5.715-.234 8.742-.245.3.144.562.309.797.493 1.03-.35 2.552-.39 3.976-.493zm-104.121 6.178v.644h-.47v-.644h.47zM-49 44.313v.355c.37.528 1.105-.13.987-.528-.464-.041-.546.195-.987.173zm-.115-1.077h-.792c.04.206-.045.5.263.528.025-.278.675-.138.53-.528zm278.09-.977v.482h-.944c-.072-.426.492-.414.944-.482zm-218.004.081v.32h-.942v-.32h.942zM-38.43 41c-.198.229-.282.536-.57.7.251.06.836-.12.853.101.032.077.004.198.143.199-.049-.398.182-.994-.426-1zm266.331.237h-.802v.526h.802v-.526zm-271.005-1.914h-.792v.354h.792v-.354zm1.104-.264h-1c.278.333.35.808 1 .882v-.882zm270 .088c.076.809 1.233.568 2 .706-.394-.498-1.077-.715-2-.706zM179.198 27c.495.345 1.57.287 2.587.274-.082.28.137.358.2.544 1.997-.433 2.697.685 4.18 0 .182.502 2.06.577 2.19 0l.65.01c.932.01 1.807-.017 2.333-.284.279.083.032.524.399.545.598.137.353-.303.397-.545.96.482 2.597-.174 2.788.952.406-.865 1.521-.025 2.19.137.395-.095.455-.412.795-.544.48.258 1.6.084 2.387.137.343.657.858.378 1.793.544.143.308.175.693.397.953 1.174-.346 1.678.205 2.787.27.169-.246.512-.376.596-.68l.308-.01c.867-.025 1.657.003 1.883.42.657-.143 1.695-.02 1.989-.41.646-.17.154.44.798.273 1.575-.46 4.071-.824 6.169-.409.287.058.218.325.397.41.356.163.892.033 1.195.136.226.076.584.599 1.394.545l-.274.22c-.374.288-.797.545-1.52.596 1.088 1.053-1.243 1.165-.594 2.719-1.198.179-.565 1.61-2.39 1.36.671 1.382-1.274 1.868-1.394 3.131-.99-.09-1.099.428-1.59.682-.776-.06-1.179-.374-1.594-.682-.497-.023-.482.305-.795.408-1.157.111-1.53-.315-2.39-.408l-.206-.339c-.23-.362-.517-.687-1.186-.75.299.25.345.673.598.952-.427.3-1.465.178-1.394.819-1.376.121-2.057-.229-2.588-.682-1.259.656-2.606-.427-3.782-.683-.032-.79-.845-1.051-2.189-.951.1-.885-1.893-.339-1.59-1.36-.203.088-.208.313-.6.274-.348-.58-2.304-.057-2.388-.818-1.349.025-1.96-.248-2.786-.272v-1.496c-1.086.118-1.505.695-2.19 1.088l-.133-.095c-.367-.278-.685-.587-1.658-.449-.06-.548-.536-.813-1.194-.952.129-.659-.263-.965 0-1.36-.473-.132-.59-.506-1.394-.411-.176-.286-.005-.81-.794-.678v-.681c-.201-.317-.685-.44-1.395-.408-.06-.732-1.325-.637-1.59-1.224-.003-.323.341-.402.198-.818zM71.412 29.01c-.035.748 1.506.498 1.8.13.425-.062.38.184.398.386 2.508.126 5.136-.135 7.39 0-.585 1.682-1.521 3.142-3.595 3.866.463 1.54-.907 1.902-1.399 2.83-1.306.276-3.024.284-3.993.775-.526.038-.516-.27-.6-.517-.604.256-1.518.312-2.595.258-.156-.287-.42-.501-.399-.901-3.225-.412-3.82-2.516-4.794-4.378-.282-.108-.594-.198-.869-.31l-.014.191c-.001.031 0 .06.005.088h-.525c-.072-.242.114-.31.172-.462-.168-.106-.299-.237-.366-.408l-.183-.072c-.512-.208-.966-.454-.816-1.09 1.074-.086 2.318.39 3.195 0 .307.147.492.37.799.516 2.345-.162 3.613-1.017 6.39-.901zm116.83 5.73v-.482c.687-.236.687.722 0 .482zm-47.54-9.482l.411.054c.193.026.253.05.251.23 2.267-.61 6.067 1.252 8.386.252.978.475 2.293.608 4.19.751.242.526-.322.548-.398.876-2.218.07-3.747.572-5.39 1.001-.9.978-2.147 1.738-4.991 1.5l-.65.261c-.431.175-.845.36-1.147.618h-1.595c-.234.019-.17.228-.2.375-1.985-.417-2.858.939-3.593.5-.88.701-2.789.075-3.994-.124l-.046-.161c-.19-.611-.528-1.13-1.749-1.09.16-.52-.307-.644-.998-.627-.95.283.89.886-.199.875.061-.33-.418-.323-.798-.375.113-2.2-2.897-2.44-4.192-3.756.946-.823 3.688-.521 4.99-1.126.416.283 1.443.179 1.797.502.268-.038.164-.315.197-.502l.783-.014c.824-.007 1.57.035 1.814.39.901.064 1.525-.519 2.595-.626 1.242-.125 3.244.054 4.525.216zm-162.61-4.924c.236-.154.358-.392.995-.274 1.65.554 3.572.923 5.969.964.944.388 2.708.523 3.58 0 1.437.61 4.747-.074 5.773.824.732-.732 3.256-.252 3.78.411.644.171.152-.442.796-.273l.271.088.164.058c.372.144.659.347.56.816-2.31-.038-3.61.624-6.168.412-1.105.476-1.683 2.15-3.384 1.375-.778.335-.952 1.085-2.588.827-.312.058-.169.432-.795.274-.099.528.692.437.397 1.102-.9.177-2.067.169-2.187-.55-.629-.067-.705.247-1.394.138-.115.24.241.806-.198.823-.7-.066-1.191-.276-1.195-.823-.961-.147-1.103-.045-1.989-.139-.442.703-1.941.674-2.387 1.376-.955.108-.935-.456-1.793-.414-1.842 1.376-5.628 1.214-8.159 1.1-.394.093-.455.42-.794.551h-3.583c.036-.601-.649-.707-.2-1.237-1.618.292-1.447-.65-2.985-.414-.005-.323.343-.403.2-.823-.545.933-.374-.385-.4-.964-.93.352-.897-.072-1.39.274-.72-.052-.502-.754-1.594-.55-.412.035-.056.606-.399.69-.747-.54-.77-1.577-.995-2.478l.225-.027c.479-.065.885-.182.97-.523l.3-.008c.75-.006 1.582.044 1.493-.542 2.7.172 3.199-1.18 5.77-1.1.215-.035.136-.274.398-.274 1.71-.012 2.932-.357 4.775-.277-.005.135-.241.106-.399.139.51.206 2.016-.07 2.19-.552.791-.048 1.974.174 2.189-.274 1.541.135 3.42-.365 4.18.274zm-9.325 4.984h-.534v.364h.534v-.364zm135.936-10.034c-.017.544.727.531.795 1.014 2.879.776 7.318-.002 8.949 1.306.635.126.27-.48.794-.436 2.738.447 5.98-.124 8.75.146.352.034 1.84.382 2.385.58.11.04.52-.063.598 0 .177.15.165.454.993.288.231.309-.814.1-.993.146-.387.109-.547.481-.996.58-1.118.251-2.383-.181-3.777 0-.563-.02-.499.411-.796.58-1.622-.071-2.831.161-3.777.583-1.987-.235-2.727.167-3.779.868.247.593 1.901.162 2.187.726-1.03-.099-2.619-.038-3.777 0 .214.863 1.313.991 2.188 1.016-.252.833-2.712.054-2.984.869l-.435-.006c-.857-.003-1.604.073-1.753.588-.344.735.863.337.797.868l-.618-.12c-.941-.188-1.794-.44-1.768-1.33-.687-.063-1.116.057-1.592.146-.883-.517-1.17-1.469-1.987-2.03-1.537.604-3.281.183-5.17.433-1.002-1.055-3.573-.441-4.774 0-.89-.319-.8-1.347-2.188-1.304v-.582c-.05-.3-.872-.04-.993-.288-.498-1.762-1.933-2.845-2.982-4.205.94-.137 2.286.023 2.784-.436l.35.141c.464.176 1.173.373 1.24-.141 1.14.511 1.272-.022 2.584.29 3.19-1.083 6.05-.303 9.745-.29zm125.392.723c1.54-.022 2.797 1.078 4.222.28 2.146.538 3.202 1.618 5.427 1.788.483-.868 1.132.827 2.412.69.505-.137-.55-.343-.604-.552 2.077-.64 2.435 1.086 4.22 1.104-.145.422.348.404.2.826-1.76-.334-1.44.756-2.813.69-.186.54.7.347.403.965-1.452.027-2.509-.213-3.417-.553-.443.017-.085.584-.2.827.125.282 1.013.039.803.55-.597.394-.814-.25-1.207-.412-.527-.04-.157.534-.803.413.011-.236-.147-.358-.402-.413-.472-.003-.59.236-1.206.139-.116.447.136.64.201.964l-.248-.02c-.966-.05-.58.286-.757.706-1.353.044-2.065-1.392-3.014-.413-1.493-.683-3.935.673-4.22-1.376-.848.108-1.366.438-1.81.825-.653-.332-1.542-.501-2.813-.412.006-.42-.705-.344-1.207-.413-.154-.125-.215-.311-.2-.55-1.35-.086-1.312-1.122-2.413-1.379-.343.454-.896.762-1.203 1.24-.495-.629-.713.126-1.61 0 .178-.903-.27-1.377-.602-1.93-.491.445.113 1.64-.602 1.93-.002-.259-.901-.96-.203-.827-.002-.41-1.488.193-1.203-.413-.388.055-.16.534-.804.413l.007-.116c.005-.15-.022-.278-.21-.297-.427-.063-.383.197-.403.413-.234-.023-.167-.25-.2-.413-.998-.226-.64.48-1.406.413.215-.71-.872-.365-.805 0-.396-.416-1.06-.65-1.405-1.103.75-.684-.324-1.087.401-1.929.48-.084 1.457.173 1.608-.138.56-.06-.156.751.4.69.43.063.385-.197.403-.413 1.61-.324 3.479.301 4.422-.551.632-.16.488.217.806.274.235-.02.165-.25.2-.413 2.1.134 4.264-1.154 6.229-.139.436.026.092-.487.201-.686l.418.263c.209.133.412.27.587.423.562.098.848-.684.403-.825 1.137-.549 3.116.675 4.017-.14zM49.32 14c.172.505.931.622 1.406.926 2.107-.26 2.977.44 5.022.53.069-.267-.04-.414-.402-.397.141-.39 1.378.641 2.612.398-.423-.117-.348-.564-1.003-.531 2.144-.352 4.505.294 6.025.796.65.164.154-.43.806-.265.732.355 1.85.457 3.214.394v.665h-1.408c-.3.77-2.359.385-2.612 1.189-.458-.108-.703-.36-1.44-.285l-.165.022c-.445.016-.087.56-.203.792-1.571-.76-4.228.064-6.026-.53-.054-.016.043-.23 0-.262-1.977-.196-4.395-.106-6.028-.53-.755.505-2.154.19-2.813-.133-.529-.04-.66.182-.602.53-1.32.185-1.6-.024-2.813-.132-.516.365-.698.952-1.004 1.455-.602.18-1.395.23-1.405.796-.468.04-.773-.023-1.007-.133-.9.287-.036 1.74-.602 2.249-1.038.31-1.222-.015-2.612.266-.471.469-.128.765-.806 1.19-.433.022-.088-.47-.2-.66-.743-.114-1.903-.1-2.209-.133-.648.118-.283-.434-.602-.53l-.2.007c-.49.01-.886-.04-.805-.405-.767-.107-.237.638-1.005.531-.615-1.226-1.769-2.1-2.61-3.178-1.858.296-1.34-.972-3.015-.794.09-.898-1.612-.614-1.808-1.322.491-.517 1.21-.88 2.612-.794v.527l.784.012c.551.002 1.022-.05 1.024-.41l.298.03c.684.06 1.483.052 1.51-.557.724.337.844-.326 1.407-.398 1.259-.158 2.728.457 4.02.53.288-.03.068-.394.4-.397.512.13.84.467 1.205 0 .602-.21.126.302.803.265.22-.012.509-.257.403-.265.191.015.182.219.4.265.704.141 2.693.046 2.814-.265 1.561.015 2.936-.094 3.817-.53 1.018-.08 2.66.254 2.612-.529h2.21zM1.806 21.37c-.144.313.271.345.181.63C.825 21.918.144 21.598 0 21.01c1-.077 1.063.31 1.806.36zM2 21c.094.572 1.089.236.994 1-.664 0-.945-.384-.994-1zm2.975.466v.32c-.758.142-.322-.528-.942-.482-.1-.266.878.012.942.162zM209.117 18h.53l-.1.177c-.252.458-.438.93.453 1.025-.301.214-.186.748-.706.798l-.173-.54c-.134-.449-.185-.813-.004-1.46zM247 19.74c-.633.445-1.439-.337-2-.483.69-.492 1.179.546 2 .482zm-2.147-1.401v.322h-.706v-.322h.706zm-56.98-6.952c.765.212.389-.404 1.014-.296 1.221 1.028 5.297-.108 6.066.884 1.065-.829 2.58.175 4.047 0 .023 1.735-1.517 2.329-2.429 3.379h-1.012c-.364.518-1.234.672-1.82 1.028-1.288.106-1.132-.84-2.63-.586.03-.263-.245-.309-.199-.59-.738-.044-1.317.025-1.822.148.026.559-1.195.21-1.01.884-.963-.378-1.362-1.17-3.235-.884-.356-.428-1.119-.56-1.417-1.028h-2.224c-.237.025-.172.266-.205.44-1.037-.333-2.16.111-3.031-.145l-.25.176c-.508.344-1.093.634-1.976.705-.622 1.267-2.145 1.87-3.64 2.498-.434-.49-1.924-.586-2.63-.44-.076.25.156.277.407.294-1.11.506-1.627-.68-3.238-.294-.19-.696-.733-1.134-1.82-1.178.111-1.158-1.161-1.311-1.819-1.909.057-.4.739-.345.807-.736.728-.138.284.58.404.884.568-.049.85.07 1.216 0 .414-.084.841-.745.807-.737l.151.063c.273.106.858.278 1.266-.063.23.463-.32.36-.405.59l.452.154c.632.203 1.348.344 1.772-.155.199-.536-.986-.069-.605-.736 1.522.347 2.1-.188 4.041-.144.524-.65 2.798-.029 3.037-.886l.331.002c1.116.01 2.302.071 2.702-.442.597-.126-.47-.219-.203-.588 1.626-.564 3.936-.139 5.863-.292.273-.022.055-.25.207-.296.741-.219 2.866-.013 3.03.296z" mask="url(#prefix__b)"/>
    </g>
</svg>
