<svg xmlns="http://www.w3.org/2000/svg" xmlns:xlink="http://www.w3.org/1999/xlink" width="288" height="124" viewBox="0 0 288 124">
    <defs>
        <path id="prefix__a" d="M0 0H288V124H0z"/>
    </defs>
    <g fill="none" fill-rule="evenodd">
        <mask id="prefix__b" fill="#fff">
            <use xlink:href="#prefix__a"/>
        </mask>
        <use fill="#FE5252" xlink:href="#prefix__a"/>
        <path fill="#4F34C7" fill-rule="nonzero" d="M282.495 118.035c-.238 1.103.927.684.951.22.301.245.73.31.795.883.446.113 1.339-.396 1.11.66.503.11.058-1.093.633-.88.835 1.014 1.732.585 3.016.88-.127 2.034-.4 3.86-1.27 4.859-.59.232-.31-.744-.635-.884-.633.07-.517 1.187-1.427.884.07.347.5.185.316.88-.425-.15-.305.453-.474.664-.9-.296-1.746-.663-2.22-1.544-.32.66-.685 1.252-1.111 1.76-.91-.789-1.535-1.987-2.699-2.428-.394.629-1.048.903-1.11 1.99-1.075.125-1.51 1.135-1.745 2.426-.225-.018-.448-.036-.476.224-.984-.02-1.836-1.356-2.695-.224-.538-1.093-2.684.05-3.492-.66-.315.148-.362.672-.635.884.228.488.57.823 1.27.66-1.848 2.063-5.536 1.567-7.616 3.31.28-1.38 2.06-.67 1.746-2.87-.937.165-1.31 1.119-2.221 1.324-.187.034-.135.404-.16.663-1.112-.158-1.677.46-1.904 1.543-.915.269-1.908.437-2.696.883-.692.303-.334-.855-.95-.663-.756.35-1.068 1.315-1.428 2.209-1.52.55-3.118.347-4.285-.444-.688-.218-.881.25-1.269.444-1.92-1.743-5.285-1.474-6.979-3.53-1.463-.175-2.69.404-3.332-1.105-.958.166-1.742-.012-2.857-.22.014.346-.077.843.16.883-2.074.898-3.878-.487-5.87-.443-.116-.5-.605-.48-.635-1.104-1.224.194-1.978-1.18-2.854-.22.235 1.1.83.504 1.11.664.506.767-.823.32-1.268.44v-1.324c-.631.079-1.575-.274-1.746.44-.968-1.098-2.715-.029-3.332-1.324-.174.054-.11.44-.317.445-.649-.437-1.135-1.21-2.062-.66-.523-.012-.274-1.095-.952-.885-.259.092-.21.557-.03.788l.047.052-.148-.015c-1.13-.097-2.829.073-4.47-.165.486.519.061.13 0 .885-.87.05-.503-.622-1.108 0-.788-.676-2.05-.687-3.335-.66-.603.32-.03-.99-.635-.668-.504-.044-.685.367-.792.883-.546.176-.669-.245-.952-.44-.436-.095-.146.823-.478.885-.407-.597-1.105.323-2.219 0-.457-.588-.468-.423-1.11-.66-.23.045-.055.655-.317.66-3.22.262-6.23.335-9.2 0-.57.93-2.92 1.385-3.81.439-.6-.32-.303.607-.793.44.164-.639-1.877-.563-2.378-.44-.167.039-.386.439-.32.44-.14-.001-.149-.38-.315-.44-.53-.19-1.284.199-1.746-.216-.186.03-.134.4-.158.656l-.172-.133c-.317-.243-.659-.45-1.257-.307-.352-.123-.225.42-.475.44-1.602-.17-2.722.337-4.284.221-.854 1.313-2.045-.06-3.171-.22-.968-.137-2.054.664-2.7-.441-.865-.403-1.079.959-1.427 0-.821.793-1.66.761-2.854 1.324-.186.034-.134.404-.16.663h-1.586c-.113-.675.163-.804.16-1.326-.726-.542-1.184.342-1.746.663-.565.345-.095-.752-.476-.663-.509-.196-.218.732-.635.663-1.691-.036-5.105-.653-7.139 0-.555.177-1.41.775-1.426 1.546-.727-.125-.99.39-1.746.218-.507-.026-.526-.74-.952-.884-.787.455-2.365-.198-2.853.666-4.947-.097-8.977 2.371-14.126 1.982-2.21.891-4.981 1.83-7.294 1.322-.552-.03-.671.538-1.11.669-.465-.018-.468-.677-.795-.884-.818.13-1.7.784-2.535.215-.326.286-.958.143-.954.884-2.308.186-4.96-.02-7.772-.215-.41-.855-.938.258-.952-.444-.398.845-1.985.945-2.38 0-1.791 1.294-4.431.003-6.346 1.32-.481-.19-1.398-.947-1.746 0-.513.275-.12-.71-.637-.437-1.096.605-2.631.605-4.124.66-.35-.118-.222.423-.475.445-2.18-.217-3.78.905-6.027.215-.366-.062-.175.64-.476.669-1.54-.328-2.215-.488-3.174-1.551-1.604.075-3.128 1.4-4.441 0-.216.22-.206.746-.476.882-.615.196-.259-.959-.95-.66-1.389.86-2.347.73-4.285.883-.495-.046-.647-.569-.95-.883-.601-.32-.307.606-.796.445-.41-.6-1.375-.44-2.22-.445-.936-1.448-3.437-.767-5.075-.66.13-.477.817-.188.95-.662-1.252-1.021-3.086.024-4.758-.22-.353-.12-.225.418-.477.443-3.643-.01-7.32 1.053-10.313-.669 1.536.188 2.091-.992 3.174-.215.844-.712 2.122-.563 3.015-.444.352.048.214.355.477.444.799.273 2.091.205 2.854 0 .315-.082.239-.396.475-.444.686-.129 1.33.116 1.906-.218.566-.33 1.827-.865 3.013-.664.235-.092-.061-.283 0-.665 4.803-1.035 9.436-1.402 14.436-2.424.43.156-.115-1.042.319-.883 1.741.68 5.4.75 7.137 0 .319-.073.497.046.474.444.378-.533.785-.517 1.431-.444.349.042.219.323.476.444 1.914.882 5.793-.597 6.98.882.6-.05 1.435.231 1.587-.443.269-.08.298.172.313.443.785-.592 3.333-.568 4.922-.663 2.819-.17 5.747-.097 8.724-.22.418-.614 1.645-.614 2.063 0 .654.14.994-.945 1.376-.118l.049.117.048-.149c.206-.622.19-.164-.047-.954 3.866-.13 7.697-.123 11.742-.44.51.272.12-.718.634-.444 2.668 1.715 6.175-.313 9.2-.216.432-.653 1.29-.714 1.745-1.329 1.542-.06 3.194.034 4.126-.884 1.992-.197 3.387-.091 4.759-.878.059.375-.123.417-.32.44 1.224.338 2.52.284 3.65 0 .337-.083.225-.325.476-.44.784-.364 2.366.19 2.857-.664.464.155.469.746.795 0 .305.433 1.494.809 1.743 0 .485-.012.38.793.951.664.667-.762 1.91-.73 3.174-.664.216-.066.132-.55.158-.885 3.815.057 6.621-.861 10.947-.88 1.947 1.638 4.95.081 7.297.664.23-.053.057-.663.319-.663 1.408.12 2.364-.391 3.805-.221.352.12.228-.422.475-.445 6.648-1.141 12.617 1.276 19.674.445.35.12.226-.422.475-.445 3.815-.576 7.704-.273 11.74-.217 3.193.043 6.582-.217 9.836.217.351.053.214.363.476.445 1.55.476 3.357.008 4.918.22.349.048.216.35.476.441 1.137.39 4.285.017 5.71 0 5.99-.079 11.777 1.464 14.755-1.983 1.932-.013 4.903-.152 6.346-1.547 1.788-.153 3.065.315 4.124-.882 1.186-.276 2.676-.013 3.967-.442.29-.098.259-.408.476-.442 1.44-.223 3.493-.358 4.76 0 .221.062.435.41.633.442.43.074.355-.7.635 0 .228-.052.054-.657.317-.661.602.064 1.361-.095 1.557.534l.029.126.04-.095c.315-.579 1.842-.547 2.021.096.543.166.203-.899.795-.661zm5.39-29.357c1.677.42 3.152-.217 4.454.223.53.182.785 1.145 1.433.662-.055.811.808.354.637 1.331.842.257.494.363 1.272 0-.192.927.257.97.319 1.55-.613 1.506-1.36 2.826-2.385 3.757-.353.03-.07.94-.162 1.33-.79.448-1.27 1.334-1.432 2.651-.682.384-1.474.61-1.749 1.551-.9.007-1.49.44-2.07.885-1.122-.135-2.714.385-3.18-.663-.518-.275-.124.716-.639.44-1.15.045-2.196-.008-3.34.223-.218.045-.577.442-.476.442-.138 0-.162-.38-.322-.442-.993-.39-2.1.254-3.02-.223-.23.053-.055.665-.32.665-1.763.131-3.521.268-4.931.886-2.03-1.616-4.312.763-6.365.445-.638.995-1.887.135-2.707 1.1-.532.006-.422-.885-.797-1.1-.586.968-1.963.22-3.338.44-.621-.47-1.982-.932-2.39-.44-.294.353-1.772.503-2.548 1.548-.656.247-.616-.47-1.112-.447-.524.334.533.263.321.886-2.315.006-3.66.05-5.728.225-.57-.598 1.258.288.953-.664-.469-.348-1.817-.029-1.91.882-.691 0-1.432.07-1.908-.218-.325.064-.424.44-.638.662-1.763-.222-2.694-.57-4.614-.444-1.43.098-3.157.024-4.454 0-.32-.01-.486-.397-.8-.443-1.325-.192-2.949.181-3.656.887-1.789.309-3.67-.145-5.412.22-.342.07-.222.32-.476.443-1.04.51-2.727.457-3.66.442-.76-.012-1.882-.701-2.389 0-.454.636-.602-.629-1.43.444-1.398-.6-3.395-.85-4.932-.444-.305.079-.255.412-.48.444-.179.021-.41-.446-.634-.444-.266 0-2.031 1.133-2.548 0-.713-.326-.488.65-1.112.444.042-.828-.222-.014-.16 0-.163-.025-.097-.43-.159-.444-1.016-.21-2.785-.261-3.98 0-.339.076-.22.328-.475.444-1.172.533-2.846-.053-3.82.442-.192.099-.17.535-.318.665-.244.206-.97-.466-.637.437-.296-.61-.727.062-1.271 0-.242-.025-.296-.313-.636-.437-.854-.315-1.448.23-1.751-.887-3.233.131-6.832-.099-8.91 0-.188.037-.138.403-.16.664-1.384.068-2.614.347-4.138.223-1.43 1.06-3.447.032-4.775 1.324-.77-.254-2.293.535-2.544-.44-.3.024-.11.727-.478.661-1.95.084-3.706.456-5.09 1.327-2.22-.062-3.808.757-5.252 1.772-.604.321-.305-.609-.798-.441-1.13 1.374-2.913 1.848-4.93 1.99-.52.061-.337-.859-.798-.887-1.069.218-2.198.774-2.704-.439-1.236.45-2.778.338-4.296-.664-.515-.275-.122.713-.636.441-1.387-.975-2.87-.387-4.298-.441-5.825-.232-11.635-.007-19.094 0-.513-.275-.12.713-.634.441-.575-.427-1.709-.75-2.23 0-.432-.625-1.794-.625-2.228 0-.508.19-.605-.196-.795-.441-.672.242-2.073-.524-2.227.441-.655-.94-1.198.009-2.068 0-1.209-.833-2.648-.766-4.457-.663-.066-.5-.933.116-.637-.886-1.744.71-2.775-.84-3.5-2.21-.19.248-.288.628-.794.439-.78-.538-2.297-.675-3.183-1.324-.201-.15-.414-.632-.477-.665-.177-.098-.11.446-.16.442-.37-.03-.869-1.165-1.273-.664.013-.315.027-.624-.159-.664-.669-.268-.698.358-1.116.444-.073-.635-.643-.59-.953-.666-.801-.19-1.834-.198-2.704-.22-1.962-.053-4.045.71-6.368.22-.338.103-.303-.314-.317-.663-.426.29-.67.837-.954 1.33-.6-.054-1.44.228-1.591-.445-.379.34-2.03.832-3.022.886-1.628.09-3.566-.898-4.614.665-.422-.377-1.417.051-1.593-.665-.212.274-1.488 1-1.59 0-.238 1.143-2.007.159-2.23 1.327-.974-.27-1.529.106-2.544-.225-.421-.064-.412.464-.477.887-1.506.196-2.68.847-3.82 1.548-.328.054-.043.975-.317 1.11-1.607-.246-2.383.67-3.662.885-.682.152-.155 1.992-.794 2.212.03-.854.007-1.632-.159-2.212-.187.03-.283-.053-.318-.223-.82-.18-1.096.395-1.593.662-.48-.439-.791-1.112-.954-1.988-.63-.286-.324.726-.953.44.202-1.168-.262-1.405-.637-1.771v-2.874h.953c2.558-1.9 6.15-2.365 8.911-3.98 1.08.025 1.847-.387 3.025-.223.351.117.226-.423.475-.44 1.977-.26 4.147-.068 5.89-.445.33-.072.241-.276.477-.441.319-.074.497.044.477.441 1.636-1.146 3.566-.188 5.25-.664.794-.222 1.338-1.372 2.228-.887.353.126.227-.42.477-.44 3.296.263 8.026-.545 10.504.44.644.307.504-.473.954-.44.278 1.077 3.151-.152 3.66 1.105 1.076-.173 1.689.305 2.705.222.623.896 2.565.87 3.5 1.55.349.253 1.07 1.032 1.432 1.546.961-.008 1.714.27 2.228.887.688.22.881-.247 1.271-.444.469.974 1.15 1.648 2.388 1.549-.258 1.17.856.43.797 1.328 1.338.047 1.89.288 3.5.223.484-.084.27.802.637.885 1.041-.464 1.92.255 2.385-.448 2.922.41 6.024.052 8.592.448.244.034.306.439.321.439.15.015.134-.444.159-.44.16.016.102.43.157.44 2.52.373 5.643.221 8.116.221.961 0 2.107-.221 2.705-.66 1.605.649 3.529-.814 5.728 0 .273-.289.32-.885.637-1.108.47 1.124.664-.05 1.75.223.254-.61.051-1.85.638-1.993.73.315 1.101 1.122 2.067 1.106.229-.05.055-.664.318-.664 1.235-.272 2.473-.547 3.978-.442 2.003-.758 4.343-1.038 6.682-1.325.348-.044.508.18.477.662.218-.222.206-.75.48-.887.598-.05 1.438.234 1.591-.439 1.69-.394 3.362.188 4.774-.447.708-.315 1.85-.362 2.862-.66.32-.093.256-.26.479-.441 2.649-.374 5.596-.166 7.797-.445.268-.036.532-.441.477-.441.198-.007.92 1.173 1.273 0 4.698-.506 9.766.062 14.479-1.11 1.517-1.135 4.54-.18 6.048-1.326 3.611-.002 6.238-.275 9.865-.445.271.213.348.697.479 1.11 3.842.033 5.019-.254 8.91-.224 1.665-1.145 4.863-.17 6.524-1.328 1.54.155 2.595-.373 4.138-.221.351.127.226-.421.475-.438 1.12.215 2.892-.485 3.503.438.353.127.226-.421.476-.438 2.976.467 6.196-.726 8.274 0 .172.062.476.427.636.438.327.03.244-.434.321-.438.181-.02.355.89.637 0 2.801-.118 5.897.04 8.27-.447.307-.057.51.06.478-.44.56.53.49.615 1.434.44.634-1.11 1.675-1.346 2.702-1.325.278.007.915.623 1.751.446.346-.073.222-.347.477-.446.562-.22 1.27-.038 1.912-.22 1.166-.336 2.367-1.298 3.503-.887 1.617-1.143 4.767-.152 6.365-1.327 1.616.038 2.903-.383 4.61-.223.353.127.23-.42.48-.437 2.692-.167 6.041.582 7.478-1.328.399-2.546-1.247-2.25-.955-4.65.266-.367 1.161.143 1.114-.664.338-.1.303.32.318.663zm-59.597-12.655c.465.052.696.457 1.109.638.239.104.548-.084.794 0 .203.07.25.393.477.425 1.01.147 2.284 0 3.328 0 3.421.008 7.052-.468 10.464 0 .35.05.22.339.478.43.924.317 2.116-.128 3.17.215.298.094.249.378.474.424 1.889.39 3.886-.023 5.708.424 1.026.252 1.7 1.083 3.175.855.612.95 1.665 1.311 2.535 1.921-.333.668-1.436-.03-1.902.855-.514.265-.123-.692-.633-.427-5.778-1.104-11.176.28-15.859 1.282-.28.258-.835.15-.95.639-1.27-.077-2.38.065-3.012.852-.272.08-.301-.17-.32-.429-.238.6-1.062.48-1.904.64-.6.12-.432.586-.79 0-2.7 1.493-5.752.126-9.197.644-.34.096-.302-.308-.318-.644-.244.24-.33.697-.791.644-2.077-.18-3.774-.043-5.708.64-.527.067-.977.032-1.11-.43-2.222 1.225-5.975-.157-7.454 2.133 1.654.449 4.185.23 5.867 0-.75.803-2.053.793-3.171.855-2.229.13-4.819-.193-6.659.213-.47.582-.992 1.09-1.27 1.925-2.052.506-4.423.589-6.184 1.492-.41-.8-1.188-1.102-1.427-2.137-.834.516-1.993.597-2.377 1.71-1.208.205-2.805 1.51-3.648.853-.403.88-1.975.186-2.22 1.279-1.554-.385-1.652 1.192-3.012 1.067-.096.725-.97.403-.95 1.282-1.029-.17-1.559.319-2.062.85-.748.204-1.825-.03-2.223.64-.571.066-.61-.592-1.11-.64-.59-.22-.248.801-.79.64-.92-.777-1.631.568-2.539-.422-.511-.265-.121.687-.633.422-.96-.258-2.067.265-2.855.213-.5-.028-1.215-.008-1.425-.635-.273-.081-.298.164-.32.422-.508.19-.214-.7-.635-.64-3.034.249-5.259-.598-8.085-.637-.552-.037-.696-.632-1.11-.855-3.458-.175-8.698.539-13.002-.213-.347-.059-.22-.317-.475-.427-.983-.415-1.818.09-2.696.427-.725-.177-1.468-.826-2.061 0-1.516-.602-3.738-1.12-5.551-.64-.585-1.204-2.958 0-3.487-1.278-.918.656-2.352.746-3.331 0-1.649.624-2.302-.688-4.44-.426-.564.332-.096-.728-.475-.645-.51-.042-.67.382-1.27.216-.54.158-.26-.785-.632-.853-.745-.22-.61.742-1.427.427-.506.179-.603-.185-.793-.427-2.067-.078-3.697.097-5.55-.217-.233-.035-.956.358-.952-.423-.154.363-.439.547-.95.423-2.046-1.57-4.928.363-6.978-1.278-.433.518-.994.518-1.427 0-1.009 1.402-2.969-.33-3.805.43.235-.816-.709-.046-.477-.855-.51.308-1.33.202-2.06.21-.45-.675-1.51-.527-2.221-.848-.322.062-.42.423-.632.638-1.075-.098-2.173.13-3.173 0-.35-.045-.217-.353-.477-.429-.661-.192-1.52-.174-2.22-.21-2.885-.152-6.096.381-9.037 0-.355-.049-1.4-.815-2.378-.43-.562-.33-.095.726-.476.64-.723-.311-1.717.076-2.694 0-1.084-.08-2.028-.353-2.38-.64-.196-.486-.76.43-.635.43-.116 0-.437-.577-.635-.644-.432-.147-1.016.934-.95-.209-.483 1.072-2.288-.373-2.377.854-.671-.574-1.962-.639-3.015-.645-1.249 0-2.678.018-3.487.645-3.444.03-6.236.195-9.198 1.493-.193-1.26.271-2.243-.158-3.632-1.099-.763-3.817 1.941-5.232 0 .794-1.56 2.91-1.345 3.647-2.988.847-.21 1.92-.116 2.378-.852.352-.119.228.407.474.429 1.68-1.058 3.96-.712 6.028-1.921.6-.31.302.582.791.427.892-.934 2.623-.736 4.125-.855.835-.84 2.251-.544 3.806-.64 4.291-.266 9.147-.329 13.318.213.351.047.214.344.476.427.693.23 1.608-.035 2.38 0 2.722.12 5.94.047 8.719.215 1.992.12 4.044-.028 5.867.213.35.044.218.344.475.427 1.822.6 4.047-.094 6.025.21.349.055.219.359.476.429 1.749.489 3.872-.159 5.867.426.306.092.246.38.478.429 1.829.37 3.665.146 5.389.423.345.06.218.36.475.429 1.119.314 2.354-.008 3.49.21.341.068.218.342.476.431 1.796.612 3.85.109 5.391.425.32.067.238.398.476.43 2.11.277 4.283-.06 6.34.208.447.065 1.144.019 1.427.645.39-.19.584-.64 1.27-.428 2.83 1.09 5.935.834 9.038 1.492.321.068.239.395.477.431 2.802.414 5.718.06 8.562.422.35.045.214.34.476.432.965.314 2.346.157 3.33.21 2.13.12 4.216-.253 6.183-.21.353.114.227-.412.476-.432 2.264-.075 4.652.124 6.658-.213.541-.09 1.217-.104 1.587-.64.351-.115.225.406.478.431 1.386-1.223 2.928-.587 4.278-1.495.183-.125.237-.488.476-.645.252-.164.434-.052.633-.208.206-.164.293-.508.478-.641.202-.154.437-.043.632-.214.39-.337.685-.985 1.113-1.28.774-.544 1.778-.594 2.696-1.068.81-.418 1.364-1.318 2.693-1.279.35-.668 1.085-.817 1.745-1.067 1.437-2.269 5.277-1.292 8.245-1.495 2.21-.798 5.017-.791 7.771-.853 1.722-1.19 5.223.012 6.976-1.069.318-.07.497.043.476.43.865-.667 3.7-.468 5.232-.64 1.987-.23 4.389.327 5.55-.64 1.241.327 2.708-.368 3.965-.213zM72.615 81.12h-.307v.424h.307v-.424zM173.957 49c1.15.852 3.476.037 4.456 1.128 3.124.418 5.634-.549 7.955.223.283.096.476-.118.48.68.247-.756.386-.756.637 0-.1-.971 2.704-.75 3.656-.453.305.095.252.408.477.453 2.422.467 5.233-.022 7.64.45-.154.824.772.108.476 1.132 4.333.063 8.905.92 13.37 0 .254-.39.652-.576.792-1.132 2.888-.32 5.666-.004 8.593 0 4.756.007 9.745-.95 14.32-.225.332.051 1.035.023 1.274.679.174-.054.108-.447.32-.454.516-.277.12.73.634.454.69.225.884-.252 1.274-.454.032.986.276.413.797.454-.177 1.152.6.953.637 1.802.816-.03 1.567.037 1.908.679.319-.461 1.493-.019 1.908.683.442.199 1.495-.466 1.432.448.095 1.042-.754.74-1.27.904-.458 1.464-2.066 1.288-3.024 2.032-.467-.016-.47-.686-.797-.9-.578-.218-.16.974-.477 1.126-1.416-.417-2.827.038-4.294-.226-.35-.063-.226-.327-.48-.45-.57-.274-1.46-.007-1.91-.227-.214-.104-.272-.613-.475-.677-.874-.284-1.785-.163-2.708-.228-.737-.606-1.667-.817-2.704-.905-1.023-.08-2.336.593-3.022-.45-.172.056-.108.45-.32.45-.351.128-.226-.43-.475-.45-.21-.01-.395.432-.32.45-.33-.092-.648-.592-.954-.676-2.518-.671-5.163.365-7.796-.221-.233-.053-.465-.047-.637-.456-.394.574-1.258.478-2.07.456-.124.502-.335.879-.318 1.58.64 1.182.888.15 1.591 1.127h1.752c.749.593 1.44 1.266 2.225 1.808.088 1.07-.9.613-1.271.448-.201 1.225-.518 2.276-1.114 2.938-.442.1.124-1.23-.318-1.13-.572-.063-1.1-.057-.954.905-.753-.82-1.027-.234-1.594-.68-.5.196-.711.798-1.27.905-1.75-.662-4.571-.187-6.686-.225-4.497-.078-9.082-.032-13.365 0-.51.196-.328-.588-.637-.68-1.629 1.044-3.8.454-5.887.454-1.829 0-3.844.77-5.09-.454-.45-.037-.37.68-.798.68-1.64-.049-2.41-.655-3.658-.226-.63.293-.327-.747-.957-.454-.5-.258-.386.357-.636.454-1.982-.274-4.745.56-6.206-.454-.307.023-.356.407-.634.454-.365.064-.205-.429-.32-.454-.129-.022-.149.42-.317.454-.274.06-.328-.454-.32-.454-.292.062-.948 1.203-1.433 0-.016.326-.872.937-.795 0-.657.684-4.997.764-5.886 0-.357 1.084-.731-.443-.954.454-.354.126-.228-.431-.478-.454-.516-.278-.123.731-.637.454-1.573-1.079-4.703.048-6.204-1.126-.49-.17-.195.773-.797.447-.564.35-.097-.765-.477-.676-.984-.145-2.066.042-3.026-.229-.31-.085-.24-.407-.474-.446-2.096-.39-4.385.213-6.525-.457-.298-.09-.255-.415-.48-.448-2.56-.403-6.01.495-8.271-.676-.516-.128-.8.064-.956.447-1.993-1.103-4.64-.308-6.841-.447-.935-.063-2.128-.612-2.707.447-.59-.605-.394-.165-1.114 0-.6.33-.303-.619-.792-.447-.763.731-1.004-.438-1.752.447-.3-.638-1.135-.643-1.593-.676-.632-.044-1.268.236-1.907.23-1.265-.02-2.639-.374-3.979-.456-1.32-.083-2.573.253-3.82.226-.72-.014-1.627-.092-2.227-.676-1.318.64-3.81.97-4.931 0-.49-.172-.195.78-.797.45-.295.392-.379-.366-.637-.45-2.32-.778-5.769.521-7.796-.904-.602-.328-.307.621-.797.453.06-.398-.125-.41-.317-.453-1.24-.26-4.466-.128-5.25.453-.603.326-.305-.626-.796-.453-.517-.28-.123.732-.637.453-1.775-.264-4.315.55-5.571-.453-.12.156-.504.95-.477 0-.688.75-1.95.694-2.705 1.354-.515.134-.799-.067-.955-.45-.33.514-.823.62-1.27.676-2.263.293-4.665-.225-7.48.23-.498-.073-.225.508-.637.675-.725.296-1.76-.498-2.07.448-.516.279-.12-.728-.636-.448-.55.767-2.167.354-3.66.448-2.927.19-5.316.437-8.274.457-.514-.28-.122.726-.636.446-.63.295-.324-.74-.954-.446-.6-.33-.303.617-.794.446-.365-.162-1.246.407-1.116-.446-1.059 1.357-4.095-.093-5.093 1.351-1.678-.273-3.29.498-4.614 0-.432.067-.75.294-.954.679-1.396-.237-2.843.139-3.82.45-.382.126-1.26-.43-1.27.453-.334-.334-1.03-.82-1.276 0-.51.178-.391-.418-.793-.452-.415-.037-.917 1.156-1.274 0-.927 1.093-2.865.755-4.456.904-.34-.108-.303.32-.317.677-.863-.193-2.913-.249-3.66.453-2.051-.125-3.613.44-5.572.452-1.674 1.158-4.675.438-6.044 2.029-.688.146-.517-.923-1.275-.677-.589-.237-.31.764-.637.904-1.246-.405-2.677.796-3.022.227-.51-.197-.219.745-.634.678-2.718-.165-4.385 1.152-7.32.676-.513-.2-.333.587-.637.677-.964-1.117-2.864-.909-4.14-1.58-.685-.606-1.033-1.692-1.431-2.708-1.348-.264-2.33-2.02-1.751-4.289 2.635-.941 5.497-1.388 8.277-2.038.338-.074.219-.339.474-.447 1.197-.518 2.642.202 3.663-.905 1.602-.21 3.465-.047 4.613-.904 1.154-.091 2.498.085 3.183-.678 1.685-.172 3.542-.09 4.774-.904 2.267.136 4.008-.484 6.205-.448.354.12.228-.436.477-.456 1.81-.212 4.005.116 5.41-.675.16 1.267.638-.622.795.448.501.261.386-.35.637-.448 2.541-.066 4.594-.054 7.32-.23 3.52-.227 7.667.504 10.342-.22.325-.091.25-.273.478-.454.35.618 3.074-.8 3.82.454.147-.259.183-.375.478-.454 2.367-.64 5.837.28 8.593 0 .988-.1 2.808-.179 4.136 0 .35.046.216.36.477.454 1.188.411 3.814.218 5.092 0 .306-.055.506.053.478-.454.513-.28.12.731.635.454 1.252-1.405 3.187.922 4.455-.454.508-.195.604.197.797.454H79.6c3.627 0 7.495.573 10.817 0 .312-.055.508.053.48-.454.313.473 1.646.821 1.908 0 1.206.525 1.425.104 2.866 0 .5-.261.387.355.637.454 5.22.329 10.845-.484 15.433.45.317.064.453.074.638.448.515.28.121-.727.635-.448-.338 1.14.697.034.478 0 .145.017.208.378.477.448 1.496.407 3.778-.059 5.568.227.352.057.22.363.477.456 2.043.71 4.496-.444 6.209.221.147-2.241-1.031-2.603-2.07-3.16 1.371-2.315 4.794.425 6.365-1.809 1.082.545 2.204-.765 2.388.227 4.156-.481 8.987.2 13.365.678.338-.104.302.322.317.679.758-.639 3.9-1.111 3.98.678 6.992-.172 12.098.851 19.252.222-.014-.314-.026-.636.16-.675-.05-1.13-.979-1.019-1.114-2.032 1.196-1.59 3.78.175 5.09-1.128zm14.084 1.816c-.244.023-.535-.028-.463.432h.463v-.432zm-21.996-36.281c.775-.366.403-.168 1.588 0 3.538.499 9.046-.293 13.96 0 5.085.297 9.994.297 14.28.226.525-.009 1.384.047 1.743.675.57-.62 2.786-.793 3.333 0 .768-.53 3.083-.867 3.81 0 .511.277.12-.728.632-.448.952.522 3.633.638 5.394.677 2.39.047 4.872-.317 7.138 0 .353.047.217.358.477.446 1.419.497 3.34.124 4.92.227 2.444.16 5.055-.08 7.296.23.353.047.214.357.476.447 2.29.799 5.986-.454 8.41 0 .483-.289.76-.874 1.11-1.35 3.15.778 5.68-.583 9.36-.23.513.278.123-.727.635-.447 1.077.803 3.175-.847 4.44.448.603.328.308-.62.795-.448.617.485 1.071-.028 1.746 0 .375.011.509.397.794.448.13.021.149-.417.316-.448.515-.116.228.694.792 0 .295-.408.38.36.635.448.444.15.378-.44.476-.448.257-.038.048.476.635.448.378-.019.405-.437.476-.448.127-.028.15.414.316.448.32.072.27-.455.319-.448.116.002.232.382.477.448 2.356.642 7.769.136 10.946.229 4.029.11 8.155-.452 11.424 0 .35.047.214.372.476.446 1.813.539 3.748.077 5.551.458.341.065.22.356.476.446 2.062.74 4.244.055 6.028 1.128.337-.102.304.324.318.677 1.13-.02 1.133.186 2.221.227 1.208 1.441 3.59 1.213 5.552 1.58.849 3.277-1.476 3.68-2.061 5.642-.502-.115-.56.405-1.111.226-.325 1.265-1.718 1.01-2.22 2.028-1.093.09-.942-.654-1.746 0-1.277-.82-2.71-1.413-4.442-1.58-.565.348-.097-.767-.476-.674-1.583.423-1.958-.233-3.013-.904-.397.11-.958-.009-.953.676-.228-.65-1.044-.473-1.27-1.132-3.572.197-5.45-1.086-9.043-1.123-.384-.358-.886-.542-1.268-.904-.421.075-.558.564-.954.676-.337.155-.318-.513-.632-.676-.207-.11-.638.115-.953 0-4.897-1.792-13.807-.15-19.673-.45-.754-.043-2.117-.292-3.015 0-1.176.384-2.147 2.025-3.332 1.58-.44.907-1.12 1.238-1.268 2.03-1.529.298-3.275.127-5.238 0-.896-.987-2.287-1.835-3.489-.677-1.567-.779-4.476-.85-6.189-.677-.292-.183-.64-.294-.792-.676-4.379.028-8.154-.502-12.85-.454-.346-.703-1.46-.321-1.84-.98l-.065-.145-.032.105c-.177.45-.726.366-1.235.344-.602.325-.305-.62-.795-.45-.694.876-2.707-.892-3.649.45-.316-.22-.642-.44-.951-.678-2.132.46-5.062-.009-7.932-.226-1.043-.074-2.453.395-3.015-.448-.631.53-1.657.5-2.698.448.328.746 1.257.628 1.746 1.13.058 1.043.515 1.523.317 2.933-.785.161-1.402.563-1.745 1.352-1.424-.564-1.936 1.633-3.647 1.359-.231.05-.058.668-.32.673-4.217.535-8.484-.085-13.167 0-.317-.226-.642-.437-.952-.673-2.226.733-5.795-.425-7.773.673-.705.25-.638-.598-1.111-.673-.876.88-1.279-.225-2.222.673-.874-.1-1.95.13-2.697 0-.274-.048-.505-.453-.476-.453-.15-.016-.976 1.23-.791 0-.515-.28-.122.732-.637.453-.543-.733-.495.407-.953-.453-.625.475-2.603.895-3.17 0-.515-.28-.124.732-.635.453-7.159-.162-14.365.883-21.577 0-.508-.062-1.38.442-1.746-.453-.145.259-.183.374-.475.453-1.598.435-5.058.336-6.823.23-.52-.035-1.184-.026-1.427-.683-.617.583-1.61.641-2.38.682-2.4.107-5.353-.415-7.774.222-.305.08-.444.03-.636.45-.282.043-.337-.413-.632-.45-.243-.03-.324.432-.635.45-.467.033-.77-.9-1.269 0-.77-.812-1.99.775-2.857-.45-.83 1.077-3.251-.11-3.966 1.13-1.681.314-3.897-.127-5.077.901-1.806-.16-2.952.61-4.76.45-.352-.125-.225.433-.475.454h-2.378c-.51-.198-.33.58-.635.675-2.35-.028-4.382.388-6.822.226-.593-.237-.313.763-.635.904-1.34.365-4.436-.483-6.031.675-.448.04-.308-.765-.95-.453-1.831.608-3.004 1.32-5.237 1.131-.587-1.572-1.684-2.42-1.744-4.739-.655.032-.993-.392-1.746-.224-.902-1.43-2.12-2.4-2.696-4.29.032-1.142 1.073-.3 1.905-.221 1.093.094 2.299-.215 3.011.449.564.347.095-.768.479-.675.941.165 2.153-.063 2.697.675.448-.603 1.402-.695 2.38-.675 2.02.03 4.82.12 6.186.675.71.331.487-.664 1.11-.45.69-.225.882.25 1.271.45.599.328.302-.62.792-.45.185.836 1.883.376 3.013.45 3.519.227 7.994.774 10.473-.45.5-.262.386.35.633.45.667-.554 3.118-.635 4.602-.675 3.17-.1 6.644-.347 9.518-.228 1.252.052 2.675.64 3.808-.449.352-.128.225.43.476.45 1.172-1.118 4.101.267 4.918-1.354 1.092-.162 2.099-.1 3.015-.227.838-.118.16-.264.953 0 .47.156 1.158.152 1.426-.45.319-.08.496.045.478.45.146-.254.183-.372.474-.45 1.5-.406 3.38-.158 4.918-.225 1.967-.085 4.6.084 6.19-.678.911.512.917-.316 1.742.45 3.813-.989 9.36-.412 15.073-1.354-.713-.712-1.218-1.726-1.744-2.705-.701-.357-1.675-.327-1.746-1.58-.574.138-1.06.37-1.429-.226-.663-1.285.59-1.49.477-2.705 1.906-.49 4.183-.253 6.185-.453.567-.059.953-.832 1.429 0 .387.58.55-.607.954-.45.1.038-.01.49.316.45.353-.046.214-.371.476-.45.363-.117.218.467.475.45-.065.004.903-1.206 1.111 0zm36.877-29.945c.342.07.222.362.478.445.843.273 2.041-.033 2.864.22.3.09.255.403.477.439 1.658.267 3.687-.472 4.457.881.49.167.193-.76.797-.442 1.361 1.198 4.323.183 5.73 1.324.252-.115.56.132 1.114 0 .834-.205.19-.329 1.114 0 .528.184 1.265.04 2.07.215.339.08.223.338.478.443 1.1.46 2.491.127 3.66.439.335.09.225.309.476.443.996.519 2.053.24 3.027.438.34.068.219.348.475.444 1.118.39 2.882-.27 3.503.657 1.94-.258 4.688.348 6.368 0 .209-.047.332-.442.317-.442.136-.009.149.392.32.442.26.075.636-.692.636 0 .352.12.227-.417.476-.442.996-.332 2.24.545 2.389 0 3.37 1.267 9.44-.064 13.69.881.339.078.221.346.476.443.986.378 2.218.129 3.341.44.345.096 1.147.402 1.913.658.316.106.232.345.476.442.772.305 1.708.162 2.39.44.31.125 1.62.831 2.228.88 1.265.09 2.385-.569 3.502-.88.476-.278.463.482.793.658 1.436.786 3.544-.214 5.094-.218.354.12.226-.42.48-.44 2.491-.533 5.457.455 7.161-1.54.354-.123.226.416.477.439 1.76-1.164 4.269-1.293 6.207-2.203-.097.935.578.589 0 1.102.357.793 1.621.377 1.912-.22 1.798.123 3.378-1.126 4.296-2.86.659-.178.819.336 1.433.221.68-.762.577-.02 1.115-.665.362.16 1.24-.395 1.114.443.304-.535.833-.75 1.274-1.104.638-.002.443 1.152.477 1.986-1.042-.044-1.845.233-2.388.882-.74-.667-1.121.64-2.545.215-.014.942-1.101.388-1.117 1.324-.734.008-1.37.155-1.59.879-.484.06-1.088-.037-1.115.66-.8.138-1.628.238-2.069.881-2.447-.304-3.521 1.29-5.89 1.098-.353-.122-.228.42-.476.442-1.738.236-3.858-.05-5.096.88-4.6-.055-7.988 1.574-11.142 3.519-.446-.481-.937-.904-1.271-1.542-1.33 1.312-3.066-.518-3.98-1.759-.51-.194-.33.573-.637.663-4.17.11-7.662.07-11.46.876-.348.043-.506-.179-.479-.658-.152.38-.497.486-.796.658-4.446-.187-8.911.846-12.413-1.318-1.288.64-1.874 2.251-3.504 2.42-.168.652-.7.794-.954 1.32-1.433.079-2.642.456-3.501 1.324h-3.662c-.364-.254-.785-.595-1.592-.664-.852-.07-2.024.513-2.547-.44-.159.144-.165.51-.476.44-1.056-1.113-3.24.026-4.14-.875-.355.092-.568.384-.638.875-1.007-1.037-1.902-.325-2.864.222-.565.34-.098-.748-.477-.662-.721-.41-.217.876-.796.662-.144-1.238-.592.442-.795-.882-.51-.196-.332.571-.638.66-.4.041-.386-.491-.637-.66-.518-.054-.462.686-.794.882-.663-.125-1.686-1.31-2.23-.222-.32-.218-.645-.43-.957-.66-1.706-.022-4.091.122-6.045-.215-.35-.061-.22-.347-.479-.445-.59-.222-1.67.213-1.91-.66-.45-.036-.309.742-.956.438-1.688-1.263-5.464-.259-7.8-.875-.317-.088-.24-.392-.477-.445-.413-.079-.408.698-.637 0-1.01.88-2.55.598-3.658.445-.487 1.089-2.108.606-2.71 1.542-.35.118-.225-.426-.476-.445-1.372.897-3.728.517-5.41.88-.653.144-1.774 1.018-2.866.662-.14.691-1.115.22-.956 1.323-1.245.009-1.521.493-2.706.217-1.548 2.067-5.389 1.021-7.161 2.198-.857-.547-1.386-.676-2.55-.435-.378 1.233-2.342 1.873-3.34.88-.532-.07-.98-.034-1.113.437-.581-.078-.76-.71-1.593-.437-.153.376-.59.36-.479 1.098-.428-.435-1.155-.454-1.432-1.098-2.318 1.07-5.213-.02-7.48 1.098-.98-.393-2.095-.874-3.344-.44-.295.102-.254.393-.478.44-2.309.488-5.008-.055-7.002.44-.326.084-.247.269-.48.44-2.918-.462-6.912 1.527-8.276-1.32-1.266.378-2.564.707-4.138.66-.203-1.26-1.745-.669-2.387-1.318-.604-.183-.488.644-.956.659-1.387-.4-3.566 1.382-5.093 0-.516-.273-.123.714-.637.44-.714-.586-3.937-.713-5.57-.44-.847.143-.15.277-.955 0-.607-.208-1.356.165-1.752 0-.352-.122-.226.421-.477.44-2.252.027-5.206.354-7.322 0-.717-.117-.315-.51-.954 0-.491.162-.194-.76-.797-.44-.628-.283-.386.638-.795.66-2.307-.103-4.046.062-6.37-.22-.67-.794-2.282-.794-3.023 0-.6.32-.306-.608-.796-.44-.513-.273-.12.714-.637.44-.299.496-1.182-.44-1.114-.44-.184 0-.295.5-.955.44-.643-.056-1.253-.688-1.75 0-.351.121-.228-.42-.477-.44-.23-.015-.367.43-.32.44-.144-.03-1.105-1.004-1.59 0-.53.07-.98.035-1.115-.44-.122.151-.506.927-.478 0-1.514 1.087-4.994.295-7.004.879-.247.075-.317.057-.317.44-.55-.935-.907.437-1.274-.44-.71 1.071-2.864.147-3.504 1.322-1.37-.135-1.596.822-2.545.22-1.016.99-1.91-.103-3.183 0-.647-1.232-2.69-.537-3.503-1.542-.22-.889.345-.696.32-1.32-.75-1.185-1.435-3.2-.796-5.063 1.127-.782 2.253-1.58 3.82-1.762 1.35-1.543 2.88-1.477 4.137-3.08 1.847.164 2.142-.487 3.822-.437.404-.76 1.638-.374 2.069-1.1 2.338-.78 5.439.34 7.481-.44.712-.272.405-.226 1.275 0 .6.318.306-.603.794-.44.546.42 1.934 1.158 2.23 0 .663.813 1.672-.437 2.863-.22.565-.342.095.747.48.66 1.145-.107 2.15-1.356 3.023 0 .45.033.37-.664.796-.66 1.627.168 3.576-.1 4.455 1.1 1.9-.774 5.391 1.118 7.004-.88.573-.309 1.429-.228 1.752-.882.754.163 1.093-.247 1.751-.22.51.195.217-.726.638-.662 1.064-.286 2.644.137 3.342-.659 3.46.052 5.408-.64 8.913-.44.353.12.226-.416.477-.441 2.487-.36 5.78.158 8.279-.215.303-.047 2-1.062 2.546 0 .668.26.696-.356 1.114-.444.508-.19.605.194.795.444.518.269.122-.718.637-.444 2.61.3 5.894-.399 8.277 0 .309.052.507-.054.477.444.514.269.122-.718.638-.444.279-.374.407.365.637.444 3.107 1.006 7.318-.998 9.869.657.352.12.224-.417.476-.442.547.484 4.908.74 6.368.442.254-.054.311-.068.318-.442.354-.12.226.425.476.442.166-.101.12-.38.32-.442 2.597-.838 6.135.331 9.073-.215.353.118.226-.422.477-.444 3.118-.235 7.045.643 9.234-.881.812.174 1.155-.312 1.907-.217.218-.219.206-.744.48-.88.52.366.717-.32 1.113-.446 1.541-.479 3.586.015 4.774-.878 1.172.078 2.183-.065 2.709-.877 4.904-1.266 11.077-1.728 16.553-.666z" mask="url(#prefix__b)"/>
    </g>
</svg>
