<svg xmlns="http://www.w3.org/2000/svg" xmlns:xlink="http://www.w3.org/1999/xlink" width="288" height="124" viewBox="0 0 288 124">
    <defs>
        <path id="prefix__a" d="M0 0H288V124H0z"/>
    </defs>
    <g fill="none" fill-rule="evenodd">
        <mask id="prefix__b" fill="#fff">
            <use xlink:href="#prefix__a"/>
        </mask>
        <use fill="#4F34C7" xlink:href="#prefix__a"/>
        <path fill="#FFC107" d="M100.546 114c.464.413 1.171.16 1.755.359.384.13.507.452.956.718.257.152.69.016.958.18.203.126.231.519.479.719 1.455 1.182 2.79 1.702 3.03 3.953.077.727-.26 1.61-.319 2.338-.059.71.162 1.413-.16 2.156-.045.407.038.673.319.718-.524.729-1.989 1.179-1.596 2.874-1.022-.062-1.471 1.256-2.232.72-.067.375.11.473.16.718 1.64-.209 1.819-1.145 2.87-2.156-.094.943.323 1.311.479 1.974.58-.16.899-.606.958.36.306-.073.125-.696.637-.537.217.545.257 1.48-.16 1.797.484 3.744-4.91 1.59-6.54.898 1.07 1.072 2.809 1.39 4.467 1.796-.95.586-1.806-.477-2.871-.361.821 1.079 2.513 1.19 3.988.721.108.724-2.361.092-2.553 1.078.614.802 1.45-.17 1.914.54-.032.24-.661.333 0 .358-.118.407-.608.393-.638.899-.862-.581-1.7-.77-2.232.18-.595-.168-.887-.679-1.756-.54-.2.043-.16.358 0 .36-1.944.284-2.81-3-4.306-3.235-.07-.94-.685-1.265-.798-2.158-.596.143-.101.872 0 1.26-.415.103-.537-1.664-1.116-1.978.074-1.581-.41-2.531-.479-3.953-2.001-4.159.297-9.816 2.872-12.038.602-.279 1.749.054 1.914-.718zm42.097 6c.487.146-.25.5 0 .96h1.785c.145.553-.334.675 0 .96 2.068 1.217 3.556 3.316 3.572 5.76.01 1.305-.357 3.144-1.25 4.163-.794.903-2.242 1.205-3.75 1.6-1.68.439-2.508.694-4.287.48-.203-.671-.954-.852-1.428-1.28.029-.188.325-.136.535-.161-1.582-.501-1.529-2.47-3.393-2.72-1.108-2.353.101-5.153 1.786-6.4-.565-.188-.968-.522-1.43-.802 1.231-.501 2.248-1.1 3.037-1.6.317.037.894-.161.715.32.583-.278 1.408-.338 1.607-.96 1.046.404 1.807-.314 2.501-.32zm111.054-1.65c.35.789 1.289 1.024 1.962 1.506-.095.135-.186.272-.179.503 2.906 2.409 1.241 7.64-1.606 9.21-.031.641.148.06.538.167-.11.56-.525.571-.18 1.174-1.974 1.533-6.684 1.571-7.845-.671.151-.395.782.14 1.07.168.114-.366-.506-.533.178-.503-1.196-.62-2.072-1.208-3.21-2.177-.328.195-.124.89-.891.669-.114-.663.226-.904.535-1.17-.603-1.084-.851-2.31-.356-3.684-.055-.228-.447-.14-.713-.17.833-.14.427-1.01 0-1.338 1.149-.526 2.57-1.357 2.673-2.344.372.07.471-.115.714-.167 1.144-1.541 4.565-1.874 7.31-1.173zm-33.396-2.094c.024.008 0 .146-.007.248l-.003.051.02-.001c.201.014 1.173.425 1.403.448l.013-.001-.01.029c-.09.406.954.606 1.469.974 5.896 4.233 2.185 16.711-7.935 13.463-.929-1.172-2.894-1.405-3.787-2.62-.25-.342-.036-.866-.541-1.05-.124-.47.373-.339.541-.526-.597-1.306-1.624-3.14-1.443-4.895.113-1.107 1.002-1.705.902-2.621.756-.141 1.135-.649 1.262-1.401.882.695 1.682-1.127 2.345-1.747 1.732-.548 4.016-.856 5.77-.351zm-113.694 12.838c-.136.773.432.823.638.359-.515.222-.122-.582-.638-.359zM22.43 83.033c1.377 2.91 3.964 4.645 7.064 5.895 1.791-1.424 1.834-4.53 3.686-5.895 2.977 1.848-.713 5.214-1.226 7.37.289 1.192 1.152 1.84 1.839 2.651 3.051-.606 3.153-4.048 7.374-3.534 1.035 2.886-.963 5.077-1.845 7.07 1.158 1.54 3.474 1.97 4.915 3.244-.068 1.804-.652 3.107-1.231 4.418.653 1.827 3.203 1.836 3.994 3.535-.857 2.982-3.156 3.385-7.065 2.948 1.732 2.069 5.087 6.336.922 8.25-1.85-.093-2.51-1.317-3.994-1.768-.422 2.772-1.785 4.773-3.989 6.488-1.74-.985-3.311-2.13-3.685-4.422-2.208.343-2.593 2.428-3.996 3.537-1.287-.622-1.986.743-3.073 1.18-1.076-.155-1.37-.867-2.448-.295-1.605-2.43-.24-6.188-1.231-8.841-2.734.968-5.126 2.27-8.906 1.471-.535-2.552-1.589-4.903-.613-7.368 1.306-.416 2.193-1.237 2.763-2.356-1.704-1.413-3.337-2.892-3.685-5.6.883-.82 1.796-1.618 2.452-2.654 2.11.44 4.96.159 7.067.592-1.14-3.72-4.21-5.589-5.22-9.43.868-2.093 3.634-1.514 5.832-.883 1.119-1.345-.496-3.636.613-5.306 1.125-.203 2.232-.413 3.686-.297zm152.018 27.424c.258.091.37.543.57.638.709.331 1.487.046 2.085.477-.445.681.25 1.103 1.139 1.117-.979.666.47.765.758 1.276-.324.152-.38.529-.758.637 2.38 6.461-5.346 11.152-12.33 8.767.16-.467.61.093.948 0-1-.987-2.55-1.128-3.224-1.913-.108-.126.145-.362.19-.32-.577-.548-.77-.824-1.518-.957.817-1.33-.822-2.909-.57-4.782-.761-.049-1.949.258-1.706-.637l1.374-.001c-.025-.068.052-.05.177.002h.156c.567-.326 1.058-1.55 1.139-1.753.026-.263.79.166 1.327 0-.266-.31-.982-.238-1.327-.479.266-.464.652.282 1.137.16-.47-.553 1.603-.629 1.139-1.117.401-.43.55.428 1.137 0 .124-.634-1.118-.12-.947-.795.415.182.775.41 1.516.318.419-.127.475-.558.76-.797 1.927-.25 4.716-.59 6.828.159zm-11.191 2.87v.476c.22.135.509.21.948.162.132-.591-.3-.705-.948-.637zm-49.479-15.276c.473.108.53.595.884.813 2.418.213 4.251.96 5.476 2.27-.111 1.994 1.717 2.207 2.12 3.73.048.332.658.154.707.487.246 1.279-.885 2.336-.883 3.892-.68.563-1.253 1.229-1.944 1.783-1.651.213-3.31.421-4.593.974-1.175-.49-1.956-1.34-3.534-1.46.392-1.187-1.292-1.389-1.413-2.595-.748-.07-.898-.69-1.59-.812-.082-.507.476-.43.53-.81-.535-1.662-.022-2.48 0-4.38.549-.308.884-.81 1.06-1.457 1.197-.307 1.53-1.408 2.121-2.272.42.401.29-.42 1.06-.163zm162.277-7.685c-.129.196-.457.198-.398.574 1.236.594 2.21 1.443 3.181 2.292.15.589-.684.234-.395.955.342.179.324.707.992.572.093.408-.284.365-.597.383-.156.789.953.36.797 1.146-.316.397-.401 1.016-.597 1.529 2.145 4.774.508 10.061-2.983 12.418-5.462 3.688-14.596 1.358-16.308-4.778-.089-.327.07-.72 0-1.143-.089-.582-.512-1.193-.595-1.721-.211-1.331-.194-2.997 0-3.82.093-.396.386-.47.595-.956.174-.397.03-.986.2-1.337.18-.375.73-.874.994-1.338 1.248-2.174 2.335-3.475 4.575-4.776 2.596-1.506 6.866-2.112 10.539 0zM162.2 110.8v.402h-.402v-.402h.402zM191.845 106c.406.922-.088 1.877 1.154 1.29.033.349-.978.515-.385.771-.05.535-.846.072-.963.515.163.3.255.694.194 1.29-1.15-.66-1.465.513-2.504 0 .212-.996-.68-.916-.194-1.546.73-.028.287 1.505.963 1.546-.25-1.69 1.03-1.784 1.348-3.866.172.161.347.312.387 0zm47.498-14c1.943 1.49 3.571 4.98 3.654 8.32.08 3.232-1.333 5.657-3.155 7.345-.765-.048-1.343.403-2.16.326-1.359-.126-2.779-1.448-4.32-.817-.87-1.186-2.64-1.319-3.321-2.772-.47-1.007.188-2.526-.996-3.264-.267-2.712.65-5.633 2.659-7.18 1.134-.876 2.055-1.797 3.985-1.468.048.008.276-.23.332-.164.017.02-.013.328 0 .328.27-.004.48-.433.83-.49.709-.115 1.696.342 2.492-.164zm-51.06 14.396c.59.172-.263.508 0 1.008-.287-.018-.57-.034-.605.2-.608-.426.576-.748.604-1.208zM202.186 89c1.725.602 3.746.879 4.882 2.117.706-.242.35-.072.814.178 3.123 1.67 2.6 11.62-.325 13.235-2.083.27-3.679 1.068-5.371 1.765-.246-.439-.774-.576-1.14-.884.15.59-.148.957.814.884-.105.838-1.192.86-1.466.173-.895-.145-1.278.264-1.791.532-1.528-.45.03-4.242-1.301-5.294-.14-.034-.154.068-.164.175-.207.54-.495-.202 0-.175-.485-1.298-.43-2.447-1.139-3.707.018-.331.539-.12.489-.528.037-3.842 3.286-4.203 4.07-7.236.495-.461 1.226-.67 1.628-1.235zm-61.694 0c.431.083.711.313 1.038.494 1.594-.76 3.794-.101 5.185.329.305.888 1.164.741 1.729 1.48.933 1.225.41 3.28 1.555 4.446-.079 3.765-1.997 5.778-5.012 6.748-.734-.126-1.325-.385-2.248-.33-.323.295-.65.587-1.036.824-1.687.124-2.014-1.047-2.593-1.975-.202.026-.146.3-.173.493-.34.266-.146-.583-.172-.658-.242-.676-1.064-1.327-1.21-1.977-.483.805-.257 2.283-.864 2.965-.189-.04-.119-.327-.347-.33-.443.346-.026 1.51-1.036 1.317.613-.951.448-2.646.69-3.952-.55.136-.64.709-.864 1.154-.294-.69-.529.324-1.038-.165.435-.661-.024-1.203.52-1.81-.075-.205-.22-.339-.52-.329.329-.697-.335-1.355 0-2.304.164-.456.677-.86 1.038-1.318.761-.964 1.323-1.594 1.383-3.456.554.22.98.551 1.038-.329.225.057.272.291.518.329.231-.108.323-.352.345-.658.732.525 1.928-.016 2.074-.988zm96.524 3.98c.237.039.28.267.498.326.146-.336-.43-.733-.498-.326zM116.699 71.036c.752.083 1.275.324 1.22.856.68.148 1.42.308 1.917.685.212.16.005.484.175.687.267.323 1.34.25.872.858-1.392-.138-3.259-.931-3.488.17-.043.21.526.157.524.174-.054.437-.804-.078-.699.343 1.219.747 2.19 1.734 2.443 3.43-.031.372.617.077.87.17-.097.225-.887 1.089-.173 1.03-.487.69-.45 1.953-1.047 2.917.187.388.53-.493 1.047-.343.064.292-.137.322-.349.343-1.102 1.863-3.065 4.416-6.103 4.63-1.606.111-3.332-.461-4.185-1.887-2.354-.467-3.226-4.604-2.443-7.033.155-.476 1.115-2.848 1.396-3.257.2-.293.718-.832 1.047-.687-.114.174-.4.177-.35.515.85-.227.055-1.003.872-1.202.423-.374-.272.326-.349.515 1.472-1.438 4.024-3.226 6.803-2.914zm75.29 9.04c-.052 1.254-.107 3.296-1.473 3.865.716-.91.839-2.351.921-2.985-.7-.26-.035.784-.736.524-.093 3.075-2.621 3.826-4.603 5.098-2.052.036-3.98.621-5.34.35-.079-.366.126-.464.185-.702-.45-.157-.8-.408-1.474-.35.334-.303-.056-.693-.552-.703.212-.21.208-.622.185-1.055-.612-.475-1.005-1.683-2.027-1.232.006-.555-.717-.519-.92-.877-1.057-1.86.446-4.224 1.288-5.623-.073-.341-.842-.016-.55-.703-2.1.165-.991 2.59-2.948 2.635v.88c-1.016.376-1.821.954-2.577 1.58.613-.996 2.02-2.757 2.762-4.218-.205-.068-1.148.655-1.289 1.232-1.109-.054-.746.215-1.658.351.375-.697 1.463-.713 1.658-1.583-.757-.265-1.041.38-1.841.703.339-1.14 2.017-1.003 2.392-2.109-.228-.259-.534.426-.92-.175.289-.954.895-1.605 1.658-2.108-.249-.17-.831.328-1.289 0 1.875-1.667 4.796-2.334 7.55-3.164-.03-.206-.336-.149-.554-.177.043-.221.55-.228.553 0 .32-.16.989.007.92-.525 6.748-.187 10.925 5.396 10.68 11.07zM191 85.194c-.416.84-1.135 1.314-2 1.61.608-.606 1.334-1.07 2-1.61zm-80.405.762c.808.351 2.08 1.15 3.14.687-.867.201-2.303-.917-3.14-.687zm8.02-2.229c-.62.305-1.852.916-1.568 1.542.484-.553 1.194-.882 1.569-1.542zm-1.916 1.2c-.997-.06-.113.398.173 0 .04-.29-.196-.424-.173 0zm152.657-22.816c-.762 1.048-2.554 1.042-3.064 2.347.377.333 1.144.265 1.148.978.67.033 1.227-.052 1.533-.39.55.775 1.495.964 2.108.978.26.06.158.49.19.782 3.072.124 3.836 2.604 5.172 4.5.518.056 1.095-.817 1.533-.197.14.644-.38.3-.382 0-.633.074-.387 1.039-1.15.979.121 1.645-.402 2.75.192 3.912l-.16.545c-1.064 3.637-2.033 7.365-5.587 8.454-.025-.35.234-.41.192-.782-2.355.463-3.203-.686-5.556-.393.354-.482 1.53-.27 2.683-.389-.269-1.277-1.97-.544-3.066-.783-1.619-.35-4.031-1.721-5.362-2.74-.056-.316.18-.335.19-.584-3.367-1.995-4.205-9.918-.766-12.522-.169-.212-.154-.366 0-.588 1.257-1.8 3.997-3.176 6.32-4.107.08.47-.348.426-.19.978 1.61-.064 3-1.494 4.022-.978zm-33.768 5.479c.903.368 1.338 1.243 2.154 1.966.442.393 1.243.62 1.614.984 2.22 2.172 2.164 5.444 0 7.868-.221.528.582.124.359.655-.673-.413-1.085.58-1.795.657-.198.363-.316.802-.897.816-.279 1.004-.9 1.693-1.435 2.46-.803.054-1.486-.847-2.333-.982-1.8-.29-3.124.408-4.487-.166-.105-.044.03-.275-.18-.327-1.156-.282-4.154-3.072-3.05-4.589H225c.066-1.231-.09-2.338.178-3.442.966-3.961 5.167-8.043 10.41-5.9zM173.534 82.34c-.388-.2 2.366-1.424 0 0zm-55.965-2.216c.187.643-.434.49-.349 1.03.508-.026.53.695.349.859h.698c-.017-.486.69-1.136.349-1.373-.421.566-.399-.738-1.047-.516zm110.482.907c.462.132 1.149.906 1.614.49-.514-.083-1.2-.855-1.614-.49zm-113.445-.907c-.07.533-.073.655-.525.687.298.072-.036.222 0 .515.551.083.617-.309 1.222-.172.04-.304-.177-.858.349-.688 0 .098.142.198.175 0-.389-.133-.68-.358-1.22-.342zm2.093.86c.47-.34.742-.874 1.045-1.373-.732-.086-1.406 1.502-1.045 1.372zm-2.791-1.373c.296.27 1.213.185 1.22-.343-.036-.19-1.295-.143-1.22.343zm-.872 0c.01-.106.026-.203.173-.173v-.342c-.428-.266-.511.583-.173.515zm65.145-.764c-.059.234-.262.334-.185.702.513.28.509-.761.185-.702zm-65.844-.781c.004.457-.095 1.01.35 1.03.068-.47.805-.73.349-1.199-.33-.04-.385.193-.699.169zm46.32-10.451c.067.047-.061.288 0 .338.767.62 2.124 1.045 2.343 2.36-.505-.405-.867-.936-1.172-1.516-.778.821.328 1.503.976 2.023-.338 2.406-.004 5.39-1.952 6.41-1.007-.286-.025-1.24-.586-1.858-.398.238.192.583-.194 1.012-.877.029-.53-1.004-.782-1.515-.439.124-.076.944-.194 1.348-.404-.364-.74-.074-.586.504-.499-.018-.388-.563-.39-1.01-.15.264-.62.25-.586.673-.204-.082-.39-1.28-.586-.337-.326-.553.557-1.057.392-1.686-.004-.396-.534.062-.392.337-.509-.288.277-.872 0-1.516-.105 2.042-1.71 2.793-1.95 4.721-.427-.03-.621.138-.586.505-.598.122-.713-.171-1.172-.168-.249.037-.257.503 0 .507-.06.56-.678-.723-.585.169-.242-.074-.401-.216-.392-.508-2.598 1.457-5.126-.148-7.808-.842-5.387-4.878-1.193-11.772 5.66-12.48 4.066-.42 7.978.737 10.543 2.529zm22.469 10.177c-.2.395-1.157.065-.92.877.8.283 1.433-.491.92-.877zm-30.47-1.575c-.631.298-2.744.734-1.759 1.35-.232-.463 1.601.311.586-.509.81.083 1.073-.306 1.562-.504-.219-.035-.304-.188-.39-.337zm-.393-.337c-.456.052-.805.33-1.17 0v.504c.594.01.994-.152 1.17-.504zm4.88-3.206c.113.299-.236.993.197 1.013-.113-.297.235-.99-.196-1.013zm107.89-.976c.76-.253.393.645 1.151.39.01-.596-.69-.468-.575-1.174-.505-.058-.493.408-.575.784zm.959-3.913c-.78.573-.89 1.83-1.149 2.936.954-.05.815-.083 1.533-.198-.066-.914.414-1.272.574-1.956-.34-.117-.795.573-.958 0 .21-.045.46-.323.192-.391-.01.206-.246.153-.192-.195.108.002.219-.157 0-.196zm-109.238-1.518c2.272.397 3.248 1.914 4.684 3.034-.27-1.447-2.93-2.897-4.684-3.034zm67.16-26.252c.499.03 1.121.352 2.186.197 2.834 1.731 4.802 3.712 4.77 7.79-.014 2.02.407 3.754-.197 5.843-.168.581-.787 1.003-1.194 1.755-.429.79-.435 1.492-.994 2.14-.917 1.062-2.424 1.693-3.576 2.336 1.108-1.055 2.689-1.648 3.576-2.922-.44-.354-1.007.821-1.39 1.17-.932.387-1.724.91-2.386 1.56-2.847.909-4.72 2.775-8.149 3.116.522-.527 1.508-.602 1.789-1.365-.741-.885-2.54-.473-3.777-.194.512-.734 1.826-.677 1.988-1.754-.604.11-1.347.726-1.988.198.998-.512-1.632-1.36-.397-2.146-.265-.389-.883-.434-1.39-.585.205-.704.942-.892 1.19-1.554-.12-.73-.466-1.234-.794-1.755.267-.658 1.115-1.111.795-2.143-.58.538-.676.668-.795 1.363-.618-.745-1.495 1.934-3.181.78 1.04-.217 2.055-.455 2.585-1.17-.004-.385-.542-.247-.398-.778.492.028.965.035.994-.39-.365-.47-1.173.268-1.988 0 .327-.328 1.077-.243 1.392-.584-.129-.199-.459-.203-.398-.584 1.174-1.121 1.573-3.003 2.385-4.48-.932.061-1.298.675-2.187.778-.107-.527-.158-.484-.397-1.17 1.292.424.988-.718 1.788-.778-.4.681.089-.016.2.39.557-1.207 2.187-1.362 2.782-2.53 2.586-.436 3.555-2.753 7.157-2.534zm-99.823 10.352c.38-.327.113-1.374 0-1.75 1.6.778.586 2.977.658 4.295-.79 1.091-1.438 2.321-2.797 2.862.128.14.177.359.164.637-.725-.484-2.391.167-3.795.401-.008.098-.029.207-.059.31.091.016.172.041.236.083.121.49-.453.305-.33.795-.699-.198-1.431-.582-1.81 0-.873-.854-1.774-1.677-2.961-2.226-1.168-2.457-3.482-6.359-1.81-9.543 2.41.128 3.009-2.128 5.594-2.226 3.638-.14 6.326 2.752 6.91 6.362zm37.513 6.337c-.284.32-.694.514-1.208.602.348-.254.528-.68 1.208-.602zm-44.917.025c.24-.087.85.185.823-.161-.247-.25-.674-.117-.823.16zm.166-.48c.626.142.822-.085.492-.157-.115-.026-.957.057-.492.158zM80.84 50L84 52c-1.453 1.31-2.47 3.016-4 4 .423-1.846.875-3.67.84-6zm78.663 4.917c-.184.676-.374.102-1.006.204.184-.352.706-.522 1.006-.204zm55.852-2.241c.16.677-.297.75-.2 1.363.694.108.85-1.307.2-1.363zm-20.012-7.705c.156.373.53.525.522 1.063.397-.658.869-1.239 1.045-2.124.487 2.209-1.112 3.826-2.263 4.956.075.28.547.153.348.71-.7.035-.713.02-.522-.532-2.06 1.15-2.596 3.852-4.7 4.956.165-.539.848-.553.87-1.237-.046-.366-.648-.167-.695-.532-1.01.678-1.616.996-2.786 1.241-.09-.44-.424-.634-.695-.887-.253.275-.891.157-1.393.178.467-.759-.438-.583-.523-1.241.891-.523 2.052-1.47 2.264-2.124-1.506-1.159-4.883-3.633-3.482-6.196-.178-2.013.573-3.078 1.045-4.426.76-.516 1.87-1.042 1.914-1.77 5.251-3.3 10.672 2.09 9.05 7.965zm66.24-5.27c.58 1.15 1.234 2.217 1.332 2.964.46 3.474-1.02 5.871-2.834 7.322v1.222c-.144-.69-.744-.52-1.167-.175.426.884-.388 1.428-.166 2.618-.39.149-.72-.61-.833-.176-.392-.045-.097-.766 0-.871-.528-.087-.59.313-1.169.175-.035-.805.782.277.668-.7-1.936-.027-3.351-.223-4.169-1.568.095.905-.08 1.947-.167 3.488-.721-.263.078-1.094-.166-1.92-.596.379-.474.424-.668.7-.792-.056.101-.79-.165-1.398-.69.096-.2 1.422-1.002 1.398 0-.907.707-1.638 0-2.093 0-.872-.145-1.593-.833-1.745-3.043-5.549-.168-12.313 5.002-12.902 2.93-.337 5.248 1.51 6.337 3.66zm-104.674 3.668c1.668 1.09 3.436 1.688 3.033 4.634-.082.604-.576 1.108-.843 1.822-.24.64-.132 1.174-.338 1.491-1.248 1.922-4.853 2.887-7.412 2.648-2.246-.21-4.289-1.622-4.885-3.477.328.23.517.594 1.01.661-1.15-1.838-2.286-5.238-.672-7.118.608-.154.235.652.335.994.37.252.901 1.202 1.012 1.159.316-.365-.213.836.167 1.159.352-.823 1.154-1.763.844-2.98.981-.58 1.352-1.76 2.358-2.318 2.6-.347 2.983 1.484 5.39 1.325zm-35.312 5.883c.13.878-.93 3.214-.165 2.386.026.397-.258.493-.329.795 1.209-.362.818-2.683.494-3.18zm136.15 2.307c-.14.201-.22.467-.167.872.29.01.518-.04.668-.175.028-.437-.257-.544-.5-.697zm-98.986-6.038c-.157.929.342 1.208.506 1.82.04 1.276.308-.147.169-.827-.109-.53-.55-.843-.675-.993zm40.433-1.225c.586.346-.456.732-.202 1.408-.768-.172-.148-1.168.202-1.408zM35.408 18.905c2.321-.55 2.366-3.417 5.234-3.42 1.425-2.119 2.456-2.842 5.613-2.657-.61 5.328-5.307 6.516-7.487 10.261 1.941 1.073 5.173.822 7.487 1.518-.024.65.275.984.745 1.144-1.307 2.348-2.036 5.279-5.61 5.319-.249 1.569 2.945 3.388 2.988 5.707.042 1.959-1.757 4.419-3.365 4.558-3.356.296-3.251-4.144-5.985-5.32.352 4.28-2.38 5.426-3.741 7.985-.223-.115-1.43-.95-1.49 0-3.28-2.387.455-6.053-.746-9.507-4.905.769-5.287 7.99-11.221 6.463-1.572-4.878 2.373-7.131 4.112-9.886-3.03-1.355-7.781-.957-11.217-1.902-.792-2.024-1.127-5.257 0-7.223 3.007-.47 6.082-.28 7.852-1.136-1.41-2.316-4.62-4.846-2.618-8.367.962-.676 2.96-.284 3.736-1.14 2.413 1.984 4.593 4.202 7.109 6.082 2.61-2.471.904-8.513 2.994-12.161 6.836-1.897 4.208 8.811 5.61 13.682zm87.196 21.793c-.184.42-.594.614-1.208.604.116-.488.76-.45 1.208-.604zm-6.155-27.665c.759-.119 1.045.286 1.627.361.018.523-.089 1.184.162 1.448.237.279.636.38 1.14.36.534 1.097 1.367 1.857 2.118 2.712-.27 1.456 1.194 2.282 1.463 3.795.182 1.019-.277 5.112-.65 5.963-.381.87-1.73 1.97-2.28 2.35-.63.44-2.043 1.094-3.255.904-.503-.284-.968-.613-1.628-.722.026.21-.036.321-.162.36.044.852 1.09.597 1.626.906-.025 1.533 1.78 1.035 1.955 2.347-.768-.47-1.621-.848-2.442-1.263-.336.503 1.068.614.976 1.446-1.379-.144-2.794-1.197-3.743-2.352-1.943.726-1.984-1.762-3.582-2.346-.334-.074.359 1.128-.162 1.263-.847-.512-.93-1.741-1.303-2.71-.416-1.087-.906-2.224-1.303-3.255.02-1.243-.087-2.625.164-3.613.468.355-.057 1.128 0 1.626.73-.611.309-2.438.65-3.795.444-1.757 1.541-2.539 2.442-3.796-.359-1.109-1.194-1.694-1.139-2.891.07-1.504 1.487-2.875 2.605-3.074 2.696-.478 3.585 2.161 4.72 3.976zm134.709 4.985c-.583 1.215 1.37.79 1.868 1.446.08.344-.242.305-.51.321.216.975 1.855.603 2.549 1.127.404-.048-.19-.436-.34-.484.512-.296.468-.504 1.19-.321-.458.452.302.66.17 1.286h.68c.535 1.558 1.996 2.066 2.209 3.697.35 2.687-2.884 5.988-5.777 5.624-1.46.82-3.036-.53-5.099-.16-.27.387-.794.534-1.018.965-.166-.273-.472-.414-1.02-.321-.247.607.466.308.339.802-.667-.066-.875-.566-1.36-.802.894-1.147-.998-2.304 0-3.699-1.623.644.105 3.598-1.7 4.178.475-.947-.072-2.695.85-3.534-.382.054-1.148-.236-1.189-.965.06-.426.446-.542.85-.642-.505-1.814.83-2.01 1.36-3.215.077-.824-.818-.727-.681-1.607.378.265.922-.034 1.02.163 1.144-1.5 2.112-3.814 4.928-3.216.537.08.062-.798.68-.643zM65.946 8.981c1.94-.897 2.982-2.704 4.14-4.398 1.213-.345 1.654.358 2.759.6-.432 2.23-1.498 3.813-2.758 5.198 1.556.303 2.976-1.403 4.14-1.2.743.133.564.607 1.375 1-1.035 2.35-3.55 3.197-5.316 4.802 1.51 1.136 4.849-.696 5.714 1.2-.49 2.437-3.11 2.71-5.125 3.6 1.36 1.621 3.12 2.835 4.335 4.6-.469.449-.098 1.123-.394 1.6-.224.365-1.318.225-.983 1.003-1.597.014-2.33-.844-3.352-1.402.15 1.038 1.341 1.314 1.379 2.201.05 1.163-1.043 1.365-1.574 2.4-1.67-.91-2.982-2.173-4.34-3.401-.343.85-.145 2.25-.195 3.4-.514.925-.741.95-1.382 1.8-.826.107-1.096-.347-1.77-.402-.814-2.306-1.927-4.31-2.369-7-.74 1.115-.38 3.345-.981 4.603-.453.203-.91.414-1.184.8-.933-.079-.965-.042-1.776-.4-.22-1.244-.387-2.536-.59-3.803-1.042.011-1.212.907-2.559.602-.352-.843-.968-1.418-1.185-2.4.713-.612.575-2.086 1.97-2.002-.086-.754.39-.938.59-1.398-2.832.222-3.45-1.5-3.94-3.2 1.167-.816 3.516-.435 4.141-1.8-1.513-.221-4.092 1.007-5.716.199.881-1.304 3.841-.5 5.122-1.4-.16-.503-.688-.63-.982-1-.28-1.196.541-1.492.196-2.2 1.074.334 2.147-1.098 3.547-.4-.507-1.952-2.036-4.599-2.564-7.201.827.338.707 1.063 1.577 1.4.52.2 1.356-.16 1.775 0 1.499.584 1.845 2.057 2.957 3.2.555-1.567.834-3.417 1.377-5.002 4.036-1.156 2.541 3.548 3.941 5.801zm87.484 4.157c1.26.293 2.905.486 3.655 1.717.71 1.163.295 2.52 1.272 3.607.472-.493-.399-.298-.32-.86.376.053.297.598.795.517.062-.636-.643-.45-.475-1.202 3.405 2.066.895 8.661-1.907 9.101-.174.385-.264.86-.477 1.204-.256-.256-.798.147-1.43 0-.575.551-.014 1.367.158 2.06-.35.651-.812 1.182-1.271 1.718-.488-.048-.714-.374-1.112-.517-.026-.714-.054-1.433.319-1.718-.515-.172-1.215-.249-1.59-.858-.066-.105.08-.425 0-.514-.677-.765-1.63-1.296-2.225-2.063-.71.552-.874 1.69-1.43 2.406-.434-.647.681-1.091.477-2.06-.466.011-.59.392-.794.686.087-.342-.324-.584-.32-.857.013-.644.688-1.387.637-2.235-.05-.81-1.05-2.066-1.271-3.433-.176-1.09-.19-2.117.16-3.092.178-.5.69-1.446 1.111-1.03.127-.32.266-.63.318-1.03.65.071.643-.567 1.431-.344 1.257-1.13 2.592-1.598 4.289-1.203zM186.178 13c.73.715 1.985.244 2.755.359 3.06.449 4.615 2.827 5.852 5.2 1.282 5.662-3.391 10.892-8.09 10.41-1.417-.146-2.265-1.341-3.27-1.616-.195-1.44-1.338-2.567-2.41-3.589.57-.998-.397-3.087.172-4.664.28-.342.938-.943 1.549-1.436.104-1.664 1.682-2.413 1.723-3.587.537-.397 1.487-.362 1.72-1.077zM230 24c.035.476-.819 1.496-.321 1.313-.673 1.71-5.107 4.183-6.72 1.504.05-.256.402-.155.642-.187-.51-.28-.902-.695-1.6-.75 1.865.072 4.87.526 5.919-1.318.526.32.8.012 1.12-.375.287.536-.87.977-1.12 1.504.805.317 1.336-1.308 2.08-1.691zm-4.96 2.817c.398.03.665-.097.8-.375-.302.084-.964-.256-.8.375zm4.194-11.353c1.58 2.468.534 7.075-1.465 8.508-1.053.757-3.069 1.083-4.392 1.02-2.056-.093-3.719-1.104-5.37-2.382-.03-.144.063-.16.161-.169.736.716.241-.881.814-.851-.521-1.31-.32-3.27 0-4.595.084-.34.602-1.015 0-1.022 1.027-1.354 2.206-2.607 3.906-2.895 2.369-.398 5.317.777 6.346 2.386zm.836 6.032c.546.184-.206.706-.202 1.008-.382-.024.162-.75.202-1.008zm-7.182-2.119c.28 1.03-.893.541-.977 1.191.537.305 1.328-.365 2.116-.34l-.135-.199c-.227-.33-.477-.635-1.004-.652zm41.712-7.81c.418.122.686.388.804.804-.008.254-.858-.326-.804-.804zm-2.095.525c-.172.59-.506-.262-1.006 0-.042-.882.718-.024 1.006 0zM178.626-6.996c5.57.17 7.585 6.21 5.666 10.798-1.18 2.818-3.745 4.86-6.764 6.169-.901.39-2.998 1.036-4.569 1.029-2.377-.01-3.432-.86-5.668-1.545-.305-.34.017-.215 0-.685l-.476-.368c-1.113-.855-2.223-1.712-2.815-3.06.003-.206.846-.32 1.074-.09l.032.045.002-.058c.02-1.317-.243-4.092 1.086-4.867.341.95-.493 2.033.367 2.571.198-1.756 1.768-2.225 1.826-4.113.85-.206 1.27-.826 2.195-.514.32-.153.335-.6.55-.857-.399-.525-.293.855-.917.687.227-.588.32-1.302 1.281-1.2-.07-.678-.59-.932-.914-1.371.082-.285.787.274.915.514 2.115-1.58 4.065-3.177 7.129-3.085zm-79.634.029c-.003.416.297.522.172 1.064 2.794.273 5.628 1.11 5.822 3.728.033.432-.207.972-.17 1.419.11 1.356.494 3.006-.344 4.792-.136.293-.669.534-.856.889-.536 1.013-.499 1.905-1.71 2.306-.018.485.283.358 0 .71-.415-.073-.374.324-.859.177-.066.25.668.286.83.107l.02-.036v.015c-.15.721-2.245 1.01-3.419.626.03-.21.313-.152.514-.18-.06-.232-.301-.28-.342-.532-1.603-.704-2.621-2.016-3.767-3.193-.371-.032-.078.628-.17.886-.743-.89-.959-2.32-1.029-3.905.286-.51.137.907.172 1.242.218-.89.5-2.28.17-3.193-.485-.032.208 1.16-.514.885.326-.619.164-1.198-.512-1.242 1.478-1.247 1.837-3.657 2.911-5.323 1.503.688 1.382-1.57 3.081-1.242zM215.984-12c-.05.43-.33.759 0 1.1-.05-1.107 1.717 1.197 2.374-.18.14.397.638.405.677.916 1.329.507 2.675.875 3.219 2.202.135.325.63.476.679.55 1.075 1.665 1.154 3.809 1.016 5.507-.565 6.957-7.36 13.176-13.726 10.096-.31-1.44-1.586-1.832-2.033-3.122.096-.697.86-.781.509-1.469.633-.195.483.456 1.017.369-.348-.907-.774-1.732-1.356-2.385-.02-1.044-.458-2-.34-3.122.194-1.828 1.814-2.496 2.035-4.038-.199-.093-1.097-.029-1.017-.917.931.251.306-.132 1.017-.734.519-.44 1.02-.693 1.695-1.284.732-.646 1.029-.74 1.694-1.47.7.023 1.06-.32 1.863-.183.233-.515-.21-1.655.677-1.836zm-76.008 3.013c3.615.259 7.316 5.068 5.584 10.583-.545 1.735-1.916 3.971-3.51 4.334-.404.288-.172.736-.797 1.041-.274.017-.298-.091-.198-.146l.018-.009-.055.007c-2.601.265-5.791.527-7.146-1.561l-.117-.196.244.204c.5.398 1.05.74 1.67 1.008-.086-.89-1.025-.852-1.436-1.388-.515-.883-.774-2.049-1.595-2.602-.203-1.237-.54-2.818-.16-4.163-.026-.204-.29-.147-.478-.173.728-.364 1.153-1.059 1.754-1.562-.101-.378.452-.552-.16-.52 1.689-2.73 3.488-5.066 6.382-4.857zM255.924-13c2.182-.002 3.643 1.509 5.26 2.472.002.466-.091 1.04.329 1.057.485-.152-.381-.264-.164-.706.61.34.406.852.759 1.568l.024.046-.022.018c-.323.287-.012 1.097.553.84.961 3.074-.184 6.414-2.794 6.351-.415 1-1.99.62-2.63 0 .07.339.06.76.494.707-.696.104-.312.526-.33 1.235-.033 1.346-1.673 2.165-1.479 3.705-.407-.384-1.042.707-1.315.707-.633-.004-1.25-1.377-1.808-1.765-.225-.156-.652-.014-.987-.177-.57-.275-1.92-1.298-2.3-1.765-.708-.863-.715-1.778-.988-2.647-.545.18-.514.977-1.313.883.418-.195.475-.781.822-1.058-.24-.469-.368.647-.987.352-.247-.736.55-1.717.493-2.822.502.438-.198 1.072 0 1.763.87-1.302.97-3.43 1.479-5.119-.361-.316-.673-.686-1.15-.879.457-.45.991-.817 1.643-1.06 1.453-1.647 3.667-3.702 6.411-3.706zm2.064 16.598c.272.062.166.504.202.804-.468-.054-.464-.534-.202-.804zm-2.392-.54c.117.479-.777-.126-.657.353.214.452 1.214-.037.657-.353zm-6.905-5.294c.157.33-.491.59 0 .707.144-.312.551-.548 0-.707zm-36.603-1.688c-.168.733.507.554.339 1.284-.52-.133-.499.318-1.018.184.01.66.34.978 1.018.918-.179-1.294 1.026-1.091.677-2.569-.131-.042-.334-.005-.339-.184-.461-.133-.34.365-.677.367zm-62.867 1.65v.402c-.172-.036-.192.078-.202.202-.39.08-.294-.916.202-.604z" mask="url(#prefix__b)"/>
    </g>
</svg>
