<svg xmlns="http://www.w3.org/2000/svg" xmlns:xlink="http://www.w3.org/1999/xlink" width="288" height="124" viewBox="0 0 288 124">
    <defs>
        <path id="prefix__a" d="M0 0H288V124H0z"/>
    </defs>
    <g fill="none" fill-rule="evenodd">
        <mask id="prefix__b" fill="#fff">
            <use xlink:href="#prefix__a"/>
        </mask>
        <use fill="#C062D0" xlink:href="#prefix__a"/>
        <path fill="#4B02CE" d="M277.968 148.486c.179.529-.444.687-.471 1.097-.017.256.488.26.35.761-.278 1.025-1.862 1.187-3.056 1.435-1.053.22-3 .507-4.464-.421.137-.1.333-.154.235-.422-.544.325-.233.154-.235-.34-.07.22-.592.053-.354.255-1.324-.228-1.452-3.017.589-3.635 1.925-.58 6.992.063 7.406 1.27zm-198 0c.18.529-.444.687-.47 1.097-.02.256.49.26.348.761-.278 1.025-1.861 1.187-3.053 1.435-1.055.22-3.001.507-4.464-.421.13-.1.333-.154.23-.422-.54.325-.23.154-.23-.34-.072.22-.592.053-.356.255-1.323-.228-1.451-3.017.587-3.635 1.929-.58 6.994.063 7.407 1.27zM35.821 149l.178.006c-.06.304-.518.11-.824.238-.625.254-.993 1.676-.69 1.756-1.034-.283-.366-2.117 1.514-1.994zm197 0l.178.006c-.065.304-.518.11-.826.238-.623.254-.988 1.676-.69 1.756-1.031-.283-.363-2.117 1.516-1.994zm63.225-4.45c.217.132.741.336.777.402.1.191-.192.654-.108.972.12.482.687.732.769 1.216.293 1.644-3.75 3.25-5.532 1.785-.45-.372-1.592-1.705-1.44-2.76.156-1.028 1.115-2.386 2.105-2.59 1.564-.328 2.676.497 3.43.975zm-197.996 0c.213.132.737.336.771.402.103.191-.19.654-.108.972.12.482.687.732.77 1.216.294 1.644-3.751 3.25-5.53 1.785-.452-.372-1.594-1.705-1.44-2.76.153-1.028 1.115-2.386 2.104-2.59 1.562-.328 2.677.497 3.433.975zm111.953 2.386c-.132-2.181 3.428-2.383 4.994-1.283.2.137.779.89.871 1.112.15.36.197 1.035 0 1.366-.05.086-1.302.88-1.196.855-.329.075-2.735-.171-3.042-.257-.749-.2-1.592-1.189-1.627-1.793zm-198 0c-.13-2.181 3.428-2.383 4.999-1.283.195.137.776.89.869 1.112.147.36.193 1.035 0 1.366-.052.086-1.303.88-1.195.855-.33.075-2.737-.171-3.044-.257-.749-.2-1.592-1.189-1.63-1.793zm143.983-5.935l.198.01c.127.008.136.186.495.247 1.047.174.595.023 1.108.328.342.201.956.292 1.112.41.473.352.757.987.862 1.402.148.552-.324.988-.246 1.729.056.5.75.709.372 1.316-.43.694-1.744.754-3.085 1.236-1.816.652-4.54.277-5.06-.823-.163-.337.204-.654.121-.906-.027-.085-.39-.303-.493-.415-.83-.9-.147-2.95.865-3.619.638-.423 2.74-1 3.949-.906zm-198.003 0l.198.01c.13.008.14.186.496.247 1.05.174.596.023 1.11.328.341.201.955.292 1.11.41.48.352.757.987.87 1.402.145.552-.328.988-.252 1.729.052.5.75.709.372 1.316-.43.694-1.745.754-3.087 1.236-1.817.652-4.544.277-5.064-.823-.156-.337.204-.654.124-.906-.03-.085-.392-.303-.489-.415-.83-.9-.15-2.95.86-3.619.635-.423 2.74-1 3.95-.906zm156.64.418c.241.078.644.028.798.078 2.192.711 3.652 2.765 1.578 3.874.002.098-.049.196-.152.27-1.053.764-2.138 1.22-3.24 1.354-.173.02-.34-.023-.456-.107-.95.204-2.605.182-2.655-.506.253-.042.164.151.343.157.016-.31-.295-.203-.574-.157-.214-.145.073-.139 0-.387-.447-.123-.237.204-.459.234-1.453-.619-2.19-2.04-1.606-3.26.164-.333.847-.666 1.15-1.008.136-.151-.03-.286.115-.387 1.214-.866 3.751-.61 5.158-.155zm197 0c.239.078.644.028.8.078 2.355.766 3.872 3.09 1.033 4.113l-.326-.296-.157-.057c.06.131.017.282-.128.385-1.055.763-2.14 1.22-3.242 1.353-.073.009-.144.006-.211-.006-.884.056-1.86-.081-1.9-.607.254-.042.164.151.347.157.015-.31-.293-.203-.573-.157-.217-.145.066-.139 0-.387-.447-.123-.237.204-.46.234-1.45-.619-2.193-2.04-1.605-3.26.16-.333.846-.666 1.146-1.008.137-.151-.03-.286.116-.387 1.216-.866 3.752-.61 5.16-.155zm-196.088 3.26c-.395.79-1.988.772-2.63 1.395.272.034.247-.141.569-.079l-.006.25.23-.036c.733-.137 1.478-.462 2.222-.969l-.268-.097c-.069-.135.137-.456-.117-.464zm197.004 0c-.4.79-1.995.772-2.636 1.395.274.034.248-.14.568-.08.542-.195 1.088-.491 1.637-.885.145-.103.351-.133.532-.09.018-.147.09-.334-.1-.34zm-198.032-1.164c.405.342.883.64 1.255 1.007.226-.772-.638-.808-1.255-1.007zm197 0c.409.342.883.64 1.259 1.007.224-.772-.642-.808-1.26-1.007zM191.37 137.07c.5-.123 1.752-.058 2.34 0 1.886.186 5.415 2.013 5.286 3.3-.114 1.177-2.722 2.151-4.55 2.52-1.909.383-2.659-.318-3.447-.789-.158-.093-.442-.063-.616-.156-.795-.426-.618-.87-.982-1.491-.105-.174-.33-.142-.369-.32-.21-.901.623-1.942.985-2.199.036-.028-.027-.123 0-.157.192-.28.45.062.739-.081.301-.146.355-.564.614-.627zm-197.001 0c.495-.123 1.749-.058 2.333 0 1.892.186 5.419 2.013 5.294 3.3-.118 1.177-2.724 2.151-4.553 2.52-1.908.383-2.657-.318-3.447-.789-.154-.093-.44-.063-.613-.156-.792-.426-.618-.87-.98-1.491-.1-.174-.33-.142-.372-.32-.205-.901.631-1.942.986-2.199.04-.028-.022-.123 0-.157.192-.28.45.062.738-.081.3-.146.36-.564.614-.627zm45.977 3.246c-.098.226-.643.546-.752.824-.09.245.193.369 0 .527-.363.293-.794.127-1.398.299-.39.112-1.078.6-1.934.527-1.038-.091-.994-.72-1.395-1.28-.612-.842-.454-2.31.427-3 2.19-1.707 6.017-.09 5.052 2.103zm198 0c-.1.226-.642.546-.753.824-.096.245.193.369 0 .527-.359.293-.797.127-1.398.299-.391.112-1.08.6-1.933.527-1.043-.091-.998-.72-1.398-1.28-.608-.842-.45-2.31.429-3 2.19-1.707 6.02-.09 5.052 2.103zm95.769-3.704c-.417 1.153 1.537 1.171 2.077 1.84.492.608.317 1.555 0 2.157-.556 1.042-3.298 2.145-5.373 1.84-1.123-.165-3.132-1.377-3.298-2.399-.173-1.094.697-3.033 2.32-3.438 1.228-.303 2.415.117 4.274 0zm-198 0c-.416 1.153 1.54 1.171 2.076 1.84.494.608.319 1.555 0 2.157-.554 1.042-3.296 2.145-5.37 1.84-1.123-.165-3.134-1.377-3.3-2.399-.175-1.094.7-3.033 2.321-3.438 1.228-.303 2.417.117 4.273 0zm119.364.276c-.037.245-.86.878-1.523.828.778.949 1.93 1.282 1.415 2.734-.387 1.084-2.452 1.269-3.806.828-.333-.11-.858-.196-.98-.25-.071-.028-.06-.23-.109-.247-.891-.327-1.767-.673-1.959-1.656-.09-.46.176-.89.33-1.495.09-.357-.024-.738.106-.991.93-1.79 6.741-1.289 6.526.25zm-198.002 0c-.031.245-.858.878-1.523.828.78.949 1.932 1.282 1.417 2.734-.387 1.084-2.449 1.269-3.806.828-.335-.11-.858-.196-.98-.25-.074-.028-.062-.23-.109-.247-.894-.327-1.768-.673-1.96-1.656-.088-.46.176-.89.328-1.495.091-.357-.025-.738.109-.991.93-1.79 6.74-1.289 6.524.25zm271.632 2.442c-.177.527 1.45.96 2.073.96-1.012-.109-1.331-.676-2.073-.96zm-198 0c-.177.527 1.451.96 2.076.96-1.015-.109-1.327-.676-2.076-.96zm-94.847-.215c.37.258 1.503.254 2.045.45.117.043.583.366.534.373.316-.054.616-.586.322-.899-.437-.468-2.462-.47-2.9.076zm198 0c.372.258 1.499.254 2.044.45.115.043.581.366.535.373.315-.054.614-.586.321-.899-.436-.468-2.462-.47-2.9.076zm36.93-7.089c1.027.108 3.424.656 3.609.993.168.313-.302.655-.222.99.18.742 1.307.658 1.42 1.534.008.02-.123 1.105-.326 1.264-.464.358-2.588.133-3.28 0-1.105-.223-3.239-1.152-3.39-2.166-.057-.38.439-1.683.66-2.074.2-.363.441-.658 1.528-.541zm-197 0c1.025.108 3.424.656 3.607.993.168.313-.3.655-.217.99.175.742 1.302.658 1.417 1.534.004.02-.123 1.105-.327 1.264-.46.358-2.586.133-3.28 0-1.105-.223-3.244-1.152-3.389-2.166-.055-.38.435-1.683.653-2.074.204-.363.446-.658 1.536-.541zm219.85-1.375c1.337.242 3.14 1.24 3.42 2.29.432 1.609-2.994 3.716-5.896 3.55-.163-.013-.584-.02-.826-.08-.855-.223-2.194-1.362-2.24-1.974-.038-.565.553-2.32.946-2.76-.021.025 1.166-.895 1.294-.948.776-.29 2.107-.29 3.302-.078zm-198 0c1.336.242 3.142 1.24 3.42 2.29.432 1.609-2.993 3.716-5.893 3.55-.165-.013-.589-.02-.828-.08-.858-.223-2.195-1.362-2.24-1.974-.04-.565.55-2.32.943-2.76-.019.025 1.166-.895 1.297-.948.774-.29 2.109-.29 3.3-.078zm-121.54 3.47c-.152-2.365 4.667-3.502 6.692-1.818.3.246.218.671.854.787.391.074.773-.205 1.097-.234l-.069.012c.088.016.85.01.917-.008.325.133.572.94.49 1.103-.236.452-1.355.452-2.068.79-.303.144-.515.626-.976.87-.607.328-2.3.828-3.164.873-.801.043-2.137-.25-2.435-.474-.313-.238-.18-.859-.483-1.109-.426-.344-.824-.285-.854-.791zm198 0c-.148-2.365 4.67-3.502 6.692-1.818.3.246.216.671.854.787.389.074.773-.205 1.095-.234l-.069.012c.088.016.85.01.918-.008.324.133.573.94.491 1.103-.231.452-1.353.452-2.073.79-.296.144-.507.626-.969.87-.61.328-2.298.828-3.168.873-.797.043-2.135-.25-2.43-.474-.316-.238-.182-.859-.488-1.109-.422-.344-.82-.285-.853-.791zm38.692-3.621c1.319 1.161 5.03 1.759 5.29 3.257.135.761-.704.788-.756 1.26-.023.232.839.39.38.742-.017.015-2.108.413-2.268.444-1.021.192-2.01.316-2.895.295-.97-.025-1.081-.168-1.636-.444-.355-.175-.867-.259-1.013-.367-1.044-.786-.562-1.374-.754-2.298-.05-.236-.064-.595 0-.742-.014.029.663-.61.754-.666.393-.236 1.367-.562 1.641-.594.31-.034.923.145 1.131 0 .29-.202-.635-.716.126-.887zm-198 0c1.318 1.161 5.024 1.759 5.29 3.257.133.761-.707.788-.758 1.26-.025.232.837.39.377.742-.016.015-2.101.413-2.264.444-1.02.192-2.008.316-2.896.295-.971-.025-1.083-.168-1.643-.444-.347-.175-.854-.259-1.005-.367-1.044-.786-.56-1.374-.754-2.298-.05-.236-.062-.595 0-.742-.014.029.663-.61.754-.666.39-.236 1.37-.562 1.638-.594.313-.034.93.145 1.133 0 .292-.202-.633-.716.128-.887zm300.153-.103c.34.17.366.573.817.83.318.178.938.01.82.452-.148.567-.651 1.773-.925 2.034-.061.058-.675.215-1.025.452-.506.35-.197.3-1.024.528-.344.096-.4.292-.513.304-.637.053-2.677-.564-2.978-.907-.013-.02-.51-1.047-.51-1.053-.11-.587.728-1.568 1.332-1.736.408-.112.937.004 1.435-.074-.052-.288-.6-.212-1.021-.23-.227-1.156 2.32-1.237 3.592-.6zm-197.002 0c.342.17.367.573.817.83.32.178.94.01.822.452-.148.567-.65 1.773-.923 2.034-.063.058-.679.215-1.025.452-.506.35-.197.3-1.027.528-.342.096-.396.292-.512.304-.634.053-2.674-.564-2.975-.907-.015-.02-.512-1.047-.514-1.053-.106-.587.73-1.568 1.334-1.736.408-.112.935.004 1.439-.074-.054-.288-.607-.212-1.025-.23-.228-1.156 2.324-1.237 3.589-.6zm-1.64 2.94c.166-.07.172-.364 0-.527-.716-.683-.785.846 0 .527zm196.994 0c.172-.07.174-.364 0-.527-.71-.683-.78.846 0 .527zM249.602 125c.824.032 2.106.727 3.204.987.727.17 1.408.062 1.782.162.334.09 1.686.78 1.781.904.16.209-.023.68.116.985.128.272.448.48.476.575.37 1.424-1.97 2.451-4.868 2.383-1.154-.034-1.95-.252-2.254-1.068-.14-.373.13-.865-.117-1.07-.237-.192-.611.01-1.07-.08-.168-.037-1.253-.51-1.307-.576-.33-.412-.521-2.031-.116-2.628.146-.218 1.636-.601 2.373-.574zm-291.027 0l.296.004c2.019.1 3.571 2.28 3.015 3.983-.041.122.064.277 0 .39-.52.93-4.143 1.868-6.406 1.563-1.49-.199-1.871-.805-2.516-1.564-.656-.773-1.661-2.1-.249-2.967.698-.43 1.498-.27 3.013-.624.914-.211 1.832-.846 3.143-.781zm196 0l.295.004c2.014.1 3.572 2.28 3.016 3.983-.043.122.062.277 0 .39-.521.93-4.14 1.868-6.41 1.563-1.485-.199-1.868-.805-2.512-1.564-.654-.773-1.663-2.1-.248-2.967.699-.43 1.496-.27 3.013-.624.914-.211 1.832-.846 3.141-.781zm-100.975 0c.827.032 2.106.727 3.207.987.724.17 1.406.062 1.779.162.334.09 1.686.78 1.783.904.162.209-.023.68.117.985.129.272.454.48.476.575.368 1.424-1.971 2.451-4.866 2.383-1.159-.034-1.956-.252-2.257-1.068-.138-.373.13-.865-.119-1.07-.236-.192-.611.01-1.07-.08-.168-.037-1.254-.51-1.305-.576-.33-.412-.52-2.031-.119-2.628.149-.218 1.642-.601 2.374-.574zm82.613.112c.36.07.845.472 1.343.6.445.12.943.014 1.1.088.462.22.272.573.608.856.56.482 1.507.458 1.704 1.03.182.524-.489.804-.243 1.712-2.244.767-5.34.92-7.32-.256-.047-.03-.07-.32-.244-.43-.232-.148-.551-.115-.606-.17-.465-.465-.669-1.368-.492-1.97.1-.341.837-1.28 1.341-1.46.428-.144 1.93-.157 2.809 0zm196.997 0c.359.07.843.472 1.344.6.447.12.942.014 1.095.088.467.22.279.573.609.856.564.482 1.514.458 1.71 1.03.182.524-.49.804-.243 1.712-2.246.767-5.34.92-7.321-.256-.044-.03-.069-.32-.244-.43-.234-.148-.555-.115-.606-.17-.467-.465-.668-1.368-.49-1.97.096-.341.833-1.28 1.34-1.46.423-.144 1.928-.157 2.806 0zm-139.473-1.175c2.478-1.272 6.293.453 5.702 2.265-.068.205-.392.415-.498.671-.382.92-.31 1.467-1.36 1.93-1.012.443-4.139.913-5.338.588-.798-.218-1.864-1.286-1.732-2.1.09-.55 1.05-.838 1.366-1.257.092-.134.022-.608.119-.757.13-.194 1.581-1.262 1.74-1.34zm-197 0c2.483-1.272 6.293.453 5.702 2.265-.066.205-.387.415-.498.671-.38.92-.31 1.467-1.36 1.93-1.008.443-4.143.913-5.331.588-.808-.218-1.871-1.286-1.739-2.1.09-.55 1.055-.838 1.366-1.257.094-.134.022-.608.121-.757.133-.194 1.581-1.262 1.739-1.34zm137.159 3.49c.13-.367.502-.56.73-.856-.673-.38-2.014.536-.73.856zm196.997 0c.13-.367.502-.56.733-.856-.675-.38-2.017.536-.733.856zm-291.826-6.012c.026.014 1.64.74 1.806 1.05.263.5.065 1.308-.124 1.919-.331 1.077-1.275 1.49-2.52 1.922-1.004.344-3.224.905-5.043.61-1.977-.32-2.707-2.624-1.8-3.84.711-.96 2.099-1.871 3.12-2.008 1.379-.186 3.699.031 4.561.347zm197 0c.027.014 1.64.74 1.804 1.05.266.5.068 1.308-.122 1.919-.329 1.077-1.274 1.49-2.52 1.922-1.002.344-3.22.905-5.047.61-1.974-.32-2.704-2.624-1.795-3.84.714-.96 2.1-1.871 3.121-2.008 1.38-.186 3.697.031 4.56.347zm-222.322-1.408c1.315.09 3.324 1.186 3.696 1.537.426.404.673 1.1.507 1.627-.201.639-1.244 1.358-2.166 1.625-1.623.471-2.633.012-4.203-.271-.425-.077-.936-.01-1.149-.089-.744-.28-1.593-1.502-1.403-2.258.25-1 2.848-2.294 4.718-2.17zm197.998 0c1.32.09 3.327 1.186 3.695 1.537.43.404.675 1.1.51 1.627-.203.639-1.246 1.358-2.163 1.625-1.628.471-2.636.012-4.21-.271-.426-.077-.932-.01-1.147-.089-.745-.28-1.589-1.502-1.402-2.258.25-1 2.849-2.294 4.717-2.17zm-172.676 3.679c-2.15-.359-.54 1.236 0 0zm197 0c-2.147-.359-.54 1.236 0 0zm39.81-4.128c.764 2.032-2.144 5.307-5.188 4.228-.37-.13-.818-.794-1.35-1.326-.15-.148-.337-1.729-.339-1.99-.004-.404.231-1.127.34-1.659.155-.781.23-1.496 1.239-1.742 1.936-.465 4.919 1.492 5.297 2.49zm-198.001 0c.767 2.032-2.142 5.307-5.183 4.228-.38-.13-.82-.794-1.357-1.326-.15-.148-.336-1.729-.336-1.99-.006-.404.23-1.127.336-1.659.159-.781.235-1.496 1.24-1.742 1.938-.465 4.921 1.492 5.3 2.49zm93.816-3.347c3.04-1.077 5.95 2.2 5.184 4.23-.374.995-3.36 2.954-5.298 2.487-1.004-.243-1.081-.959-1.237-1.743-.106-.526-.341-1.249-.341-1.658.004-.26.188-1.84.341-1.986.532-.535.98-1.196 1.351-1.33zm-197.003 0c3.045-1.077 5.954 2.2 5.187 4.23-.375.995-3.36 2.954-5.301 2.487-1.004-.243-1.08-.959-1.238-1.743-.108-.526-.341-1.249-.337-1.658.002-.26.188-1.84.337-1.986.532-.535.978-1.196 1.352-1.33zM211.87 122.9c.553.025 1.713-.29 2.04-.722-1.064-.033-1.561.339-2.04.722zm-198 0c.548.025 1.713-.29 2.041-.722-1.066-.033-1.558.339-2.041.722zm298.908-6.696c.925.27 1.965.983 2.17 1.626.165.528-.08 1.22-.513 1.626-.372.354-2.378 1.45-3.696 1.534-1.865.127-4.461-1.163-4.71-2.165-.195-.76.653-1.98 1.4-2.257.215-.082.719-.017 1.147-.092 1.571-.284 2.58-.748 4.202-.272zm-197.993 0c.916.27 1.958.983 2.164 1.626.164.528-.081 1.22-.513 1.626-.373.354-2.381 1.45-3.696 1.534-1.868.127-4.461-1.163-4.713-2.165-.19-.76.654-1.98 1.4-2.257.213-.082.722-.017 1.147-.092 1.572-.284 2.58-.748 4.211-.272zm219.442-1.507c1.246.428 2.194.843 2.52 1.917.19.611.39 1.418.125 1.919-.166.31-1.776 1.037-1.802 1.046-.865.32-3.184.537-4.566.352-1.019-.136-2.407-1.045-3.121-2.008-.902-1.216-.174-3.52 1.801-3.842 1.824-.292 4.043.265 5.043.616zm-197 0c1.247.428 2.194.843 2.525 1.917.186.611.386 1.418.118 1.919-.163.31-1.776 1.037-1.8 1.046-.867.32-3.185.537-4.564.352-1.021-.136-2.411-1.045-3.124-2.008-.9-1.216-.176-3.52 1.802-3.842 1.821-.292 4.046.265 5.043.616zm173.644 3.403c.476.385.975.753 2.039.725-.33-.432-1.491-.751-2.039-.725zm-198.002 0c.479.385.978.753 2.041.725-.33-.432-1.495-.751-2.04-.725zm222.201-.788l-.154.023zm-197 0c-.053.009-.105.016-.154.023zm-38.49-6.118c1.055.461.981 1.01 1.364 1.928.108.259.43.463.494.675.592 1.808-3.219 3.535-5.703 2.265-.155-.08-1.604-1.152-1.734-1.346-.102-.148-.027-.623-.126-.751-.31-.42-1.274-.708-1.364-1.26-.132-.812.936-1.88 1.737-2.097 1.193-.327 4.324.146 5.332.586zm196.997 0c1.053.461.985 1.01 1.365 1.928.108.259.43.463.497.675.587 1.808-3.222 3.535-5.705 2.265-.153-.08-1.603-1.152-1.738-1.346-.095-.148-.025-.623-.122-.751-.308-.42-1.272-.708-1.362-1.26-.135-.812.93-1.88 1.736-2.097 1.192-.327 4.322.146 5.33.586zm-142.485-1.191c2.897-.076 5.233.952 4.871 2.38-.03.097-.355.302-.476.576-.144.308.041.78-.118.986-.1.123-1.451.813-1.785.902-.37.101-1.054-.009-1.773.164-1.105.262-2.383.955-3.208.986-.736.03-2.225-.356-2.376-.574-.4-.595-.213-2.217.116-2.629.056-.063 1.145-.542 1.311-.576.456-.093.83.114 1.068-.08.247-.207-.022-.697.116-1.07.306-.818 1.1-1.038 2.254-1.065zm-197 0c2.898-.076 5.236.952 4.87 2.38-.021.097-.355.302-.476.576-.142.308.043.78-.118.986-.097.123-1.449.813-1.78.902-.375.101-1.058-.009-1.779.164-1.106.262-2.38.955-3.208.986-.732.03-2.223-.356-2.372-.574-.405-.595-.215-2.217.123-2.629.047-.063 1.134-.542 1.3-.576.459-.093.838.114 1.068-.08.25-.207-.022-.697.12-1.07.302-.818 1.098-1.038 2.252-1.065zm299.793 1.617c.064.115-.04.27 0 .39.559 1.702-.996 3.887-3.015 3.984-1.31.067-2.228-.568-3.142-.781-1.518-.351-2.318-.197-3.013-.625-1.413-.866-.408-2.191.253-2.968.64-.757 1.016-1.366 2.511-1.562 2.268-.305 5.884.63 6.406 1.562zm-196 0c.067.115-.038.27 0 .39.557 1.702-.995 3.887-3.016 3.984-1.308.067-2.224-.568-3.138-.781-1.518-.351-2.316-.197-3.015-.625-1.415-.866-.406-2.191.25-2.968.643-.757 1.02-1.366 2.514-1.562 2.27-.305 5.886.63 6.406 1.562zm-19.16-1.018c-.25.909.427 1.188.243 1.712-.197.57-1.144.546-1.709 1.028-.328.284-.146.636-.61.856-.156.07-.652-.035-1.099.086-.498.13-.98.535-1.343.599-.875.16-2.384.15-2.803 0-.507-.174-1.244-1.116-1.339-1.453-.18-.605.022-1.507.483-1.972.055-.053.378-.022.608-.172.177-.11.202-.4.248-.426 1.977-1.18 5.076-1.028 7.32-.258zm197 0c-.248.909.425 1.188.244 1.712-.197.57-1.147.546-1.709 1.028-.327.284-.143.636-.61.856-.155.07-.65-.035-1.098.086-.497.13-.98.535-1.342.599-.874.16-2.381.15-2.8 0-.508-.174-1.245-1.116-1.349-1.453-.172-.605.029-1.507.494-1.972.055-.053.376-.022.604-.172.177-.11.205-.4.252-.426 1.978-1.18 5.073-1.028 7.314-.258zm-6.83 1.97c-1.283.323.058 1.232.73.858-.23-.295-.601-.493-.73-.858zm-197.002 0c-1.283.323.058 1.232.729.858-.228-.295-.602-.493-.729-.858zm177.603-6.57c.115.012.171.21.515.3.827.233.518.185 1.022.53.354.242.966.393 1.027.455.27.26.775 1.463.925 2.035.118.44-.502.273-.82.45-.456.258-.48.659-.823.831-1.264.636-3.815.555-3.59-.602.419-.016.971.06 1.025-.23-.502-.079-1.029.043-1.436-.073-.602-.17-1.441-1.15-1.331-1.734 0-.008.493-1.037.512-1.057.3-.339 2.337-.957 2.974-.905zm-196.997 0c.118.012.166.21.514.3.827.233.516.185 1.024.53.35.242.964.393 1.027.455.268.26.773 1.463.922 2.035.115.44-.503.273-.82.45-.453.258-.48.659-.82.831-1.268.636-3.818.555-3.593-.602.423-.016.972.06 1.024-.23-.5-.079-1.03.043-1.435-.073-.603-.17-1.439-1.15-1.333-1.734 0-.008.499-1.037.512-1.057.3-.339 2.34-.957 2.978-.905zm99.343-1.207c.162.031 2.245.43 2.266.444.457.352-.4.51-.377.74.05.473.891.498.754 1.262-.267 1.5-3.968 2.095-5.286 3.258-.761-.175.16-.686-.126-.89-.208-.144-.82.036-1.136 0-.271-.03-1.245-.354-1.638-.592-.093-.056-.765-.694-.753-.667-.069-.146-.053-.504 0-.738.194-.927-.293-1.517.753-2.298.149-.113.656-.194 1.006-.37.562-.277.676-.422 1.64-.443.889-.02 1.876.106 2.897.294zm198.001 0c.16.031 2.244.43 2.264.444.46.352-.4.51-.374.74.05.473.89.498.751 1.262-.267 1.5-3.966 2.095-5.284 3.258-.76-.175.162-.686-.13-.89-.203-.144-.823.036-1.131 0-.272-.03-1.247-.354-1.64-.592-.094-.056-.766-.694-.754-.667-.067-.146-.053-.504 0-.738.194-.927-.288-1.517.754-2.298.15-.113.658-.194 1.01-.37.56-.277.673-.422 1.633-.443.89-.02 1.878.106 2.901.294zm-120.278-.286c2.904-.17 6.325 1.937 5.899 3.551-.282 1.049-2.081 2.047-3.422 2.288-1.196.213-2.529.213-3.3-.08-.131-.048-1.316-.969-1.297-.946-.391-.44-.982-2.197-.943-2.763.043-.612 1.384-1.752 2.24-1.971.239-.061.662-.07.823-.08zm-196.998 0c2.904-.17 6.328 1.937 5.896 3.551-.278 1.049-2.081 2.047-3.422 2.288-1.193.213-2.528.213-3.298-.08-.132-.048-1.317-.969-1.294-.946-.395-.44-.986-2.197-.947-2.763.04-.612 1.384-1.752 2.241-1.971.233-.061.663-.07.824-.08zm277.711-1.006c.866.043 2.557.542 3.164.867.459.253.673.732.975.876.711.335 1.833.337 2.067.79.083.16-.164.97-.488 1.107.049-.022-.826-.031-.917-.014l-.005.002-.053-.01c-.297-.071-.63-.28-.972-.216-.634.121-.554.543-.85.793-2.025 1.68-6.846.547-6.696-1.823.031-.504.43-.444.855-.792.304-.248.172-.867.488-1.106.295-.224 1.629-.513 2.432-.474zm-196.003 0c.861.043 2.557.542 3.164.867.464.253.674.732.974.876.718.335 1.837.337 2.07.79.088.16-.166.97-.487 1.107.05-.022-.825-.031-.916-.014l-.005.001-.053-.008c-.295-.072-.63-.28-.975-.217-.636.121-.555.543-.848.793-2.025 1.68-6.85.547-6.695-1.823.028-.504.428-.444.852-.792.3-.248.17-.867.484-1.106.295-.224 1.634-.513 2.435-.474zm135.427 4.69c.173-.166.17-.46 0-.53-.783-.318-.712 1.211 0 .53zm-197 0c.173-.166.17-.46 0-.53-.783-.318-.713 1.211 0 .53zm158.69-4.997c.696-.139 2.815-.364 3.277 0 .208.153.333 1.24.331 1.26-.115.874-1.241.793-1.421 1.53-.082.338.39.676.218.994-.177.333-2.575.88-3.604.994-1.086.116-1.33-.183-1.533-.542-.22-.394-.711-1.694-.656-2.074.149-1.015 2.286-1.944 3.388-2.162zm-198.002 0c.696-.139 2.819-.364 3.28 0 .207.153.334 1.24.33 1.26-.113.874-1.24.793-1.416 1.53-.087.338.385.676.216.994-.18.333-2.58.88-3.61.994-1.084.116-1.326-.183-1.53-.542-.22-.394-.715-1.694-.655-2.074.147-1.015 2.285-1.944 3.385-2.162zm357.808-3.163c.6.17 1.042.002 1.396.298.191.158-.091.285 0 .529.11.278.653.596.753.824.965 2.193-2.862 3.807-5.05 2.102-.885-.688-1.04-2.158-.429-3 .402-.558.355-1.194 1.394-1.28.856-.073 1.543.414 1.936.527zm-197 0c.602.17 1.037.002 1.395.298.191.158-.095.285 0 .529.11.278.653.596.753.824.969 2.193-2.862 3.807-5.052 2.102-.88-.688-1.037-2.158-.429-3 .402-.558.355-1.194 1.398-1.28.854-.073 1.54.414 1.934.527zm99.997-.642c.317.6.488 1.552 0 2.158-.536.666-2.493.687-2.08 1.837-1.855-.117-3.05.305-4.275 0-1.62-.4-2.495-2.342-2.317-3.436.161-1.023 2.171-2.234 3.297-2.4 2.076-.302 4.817.797 5.375 1.841zm-280.63-1.67c1.354-.441 3.424-.254 3.806.828.517 1.454-.64 1.781-1.414 2.733.659-.047 1.487.583 1.521.83.211 1.537-5.598 2.038-6.526.247-.134-.251-.014-.634-.11-.992-.154-.598-.413-1.032-.324-1.492.19-.984 1.064-1.328 1.956-1.654.051-.02.04-.222.11-.251.124-.054.647-.14.98-.25zm82.626 1.67c.321.6.494 1.552 0 2.158-.536.666-2.488.687-2.073 1.837-1.859-.117-3.05.305-4.276 0-1.626-.4-2.498-2.342-2.319-3.436.164-1.023 2.173-2.234 3.292-2.4 2.075-.302 4.822.797 5.376 1.841zm113.372-1.67c1.36-.441 3.421-.254 3.81.828.513 1.454-.641 1.781-1.417 2.733.663-.047 1.49.583 1.521.83.214 1.537-5.596 2.038-6.525.247-.13-.251-.02-.634-.11-.992-.152-.598-.417-1.032-.322-1.492.187-.984 1.062-1.328 1.955-1.654.05-.02.038-.222.109-.251.12-.054.65-.14.979-.25zm-14.722 4.337c.046.008-.42.334-.538.375-.544.197-1.67.193-2.04.452.439.544 2.465.544 2.903.074.289-.312-.008-.844-.325-.9zm196.999 0c.05.008-.415.334-.536.375-.542.197-1.667.193-2.042.452.441.544 2.463.544 2.901.074.293-.312-.001-.844-.323-.9zM95.443 97.111c1.834.367 4.438 1.341 4.554 2.519.123 1.288-3.403 3.113-5.293 3.299-.584.06-1.836.125-2.338 0-.252-.061-.312-.48-.614-.629-.285-.14-.544.2-.736-.077-.022-.037.04-.131 0-.158-.355-.257-1.19-1.296-.984-2.2.042-.18.268-.145.368-.313.362-.624.19-1.07.986-1.496.174-.094.453-.065.616-.157.786-.472 1.53-1.172 3.44-.788zm198.001 0c1.83.367 4.441 1.341 4.553 2.519.127 1.288-3.403 3.113-5.29 3.299-.586.06-1.838.125-2.34 0-.254-.061-.312-.48-.616-.629-.281-.14-.544.2-.734-.077-.025-.037.038-.131 0-.158-.36-.257-1.192-1.296-.984-2.2.042-.18.27-.145.37-.313.364-.624.185-1.07.984-1.496.172-.094.453-.065.612-.157.79-.472 1.535-1.172 3.445-.788zm-61.257 2.602c-.622 0-2.253.43-2.078.958.745-.284 1.064-.85 2.078-.958zm-198.002 0c-.625 0-2.253.43-2.076.958.749-.284 1.061-.85 2.076-.958zm23.62-6.391c1.343.481 2.658.543 3.083 1.231.377.608-.315.82-.367 1.32-.08.74.392 1.175.247 1.729-.112.412-.392 1.045-.865 1.4-.16.118-.77.212-1.113.413-.515.305-.063.156-1.111.327-.359.062-.365.24-.495.248-1.205.094-3.31-.481-3.949-.902-1.01-.674-1.696-2.726-.862-3.626.098-.107.461-.325.49-.41.085-.257-.282-.571-.125-.907.522-1.1 3.247-1.477 5.066-.823zm197.994 0c1.346.481 2.658.543 3.09 1.231.375.608-.317.82-.371 1.32-.076.74.392 1.175.246 1.729-.107.412-.39 1.045-.862 1.4-.157.118-.775.212-1.11.413-.52.305-.066.156-1.116.327-.354.062-.365.24-.49.248-1.215.094-3.315-.481-3.954-.902-1.01-.674-1.69-2.726-.86-3.626.099-.107.462-.325.493-.41.08-.257-.285-.571-.126-.907.52-1.1 3.244-1.477 5.06-.823zM210.516 93l.094.005c1.097.132 2.188.59 3.236 1.351.147.107.189.258.125.39l.163-.058.318-.299c2.846 1.026 1.329 3.35-1.029 4.116-.154.05-.561 0-.802.078-1.405.453-3.944.709-5.16-.155-.143-.104.023-.238-.112-.39-.304-.343-.983-.674-1.145-1.01-.59-1.216.151-2.639 1.604-3.258.22.03.01.354.458.232.068-.248-.219-.242 0-.387.28.05.59.157.571-.158-.18.01-.089.2-.345.158.04-.526 1.018-.66 1.903-.603.068-.013.141-.016.215-.007zM14.517 93l.093.005c1.097.132 2.186.59 3.235 1.351.105.076.157.174.155.272 2.076 1.112.61 3.166-1.576 3.877-.156.05-.562 0-.805.078-1.405.453-3.941.709-5.155-.155-.143-.104.019-.238-.116-.39-.302-.343-.986-.674-1.146-1.01-.588-1.216.154-2.639 1.607-3.258.22.03.01.354.455.232.069-.248-.214-.242 0-.387l.14.027c.234.047.448.078.436-.185-.185.01-.093.2-.347.158.053-.688 1.706-.706 2.659-.501.114-.086.285-.13.458-.109zm-18.564-1.923c1.779-1.468 5.827.138 5.532 1.782-.083.483-.649.735-.771 1.214-.08.319.21.783.11.973-.034.067-.558.27-.777.406-.757.475-1.865 1.304-3.43.971-.99-.208-1.951-1.562-2.102-2.594-.159-1.05.988-2.38 1.438-2.752zm197.003 0c1.775-1.468 5.818.138 5.53 1.782-.087.483-.655.735-.777 1.214-.08.319.213.783.108.973-.032.067-.555.27-.772.406-.756.475-1.86 1.304-3.425.971-.993-.208-1.95-1.562-2.106-2.594-.152-1.05.987-2.38 1.442-2.752zM16.764 95.478c-.372.368-.85.665-1.26 1.008.622-.201 1.487-.237 1.26-1.008zm197.004 0c-.376.368-.852.665-1.262 1.008.62-.201 1.483-.237 1.262-1.008zm-2.866-1.552c.642.625 2.236.605 2.636 1.395.192-.006.121-.193.104-.342-.18.045-.39.015-.53-.089-.538-.391-1.078-.684-1.613-.88l-.026-.008c-.322.064-.3-.11-.571-.076zm-196.435-.172l.005.248c-.323.064-.293-.11-.57-.076.642.625 2.237.605 2.634 1.395.253-.008.052-.33.118-.465l.272-.097c-.835-.572-1.672-.909-2.49-1.01l.031.005zm101.21-2.74c-.111-.025 1.142.77 1.192.854.195.332.153 1.005 0 1.366-.089.222-.672.976-.865 1.112-1.575 1.102-5.13.898-5-1.28.037-.61.88-1.596 1.63-1.795.307-.085 2.711-.33 3.042-.258zm198 0c-.107-.025 1.142.77 1.193.854.193.332.152 1.005 0 1.366-.092.222-.672.976-.865 1.112-1.574 1.102-5.13.898-5.002-1.28.04-.61.881-1.596 1.634-1.795.309-.085 2.71-.33 3.04-.258zM272.507 88.5c1.331-.027 2.577.378 3.606.81 1.222.512 2.22 1.283 2.366 2.1.194 1.07-1.06 2.554-2.865 2.986-.296.073-1.625.136-1.735.084-1.16-.531-2.263-1.382-3.235-2.423-.885-.95-1.997-1.858-.127-2.829.145-.075.58-.054.871-.161.573-.212.566-.554 1.12-.567zm-195.999 0c1.332-.027 2.575.378 3.607.81 1.218.512 2.218 1.283 2.365 2.1.191 1.07-1.063 2.554-2.857 2.986-.307.073-1.632.136-1.743.084-1.157-.531-2.266-1.382-3.234-2.423-.891-.95-1.997-1.858-.128-2.829.144-.075.58-.054.869-.161.573-.212.566-.554 1.121-.567zm-102.181.143c1.466-.93 3.413-.643 4.466-.423 1.195.247 2.775.412 3.052 1.433.14.506-.37.506-.347.764.027.41.648.571.469 1.099-.418 1.207-5.479 1.847-7.406 1.265-2.042-.614-1.912-3.404-.588-3.63-.237.2.281.033.354.252.002-.493-.31-.664.234-.339.1-.269-.1-.319-.234-.421zm363.317.442c.525.479.676 1.793-1.042 1.303.293 1.31-1.118 1.727-2.737 2.31-2.626.93-5.251-.408-4.819-2.462.255-1.214.997-2.124 2.995-2.228 1.673-.083 4.868.405 5.603 1.077zm-166.317-.442c1.467-.93 3.412-.643 4.467-.423 1.192.247 2.776.412 3.055 1.433.141.506-.37.506-.351.764.03.41.652.571.467 1.099-.414 1.207-5.478 1.847-7.401 1.265-2.043-.614-1.92-3.404-.586-3.63-.241.2.279.033.35.252.003-.493-.31-.664.236-.339.102-.269-.105-.319-.237-.421zm-31.682.442c.525.479.673 1.793-1.042 1.303.293 1.31-1.117 1.727-2.736 2.31-2.624.93-5.251-.408-4.822-2.462.26-1.214 1.002-2.124 2.999-2.228 1.672-.083 4.864.405 5.601 1.077zm191.096.768c-.976.27-.348 2.035 1.432 1.919-.062-.293-.49-.11-.782-.23-.589-.247-.936-1.613-.65-1.689zm-197.997 0c-.978.27-.347 2.035 1.43 1.919-.06-.293-.485-.11-.78-.23-.59-.247-.936-1.613-.65-1.689zm-180.63-6.468c2.324-.878 5.71-.087 7.043.679 1.623.937 1.385 2.09.482 3.047.42-.013.463-.298.85-.337-.328 1.009.253.35.484.928.247.61-1.347 1.346-1.941 1.527-.28.078-.729.004-1.094.085-1.255.267-2.866.765-3.879.674-.244-.022-1.811-.45-1.945-.507-.947-.409-1.528-1.446-1.942-2.286-.574-1.18.335-3.199 1.942-3.81zm198 0c2.327-.878 5.71-.087 7.044.679 1.618.937 1.384 2.09.48 3.047.424-.013.464-.298.854-.337-.328 1.009.25.35.482.928.244.61-1.347 1.346-1.944 1.527-.28.078-.726.004-1.087.085-1.26.267-2.873.765-3.887.674-.238-.022-1.807-.45-1.942-.507-.946-.409-1.527-1.446-1.941-2.286-.577-1.18.334-3.199 1.941-3.81zm-54.08-.256c.558.067 1.269.006 1.641.075.969.18.944.57 1.385 1.225.28.424.779.706.88.994.547 1.547-2.777 2.846-5.664 2.528-1.126-.124-2.863-.784-3.15-1.378-.227-.47-.128-1.808.127-2.221-.057.101.94-.804 1.003-.843 1.11-.623 2.246-.575 3.779-.38zm197.999 0c.56.067 1.268.006 1.643.075.966.18.943.57 1.382 1.225.28.424.779.706.882.994.546 1.547-2.778 2.846-5.666 2.528-1.126-.124-2.863-.784-3.15-1.378-.222-.47-.128-1.808.127-2.221-.054.101.94-.804 1.006-.843 1.108-.623 2.24-.575 3.776-.38zM211.48 81.53c1.092.113 3.389.862 4.12 1.52.417.369 1.026 1.73.877 1.917-.073.086-.077.055-.25.078-.708.107-1.2.696-1.497.798-.403.142-2.552.546-4 .64-3.196.21-5.21-1.797-3.742-3.195.881-.842 2.184-1.994 4.492-1.758zm26.94-.157c.143.252-.373.062-.228.31 1.777.757 1.51 2.769.577 3.576-.042.038-1.468.881-1.621.935-3.04 1.063-6.302-.867-6.603-2.487-.294-1.609.878-2.522 2.435-2.955 1.96-.55 4.042-.14 5.44.621zm-197.998 0c.143.252-.378.062-.23.31 1.778.757 1.509 2.769.576 3.576-.04.038-1.466.881-1.622.935-3.033 1.063-6.302-.867-6.6-2.487-.296-1.609.878-2.522 2.435-2.955 1.962-.55 4.05-.14 5.44.621zm-26.942.157c1.09.113 3.388.862 4.122 1.52.417.369 1.026 1.73.874 1.917-.072.086-.077.055-.249.078-.706.107-1.2.696-1.501.798-.399.142-2.55.546-3.993.64-3.2.21-5.211-1.797-3.746-3.195.883-.842 2.186-1.994 4.493-1.758zm80.543 3.59c-.125.536.654.52 1.261.612.318-.376-.712-.517-1.26-.613zm198 0c-.127.536.654.52 1.26.612.32-.376-.713-.517-1.26-.613zm-80.042-2.547c-.82.047-2.664 1.632-2.623 2.154.063.845 1.782.7 1.123-.16-.113-.148-.419-.097-.371-.239.473-.176 2.69.64 2.745-.24.387 0 .813.189 1.126 0-.313-1.076-.904-1.583-2-1.515zm-198 0c-.82.047-2.663 1.632-2.62 2.154.06.845 1.777.7 1.123-.16-.116-.148-.424-.097-.376-.239.471-.176 2.69.64 2.745-.24.394 0 .815.189 1.125 0-.31-1.076-.901-1.583-1.997-1.515zm217.837 1.056c.11 1.274 2.4 1.214 3.71.699-.607.064-1.412-.066-2.086-.078-.145-.002-.454.188-.582.156-.569-.144-.479-.534-1.042-.777zm-197.999 0c.107 1.274 2.397 1.214 3.708.699-.607.064-1.412-.066-2.086-.078-.143-.002-.45.188-.578.156-.573-.144-.483-.534-1.044-.777zm103.394-5.418c.461.196 1.575 1.478 1.677 2.308.016.162.14.357.103.512-.306 1.19-2.722 2.292-4.498 1.88-1.584-.366-3.76-3.275-1.567-4.444.907-.486 3.401-.63 4.285-.256zm198.004 0c.457.196 1.568 1.478 1.67 2.308.02.162.145.357.105.512-.305 1.19-2.725 2.292-4.497 1.88-1.584-.366-3.759-3.275-1.568-4.444.914-.486 3.404-.63 4.29-.256zm-278.521-.629c.476.102.611.577.989.833.506.337 1.14.379 1.363.681.094.124-.151.37-.122.456.063.192.418.22.497.377.497 1.023-1.574 1.598-1.61 2.57-.97-1.084-2.786-.05-4.837-.153-1.571-.075-3.303-.407-3.471-1.059-.052-.208.355-.369.37-.604.019-.242-.382-.444-.37-.529.045-.388.775-1.197 1.484-1.588.215-.116.937-.25 1.369-.454.223-.106.382-.347.495-.377.838-.24 3.107-.308 3.843-.153zm197.995 0c.483.102.611.577.996.833.5.337 1.142.379 1.362.681.094.124-.15.37-.124.456.063.192.423.22.497.377.5 1.023-1.567 1.598-1.614 2.57-.965-1.084-2.781-.05-4.832-.153-1.569-.075-3.305-.407-3.471-1.059-.054-.208.353-.369.373-.604.014-.242-.382-.444-.373-.529.043-.388.776-1.197 1.486-1.588.214-.116.935-.25 1.363-.454.227-.106.386-.347.496-.377.844-.24 3.112-.308 3.84-.153zm59.271-1.324c.306.576-.445 1.089-.244 1.35.562.764 3.483-.137 3.271 1.52-.053.433-.832.818-1.261 1.182-.583.49-1.163 1.067-2.01 1.347-.519.169-1.28.259-1.517.252-.377-.009-.706-.182-.88-.169-.397.038-.146.305-.753.252-.953-.076-2.73-1.01-3.15-1.599-1.554-2.19 1.36-5.318 6.544-4.135zm-197.998 0c.304.576-.446 1.089-.25 1.35.568.764 3.485-.137 3.275 1.52-.055.433-.832.818-1.261 1.182-.58.49-1.16 1.067-2.013 1.347-.516.169-1.277.259-1.508.252-.377-.009-.713-.182-.887-.169-.395.038-.144.305-.751.252-.953-.076-2.735-1.01-3.151-1.599-1.554-2.19 1.36-5.318 6.546-4.135zm18.427 3.573c-.365.763 3.344 1.764 2.405.262-.233-.373-2.096-.903-2.405-.262zm198.002 0c-.362.763 3.34 1.764 2.403.262-.228-.373-2.098-.903-2.403-.262zm-215.922-.535c-.363.033-.765.909-1.133 1.18 1.138.101 2.481-1.307 1.133-1.18zm197.998 0c-.363.033-.765.909-1.135 1.18 1.142.101 2.483-1.307 1.135-1.18zm-201.272.845c.482-.05.464-.661.505-1.185-1.67-.181-1.23 1.255-.505 1.185zm197.999 0c.477-.05.463-.661.505-1.185-1.668-.181-1.23 1.255-.505 1.185zM276.13 75.09c.22.042 2.387.869 2.509 1.031.252.33.1.628 0 .95-.074.243-.653.644-.599.95.059.322.874.43.959.793-.009-.04.065.422-.36.555-.531.167-1.455-.115-1.91-.078-.957.072-1.846.702-3.113.71-1.021.008-2.663-.327-3.704-.551-.412-.093-1.71-.432-1.796-.558-.412-.6.718-.683.718-1.109.004-.333-.824-.512-.835-.792-.004-.197.503-.545.835-.792.586-.434 1.505-.084 2.394-.238.313-.054.547-.428.955-.554.169-.051.663-.016.96-.078.71-.154 1.685-.487 2.987-.239zm-197 0c.22.042 2.39.869 2.512 1.031.254.33.102.628 0 .95-.078.243-.653.644-.597.95.05.29.717.407.908.691l.045.102c-.007-.04.069.422-.356.555-.532.167-1.458-.115-1.911-.078-.961.072-1.847.702-3.111.71-1.026.008-2.666-.327-3.708-.551-.416-.093-1.713-.432-1.794-.558-.414-.6.712-.683.72-1.109 0-.333-.828-.512-.839-.792-.006-.197.508-.545.84-.792.581-.434 1.5-.084 2.392-.238.306-.054.545-.428.953-.554.169-.051.663-.016.956-.078.712-.154 1.688-.487 2.99-.239zm108.787-2.922c2.699-1.926 8.708.768 8.58 2.43-.132 1.738-3.149 3.984-5.525 3.9-.732-.026-2.215-.474-2.707-.811-.642-.439-1.814-2.007-1.765-2.723.018-.232.323-.433.355-.588.05-.239-.137-.46-.118-.662.047-.504.657-1.18 1.18-1.546zm-196.004 0c2.704-1.926 8.712.768 8.584 2.43-.128 1.738-3.146 3.984-5.525 3.9-.735-.026-2.214-.474-2.704-.811-.647-.439-1.817-2.007-1.768-2.723.02-.232.316-.433.353-.588.05-.239-.135-.46-.116-.662.04-.504.66-1.18 1.176-1.546zM-20.093 71c-.345.678.328.896 0 1.427-.203.334-1.28.406-1.383.636-.115.26.469.562.695 1.035.238.514.857 2.282.34 2.778-.255.243-1.633.304-1.96.398-.862.245-2.485.985-3.807.632-1.463-.392-.674-1.47-1.036-2.222-.109-.225-.782-.292-1.04-.635-.268-.365.094-.882-.113-1.27-.098-.179-.525-.187-.58-.4-.112-.448.202-.883.467-1.19.912-1.07 2.247-.754 4.264-.395 1.856.33 2.406-.233 4.153-.794zm198 0c-.343.678.328.896 0 1.427-.21.334-1.28.406-1.383.636-.12.26.468.562.688 1.035.243.514.862 2.282.347 2.778-.253.243-1.636.304-1.962.398-.858.245-2.486.985-3.806.632-1.462-.392-.676-1.47-1.036-2.222-.108-.225-.782-.292-1.037-.635-.272-.365.088-.882-.12-1.27-.094-.179-.52-.187-.575-.4-.11-.448.199-.883.463-1.19.918-1.07 2.247-.754 4.27-.395 1.853.33 2.404-.233 4.15-.794zm-27.87-.849c2.059-.653 4.967.967 4.963 1.923-.006.6-.63.89-.742 1.285-.021.08.218.342.212.48-.065 1.039-3.89 1.5-5.165.882-.364-.177-.197-.439-.425-.721-.224-.276-.673-.377-.738-.483-.394-.606.14-.628.315-.962.113-.213-.084-.567 0-.802.192-.518 1.053-1.435 1.58-1.602zm-196.995 0c2.054-.653 4.962.967 4.958 1.923-.006.6-.627.89-.738 1.285-.025.08.22.342.21.48-.061 1.039-3.889 1.5-5.168.882-.362-.177-.192-.439-.423-.721-.226-.276-.671-.377-.738-.483-.396-.606.14-.628.317-.962.113-.213-.08-.567 0-.802.19-.518 1.052-1.435 1.582-1.602zm344.828 2.393c-.16.342-.923.749-1.447 1.09-1.35.874-3.435 1.499-5.925 1.342-.2-.168.01-.109 0-.333-2.903.614-3.396-4.363-.842-5.034.243-.063.686.037.967 0 .705-.094 1.321-.538 1.81-.586 2.403-.254 6.331 1.62 5.437 3.52zm-87.149-2.416c.441.144.857.803 1.511 1.405.693.63 1.942 1.459 1.748 2.15-.228.79-.673.387-1.516.746-.601.255-.206.408-.578.498-.58.13-2.07.078-2.678-.085-1.526-.404-2.73-2.541-1.977-3.473.141-.182.709-.27.926-.414.821-.538 1.294-1.248 2.564-.827zm-197 0c.44.144.86.803 1.512 1.405.693.63 1.943 1.459 1.746 2.15-.224.79-.67.387-1.512.746-.602.255-.207.408-.585.498-.572.13-2.065.078-2.675-.085-1.525-.404-2.729-2.541-1.977-3.473.142-.182.71-.27.925-.414.822-.538 1.299-1.248 2.566-.827zm86.149 2.416c-.158.342-.92.749-1.447 1.09-1.35.874-3.436 1.499-5.926 1.342-.2-.168.01-.109 0-.333-2.897.614-3.399-4.363-.842-5.034.245-.063.688.037.967 0 .712-.094 1.326-.538 1.813-.586 2.403-.254 6.33 1.62 5.435 3.52zm109.104.48c.728-.09.914-.566 1.51-.747-.598-.463-1.782.04-1.51.747zm-196.997 0c.724-.09.91-.566 1.51-.747-.6-.463-1.787.04-1.51.747zm24.938-7.428c1.553.282 1.836.556 2.516 1.114.773.637 1.247 1.275 1.006 2.23-.108.43-.331.986-.63 1.289-1.17 1.196-5.77 1.886-7.417.516-.495-.413-.817-1.765-.88-2.403-.201-1.912 2.882-3.214 5.405-2.746zm196.998 0c1.555.282 1.84.556 2.518 1.114.775.637 1.247 1.275 1.005 2.23-.107.43-.335.986-.627 1.289-1.172 1.196-5.77 1.886-7.42.516-.494-.413-.816-1.765-.88-2.403-.2-1.912 2.883-3.214 5.404-2.746zm-92.96.405c.161.7-.093 1.305-.733 1.911-.48.454-1.798 1.236-2.92 1.617-1.371.46-3.131.71-4.629.147-2.52-.957-3.756-3.824-1.457-5.656.1-.076.437-.04.61-.146.401-.252.865-.708 1.7-.807 3.544-.423 7.031 1.218 7.429 2.934zm197.754-4.293v8.263h-10.15v-8.263h10.15zm-103.784 5.774c-.087.8.356.89.379 1.714 1-.366 1.215-1.683-.379-1.714zm-197 0c-.089.8.354.89.379 1.714.999-.366 1.213-1.683-.379-1.714zm275.928-3.414c.239.363-.388.611-.377.636.18.326.95.394 1.118.558 1.592 1.536-1.846 3.726-3.976 3.738-1.069.004-2.825-.671-3.602-1.113-.692-.393-1.112-.816-.994-1.593.363-2.373 4.434-2.412 7.83-2.226zm-197 0c.238.363-.388.611-.377.636.183.326.949.394 1.12.558 1.587 1.536-1.848 3.726-3.973 3.738-1.073.004-2.83-.671-3.606-1.113-.687-.393-1.111-.816-.996-1.593.365-2.373 4.437-2.412 7.832-2.226zm138.405-1.455c.704.539-.366 1.408-.318 1.984.03.38.437.42.532.724.138.438-.228 1.74-.532 1.893-.251.126-2.385.349-2.988.27-1.232-.16-2.493-.804-2.449-2.163.01-.445.57-1.359.851-1.628.418-.403 2.337-1.08 3.306-1.169.431-.04 1.425-.042 1.598.089zm-197.999 0c.703.539-.367 1.408-.317 1.984.027.38.435.42.53.724.138.438-.228 1.74-.53 1.893-.251.126-2.385.349-2.988.27-1.232-.16-2.492-.804-2.451-2.163.012-.445.57-1.359.851-1.628.422-.403 2.335-1.08 3.306-1.169.431-.04 1.425-.042 1.6.089zm81.746 2.95c-.179.327.245.863.486 1.175.514-.326.046-1.023-.486-1.176zm-5.113-.807c1.23.092 2.394.221 3.286.513-.432-.55-2.44-.89-3.286-.513zm140.443-6.001c.116.153-.289.53-.122.717.365.408 2.39.631 2.943 1.118.55.483.396 1.522-.12 2.152-.03.033-.342-.035-.371 0-.578.659-1.447 1.702-3.306 1.756-1.238.033-2.56-.428-2.33-1.278-.22-.01-.26.1-.49.08 1.138.902-1.134-.073-.125-.08-.434-.414-.65-.61-.98-.797-.052-.031-.456-.048-.492-.079-1.256-1.178.394-3.49 2.208-3.748.782-.112 2.93-.193 3.185.159zm-196.998 0c.11.153-.292.53-.125.717.365.408 2.39.631 2.946 1.118.544.483.398 1.522-.125 2.152-.026.033-.34-.035-.369 0-.578.659-1.445 1.702-3.308 1.756-1.236.033-2.558-.428-2.33-1.278-.217-.01-.26.1-.486.08 1.133.902-1.136-.073-.125-.08-.431-.414-.651-.61-.98-.797-.053-.031-.456-.048-.494-.079-1.253-1.178.394-3.49 2.208-3.748.787-.112 2.932-.193 3.188.159zm130.999-.705c.693-.183 2.045.175 2.647.462.459.22.557.646.962.933.99.703 2.195.88 2.044 2.015-.067.498-.425.954-.844 1.241-.61.423-2.172 1.098-2.886 1.24-.77.153-1.417-.034-1.923-.078-.812-.066-1.988-.247-2.644-.542-.227-.102-1.69-1.347-1.686-1.32-.05-.169.403-.492.484-.699.12-.32-.105-.63.118-.928.42-.57 1.424-.706 2.406-1.24.517-.28.759-.937 1.322-1.084zm-196.999 0c.692-.183 2.047.175 2.647.462.458.22.56.646.96.933.995.703 2.2.88 2.044 2.015-.063.498-.423.954-.837 1.241-.616.423-2.178 1.098-2.89 1.24-.774.153-1.42-.034-1.924-.078-.814-.066-1.985-.247-2.647-.542C8.464 63.219 7 61.974 7.004 62c-.05-.169.401-.492.482-.699.127-.32-.102-.63.118-.928.423-.57 1.427-.706 2.407-1.24.519-.28.763-.937 1.324-1.084zm262.756 3.897c.598.304 1.752.56 1.587-.081-.109-.45-1.42-.66-1.587.08zm-197 0c.597.304 1.75.56 1.595-.081-.115-.45-1.43-.66-1.596.08zm218.525-4.704c.114.217-.182.408-.115.61.098.3.755.512.902.833.413.935-.552 1.994-1.804 2.506-.388.162-1.33.337-1.579.304-.151-.022-2.254-1.303-2.368-1.516-.209-.389-.196-1.372 0-1.98.378-1.163 4.14-2.287 4.964-.757zm-198.003 0c.116.217-.18.408-.11.61.098.3.754.512.9.833.415.935-.553 1.994-1.807 2.506-.386.162-1.33.337-1.579.304-.147-.022-2.254-1.303-2.364-1.516-.207-.389-.2-1.372 0-1.98.378-1.163 4.136-2.287 4.96-.757zm-146.998.423c1.166-.236 4.819-2.512 6.536-1.325.708.488-.004 1.152.119 1.591.116.441 1.093.623.584 1.419-.379.586-1.738.5-2.689.704-1.281.28-2.986 1.185-4.199.885-.616-.15-.55-.657-.822-.885-.156-.134-.552-.072-.696-.177-.375-.268-.585-1.016-.348-1.678l-.001.004-.002.012c.014.004.262-.435.335-.532l.016-.018c.074-.043.705.096 1.167 0zm223.21-3.594c2.81.532 4.223 2.216 4.174 3.975-.057 1.971-2.504 3.254-6.001 2.892-1.15-.115-1.455-.5-1.954-.989-.744-.738-.602-.746-.52-1.49.08-.705-.49-1.138-.52-1.655-.064-1.102.627-2.004 1.56-2.401.878-.373 2.375-.498 3.261-.332zm-26.207 3.594c1.167-.236 4.817-2.512 6.537-1.325.71.488-.004 1.152.114 1.591.123.441 1.093.623.585 1.419-.375.586-1.735.5-2.685.704-1.28.28-2.99 1.185-4.204.885-.612-.15-.546-.657-.815-.885-.159-.134-.555-.072-.699-.177-.375-.268-.587-1.016-.354-1.678l-.001.004-.001.012c.017.004.265-.435.34-.532l.016-.018c.074-.043.7.096 1.167 0zm-171.794-3.594c2.815.532 4.224 2.216 4.175 3.975-.055 1.971-2.506 3.254-5.995 2.892-1.154-.115-1.457-.5-1.953-.989-.75-.738-.61-.746-.527-1.49.085-.705-.487-1.138-.52-1.655-.062-1.102.631-2.004 1.565-2.401.88-.373 2.37-.498 3.255-.332zM35.48 52.59c1.039.184 3.54 1.253 4.049 1.93.126.171.222.059.348.171.739.659.873 2.71.116 3.444-1.163 1.13-5.387 1.59-7.173 1.261-.978-.177-1.79-.786-1.851-1.597h.577l.348-.335c.38.142.661.36 1.041.505.06-.663-.808-1.375-.696-2.353-.58 0-.296.626-.693.757l-.483-.211-.56.04c-.036-.99.306-1.312.812-1.932.93-1.146 1.95-2.068 4.165-1.68zm197 0c1.039.184 3.541 1.253 4.051 1.93.126.171.223.059.347.171.737.659.873 2.71.115 3.444-1.163 1.13-5.386 1.59-7.173 1.261-.914-.165-1.686-.71-1.833-1.445-.097-.03-.18-.07-.235-.122-.382-.36-.752-.774-.752-1.223 0-.116.027-.238.083-.36.049-.107.212-.19.417-.226l.003.183c-.036-.991.306-1.313.812-1.933.932-1.146 1.948-2.068 4.165-1.68zm-61.52 5.952c.588 1.504 4.13.717 5.213 0-1-.195-3.918.842-5.213 0zm-197.999 0c.594 1.504 4.132.717 5.213 0-1.003-.195-3.92.842-5.213 0zm223.767-2.975c.086.259-.076.52 0 .647.197.313.924.344.743.89-.232.721-.673.417-1.863.562-1.267.153-3.657 1.161-5.604.726-1.204-.27-2.642-1.817-2.493-2.744.09-.531 1.452-1.697 1.87-1.855 2.43-.92 6.923.509 7.347 1.774zm-197.004 0c.086.259-.077.52 0 .647.201.313.926.344.748.89-.237.721-.676.417-1.868.562-1.266.153-3.656 1.161-5.601.726-1.204-.27-2.643-1.817-2.492-2.744.09-.531 1.453-1.697 1.866-1.855 2.433-.92 6.922.509 7.347 1.774zM29.752 56l.12.007c.356.036.577.206.5.379-.181.391.181.802.557 1.156.163.155.037.344-.288.424-.325.079-.724.016-.892-.137-.379-.36-.749-.774-.749-1.223 0-.116.027-.238.08-.36.08-.169.432-.275.791-.239zm199.489-.384c-.582 0-.296.626-.695.757l-.158-.07c.002.027-.003.055-.015.083-.179.391.18.802.554 1.156l-.057-.056.024-.022c.38.142.662.36 1.042.505.06-.663-.809-1.375-.695-2.353zm-191.333-.672c-.054 1.61-1.774 2.015-3.354 2.52.758.553 3.266.436 2.894-.84.133.013.206-.017.23-.086 1.469 1.507 2.168-1.549.23-1.594zm197 0c-.054 1.61-1.773 2.015-3.354 2.52.758.553 3.269.436 2.895-.84.134.013.204-.017.23-.086 1.47 1.507 2.17-1.549.23-1.594zm78.23-3.55c.409.132.92.558 1.46.736.99.325 2.04.612 2.314 1.299.43 1.07-.824 2.34-1.458 2.686-.259.14-1.386.725-1.945.813-2.357.372-4.591-.764-5.731-1.953-.524-.547-.924-.794-.727-1.707.415-1.97 3.01-2.836 6.087-1.873zm-197 0c.404.132.914.558 1.458.736.99.325 2.036.612 2.314 1.299.435 1.07-.821 2.34-1.46 2.686-.256.14-1.384.725-1.945.813-2.357.372-4.59-.764-5.728-1.953-.523-.547-.919-.794-.729-1.707.416-1.97 3.013-2.836 6.09-1.873zM-5.754 55.568c-.156.867 1.798.775 1.741.404-.058-.396-1.039-.267-1.741-.404zm197.005 0c-.158.867 1.798.775 1.741.404-.06-.396-1.043-.267-1.741-.404zM36.057 54.27c-1.006.23-2.116.806-2.078 1.514 1.272-.035 2.151-.777 2.078-1.514zm197 0c-1.005.23-2.114.806-2.084 1.514 1.28-.035 2.158-.777 2.084-1.514zm-115.461-.106c-.254.344-.74.534-.85.975.748-.033 1.704-.589.85-.975zm197.003 0c-.255.344-.743.534-.853.975.753-.033 1.708-.589.853-.975zm-176.06-5.943c.607.39.97 1.507.96 2.213-.003.754-.61.95-1.069 1.62-.165.243-.124.588-.214.685-1.015 1.098-3.446.928-4.61 0-1.094-.876-1.561-3.237-.536-4.263.328-.332 1.46-.894 1.717-.938 1.06-.186 3.25.36 3.752.683zm197.996 0c.61.39.976 1.507.965 2.213-.004.754-.611.95-1.07 1.62-.164.243-.129.588-.214.685-1.02 1.098-3.447.928-4.61 0-1.092-.876-1.562-3.237-.537-4.263.33-.332 1.463-.894 1.714-.938 1.064-.186 3.256.36 3.752.683zm-26.442 3.991c-.93 0-1.56.2-1.46.893.627-.207 1.111-.504 1.46-.893zm-197.001 0c-.93 0-1.562.2-1.46.893.627-.207 1.113-.504 1.46-.893zm21.586-.67c-.26-1.484.807-1.916 1.93-2.298-2.13-.801-3.682 1.418-1.93 2.298zm198 0c-.257-1.484.803-1.916 1.931-2.298-2.132-.801-3.684 1.418-1.931 2.298zM99.437 49.67c.069.222.098.696 0 .909-.689 1.52-6.247.876-6.738.083-.26-.418-.233-1.82-.102-2.151.117-.288.785-.751 1.02-.827 2.238-.715 5.45.8 5.82 1.986zm197 0c.071.222.095.696 0 .909-.688 1.52-6.248.876-6.735.083-.261-.418-.24-1.82-.102-2.151.115-.288.787-.751 1.018-.827 2.237-.715 5.448.8 5.82 1.986zM78.874 43.223c1.043.606 2.33.756 2.763 1.642.16.325-.05.617 0 .951.042.28.34.548.362.862.041.632-.557 1.776-1.08 2.507-.675.938-.963 1.49-2.045 1.815.407-.565.037-1.178.242-1.815-1.718.332-4.227.456-5.762-.085-1.135-.4-2.953-1.451-2.158-3.196.165-.366 1.03-.413 1.322-.866.5-.785-.1-2.104 1.437-2.16.29-.01.627.249.838.173.6-.21.353-.909.965-1.035.773-.163 2.657.943 3.116 1.207zm196.002 0c1.04.606 2.329.756 2.757 1.642.16.325-.05.617 0 .951.046.28.342.548.366.862.04.632-.56 1.776-1.084 2.507-.672.938-.962 1.49-2.04 1.815.403-.565.038-1.178.24-1.815-1.715.332-4.223.456-5.76-.085-1.134-.4-2.951-1.451-2.16-3.196.169-.366 1.033-.413 1.318-.866.5-.785-.093-2.104 1.441-2.16.29-.01.623.249.84.173.599-.21.353-.909.958-1.035.78-.163 2.664.943 3.124 1.207zm-18.66 2.555c.192.182.507.634.578.792.66 1.498-.279 4.575-2.546 4.425-.407-.031.084-.117-.348-.238-.17-.052-.585.076-.577.078-.67-.243-.759-.758-1.275-.949-.654-.244-1.375-.123-1.845-.318-.742-.301-2.256-1.346-1.967-2.37.008-.033.241-.205.23-.314-.022-.271-.452-.622-.465-.95-.004-.542.728-1.825 1.277-1.897 2.135-.273 6.184 1.026 6.937 1.74zm-198 0c.194.182.509.634.578.792.661 1.498-.28 4.575-2.548 4.425-.405-.031.088-.117-.345-.238-.174-.052-.587.076-.579.078-.676-.243-.762-.758-1.274-.949-.657-.244-1.38-.123-1.853-.318-.74-.301-2.255-1.346-1.965-2.37.01-.033.241-.205.23-.314-.018-.271-.459-.622-.459-.95-.01-.542.722-1.825 1.27-1.897 2.139-.273 6.19 1.026 6.946 1.74zm150.177-1.54c.896-.822 2.734-.855 3.77-.592.757.19 2.009.244 2.437.51.882.547.284 1.2.487 2.027.066.276.572.34.364.848-.234.57-1.606.95-2.312 1.267-.697.313-2.632 1.355-4.014 1.183-.783-.098-2.012-1.383-2.189-1.943-.077-.242.122-.553 0-.763-.06-.1-.302.052-.366-.17-.27-.92.298-.691.852-1.013.36-.209.582-.993.97-1.354zm-197.996 0c.892-.822 2.735-.855 3.77-.592.755.19 2.006.244 2.434.51.886.547.283 1.2.484 2.027.07.276.574.34.366.848-.234.57-1.607.95-2.31 1.267-.698.313-2.634 1.355-4.013 1.183-.786-.098-2.015-1.383-2.194-1.943-.08-.242.121-.553 0-.763-.062-.1-.3.052-.364-.17-.27-.92.3-.691.854-1.013.355-.209.58-.993.973-1.354zm-31.729-.933c.384.448 1.023 2.964.779 3.737-.593 1.877-3.086 1.442-5.444 1.335-1.023-.046-2.002.21-2.594.091-1.538-.309-.412-1.09-.908-2.316.491-.275.729.041 1.035-.355.477-.618-.16-1.048.263-1.515.122-.135.621-.114 1.035-.355.108-.064.028-.288.132-.357.376-.265.926-.464 1.164-.622.418-.282.71-.003 1.17-.092.398-.073.857-.343 1.167-.355.859-.032 1.91.46 2.201.804zm197 0c.386.448 1.023 2.964.779 3.737-.595 1.877-3.083 1.442-5.444 1.335-1.021-.046-2 .21-2.594.091-1.54-.309-.412-1.09-.908-2.316.494-.275.731.041 1.037-.355.477-.618-.16-1.048.259-1.515.12-.135.623-.114 1.037-.355.108-.064.028-.288.127-.357.38-.265.931-.464 1.169-.622.418-.282.71-.003 1.168-.092.402-.073.856-.343 1.17-.355.86-.032 1.906.46 2.2.804zm76.73 3.973c-.354.597-.121.829.925.79-.04-.447-.415-.665-.924-.79zm-198.002 0c-.354.597-.121.829.926.79-.04-.447-.42-.665-.926-.79zm118.808-.68c.435.797 1.368.13 1.688-.357-.43-.14-1.011.369-1.688.357zm-197 0c.437.797 1.368.13 1.684-.357-.421-.14-1.01.369-1.684.357zm173.89-6.588c.381-.065.713.2.975.253.43.082.912-.018 1.33.084 1.059.25 1.573 1.036 2.424 1.598.494-.233.598-.98 1.457-.76.387.103.97 1.367.607 1.932-.132.201-.822.283-.972.588-.092.188.035.546 0 .59-.571.66-4.794 1.89-7.031 1.681-.759-.073-1.697-1.075-1.816-1.513-.391-1.445 1.024-2.3 1.697-3.194.24-.31.802-1.168 1.33-1.259zm-196.993 0c.374-.065.708.2.97.253.43.082.912-.018 1.332.084 1.052.25 1.571 1.036 2.422 1.598.494-.233.598-.98 1.455-.76.387.103.97 1.367.607 1.932-.132.201-.818.283-.97.588-.092.188.036.546 0 .59-.569.66-4.794 1.89-7.027 1.681-.765-.073-1.701-1.075-1.822-1.513-.39-1.445 1.024-2.3 1.697-3.194.24-.31.8-1.168 1.336-1.259zm282.21-1.2c.732.28.661.64 1.13.89.146.079.396-.025.503.083 1.132 1.144.25 2.499-.128 3.966-1.705.089-2.422.613-3.757.73-3.384.287-4.828-2.416-4.517-3.807.141-.62.83-.853 1.253-1.132.185-.123.01-.298.126-.408.277-.254.61-.154.627-.158 1.444-.506 3.42-.676 4.763-.165zm-197.997 0c.73.28.66.64 1.129.89.15.079.393-.025.5.083 1.133 1.144.252 2.499-.125 3.966-1.708.089-2.422.613-3.76.73-3.384.287-4.824-2.416-4.517-3.807.141-.62.833-.853 1.254-1.132.186-.123.01-.298.13-.408.272-.254.609-.154.625-.158 1.444-.506 3.418-.676 4.764-.165zm195.868 3.888c.905.283 1.571-.28 2.129-.487-.635-.11-1.638.233-2.13.487zm-197.999 0c.903.283 1.572-.28 2.131-.487-.632-.11-1.64.233-2.13.487zm77.615-5.193c1.583.082 2.375.88 2.544 2.141.047.358.242.692.119 1.11-.173.603-1.346 1.709-2.42 1.744-.357.012-.454-.217-1.086-.318-.253-.039-.846.052-.973 0-.202-.082-.3-.405-.485-.634-.235-.3-.68-.325-.725-.395-.889-1.488.483-3.776 3.026-3.648zm198 0c1.583.082 2.376.88 2.54 2.141.047.358.247.692.124 1.11-.174.603-1.345 1.709-2.423 1.744-.356.012-.452-.217-1.085-.318-.252-.039-.85.052-.97 0-.205-.082-.304-.405-.488-.634-.24-.3-.685-.325-.723-.395-.891-1.488.481-3.776 3.025-3.648zm-116.637-.82c.142.484-.33.651-.23 1.096.11.484.842.506.461 1.352-.129.276-.608.41-.803.762-.235.415.014.894-.462 1.096-.198.085-.974-.03-1.603.085-.697.128-1.11.414-1.492.423-1.15.026-1.372-.497-1.834-.929-.766-.703-.8-.714-.579-1.521.483-1.75 1.22-3.465 3.672-3.547 1.055-.037 2.66.475 2.87 1.183zm-198.002 0c.146.484-.329.651-.227 1.096.108.484.841.506.46 1.352-.127.276-.614.41-.807.762-.233.415.016.894-.46 1.096-.198.085-.974-.03-1.605.085-.695.128-1.109.414-1.492.423-1.147.026-1.367-.497-1.833-.929-.764-.703-.798-.714-.573-1.521.479-1.75 1.22-3.465 3.67-3.547 1.057-.037 2.657.475 2.867 1.183zM231.3 41.158c.605.37 1.783-.058 1.758-.324-.07-.618-1.45.041-1.758.324zm-198 0c.604.37 1.787-.058 1.757-.324-.07-.618-1.449.041-1.758.324zM289.851 33c.75.05 2.84 1.009 3.355 1.612.187.226.054.564.247.768.403.444 1.292.705 1.483 1.231.27.715-.378 1.148-.99 1.688-.675.598-1.793 1.58-3.35 1.685-3.458.238-4.705-2.291-4.59-4.296.038-.59.477-1.496.995-1.843.173-.115.783-.141 1.113-.305.212-.105.11-.269.252-.308.187-.056 1.305-.242 1.485-.232zm-154.137 0c2.346.01 1.839 1.014 2.3 2.32.136.38.615.626.727.927.125.321.171.91.125 1.468-.017.14.191.239.117.39-.202.419-1.386.614-1.938.847-.883.377-2.357 1.498-3.996.851-1.83-.725-3.932-3.23-2.662-5.102.8-1.183 3.44-1.713 5.327-1.7zm197.998 0c2.35.01 1.843 1.014 2.302 2.32.136.38.614.626.726.927.121.321.174.91.121 1.468-.01.14.194.239.123.39-.206.419-1.388.614-1.939.847-.88.377-2.354 1.498-3.995.851-1.831-.725-3.933-3.23-2.664-5.102.804-1.183 3.442-1.713 5.326-1.7zM92.852 33c.749.05 2.84 1.009 3.35 1.612.192.226.06.564.248.768.408.444 1.294.705 1.488 1.231.268.715-.38 1.148-.988 1.688-.682.598-1.803 1.58-3.356 1.685-3.457.238-4.704-2.291-4.587-4.296.036-.59.475-1.496.993-1.843.171-.115.78-.141 1.114-.305.212-.105.11-.269.25-.308.189-.056 1.307-.242 1.488-.232zM-8.085 39.218c.639.28 1.034-.289 1.146-.337.947-.423-.95-.412-1.146.337zm198.001 0c.64.28 1.035-.289 1.147-.337.945-.423-.955-.412-1.147.337zM91.86 38.066c.605.275 1.589 0 2.111-.23-.58-.041-2.08-.29-2.111.23zm197.003 0c.608.275 1.589 0 2.108-.23-.578-.041-2.078-.29-2.108.23zM133.654 34.39c-1.318.188-2.098 1.08-1.937 1.391.751-.807 3.436-.95 4.967-.77.496-.794-2.131-.748-3.03-.621zm198.003 0c-1.317.188-2.101 1.08-1.934 1.391.746-.807 3.432-.95 4.963-.77.494-.794-2.132-.748-3.029-.621zm-72.912-5.334c1.099.332 2.178 1.037 1.588 2.176-.316.258-.817-.06-1.1.088-.249.125-.113.335-.366.606-.28.31-.999.382-1.345.612-.589.394-.56.884-1.707.956-.882.057-3.004-.33-3.542-.696-.25-.17-.397-.6-.733-.784-.364-.196-.636-.145-.734-.262-.695-.814-.046-1.946.37-2.436.913-1.08 5.133-1.004 7.57-.26zm-197.996 0c1.093.332 2.174 1.037 1.585 2.176-.315.258-.818-.06-1.102.088-.241.125-.113.335-.367.606-.282.31-.995.382-1.343.612-.583.394-.558.884-1.708.956-.877.057-3.004-.33-3.542-.696-.25-.17-.395-.6-.732-.784-.365-.196-.635-.145-.735-.262-.693-.814-.044-1.946.37-2.436.91-1.08 5.133-1.004 7.574-.26zm146.732-1.42c3.307-.817 6.542 2.243 5.948 3.721-.6 1.483-5.678 3.08-7.684 1.47-.503-.403-1.193-1.403-1.24-1.814-.081-.747.946-2.05 1.362-2.425.276-.24 1.346-.882 1.614-.951zm-196.999 0c3.302-.817 6.539 2.243 5.948 3.721-.6 1.483-5.678 3.08-7.685 1.47-.501-.403-1.194-1.403-1.24-1.814-.08-.747.948-2.05 1.368-2.425.27-.24 1.34-.882 1.61-.951zm141.78-1.093c2.382-.312 4.808 1.12 4.119 2.951-.265.692-1.31 1.32-2.12 1.72-.911.454-1.394.48-2.354.658-.676.127-1.297.527-1.762.573-3.257.342-2.822-.982-2.235-2.215.273-.57.298-1.126.588-1.558.632-.934 2.35-1.948 3.764-2.13zm-198 0c2.382-.312 4.808 1.12 4.119 2.951-.262.692-1.31 1.32-2.121 1.72-.913.454-1.395.48-2.354.658-.676.127-1.297.527-1.762.573-3.258.342-2.819-.982-2.236-2.215.273-.57.299-1.126.587-1.558.633-.934 2.353-1.948 3.768-2.13zM246 32c-4.432-.81-.135-4.064 0 0zM49 32c-4.434-.81-.13-4.064 0 0zm30.123-6.588c-.011-.002.764.319.74.294.457.435-.372.963-.372 1.46 0 .198.447.361.494.587.06.297-.68 1.702-1.23 2.048-.14.09-.552.152-.86.294-.398.177-1.086.543-1.604.66-.44.096-1.997.326-2.705.216-.507-.078-.245-.338-.496-.437-.151-.06-.603.032-.739 0-.429-.11-.706-.465-.985-.733-.382-.365-1.096-.747-1.23-1.096-.523-1.402.5-3.223 2.46-3.586 1.542-.285 5.11-.007 6.527.293zm197.001 0c-.013-.002.764.319.74.294.455.435-.374.963-.374 1.46 0 .198.447.361.494.587.058.297-.677 1.702-1.228 2.048-.141.09-.554.152-.867.294-.39.177-1.08.543-1.599.66-.44.096-1.992.326-2.704.216-.503-.078-.244-.338-.496-.437-.15-.06-.603.032-.735 0-.435-.11-.708-.465-.99-.733-.381-.365-1.1-.747-1.23-1.096-.522-1.402.505-3.223 2.461-3.586 1.541-.285 5.112-.007 6.528.293zm38.778.969c.597 1.433-1.672 3.301-2.975 3.534-1.033.185-2.634.064-3.186-.329-.53-.377-.756-1.785-.74-2.056.05-.872 1.14-2.286 2.227-2.461 1.915-.305 4.314.452 4.674 1.312zm-198 0c.597 1.433-1.672 3.301-2.968 3.534-1.036.185-2.635.064-3.19-.329-.53-.377-.759-1.785-.743-2.056.05-.872 1.142-2.286 2.228-2.461 1.913-.305 4.315.452 4.673 1.312zm55.9-2.812c.159.042.081.215.236.238.164.026.102-.185.356-.159.61.061 2.615 1.095 3.328 1.745.663.594.906 1.296.714 1.98-.319 1.15-1.117.97-2.379 1.426-.256.091-.369.382-.711.472-2.917.782-5.602-.576-5.826-1.98-.145-.903.548-1.41.714-1.98.002-.012-.294-.002-.24-.08.052-.068.298-.026.356-.158.134-.3-.015-.336.123-.472.406-.418 2.077-1.362 3.328-1.032zm-198.002 0c.157.042.084.215.237.238.17.026.101-.185.358-.159.612.061 2.615 1.095 3.324 1.745.658.594.91 1.296.718 1.98-.323 1.15-1.119.97-2.378 1.426-.256.091-.37.382-.713.472-2.918.782-5.602-.576-5.826-1.98-.145-.903.55-1.41.715-1.98 0-.012-.295-.002-.241-.08.052-.068.3-.026.36-.158.13-.3-.02-.336.116-.472.41-.418 2.081-1.362 3.33-1.032zm99.03 3.746c.739.404 2.072.33 2.46.805.468.572-.564 1.18.99 1.026.136-.016.831-.323.858-.515.087-.66-3.098-1.274-4.308-1.316zm196.999 0c.741.404 2.072.33 2.461.805.467.572-.56 1.18.99 1.026.136-.016.832-.323.86-.515.084-.66-3.098-1.274-4.311-1.316zM36.907 21.697c.015.004.106.255.23.33.342.21.939.4 1.15.58.248.205.342.577.578.745.117.083.49.087.574.166.034.027-.054.33.115.495.12.12.393.069.461.164.479.683.62 1.464.347 2.157-.044.102-.299.621-.461.74-.5.375-3.172 1.173-4.03 1.328-3.202.574-5.876-1.466-5.29-3.727.07-.268.814-.84.919-.99.096-.133.037-.512.117-.58.012-.013.426.002.576-.083.413-.244 1.104-1.019 1.607-1.24.758-.336 2.228-.38 3.107-.085zm198.004 0c.01.004.103.255.228.33.34.21.94.4 1.15.58.246.205.34.577.574.745.121.083.49.087.578.166.032.027-.054.33.117.495.12.12.393.069.457.164.479.683.62 1.464.347 2.157-.044.102-.298.621-.46.74-.5.375-3.176 1.173-4.028 1.328-3.204.574-5.883-1.466-5.292-3.727.07-.268.81-.84.92-.99.095-.133.036-.512.114-.58.014-.013.425.002.576-.083.415-.244 1.11-1.019 1.61-1.24.759-.336 2.222-.38 3.11-.085zm59.759.926c.414.09 1.585.656 2.135 1.023.685.455 1.501 1.223 1.656 1.786.256.924-.793 1.773-1.895 2.213-1.246.502-2.913.476-4.027.681-.175.033-.316.19-.473.173-.838-.104-1.583-.683-1.775-1.278-.083-.246.112-.566 0-.851-.219-.549-1.05-1.086-.71-1.959.152-.396.938-.692 1.54-.94 1.065-.435 1.531-1.288 3.549-.848zm-197.997 0c.412.09 1.584.656 2.131 1.023.684.455 1.502 1.223 1.657 1.786.256.924-.793 1.773-1.897 2.213-1.244.502-2.91.476-4.023.681-.176.033-.318.19-.475.173-.84-.104-1.581-.683-1.774-1.278-.084-.246.111-.566 0-.851-.222-.549-1.047-1.086-.714-1.959.153-.396.941-.692 1.539-.94 1.068-.435 1.534-1.288 3.556-.848zm216.002 4.417c-.187.364.55.541.845.74.786-.62-.658-1.122-.845-.74zm-198.002 0c-.183.364.551.541.848.74.782-.62-.657-1.122-.848-.74zm59.08-.304c-.971.277-1.851.617-3.21.638.796.47 3.4.315 3.21-.638zm-198 0c-.973.277-1.855.617-3.21.638.795.47 3.4.315 3.21-.638zm15.27-4.546c1.276-.417 3.687-.047 4.535.16.75.182 2.192.738 2.267.795.252.178.1.41.128.555.04.225.082.58 0 .797-.272.722-1.981 2.103-3.277 2.387-.524.115-1.36.15-1.89.08-1.363-.178-3.662-1.781-3.78-2.546-.049-.336.242-1.009.509-1.273.144-.147 1.376-.912 1.508-.955zm196.996 0c1.28-.417 3.69-.047 4.542.16.745.182 2.188.738 2.266.795.249.178.105.41.125.555.04.225.085.58 0 .797-.27.722-1.98 2.103-3.278 2.387-.52.115-1.36.15-1.89.08-1.365-.178-3.66-1.781-3.778-2.546-.05-.336.242-1.009.505-1.273.142-.147 1.374-.912 1.508-.955zm44.016 1.906c.695.779.08 1.083-1.152 1.077-.282 1.234 3.294-.443 3.218-.828-.085-.461-.985-.466-2.066-.249zm-198.003 0c.695.779.082 1.083-1.152 1.077-.28 1.234 3.296-.443 3.223-.828-.088-.461-.987-.466-2.07-.249zM139.5 19.488c-.004.345-.032.69-.219.968-.154.226-.613.322-.672.563-.142.53.587 1.15-.227 1.61-.853.483-4.582 1.175-5.816.726-1.218-.444-2.804-1.477-3.023-2.579-.268-1.328.78-3.174 2.24-3.622.346-.11.986-.073 1.455-.16.78-.151 1.492-.45 2.127-.486 2.25-.12 4.18 1.106 4.135 2.98zm196 0c-.006.345-.038.69-.227.968-.152.226-.605.322-.667.563-.14.53.586 1.15-.228 1.61-.848.483-4.573 1.175-5.812.726-1.216-.444-2.8-1.477-3.023-2.579-.266-1.328.775-3.174 2.237-3.622.351-.11.99-.073 1.457-.16.781-.151 1.493-.45 2.122-.486 2.252-.12 4.184 1.106 4.141 2.98zm-5.928.968c.35.458 1.501 1.11 2.236.563-.718-.207-1.354-.477-2.236-.563zm-196 0c.352.458 1.499 1.11 2.238.563-.719-.207-1.354-.477-2.237-.563zm74.065-4.54c.742-1.201 1.92-2.584 3.678-1.557.743.436.957 1.336 1.473 1.97.038.053.267.006.31.08.57.915 1.081 2.107.843 2.953-.198.69-.381.434-.63.82-.256.39.29.49-.212.735-.644.314-.696-.352-1.471-.49-.498-.09-.743.138-1.26.083-.95-.101-2.085-.898-2.52-1.395-.165-.188-.437-.293-.527-.409-.53-.689-.282-.978-.105-1.477.117-.323-.019-.727.105-1.066.027-.076.244-.137.316-.247zm-197.998 0c.741-1.201 1.919-2.584 3.675-1.557.745.436.956 1.336 1.47 1.97.045.053.271.006.313.08.572.915 1.082 2.107.844 2.953-.198.69-.383.434-.632.82-.254.39.297.49-.212.735-.642.314-.693-.352-1.467-.49-.499-.09-.74.138-1.26.083-.952-.101-2.087-.898-2.523-1.395-.162-.188-.435-.293-.526-.409-.53-.689-.282-.978-.105-1.477.115-.323-.017-.727.105-1.066.029-.076.25-.137.318-.247zM136.59 18.12c-.252.433-.162 1.117-.891 1.207.836.178 1.376.565 2.237.726.414-.987-.422-1.655-1.346-1.933zm196 0c-.254.433-.162 1.117-.895 1.207.84.178 1.376.565 2.238.726.416-.987-.42-1.655-1.343-1.933zm-199.13.887c.244.303 1.305.031 1.904.24-.154-.38.083-1.087-.339-1.208-.574-.168-1.764.725-1.565.968zm195.997 0c.248.303 1.309.031 1.901.24-.148-.38.09-1.087-.332-1.208-.577-.168-1.766.725-1.569.968zM61.222 13.59c.147.133.19.38.353.535.678.635 2.078 1.973 1.073 3.047-.613.653-2.597 1.122-4.645.611-.394-.102-.32-.33-.597-.46-.177-.082-.523 0-.715-.076-.566-.23-1.578-1.08-1.906-1.444-.104-.12-.05-.432-.236-.537-.196-.106-.326.125-.596.076-.205-.034-.421-.513-.953-.305.335-.647-.138-.994.236-1.37.302-.306.937-.168 1.313-.383.497-.287.327-.843.834-1.067 1.76-.776 5.109.728 5.84 1.373zm197.001 0c.15.133.192.38.352.535.679.635 2.077 1.973 1.074 3.047-.613.653-2.597 1.122-4.648.611-.394-.102-.32-.33-.594-.46-.178-.082-.526 0-.714-.076-.566-.23-1.58-1.08-1.908-1.444-.104-.12-.05-.432-.24-.537-.19-.106-.322.125-.592.076-.205-.034-.424-.513-.953-.305.335-.647-.138-.994.238-1.37.304-.306.938-.168 1.307-.383.5-.287.33-.843.834-1.067 1.768-.776 5.114.728 5.844 1.373zm-307.117-1.913c2.207-.729 5.072.95 5.179 2.105.03.3-.269.385-.207.673.096.45.485.48.413 1.261-.01.097-.278.245-.313.42-.053.33.326.567.21.76-.126.207-1.21.497-1.242.503-1.012.214-3.114.08-3.937-.333-.34-.18-1.387-1.086-1.552-1.434-.475-.995.162-3.53 1.449-3.955zm197.999 0c2.2-.729 5.073.95 5.182 2.105.024.3-.273.385-.209.673.096.45.483.48.414 1.261-.01.097-.282.245-.314.42-.053.33.329.567.212.76-.128.207-1.212.497-1.244.503-1.014.214-3.115.08-3.938-.333-.343-.18-1.384-1.086-1.552-1.434-.473-.995.162-3.53 1.449-3.955zm-177.783 1.059c1.17-1.074 1.928-1.86 4.635-1.72.42.018 3.38.024 3.329 0 .276.137.097.695.235 1.204.289 1.03.679 2.032.36 2.497-.324.467-2.212 1.136-2.971 1.295-.438.088-.82-.013-1.31.086-.96.186-2.812 1.266-3.443.775-.335-.259.228-.569.116-.775-.252-.482-1.384-.15-2.02-.779-.386-.378.007-.558 0-.945-.01-.303-.321-.4-.24-.602.096-.217.841-.607 1.31-1.036zm196.999 0c1.17-1.074 1.927-1.86 4.638-1.72.416.018 3.378.024 3.33 0 .275.137.09.695.232 1.204.288 1.03.68 2.032.357 2.497-.32.467-2.21 1.136-2.97 1.295-.434.088-.816-.013-1.305.086-.966.186-2.812 1.266-3.45.775-.332-.259.229-.569.12-.775-.251-.482-1.388-.15-2.022-.779-.383-.378.01-.558 0-.945-.006-.303-.32-.4-.237-.602.09-.217.837-.607 1.307-1.036zm86.202 2.835c.54.327 2.17.936 2.743.307-.973-.048-1.775-.392-2.743-.307zm-196.996 0c.532.327 2.165.936 2.738.307-.972-.048-1.774-.392-2.738-.307zM273.23 11.07c1.823.24 4.274.34 4.693 1.338.5 1.166-1.536 2.444-2.59 3.118-.477.3-.29.376-.622.443-.392.083-.16-.198-.368-.223-.576-.066-1.487.374-2.59.223-1.048-.144-2.563-1.035-2.722-1.707-.065-.282-.027-.962.128-1.263.184-.366.69-.373 1.109-.665.291-.208.392-.724.865-.965.264-.137.676-.104 1.111-.224.598-.17.164-.183.986-.075zm-197.001 0c1.832.24 4.273.34 4.696 1.338.493 1.166-1.538 2.444-2.591 3.118-.48.3-.294.376-.618.443-.399.083-.164-.198-.374-.223-.576-.066-1.485.374-2.592.223-1.043-.144-2.56-1.035-2.719-1.707-.065-.282-.027-.962.126-1.263.188-.366.699-.373 1.108-.665.292-.208.395-.724.867-.965.264-.137.677-.104 1.113-.224.594-.17.164-.183.984-.075zm38.715-1.41c1.07.261 2.434.356 2.843 1.114.902 1.668-1.264 2.59-2.503 2.885-1.482.348-2.777.553-4.098 0-.122-.05-.2-.307-.343-.374-.44-.213-1.121-.268-1.251-.372-.55-.435-.644-1.388-.568-1.953.114-.865 1.06-1.852 2.389-1.951 1.061-.08 2.812.473 3.53.652zm197.997 0c1.074.261 2.437.356 2.846 1.114.902 1.668-1.262 2.59-2.5 2.885-1.481.348-2.78.553-4.1 0-.124-.05-.202-.307-.343-.374-.44-.213-1.123-.268-1.253-.372-.551-.435-.644-1.388-.566-1.953.112-.865 1.057-1.852 2.39-1.951 1.06-.08 2.812.473 3.526.652zm-78.046-1.583c.342.172.838.233.968.33.608.44 1.92 2.399 1.584 3.466-.245.77-.38.716-1.336.992-1.747.496-5.311 1.14-7.045 0-.143-.095-.802-.766-.848-.827-.644-.793-.965-2.182-.49-3.301.247-.573 1.937-1.968 2.673-2.142 2.016-.48 3.543 1.007 4.494 1.482zm-198 0c.34.172.84.233.97.33.605.44 1.919 2.399 1.582 3.466-.24.77-.377.716-1.336.992-1.747.496-5.312 1.14-7.044 0-.143-.095-.802-.766-.85-.827-.644-.793-.964-2.182-.488-3.301.247-.573 1.937-1.968 2.673-2.142 2.012-.48 3.541 1.007 4.493 1.482zm59.226.141c.196.33.09.634.225.92.39.827 1.15 1.187 2.024 1.838.088.065.072.06.114.17.078.197-.124.96-.453 1.253-1.106.985-3.734 1.363-5.511.916-3.016-.749-4.377-2.836-3.939-5.179.054-.29 1.408-1.323 2.141-1.501 2.108-.528 4.81.61 5.4 1.583zm198.003 0c.196.33.088.634.225.92.388.827 1.15 1.187 2.022 1.838.086.065.072.06.112.17.08.197-.118.96-.449 1.253-1.108.985-3.736 1.363-5.513.916-3.017-.749-4.38-2.836-3.939-5.179.057-.29 1.406-1.323 2.143-1.501 2.104-.528 4.806.61 5.4 1.583zM31.548 9.48c-.357.736.494 1.565 1.461 1.652 1.199.106 3.925-.823 3.643-1.98-1.034-.028-1.413.313-2.307.082-.465-.121-.62-.783-.853-.827-.452-.083-1.748.67-1.944 1.073zm198.002 0c-.355.736.493 1.565 1.458 1.652 1.2.106 3.924-.823 3.64-1.98-1.03-.028-1.41.313-2.303.082-.464-.121-.623-.783-.85-.827-.456-.083-1.752.67-1.945 1.073zm-39.8-4.204c.568-.069 1.55-.393 2.307-.231.501.11.624.596 1.21.849.549.24 1.23.182 1.452.461.282.352.328 1.215.242 1.462-.23.665-1.785 1.065-1.939 1.77.356.01.847-.588.972-.23-.356.608-1.326.461-2.304.847-.748.293-1.058.706-1.574.77-1.616.2-3.777-.788-4.604-1.463-.882-.718-.48-2.416.119-3.002.901-.892 2.458-1.029 4.12-1.233zm-196.999 0c.567-.069 1.552-.393 2.304-.231.503.11.63.596 1.209.849.556.24 1.233.182 1.458.461.279.352.325 1.215.24 1.462-.232.665-1.79 1.065-1.94 1.77.356.01.844-.588.972-.23-.358.608-1.328.461-2.304.847-.743.293-1.057.706-1.572.77-1.618.2-3.777-.788-4.608-1.463-.881-.718-.475-2.416.123-3.002.897-.892 2.456-1.029 4.118-1.233zM210.435-.208c1.358-.172 2.554-.605 3.938.087 1.055.529 2.381 2.746 2.085 3.808-.187.674-.549.687-1.04 1.357-.173.229-.268.627-.352.677-.191.113-1.259.165-1.736.337-.698.252-1.69.513-2.663.424-2.701-.252-5.369-3.888-3.593-5.589.906-.872 1.67-.881 3.361-1.1zm-198.003 0c1.36-.172 2.555-.605 3.942.087 1.048.529 2.379 2.746 2.084 3.808-.189.674-.552.687-1.044 1.357-.17.229-.267.627-.35.677-.188.113-1.255.165-1.737.337-.697.252-1.687.513-2.662.424C9.97 6.23 7.3 2.594 9.07.893c.91-.872 1.671-.881 3.36-1.1zm321.534-.414c.344.345.583 1.512-.107 1.448.578.498 2.053 1.311 1.531 2.384-.322.676-3.646 1.393-5.48 1.278-.495-.031-1.572-.093-2.083-.257-.165-.048-.529-.546-.989-.765-.568-.272-.64-.075-1.096-.508-.051-.053.056-.215 0-.257-.244-.19-.29-.139-.549-.513-.258-.373-.65-.566-.654-.594-.265-.94.875-2.631 1.75-2.899 1.652-.498 7.036.04 7.677.683zm-196.001 0c.342.345.578 1.512-.108 1.448.579.498 2.05 1.311 1.535 2.384-.326.676-3.65 1.393-5.484 1.278-.493-.031-1.565-.093-2.082-.257-.167-.048-.527-.546-.989-.765-.569-.272-.64-.075-1.094-.508-.05-.053.054-.215 0-.257-.244-.19-.29-.139-.548-.513-.259-.373-.65-.566-.657-.594-.262-.94.877-2.631 1.752-2.899 1.651-.498 7.032.04 7.675.683zM38.129-1.718c1.47.36 2.946 1.488 2.868 2.474-.12 1.489-1.543 1.403-3.464 1.779-.802.157-1.394.459-1.797.465-1.752.022-2.02-.978-2.742-1.47-.419-.285-.254-.365-.48-.696-.125-.18-.65-.589-.48-1.008.118-.286 2.189-1.415 2.51-1.544 1.11-.453 2.39-.29 3.585 0zm197.998 0c1.472.36 2.95 1.488 2.87 2.474-.117 1.489-1.55 1.403-3.466 1.779-.802.157-1.392.459-1.793.465-1.754.022-2.023-.978-2.753-1.47-.41-.285-.245-.365-.475-.696-.12-.18-.646-.589-.477-1.008.117-.286 2.192-1.415 2.508-1.544 1.117-.453 2.398-.29 3.586 0zm-105.18 3.906c.258-.944.453-1.638.988-2.213-1.696-.11-2.545 1.725-.988 2.213zm196 0c.26-.944.454-1.638.99-2.213-1.7-.11-2.547 1.725-.99 2.213zM34.308 1.064c-.078.632 1.95.638 2.506.155-.139-.165-2.217.5-2.506-.155zm198 0c-.078.632 1.951.638 2.508.155-.14-.165-2.222.5-2.508-.155zM95.317-3.95c.757.214 1.375.164 1.985.438.655.29 1.918 1.06 2.102 1.497.218.512.049 1.066-.352 1.582-.32.407-.781.938-.815.966-.418.33-1.829.908-2.687.968-.207.009-.656-.19-.936-.18-.188.01-.392.184-.464.18-1.851-.194-3.08-1.258-3.504-2.815-.267-.975-.22-1.851.583-2.198.17-.07.527.075.815-.09.399-.22.43-.77 1.053-.873.687-.121 1.252.248 2.22.525zm196.002 0c.756.214 1.374.164 1.982.438.65.29 1.917 1.06 2.104 1.497.216.512.05 1.066-.354 1.582-.318.407-.782.938-.813.966-.418.33-1.828.908-2.688.968-.208.009-.655-.19-.932-.18-.195.01-.394.184-.469.18-1.849-.194-3.08-1.258-3.503-2.815-.267-.975-.22-1.851.585-2.198.17-.07.53.075.813-.09.4-.22.432-.77 1.053-.873.688-.121 1.252.248 2.222.525zM236.246-.557c.108.532-.19.8-.356 1.158.532-.266 1.938-1.063.356-1.158zm-198 0c.109.532-.188.8-.355 1.158.53-.266 1.942-1.063.355-1.158zM-24.57-4.25c.43.102 1.042.027 1.476.155 1.142.332 3.143 1.883 2.453 3.056-.323.546-1.167.652-1.963.838-1.029.248-2.288.643-3.314.688-3.13.145-4.879-1.014-4.54-2.443.273-1.155.36-1.336 1.595-1.835.746-.302 1.716-.608 2.578-.685 1.023-.094 1.177.098 1.715.226zm283.55-.101c.353.377.475.992.515 1.51.124 1.579-2.015 3.29-4.926 3.34-3.704.057-4.487-2.543-3.887-4.293.068-.206.305-.627.515-.797 1.545-1.213 6.332-1.291 7.783.24zm-85.545.1c.427.103 1.039.028 1.468.156 1.146.332 3.143 1.883 2.457 3.056-.323.546-1.168.652-1.965.838-1.026.248-2.288.643-3.311.688-3.129.145-4.883-1.014-4.542-2.443.278-1.155.36-1.336 1.598-1.835.739-.302 1.715-.608 2.574-.685 1.026-.094 1.182.098 1.72.226zm-21.174.75c1.441.024 3.23.738 3.239 1.329.015.621-1.084.641-1.56 1.014-.114.09.032.237-.116.31-.133.063-.455-.047-.603 0-.052.019.052.211 0 .233-.598.285-3.54 1.01-4.68 1.095-2.565.184-2.106-.979-1.797-2.03.033-.117-.043-.55.12-.859.363-.693 1.404-.274 2.04-.857.576.308 1.246-.105 1.68-.157.163-.016.208.165.36.157.364-.02.762-.24 1.317-.235zm-197.001 0c1.44.024 3.229.738 3.24 1.329.02.621-1.084.641-1.56 1.014-.114.09.034.237-.116.31-.135.063-.454-.047-.6 0-.057.019.048.211 0 .233-.596.285-3.54 1.01-4.679 1.095-2.57.184-2.11-.979-1.801-2.03.032-.117-.04-.55.12-.859.367-.693 1.405-.274 2.038-.857.58.308 1.25-.105 1.68-.157.165-.016.211.165.361.157.368-.02.766-.24 1.317-.235zm106.718-.85c.352.377.475.992.517 1.51C62.617-1.26 60.48.45 57.568.5c-3.706.057-4.482-2.543-3.889-4.293.07-.206.306-.627.52-.797 1.54-1.213 6.332-1.291 7.779.24zm17.356-2.01c.166.03.45.286.756.367.408.104.8.05 1.002.143.467.215 1.15.864 1.258 1.087.464.947-.226 1.995-1.003 3.046-1.68-.61-1.282 1.595-3.77 1.16-.464-.081-1.048-.706-1.38-.868-.308-.155-.859-.213-1.005-.292-1.232-.683-1.902-1.885-1.633-2.9.421-1.607 3.294-2.176 5.775-1.743zm196.002 0c.166.03.449.286.754.367.408.104.797.05 1 .143.47.215 1.153.864 1.26 1.087.465.947-.228 1.995-1 3.046-1.69-.61-1.287 1.595-3.77 1.16-.467-.081-1.053-.706-1.383-.868-.312-.155-.861-.213-1.005-.292-1.232-.683-1.902-1.885-1.633-2.9.42-1.607 3.292-2.176 5.777-1.743zm39.834 1.636c.318.167.73.654.767.751.359.93-.885 2.547-1.918 2.835-1.329.37-3.1-.083-3.955-.418-1.394-.547-3.038-1.757-3.063-2.5-.028-.659.919-1.786 1.785-1.916 1.447-.22 5.782.932 6.384 1.248zm-197 0c.312.167.729.654.766.751.361.93-.878 2.547-1.915 2.835-1.331.37-3.103-.083-3.955-.418-1.396-.547-3.04-1.757-3.065-2.5-.028-.659.921-1.786 1.787-1.916 1.452-.22 5.782.932 6.382 1.248zm-141.876 1.85c.492.754-.292 1.274-.741 1.68 1.718.185 3.608-1.321.741-1.68zm197.997 0c.497.754-.287 1.274-.736 1.68 1.716.185 3.603-1.321.736-1.68zm-97.718-.944c.913.088 1.624.986 2.512.87.2-.03.615-.305.501-.51-.011-.018-.344.014-.375 0 .056.02-2.119-.997-2.638-.36zm195.997 0c.914.088 1.625.986 2.515.87.199-.03.609-.305.502-.51-.012-.018-.342.014-.379 0l-.027-.014c-.255-.118-2.13-.932-2.61-.346zM-6.403-7.97c.627-.725 1.769-1.152 3.33-1C-1.375-8.801 1.05-8.044 1-7.24c-.051.897-2.012 2.496-3.328 2.912-1.78.556-5.045.446-5.553-.64-.445-.95.488-1.408.862-1.819.29-.315.32-.834.617-1.182zm196.002 0c.628-.725 1.767-1.152 3.333-1 1.691.168 4.114.925 4.067 1.729-.051.897-2.011 2.496-3.326 2.912-1.781.556-5.045.446-5.556-.64-.445-.95.493-1.408.866-1.819.289-.315.32-.834.616-1.182zM210.947-13l.157.001c1.337.058 3.071 1.61 2.882 2.18-.072.22-.571.246-.721.544-.16.317.163.81 0 1.09-.203.352-1.013.545-1.203.636-.777.37-2.25.802-3.36.362-.47-.19-1.576-1.316-1.68-1.817-.29-1.362 2.39-3.063 4.082-2.995zm-197 0l.158.001c1.337.058 3.07 1.61 2.88 2.18-.073.22-.57.246-.722.544-.16.317.165.81 0 1.09-.203.352-1.013.545-1.202.636-.778.37-2.248.802-3.358.362-.469-.19-1.577-1.316-1.682-1.817-.287-1.362 2.387-3.063 4.084-2.995zm119.079-4.47c1.644.126 5.433.777 6.007 1.38.128.135.329.959.343 1.122.028.236-.226.184-.226.17.044.473.392.856.346 1.21-.021.146-.505.372-.694.778-.178.385-.226.797-.578.95-.367.159-1.127.06-1.27.085-1.57.246-3.05.468-4.505 0-1.169-.379-3.794-1.739-3.93-2.937-.233-2.095 1.724-2.97 4.507-2.758zm198.001 0c1.643.126 5.43.777 6.007 1.38.13.135.331.959.348 1.122.02.236-.23.184-.235.17.048.473.398.856.348 1.21-.017.146-.505.372-.692.778-.178.385-.222.797-.578.95-.369.159-1.125.06-1.268.085-1.57.246-3.052.468-4.508 0-1.17-.379-3.794-1.739-3.93-2.937-.235-2.095 1.723-2.97 4.508-2.758zm-181.763.625c1.085-.293 3.363-.153 3.989.248.562.355.176.807.23 1.153.074.463.714.618.456 1.405-.287.864-1.732 1.854-2.505 1.983-1.965.325-3.757-.872-4.331-1.405-.3-.276.12-1.923.454-2.31.133-.155 1.668-1.065 1.707-1.074zm-197.997 0c1.081-.293 3.359-.153 3.99.248.562.355.169.807.223 1.153.074.463.719.618.458 1.405-.287.864-1.73 1.854-2.507 1.983-1.966.325-3.756-.872-4.328-1.405-.3-.276.118-1.923.455-2.31.132-.155 1.67-1.065 1.709-1.074zm279.238 1.988c.138-1.06 4.084-2.321 5.895-1.216.035.02.685.772.962 1.052.225.225.138.671 0 .976-.353.786-2.105 1.598-3.608 1.541-1.597-.06-3.362-1.433-3.249-2.353zm-198 0c.138-1.06 4.084-2.321 5.895-1.216.035.02.685.772.962 1.052.225.225.138.671 0 .976-.355.786-2.107 1.598-3.608 1.541-1.597-.06-3.362-1.433-3.249-2.353zm261.228-2.152c.066.03.694.481.732.553.223.414-.662 2.042-1.465 2.523-1.217.725-2.427.405-3.568 0-1.127-.397-1.254-.221-1.572-1.341-.103-.353-.493-.92-.314-1.262.093-.176 1.501-.723 2.203-.866 1.338-.275 3.282.078 3.984.393zm-196 0c.068.03.692.481.732.553.223.414-.664 2.042-1.466 2.523-1.215.725-2.425.405-3.566 0-1.126-.397-1.255-.221-1.57-1.341-.104-.353-.493-.92-.318-1.262.095-.176 1.504-.723 2.202-.866 1.34-.275 3.282.078 3.986.393zm230.639 1.351c-.692.807 1.119 2.196 1.729 2.07.256-.053.354-.748.698-.95-1.457-.602.826-.98 1.383-1.38-1.364-.102-3.238-.414-3.81.26zm-198.003 0c-.687.807 1.125 2.196 1.733 2.07.255-.053.352-.748.695-.95-1.454-.602.828-.98 1.383-1.38-1.362-.102-3.235-.414-3.811.26zm-154.056-4.465c.233.094.658.053.713.08.757.386 1.08 1.16.943 1.744-.154.662-.512.593-.825 1.11-.375.62-.398 1.39-1.067 1.98-.6.537-1.918 1.327-3.185 1.193-1.348-.145-1.761-1.272-2.481-1.903-.412-.361-1.134-.477-1.303-.873-.444-1.065.572-2.239 1.42-2.775.809-.513 1.385-1.253 1.775-1.347 1.462-.36 3.26.495 4.01.79zm197.001 0c.227.094.654.053.71.08.754.386 1.084 1.16.945 1.744-.157.662-.517.593-.827 1.11-.371.62-.395 1.39-1.061 1.98-.603.537-1.925 1.327-3.194 1.193-1.344-.145-1.758-1.272-2.482-1.903-.405-.361-1.13-.477-1.297-.873-.445-1.065.575-2.239 1.42-2.775.805-.513 1.386-1.253 1.77-1.347 1.468-.36 3.262.495 4.016.79zm-59.607-.378c1.747.008 4 .353 4.226 1.42.06.278-.246.625-.124.972.115.33 1.1.832.497 1.417-.065.066-.62-.087-.373.225-1.176-1.456-1.921 1.162-3.483 1.642-.127.041-.382-.046-.5 0 .01-.002-.205.295-.243.299-1.606.188-2.437-.723-3.118-1.27.063.049-1.134-.081-.495-.595-.13.048-.13.169-.372.15-.949-2.407 1.291-4.264 3.985-4.26zm196.995 0c1.752.008 4.007.353 4.23 1.42.061.278-.248.625-.122.972.115.33 1.097.832.497 1.417-.068.066-.623-.087-.375.225-1.174-1.456-1.916 1.162-3.483 1.642-.126.041-.382-.046-.497 0 .007-.002-.207.295-.25.299-1.6.188-2.432-.723-3.109-1.27.059.049-1.133-.081-.499-.595-.128.048-.128.169-.374.15-.944-2.407 1.298-4.264 3.982-4.26zM191.5-22.478c.914-.17 3.002.691 3.423 1.01 1.862 1.404-1.207 3.376-3.301 4.203.803.059 1.553.812.98 1.343-.101.093-.55-.069-.86 0-.35.078-2.09.47-2.69.417-1.481-.116-3.402-1.535-3.544-2.686-.036-.268.046-1.009.12-1.175.359-.775 1.885-1.125 2.566-1.764.497-.469.428-.359 1.103-.59.38-.132.617-.408.983-.503.19-.052.288.097.486.082.237-.013.537-.298.734-.337zm-197 0c.916-.17 2.999.691 3.423 1.01 1.863 1.404-1.207 3.376-3.304 4.203.801.059 1.553.812.979 1.343-.098.093-.542-.069-.857 0-.352.078-2.092.47-2.688.417-1.482-.116-3.399-1.535-3.545-2.686-.036-.268.044-1.009.117-1.175.36-.775 1.893-1.125 2.571-1.764.493-.469.43-.359 1.1-.59.38-.132.617-.408.981-.503.193-.052.295.097.488.082.235-.013.537-.298.735-.337zm-21.849 6.637c.628.575 2.056.067 2.25-.395-.662-.125-1.437.358-2.25.395zm197 0c.625.575 2.055.067 2.245-.395-.658-.125-1.431.358-2.246.395zm-87.828-3.68c.822 1.884-1.353 3.884-4.129 3.465-.777-.115-1.987-.8-2.221-1.129-.505-.703-.703-2.175-.107-2.903 1.355-1.644 5.85-.825 6.457.567zm196 0c.823 1.884-1.352 3.884-4.13 3.465-.78-.115-1.985-.8-2.22-1.129-.502-.703-.704-2.175-.109-2.903 1.354-1.644 5.854-.825 6.459.567zm32.63 3.28c.71 0 1.623-.33 1.367-.824-.135-.265-.634-.418-.993-.446-1.817-.14-2.187 1.27-.375 1.27zm-197 0c.709 0 1.621-.33 1.373-.824-.138-.265-.642-.418-.998-.446-1.82-.14-2.19 1.27-.375 1.27zm142.319-4.846c1.187.29 2.596.242 3.202.386.967.235 2.451 1.12 2.515 1.317.063.183-.195.888-.228.926-.091.109-1.78.945-2.515.93.07.21.765.76-.227 1.008-.365.09-.54-.151-.687-.155-.71-.014-1.708.139-2.407-.155-.338-.142-.365-.524-.915-.697-.8-.251-1.81-.475-2.173-.93-.096-.12.1-.244 0-.463-.349-.774-1.878-2.21.342-2.55.878-.137 2.489.237 3.093.383zm-198 0c1.184.29 2.593.242 3.2.386.968.235 2.451 1.12 2.518 1.317.06.183-.195.888-.228.926-.092.109-1.785.945-2.52.93.071.21.77.76-.224 1.008-.369.09-.543-.151-.69-.155-.706-.014-1.704.139-2.403-.155-.339-.142-.363-.524-.911-.697-.803-.251-1.816-.475-2.177-.93-.095-.12.1-.244 0-.463-.348-.774-1.88-2.21.345-2.55.873-.137 2.485.237 3.09.383zm-86.42 3.742c.821-.11.134-1.23 1.061-1.27-1.032-.405-1.38.76-1.06 1.27zm197 0c.82-.11.134-1.23 1.062-1.27-1.037-.405-1.384.76-1.063 1.27zm139.735-.986c.945-.67 3.907-.15 4.98-.376-.892-.824-4.786-.733-4.98.376zm-196.998 0c.948-.67 3.904-.15 4.978-.376-.894-.824-4.786-.733-4.978.376zm99.701-5.584c.828.147 3.61 1.801 3.16 2.82-.003.017-.187.076-.201.09-.618.45-1.14.908-1.938 1.232-.616.254-.96.582-1.53.705-1.834.405-3.115-1.083-3.261-2.2-.206-1.569 1.131-3.114 3.77-2.647zm-196.999 0c.827.147 3.607 1.801 3.16 2.82-.004.017-.187.076-.204.09-.616.45-1.136.908-1.936 1.232-.616.254-.959.582-1.53.705-1.83.405-3.115-1.083-3.261-2.2-.207-1.569 1.132-3.114 3.771-2.647zm198.02 1.674c-.588-.022-1.322 1.083-2.241 1.235-.394.066-.468-.23-.92.089.174.403 1.493.387 2.042-.089.092-.081-.024-.292.098-.351.362-.181 1.367-.168 1.43-.532.035-.204-.413-.352-.41-.352zm-197 0c-.587-.022-1.321 1.083-2.244 1.235-.39.066-.464-.23-.916.089.176.403 1.491.387 2.04-.089.091-.081-.02-.292.1-.351.361-.181 1.367-.168 1.428-.532.035-.204-.41-.352-.408-.352zm-60.07-4.259c1.041.011 3.145.503 2.696.969-.62.646-1.396.456-2.46.646-.187.033-.476.271-.816.322-1.022.144-3.321.027-3.638-.214-.13-.104.302-.181.238-.43-.082-.31-.193-.597 0-.97 1.182.213 2.573-.34 3.98-.323zm197.003 0c1.041.011 3.137.503 2.695.969-.619.646-1.397.456-2.463.646-.185.033-.472.271-.82.322-1.016.144-3.318.027-3.632-.214-.13-.104.3-.181.235-.43-.08-.31-.189-.597 0-.97 1.184.213 2.576-.34 3.985-.323z" mask="url(#prefix__b)"/>
    </g>
</svg>
