<svg xmlns="http://www.w3.org/2000/svg" xmlns:xlink="http://www.w3.org/1999/xlink" width="288" height="124" viewBox="0 0 288 124">
    <defs>
        <path id="prefix__a" d="M0 0H288V124H0z"/>
    </defs>
    <g fill="none" fill-rule="evenodd">
        <mask id="prefix__b" fill="#fff">
            <use xlink:href="#prefix__a"/>
        </mask>
        <use fill="#07BBFF" xlink:href="#prefix__a"/>
        <path fill="#4F34C7" d="M47.858 66c1.93 2.139.901 5.626.582 8.282-.367 3.042-.51 6.365-.875 9.365-1.396 11.497-4.454 22.428-6.708 33.51-1.13 5.546-1.88 11.252-4.084 15.843-1.038-.036-1.061-1.327-2.334-1.076-1.391-7.175.836-18.293 2.334-25.577 2.348-11.418 4.448-22.542 7.29-33.866.683-2.705 1.236-5.778 3.795-6.481zM58.31 79.351c.784.759.759 3.111.602 5.075-.898 11.083-4.406 22.865-6.303 34.062-.635 3.725-.785 7.868-3.006 10.512-3.041-2.479-1.003-10.05 0-16.31 1.313-8.164 2.906-16.243 4.205-24.64.248-1.609.557-4.454 1.199-6.165.464-1.226 1.473-3.826 3.303-2.534zm59.679-22.98c.29 19.822-5.003 41.2-8.192 58.74-2.476 3.302-3.078 8.83-5.764 11.889-1.172-1.216-1.428-2.8-2.73-2.161-.256.066-.286-.143-.303-.358 2.723-23.074 8.524-45.61 13.041-67.75 2.21-.266 1.86-1.264 3.948-.36zM29.844 54c2.299 3.093.667 7.08-.58 12.245-2.143 8.874-3.43 17.64-5.518 26.647-1.914 8.255-3.807 17.087-6.391 25.924-1.146 3.916-1.975 9.087-5.227 6.477-1.178-9.447 2.022-20.702 3.485-30.242-.889 2.016-1.338 4.584-1.743 7.203-3.904 2.596-3.132 10.994-6.971 13.677-2.48-.222-1.865-4.948-1.743-6.843.306-4.668 1.668-9.682 2.614-14.762 1.738-9.288 3.533-18.748 5.519-28.439.882-4.304 1.57-10.086 5.518-10.803 1.866 2.797.486 7.754.874 11.879.263 2.825.654 6.548-.581 9.367v.359c3.503-7.66 2.505-20.895 10.744-22.689zm120.788 5c2.597 3.144.791 8.459.287 12.585-1.622 13.301-4.193 26.46-6.961 38.474-1.249 5.414-2.128 9.238-4.351 12.941-.487-.952-1.535-1.21-2.607-1.438 3.378-20.737 7.623-40.399 11.89-60.04.19-.861 1.567-.775 1.742-2.522zm9.412 5c.148.143.424 1.74.575.72 1.049 3.789-.346 8.188-.86 11.812-2.124 14.949-6.637 28.008-9.748 41.887-.971.7-1.513 1.932-1.719 3.581-.452-.87-1.14-1.442-2.292-1.435 1.962-21.175 8.597-36.51 12.038-55.844.932 1.94.951-.734 2.006-.721zm-27.3-18.864c.951 11.586-.94 21.859-2.594 31.492-.693 4.055-2.604 7.663-2.306 11.805-.313-.086-.197-.706-.574-.712.248.919.248 3.292 0 1.075-.185 2.46-.613 2.73-1.734 5.724-.21 1.57.574-.291.579.714-.617 1.988-1.047 6.088-1.731 6.801.167-2.294.982-3.786 1.152-6.08-.3.235-.393.676-.577 1.069-.411.883-.215.963-.575 2.503-.11.461-.769.712-.866 1.076-.334 1.234-.208 2.638-.577 3.936-1.195 4.234-3.58 8.176-4.037 12.882-1.342.476-1.904 1.93-2.307 3.579-.769-.714-1.28-1.747-2.597-1.791 2.671-17.123 5.32-31.653 9.518-47.595 2.27-8.61 4.23-16.062 4.613-26.12 1.752.577 2.567-.942 4.614-.358zm9.326 4.872c2.217 6.614-.17 15.228-.604 22.95-.343 6.156-1.414 11.557-2.411 17.563-.874 5.28-2.402 11.03-3.617 15.422-1.367 4.95-1.303 10.628-2.713 15.057-.622-2.03.712-5.193.302-7.172-.753-.521-1.048 2.566-2.713 2.15.24 1.244-.45 1.379-.304 2.516-.87-.758-.964-2.444-3.01-1.793.142-21.216 6.548-45.914 11.455-66.337 1.117.08 2.117-.435 3.615-.356zm-33.268 1.994c.8 9.535-1.023 17.733-2.014 27.094-.298 2.835-.181 5.742-.57 9.39-.058.526-.51.873-.578 1.447-.031.289.384.814.29 1.448-.402 2.64-1.171 5.274-1.725 7.944-1.561 7.52-3.452 14.745-5.458 21.675-.524-1.159.561-3.375.573-5.059-1.46-1.008-2.219.741-3.446 1.088.201-1.34-.49-1.555-.288-2.894-.509-.432-1.657-.036-2.586-.72.766-11.104 3.106-21.531 5.172-32.512 1.32-7.024 2.72-13.235 4.599-20.59 1.347-5.288 1.668-8.41 6.031-8.31zM39 61.08c-.145 10.399-1.472 22.552-3.314 33.051-1.274 7.264-4.107 13.47-5.422 20.12-1.716.278-2.614 5.646-4.816 5.745-5.096.245-.834-12.151.3-16.882 2.912-12.131 6.264-28.843 9.035-39.523 1.667-.522 1.643-3.07 4.217-2.511zM72.696 70c1.269 10.565-1.663 25.476-4.617 35.55-.76 2.6-1.053 5.513-1.847 7.616-.405 1.085-1.35 1.908-1.848 2.906-.513 1.032-.316 2.71-1.537 2.898-1.178.18-1.628-.499-1.847-1.446.215-16.564 4.65-31.278 7.388-46.072 1.58-.86 2.622-1.481 4.308-1.452zM189.278 71c1.907 4.098-.484 9.836-1.22 14.56-.123.797.144 1.863 0 2.552-.723 3.475-2.505 7.234-3.658 11.288-.531 1.871-1.026 3.808-1.522 5.825-.513 2.074-.592 4.592-1.223 6.187-.402 1.038-1.925 1.175-1.218 2.554-1.242.27-1.048-1.175-2.437-.733 1.106-16.155 5.956-27.835 9.143-41.508.82 1.762 1.174-.559 2.135-.725zM79.436 72.001c.951 5.006.522 11.1 0 16.293-1.003 9.947-1.977 20.433-6.854 25.706.49-3.037-2.17-2.078-2.57-3.982-.256-14.93 3.72-24.493 5.711-36.567 1.696-.49 2.163-1.494 3.713-1.45zM243.223 47c.433.672.57 1.72 1.777 1.445-.097 7.62-1.184 14.23-2.668 20.306-.13.534-.033 2.195-.887 2.181-.177 4.92-1.505 11.11-2.962 16.68-2.154 8.22-2.774 20.457-7.703 25.377-1.208.15-1.17-1.23-1.78-1.814 2.055-11.335 2.894-22.3 5.333-32.991 2.365-10.365 5.115-20.601 7.112-31.184.292.967 1.274.665 1.778 0zM181 66.71c-.77 13.918-4.13 24.725-5.712 37.668-.679 1.112-1.568 1.971-1.804 3.622-.764-.533-1.164-1.501-2.404-1.45-.688-15.54 3.205-28.41 6.913-39.84 1.739-.59 1.5-1.248 3.007 0zm-83-7.708c.027 16.878-2.197 32.38-7.72 44.722-.621.936-2.005.936-1.778 2.913-.441-.674-.57-1.724-.594-2.913-.826-1.36-1.778-.419-2.672-1.816-.881 1.948-.953 4.895-3.267 5.092.235-1.5-.454-1.861-.294-3.276-.834-.795-2.195-.947-2.675-2.179.352-13.387 3.165-23.76 5.938-34.175 1.687-1.37 2.272-1.572 4.156-1.457.369 4.89-.904 9.416-.89 14.907 2.278-6.295 3.289-14.146 5.64-20.36 1.952-.472 2.267-1.516 4.156-1.458zM207.148 53c.347 2.244 1.953.692 2.852 2.145-1.683 18.033-6.388 32.282-9.127 48.998-.525 1.013-1.583 1.355-1.712 2.857-3.287-.128-1.898-4.787-1.71-8.222.88-16.238 5.77-33.487 9.697-45.778zm10.134 3c1.033 1.038 1.78 2.054 1.714 3.985-.124 3.695-1.205 8.135-2 12.291-2.016 10.572-5.648 24.081-7.426 34.363-.914-1.182.447-2.55.285-3.978-.562 2.457-2.155 1.543-2.57 4.339-1.096-.419-1.329-1.94-2.285-2.53 1.333-14.583 4.968-28.806 8.567-41.596.695-2.464 1.362-5.91 1.999-6.506.349-.332 1.56.576 1.716-.368zm-19.494 11c2.253 2.233.765 5.994.286 9.008-.374 2.306-.866 5.033-1.138 7.208-.393 3.152-1.388 7.588-2.267 11.53-1.078 4.84-1.824 8.859-3.686 12.254-.712-.54-1.635-.804-1.983-1.802 1.165-13.531 4.408-24.423 6.802-36.396.598-1.085 1.858.266 1.986-1.802zm-73.827 38c1.022.308-.208 1.161 0 1.8-.808.824.12-1.12 0-1.8zm109.544-59.997c.957-.08.487 1.566 1.495 1.43-2.147 18.471-8.128 35.24-10.456 52.748-.177 1.343-1.684 3.294-2.389 5.025-3.037.214-2.632-6.64-2.09-11.124-1.495 3.224-2.83 6.649-3.884 10.408-.98.493-1.678 1.33-2.09 2.51-.795-.358-1.374-.979-2.091-1.436 2.144-14.234 6.207-27.802 10.155-41.262 1.313-4.481 2.519-8.176 3.883-11.486.718 1.407 2.889-.708 2.986 1.436 1.293-2.03 1.89-4.904 2.689-7.534.92 1.636 1.046.422 1.792-.715zm21.027 3.204c1.003 1.49.095 3 0 4.31-.639 9.08-3.432 16.636-5.71 24.807-2.22 7.954-4.34 15.875-6.312 24.081-1.36.653-2.09 2.055-2.704 3.595-.178-1.346-1.55-1.268-1.806-2.513 1.585-21.834 9.555-36.028 14.127-54.28 1.182 1.532.81-.903 2.405 0zM270.092 53c.6 1.054.87 2.33.907 3.598.023.795-.569.452-.604.716-.086.602.308.788.302 1.441-.018 2.063-1.188 4.15-1.51 6.113-.61 3.742-1.271 6.263-2.415 9.71-1.459 4.415-2.5 7.962-3.923 12.59-1.516 4.939-3.938 10.765-6.037 15.832-.822-.459-1.206-1.447-1.812-2.156 2.582-18.031 7.884-32.817 13.283-47.485 1.216 1.074.467-.078 1.81-.359zm-99.843 8.598c1.374 1.195.474 3.402.312 4.718-1.233 9.992-4.707 20.948-4.982 32.69-.797 1.13-1.202 2.714-1.864 3.994-.34-1.302-1.892-1.186-2.493-2.177-1.194-14.89 2.63-28.11 6.538-39.225 1.226 1.289 1.823-1.845 2.489 0zm111.718-.058c-.199 4.43-2.905 13.11-4.568 18.974-1.56 5.493-3.732 12.292-4.878 17.185-.534-.085-.692-.613-.61-1.426-2.402.52-1.322 5.129-3.654 5.727-.533-.426-1.443-2.51-1.223-3.224 1.258-4.066 2.299-10.264 3.66-15.401.133-.499.13-.662.302-1.07.505-1.184.06-.748.307-2.503.259-1.848 1.494-3.802 2.134-5.736 1.851-5.592 3.705-12.883 5.788-17.898 2.071-.663 2.962.536 2.742 5.372zM261.661 47c2.1 1.438 1.174 3.826.886 7.508-.35 4.54-2.423 10.26-3.546 14.664-.42 1.645-.472 3.489-.886 5.008-.911 3.34-2.97 7.03-2.66 9.652-.13.52-.259-.036-.591 0 .307 3.684-2.131 6.89-2.363 11.086-1.439.762-1.864 2.75-2.365 4.645-2.05.47-2.843.925-4.136-.713 3.929-18.13 9.076-34.788 14.185-51.495 1.027.927.783 1.183 1.476-.355zM127.035 93.306c.864 1.118-1.004 2.464 0 0zm1.62-5.436c-.656.766.238-2.084.7-2.43.656-1.668-.314 1.905-.7 2.43zM82.156-3.704c2.008 1.474-.139 6.843-.59 10.734-.455 3.934-.908 9.06-1.178 12.17-.264 2.972-.039 6.578-.296 9.302-.996 10.536-4.104 18.755-6.193 28.265-.534 2.437-1.004 4.72-.884 8.233-1.346-.677-.051-2.759-.296-4.298-.935-.436-1.787.177-2.654-.356-.198-.122.073-.6-.294-.713-1.229-.4-1.8-5.61-1.77-8.947.093-9.588 2.6-17.351 5.014-28.628 1.102-5.148 1.76-8.419 2.948-13.595.95-4.134 2.493-11.034 4.13-12.167.12-.086.374.405.589.355.456-.108.399-1.148 1.474-.355zm89.922 66.713c.742 1.854-1.054 3.328 0 0zM101.505-7c1.449 1.058 1.442 3.328 1.488 5.022.053 1.963-.211 4.543-.3 6.808-.12 3.25-.11 6.736-.293 9.686-.193 3.059-.47 5.294-.595 8.244-.507 11.824-4.786 22.325-5.654 33.711-.675-.5-.111-2.5-.299-3.586-1.208.565-1.132 2.692-2.673 2.864-.979-.256-.922-1.757-2.082-1.793.556-6.4.512-12.73 1.19-18.288-1.558 4.223-.9 11.109-4.167 13.266-.86 5.415-3.35 8.873-3.57 15.066-.283-2.193-1.368-4.857 0-6.1-.984.071-1.761-3.385-2.377-1.429-.653-1.128-1.19-2.393-2.082-3.228-.765-10.046 3.513-18.339 4.459-27.97.936-9.471 3.59-18.786 3.87-27.973 1.136.892 1.502-.992 2.97 0 1.039 13.524 1.443 24.032.897 37.655 2.322-13.575 4.924-26.818 7.136-40.52 1.435 1.13.86-1.342 2.082-1.435zM60.359-5.741c1.388 3.63.107 7.839 0 11.497-.057 1.961.354 3.752.3 5.75-.109 4.115-.869 8.519-1.204 12.578-1.037 12.558-4.932 23.69-6.634 35.582-.871-.165.266-2.72-.605-2.879-1.748.553-1.162 3.889-1.507 6.108-1.585.458-1.788-.737-3.013-.717-.804-3.357-.76-7.16-.605-10.424.987-20.647 7.012-38.78 10.855-56.78 1.481.258 1.15-1.647 2.413-.715zM179.679-12c1.111.353.783.771 2.09.36.57 7.25-.204 14.973-.596 22.02-.032.57-.528.834-.597 1.439-.251 2.336.375 6.011.597 8.666.709 8.472-2.43 16.064-2.984 24.543 2.628-6.32 1.935-16.669 5.373-22.011-.192-.376-.686-.376-.596-1.087.97-1.834 1.508-3.084 1.49-5.416 1.321-.69 1.516-2.739 1.792-4.695.908.669-.346 1.718 0 2.89 1.545-3.041 1.423-8.528.298-10.83 1.35-4.623 1.75-10.397 3.283-14.799.862.718.97-.36 2.686 0 .965 3.157.231 5.84 0 9.026-.14 1.948.171 4.098 0 5.774-.366 3.574-1.856 7.356-.298 10.11.34 5.005-1.563 9.149-1.192 12.995.14 1.13-.806.95-.898 1.805-.252 1.36.032 2.453-.298 3.97-.154.719-1.068 1.704-1.193 2.524-.089.57.394 1.238.296 1.805-.749 4.524-2.094 8.904-2.982 13.722-1.615 1.654-3.434 3.063-4.181 5.775-.426-.446-.565-1.245-.596-2.165-.693.1-1.398.905-1.192-.727-.79.175-1.272.713-1.459 1.608l-.035.196-.109-.334c-.913-2.88-1.087-4.97-.787-9.049-1.003 3.235-1.756 6.781-2.385 10.471-.505-.713-.327-2.258-.598-3.25-1.137 1.027-1.586 2.846-2.686 4.695.267-.164.532-.324.596-.726.57 1.086-.856 1.164-1.193 1.805.087.322.597 1.834.893.727.573.035-.35 1.207 0 2.163-1.445-.776-1.704-2.99-2.387-4.695-1.178-.259-.795-2.403-1.79-2.884-.157-4.768.127-8.997.896-12.636 1.078-.345.417 1.418.597 2.165.61-2.42 1.19-4.877 1.745-7.365-.292 0-.453.154-.515.415-.702-.702.472-2.638.346-4 .624.863-.165 1.972.232 3.283 1.786-8.036 3.306-16.39 4.76-24.824-1.208.23-1.092 2.05-1.494 3.25-.597-1.977.538-3.422.897-5.414 1.033-5.76 1.991-13.57 2.982-18.77.122-.64 1.213-1.43 1.193-2.525zM67.563 0c2.527.271.972 8.532.889 9.673-.165 2.321.086 4.833-.296 7.525-.875 6.195-2.839 12.342-3.262 18.275-2.4 5.34-3.25 12.558-4.448 19.353-1.525 1.507-.913 5.583-2.371 7.168-1.279.106-1.38-1.199-2.074-1.792.025-17.682 4.49-32.367 7.708-48.016.464-2.27 1.025-7.382 2.37-10.037C66.433 1.45 67.546 0 67.562 0zm114.102 57c.392 1.593-1.086 1.407-.696 3-1.008-.154.312-2.522-.698-2.668.108-.451.874-.272 1.394-.332zm-6.826.279l-.024.174zM196.762 51c-.786 1.049-.866 2.67-1.048 5-.954-.745-.408-4.489 1.048-5zm-29.88-54c.55.726 1.148.833 1.997.363.612 7.91-1.286 15.168-1.425 22.14-.089 4.438.509 9.512-.571 14.285-1.304.626-.869 2.773-1.14 4.282-.426 2.355-.987 4.803-1.425 6.787-.96.363-.447-1.109-.575-1.786-2.644.528-1.597 6.66-1.994 8.929-.58-1.78-.607-4.247-.574-6.787-1.121-.326-.207 1.885-.856 2.142-.496-.57-.618-1.608-.57-2.86-.441.288-.876.589-.88 1.422l.003.134-.039-.488c-.36-4.28-.984-8.238-.8-13.205.663.114 1.1-.057 1.429-.356.072-6.61 3.5-10.792 3.427-17.144-1.296-.669-.39 1.421-1.428 1.073 1.826-6.283 2.847-13.58 5.422-18.931zm37.672-5.491c.376.873.382 2.196.887 2.904 1.002 15.733 1.099 30.347-3.536 40.992.666 2.82-1.432 5.204-1.179 8.709-1.007.816-1.108 2.746-1.475 4.35-.387-.13-.463-.637-.885-.722 0 2.284-.356.382-1.769 1.444-.17 1.165.558 1.128 0 1.814-.752-.715-.265-2.963.591-2.898-.128-.447-.375-.744-.881-.73-1.009.455-.762 2.45-2.362 2.184v-1.814c-1.551-.217-.563 2.688-2.061 2.536-.15-2.198.412-4.54-.884-6.894 1.279-.601.581-3.635 2.065-3.989-.619-.882-.421-.775-.298-2.176 2.6-11.072 5.04-22.339 7.37-33.735.545 1.38.733-.362 1.474-.73-.196-1.084-.633.347-1.177 0 .31-2.624 1.473-5.066-.297-6.527.361-4.213-.207-6.481 0-9.792 2.858-1.714 5.84 1.981 4.417 5.074zM217-8.616c-.508 8.589.005 14.708-.304 21.219-.089 1.949-.755 4.241-.908 6.476-.106 1.541.447 4-.609 4.672.202 8.03-3.107 13.318-3.337 20.495-.187.616-.916.596-1.213 1.083 1.3.158-.143 1.139-.301 2.514-.937.272-.369-1.24-1.518-.717-.922.345-.661 2.092-1.212 2.874-.82-1.326.518-2.458 0-3.597-.527-.717-1.191 1.447-2.125 1.44.316-1.017.316-1.497 0-2.514-.923.536-1.995-1.09-1.819.357-1.097-2.055-.614-5.745 0-7.909 1.238-4.37 2.325-12.429 3.033-16.541.118-.689 1.046-1.834 1.518-2.523.137-2.706.596-5.043 1.212-7.191.82 1.468-.34 3.668-.303 5.393.624-.093.282-1.34.91-1.431.194-1.814-.018-2.472.304-3.597 2.255-3.884 1.59-7.386 2.426-13.31-1.43.93-.986 4.813-2.125 5.036 1.163-4.593 1-9.228 2.125-13.305 1.566-.873 3.147.31 4.246 1.076zM47.359 5c2.71 2.215 1.354 7.272.883 10.783-.946 7.137-2.98 13.486-5.016 19.784-.78 2.416-1.75 4.392-2.659 6.479-.908 2.078-.436 2.248-1.771 3.597-.005.35-.36.28-.591.357-.18-.321-.354-.645 0-.723-.28-8.204 3.212-15.915 5.021-23.373C44.67 15.934 44.324 9.242 47.36 5zm65.945-7c1.85 3.795-.505 12.585-1.127 17.721-.966 7.962-1.427 15.957-3.384 21.333.053 4.343-2.545 11.236-4.793 6.151.824-15.892 3.902-28.059 7.049-42.31 1.557.065.971-2.614 2.255-2.895zm-92.71 13c4.96 2.199.189 11.85 3.406 17.03-1.243 4.956-1.745 10.83-2.837 15.97-2.272-1.265-4.495-1.753-6.525-1.775-.33.057-.508-.076-.57-.353C13.421 31.19 17.51 18.882 20.594 11zM156.828 1c1.895 1.928 1.03 11.157.576 15.768-.627 6.424.843 12.77-1.15 18.63-.353-.158-.59-.456-.576-1.071-1.267.67-1.394 2.813-1.726 4.655-.332 1.819-.178 4.025-1.148 5.018.016-2.491.887-3.712.284-6.09-.857-.499-1.926-2.604-2.3-2.511-1.31-3.62-.754-8.994 0-12.9.49.494-.038 1.315 0 2.87 1.15-2.391 1.173-6.18 2.016-8.958-.088-1.249-.782.029-.866-.721.83-5.175 1.702-10.292 3.164-14.69.2.287 1.605.8 1.726 0zm-19.314-1c1.64 8.092-1.418 17.76-1.13 25.298-1.034 4.858-2.862 10.028-3.664 15.536-.092.619.508 2.16-.564 2.166-.05-3.873-.28-6.06 0-9.755-1.321.1-.476 1.908-1.41 1.807.287-2.023-1.47-3.218-1.69-5.06-.458-3.873 1.984-11.814 2.816-15.537C133.076 9.1 134.432 4.068 135.54 0h1.974zm84.511 41.481c-.035.05-.067.097-.096.142zM32.99 10c1.508.669.868 3.086.912 4.37.059 1.65.116 3.492 0 5.104-.15 2.056-.955 4.067-.912 5.83.032 1.126.832 2.223.912 3.282.357 4.59-1.83 8.168-2.126 12.386-1.491 1.25-3.917 1.344-5.776.372.788-12.3 3.316-22.516 6.99-31.344zm196.807-20.54c-.222 2.42.903 4.667-.572 5.765-.21 1.114.786.697.572 1.803-.565.115-.771 3-.856 4.33-.263 4.036-.157 8.946-.856 11.89 1.125 7.726-1.269 16.767-3.702 22.345.22.322.307.819.286 1.443-1.282-2.837-1.944 2.563-2.564 3.964-.964-.26 1.35-3.39.284-5.048-1.264-.574-2.205-3.447-2.848-3.604-.585-1.414-.719-3.252-.288-5.407 1.292-6.398 3.092-14.892 4.844-20.176.286 2.074-1.734 4.493-.854 7.567 1.305-3.252 1.803-6.123 2.263-9.766-.305-.238-.73-.33-1.254-.307-.268-1.058.92-1.187 1.369-.613l.188-1.57c-.043-.79-.719-.775-1.426-.718.786-4.654.69-10.426 2.851-13.342 1.382-.187 1.423 1.322 2.563 1.445zm-59.841 49.951c1.144 1.026-.968 2.034 0 0zm83.572-50.049c.2 1.232.74 1.755.31 3.598-.044.184-.589 1.117-.615 1.44-.173 2.178 1.66 4.692 0 5.753.421 6.715-.08 13.458-.309 19.785-.2 5.482-.444 10.957-2.457 15.106-.277-1.068-.855-.873-1.232-1.075-1.199 1.327-.933 2.665-1.535 5.031-.94-2.18.569-4.601.613-6.83h-.924c-.976.344.044 2.258-.615 3.598-.864-.746.03-4.537-.923-6.12-.08-.322-1.36-.953-1.23-.358-1.9-8.019 1.08-18.595 2.768-25.898.013-1.103 1.27-.014 1.54-1.44-.3-.366-.61-.724-.923-1.075.767-1.14 1.696-2.093 1.537-4.321-1.394-.674-.42 1.433-1.537 1.083-1.396-2.552 1.343-5.634 1.537-8.636 1.375-.035 1.652.215 3.995.36zM123.778-.985c1.563 1.195 1.207 3.823 1.14 5.822-.271 8.24-1.452 18.233-2.854 25.076.89 1.724.112 3.454 0 5.814-2.397-.68-1.519 2.586-3.422 3.273-2.21-.853-1.616-3.374-1.424-6.546.62-10.362 2.928-24.75 5.134-33.07.672.884.528-.542 1.426-.37zM146.993-3c.132 12.292-1.53 25.408-3.453 36.336.682 1.597-.22 2.94 0 4.989.117 1.285-.525.49-.287-.355-.035-1.98-.371-3.583-.863-4.99-.069-.915-.496.492-1.152 0-1.278-2.326-1.357-7.237-1.151-11.75.41-8.914 2.923-18.162 4.892-24.23.744.327 1.067.184 2.014 0zm93.087-9.91c.27.165.85 1.98.89.357.607 2.729 1.61 9.143.597 13.272-.128.52-.051.735-.596.713.777 2.365.937 10.113-1.487 11.828-.164.8.565.514.596 1.078-2.14 6.027-1.472 11.178-3.577 16.848-1.232-.406-1.159.758-2.084.722.074.45.594.358.596 0 .98.972-1.226 1.128-1.192 2.15-.508 1.414-.57 3.37-1.785 3.942.21-1.422.614-2.607 1.49-3.228-.852-.557-.183-.707-.3-2.15-.72-.45-.682-1.807-1.786-1.792-.084-.58.282-.615.295-1.079-.208-1.579-1.958.77-1.487-1.793-.29.172-.45.502-.533.924l-.008.047v-.052c-.038-1.077-.945-2.129-.65-4.14 1.306-8.863 5.328-22.919 7.444-28.683-.24.657.759.446.638-.363l-.006-.032.078-.083c.45-.57.364-1.784.78-2.393-.033-.872-.984-.07-.894.364-.304-.236-.305-.83-.894-.722.22-2 .754-3.634 1.195-5.378.72.693 1.898-.82 2.68-.358zM122.176 37.997c-.758.064-.16-1.415-.352-1.995.76-.074.158 1.414.352 1.995zm48.174-1.426v.856h-.7v-.856h.7zM264.439-8c.856.163.93 1.267 2.081 1.074.178 2.511.985 2.676 0 4.64.633 9.838.27 20.013-2.081 28.927-.47.156-.256 1.124-1.191.719.298 1.423.18 2.318-.297 3.572-.529-.321-.38-1.452-1.49-1.076-.888 2.27-1.607 4.74-2.38 7.144-.696-2.149 1.24-4.219 1.19-6.787-.465-.583-1.388-.15-1.787.356-.645.064-.133-1.267-.297-1.786-1.107-.455-.262 1.529-1.19.717-.35-.305-.49-2.155-.594.356-.87-2.34-.122-5.1.298-6.787 1.867-7.54 2.636-17.153 5.354-21.783-.694-1.716-.452-4.177-.295-7.856.302-.348.6-.704.89-1.074.338.07.17.363 0 .363.356.854 1.292-.563 1.789-.719zm-28.092 40.153v1.694h-.694v-1.694h.694zM161 17c-.79 2.414-1.22 5.704-2 9-.018-2.567.609-7.228 2-9zm117.698-34c.64.282 1.123.757 2.015.72.427 1.873-.818 4.227.287 4.701-.26.396-.644.245-1.15 0-1.582 1.93-.257 5.026-1.442 6.14.19.484.616.677 1.15.722-.417 2.123-.326 4.887-1.15 6.507 1.194 1.792-.58 8.726-1.44 11.562-.025.078-.512-.058-.576 0 .353 2.217-1.14 4.678-2.016 6.508h-.862c-.782 1.188-1.352 2.635-1.732 4.333-1.352-1.071-2.54.72-4.028 1.807-.873-.445.31-1.244 0-2.166-.28.007-.225.439-.29.72-1.113-.684.103-2.138.29-3.248.459-2.755.768-6.472 1.44-9.034.904.172 1.126-.518 1.728-.727.5-2.606.859-4.594.86-7.227.005-2.082 1.2-2.938 1.732-4.335.061-.165-.445-.677-.29-1.086.155-.396 1.778-.937.867-2.168.632.187 1.007.118 1.233-.089h-.673v-1.28h.698l.001 1.255c.573-.58.13-2.113.756-2.414.208-.59-.572-1.576-.577-.726-.932-.957 1.228-1.08.863-2.527-.027-.236-.646-.818-.823-.62l-.01.017c.215-1.937.172-6.558 2.274-5.897.593-.102.575-.972.865-1.448zM175 15c-.537 2.136-.618 4.756-2 6 .117-1.012.704-2.109.996-3.176.26-.94-.11-2.607 1.004-2.824zm-24.176 3.148c.476.136.292 1.068.352 1.704-.476-.136-.29-1.068-.352-1.704zm108.257-2.577c1.33-.904.768-4.077 1.785-5.358-2.29-.42-.76 3.458-1.785 5.358zM184.885 9c1.396.51-.096.828 0 2-1.026-.342.454-1.005 0-2zm85.507-2c.81.984-.818 2.53-.7 4-.928-1.11.496-2.862.7-4zm-60.24 0c.754.543.384 3.274-.698 2.978-.034-1.317.428-2.028.698-2.978zm-23.802.572v.856h-.7v-.856h.7zm25.033-2.152v.848c-.296-.076-.328.17-.346.432-.68.16-.51-1.94.346-1.28zm25.72-9.955v.064l-.017-.053c-.054-.151-.144-.318-.282-.5.199-.558.291.003.299.489zm43.359-1.787c-.356-.27-.36-.972-1.048-.846.142-1.058 1.6-.322 1.048.846zM122.513-26.735v1.185h-1.5v-1.185h1.5z" mask="url(#prefix__b)"/>
    </g>
</svg>
