<svg xmlns="http://www.w3.org/2000/svg" xmlns:xlink="http://www.w3.org/1999/xlink" width="288" height="124" viewBox="0 0 288 124">
    <defs>
        <path id="prefix__a" d="M0 0H288V124H0z"/>
    </defs>
    <g fill="none" fill-rule="evenodd">
        <mask id="prefix__b" fill="#fff">
            <use xlink:href="#prefix__a"/>
        </mask>
        <use fill="#FFC107" xlink:href="#prefix__a"/>
        <path fill="#0E004E" d="M156.08 59.208c-.258-.197-.416-1.386-1.962-1.15-.013.299-.354.322-.272.696.671.072 1.485 1.214 2.234.454M79.77 84.704c-.358-.786-1.324-1.062-2.239-1.38.063.436-.315.512-.273.926 1.108-.078 1.4.528 2.511.454M-.387 65.996c-.084.143-.686.892.004.928-.269-.433.831-.78-.004-.928m3.887-4.18c.692.03 1.151-.123 1.39-.468-.691-.032-1.354-.038-1.39.469m226.212-5.177c4.907-1.083 9.402-2.755 15.052-2.133 2.042.227 4.26 1.304 6.424 2.062 1.11.385 2.234.54 3.357.917.875.292 1.685 1.064 2.51 1.375 2.042.777 4.042.899 5.31 2.068 2.777-1.97 8.494-4.493 12.823-2.358 10.768.602 15.894 5.921 19.034 12.898-.402.055-.09.69-.553.697.193.77-.578.374-.833.233-.477.53-.78 1.201-1.11 1.855-1.364-.73-1.075.798-2.232.238-1.027.324.06.953-.83 1.397-1.124-.375-1.951-1.004-3.352-1.149-.593-6.449-12.185-6.32-15.633-2.03.848 1.894.253 3.549.587 5.783-1.876 1.092-2.85 2.444-3.605 3.95-1.05.183-1.334-.28-2.234-.223-.265.354.692 1.273-.267 1.853-1.222-.143-1.677-.923-2.796-1.148-4.358.313-6.306-1.388-9.493-2.051-1.544-4.64 3.56-7.12 1.334-11.348-3.647-1.813-11.186-1.23-15.34-.179-.345 1.022-.333 2.341-1.385 2.783.66 1.233-.307 2.92-.536 4.169-.854.175-.534-.635-1.399-.459-1.037.913-2.553 1.429-3.611 2.329.252 1.434-.58 1.977-1.38 2.55-2.663-2.651-10.503-1.654-11.746-5.285-.488-1.434.61-3.737.248-5.788-.305-1.748-1.268-4.016-2.534-4.85-8.877.836-12.463 6.028-17.524 10.01.397 1.127-.631 2.601-1.658 3.48.227 1.953-1.178 2.565-1.649 3.94-2.152-.307-3.229.268-3.904 1.17-3.226-.27-5.818-1.363-9.768-1.584-.51-.446.216-1.176.549-1.626-.89-.694-.505-2.166-.015-3.008-.046-.269-.507-.193-.84-.23-.08-.754 1.082-.493 1.111-1.16-.456-1.866-.578-4.014-1.979-5.086-.816-7.266-15.43-3.824-17.294-.17.342.719.685 1.44 1.125 2.08-.499 2.133.02 4.364-1.363 6.251-.707-.336-1.252-.812-2.238-.915-.553.58-.219 1.906.845 1.849-.065.332-2.292.547-1.95-.225-1.104 1.874-4.93.393-6.413 1.643-.721-.907-1.95-.657-2.791-.455-.246-1.5-1.706-1.979-2.804-2.768-.335-3.92-2.39-9.31-5.076-11.327-1.66-1.245-4.718-.216-6.966.95-1.151.598-1.84 1.513-2.779 2.094-.91.564-2.036.6-2.507 1.165-.896 1.086-.768 3.578-.81 5.095-.528 1.108-2.213 1.251-1.937 3.016-1.458.72-3.467 1.98-5.02.713-.58.905-1.547 1.496-2.78 1.86-1.304-.02.198-.425.273-.695.209-.866-1.064-.5-1.117-1.152-2.92.955-7.69-1.258-11.45-2.741-.171-.86-.718-1.022-.295-2.08-.343-.705-1.062.343-1.393-.225.16-1.254 1.182-1.793 1.664-2.785-1.15-1.66-2.063-3.71-4.209-3.921.021 0-2.625.219-3.344.477-.572.196-2.33 1.483-3.34 2.325-.135.109.147.589.002.694-.543.4-1.698 1.716-2.211 2.553-.56.903-.659 2.148-1.105 3.012-.04.078-.757.322-.835.467-.955 1.717-.873 3.84-1.649 5.562-2.191.869-3.851 2.657-6.678 2.337 1.348 1.25 3.834 1.817 5.59 2.989.508.816 1.257 1.434 2.243 1.845 1.149 2.292 3.128 3.893 3.382 6.933 1.113-1.263-.023-5.655 2.754-7.184.326-.734-.179-1.018.271-1.853.966-1.495 2.34-1.813 5.009-2.335 1.535-.298 3.05-1.424 5.574-1.173.494.048 1.102.418 1.956.687 4.436 1.38 8.214 3.315 9.518 7.142 2.993-1.546 5.564-3.545 9.468-3.97 8.136-.88 14.968 3.471 18.165 7.348 2.591-5.208 8.227-8.374 16.144-7.465 6.083.702 9.966 4.812 13.704 7.13 3.338-3.969 7.67-7.795 15.317-5.605 3.206.917 7.56 3.277 9.792 5.054 2.29 1.837 3.773 4.316 4.768 6.237 2.268-.949 2.661-3.976 3.32-5.568 2.932-1.546 5.98-4.426 10.298-4.895 8.532-.927 15.014 3.353 16.783 9.2 1.016-.315 1.157-1.35 1.666-2.088 1.851-1.304 3.814-2.875 6.95-3.959.5-.17 1-.61 1.393-.7.974-.217 1.81.114 2.789-.008 3.73-.47 7.404-1.679 10.873-1.427 5.048.364 8.697 3.143 10.08 6.91.207-.721 2.143-1.146 2.782-1.861.358-.408.158-1.23.547-1.624 1.727-1.742 7.736-4.232 11.97-4.207 1.393.008 2.834.551 4.193.448 4.707 2.289 6.51 9.293 2.015 12.728-3.283-.591-2.129-4.884-4.773-6.003-6.853-.66-10.814 3.14-14.194 6.529-.98.984-2.335 1.929-2.776 2.556-.554.78-1.273 2.662-2.777 2.787-3.582.294-3.115-3.31-1.142-4.626-.545-2.345-.68-3.862-1.982-5.549-.765-1.003-1.421-2.078-2.801-2.537-5.41-1.806-15.46.99-19.228 4.001-1.331 1.069-2.013 2.514-3.33 3.023-.189.692-.332 1.418-1.106 1.624.322 1.983-1.399 3.155-1.658 3.942-.896-.18-1.849-.314-2.513-.688-.644-.678-.446-1.647-.848-2.543-.248-.56-.95-.947-1.123-1.384-.187-.49.328-.62.277-.926-.206-1.216-2.425-4.51-3.38-5.313-3.757-3.172-11.055-.993-14.495 1.436-.999.705-2.231 2.026-3.331 3.252-.976 1.088-2.417 2.312-3.053 3.252-.668.989-.797 2.068-1.939 2.783-1.737-.07-1.889-.07-3.624.01-1.946-2.498-2.558-6-5.067-8.773-1.49-1.651-5.11-4.28-8.113-4.373-2.705-.084-7.018 2.608-8.34 5.351-.404.831-.301 2.276.294 3.242-.17.553-1.214.385-.829 1.392-.23-.122-.456-.24-.841-.231.113 1.09-1.624.665-1.384 1.857-1.277-.387-3.254-.042-3.906.015-2.394-1.275-.583-2.7-.86-4.628-.329-2.27-6.601-8.716-10.646-8.99-3.28-.22-4.981 1.576-7.52 3.033-2.373 4.195-5.707 7.596-8.031 11.836-1.083-.027-1.836.827-3.624-.218.587-7.554-4.338-13.612-13.45-12.226-3.822.583-5.042 3.223-6.663 6.042-1.616.67-3.499 1.119-6.13.948-1.197-2.915-2.907-5.49-5.622-8.315-1.332-1.38-3.618-3.62-5.318-3.685-2.657-.1-5.042 3.183-6.399 4.884-1.846 2.318-2.764 4.384-4.711 6.035.208.707-.28.841-.27 1.388-.753.305-1.329.751-1.386 1.626-2.276.187-3.241.697-4.745-.448.305-2.438-1.363-5.035-3.383-7.162-3.167-3.338-9.564-6.41-13.687-3.424-1.274.92-1.975 2.36-2.77 3.71-1.704 2.897-2.457 5.282-8.065 5.122-.004-.54-.006-1.081-.008-1.624-.877-1.992-1.95-3.925-3.374-6.005-1.18-1.71-3.01-4.781-6.163-4.378-1.376.177-3.267 1.019-4.453 1.868-3.694 2.632-7.286 8.046-8.029 12.297-1.38.061-2.61 2.12-5.012 2.1.587-5.762-2.247-11.801-6.49-14.563-.241-.155-.616-.067-.837-.227-.532-.383-.454-.223-1.114-.459-.966-.34-3.623-.521-5.303-.212-5.579 1.014-7.86 6.37-13.071 8.145-.3-4.291 6.548-6.332 4.409-10.894.995-.715 2.26-1.216 2.5-2.556 2.033-.938 5.053-1.064 6.959-2.105 2.288.254 4.365-.236 6.704.67.64.25 3.003 1.788 1.674 1.383 3.816 1.072 6.203 3.336 7.844 6.222 2.351-.627 2.271-3.023 3.603-4.407 1.174-1.222 3.34-1.323 4.175-2.796 2.752-.366 4.96-1.605 7.802-1.411 3.944.265 8.32 2.526 10.07 4.823 1.369-.942 2.18-2.35 3.329-3.483-.837-.818-1.552.402-2.512.242.878-.816 1.95-1.475 2.5-2.558 3.243-1.527 6.14.84 8.926.433-1.291-1.319-3.767-1.653-4.482-3.456-.358-.322-1.315-.139-1.674-.458.187-1.164-1.124-1.071-.85-2.312-.587-.406-.827-.517-1.672-.227.948-.793.692-2.144 1.375-3.244.516-.818 2.236-1.85 1.656-3.708-.947-3.071-8.814-2.27-11.717-.654-.81.45-2.006 1.712-2.776 2.553-.253.278-.703.526-.837.7-.808 1.048-.873 2.514-1.654 3.478-.57.7-2.11 1.083-2.5 2.09-2.152.28-3.67 1.057-5.015 1.406-1.21-1.313-4.26-1.086-5.314-2.529-1.497 1.063-5.565.204-5.31-2.294-2.897-.512-3.32-3.191-4.77-5.307-1.514-2.224-4.086-4.104-8.388-3.444-2.129.324-4.85 1.525-7.236 2.337-2.492.848-4.884 1.912-6.405 3.035-.618.129-.397-.443-.839-.462-7.16 1.809-8.462 5.713-15.027 7.69.862-1.66 3-3.727 1.367-6.022 1.058-1.138 1.696-2.956 3.608-3.95-.79-1.555 1.02-1.978 1.66-3.015-.104-.324-.49-.019-.556.236-.168-.795 1.306-2.436 2.209-3.25 1.935-1.738 4.89-3.162 7.233-4.422.127-.496-.4-.441-.837-.462.848-.73 1.815-1.107 2.23-.47.294-.28-.76-.94.55-1.158-.771-.625-3.133.324-4.738.94-.619.238-1.5.608-2.228.936-.383.17-1.661 1.15-.833.233 2.951-1.489 5.619-3.216 8.902-4.432 1.03-1.278 3.06-1.977 5.846-2.1 3.56-.157 6.682 1.162 9.772.66.572.309 2.297.851 2.79.454.475.147.176.534-.274.465.496.652 3.479.87 2.787-.009.633-.4 1.336 1.016 2.234-.008 3.365 1.52 6.752 3.025 9.785 4.827 2.268-1.8 6.064-4.162 10.019-4.665 3.073-.391 7.105.238 10.603.196 7.129-.089 13.324 1.907 17.594 4.339 5.014-2.907 10.557-6.706 18.388-4.924 5.925 1.344 12.783 1.73 17.04 4.573 4.718-2.668 9.3-6.47 16.706-5.85 2.162.185 3.91 1.27 5.595 1.834 2.259.76 5.191.61 7.532 1.132 2.552.57 4.096 1.546 5.87 2.526.84-.311.998-1.178 1.669-1.624 4.505-2.642 15.652-5.425 20.917-1.46 8.22.867 14.17 3.637 17.892 8.27 1.836-1.804 3.975-3.204 4.436-5.57-.175-.495-1.715-.211-1.954.008-.85.134 1.518-.638.833-1.856 2.505-1.82 6.501-4.884 11.129-5.363 3.418-.354 6.64.424 8.935 2.052 5.753.15 9.689 1.816 12.855 4.121M-8 49.998C-6.044 43.045-1.341 37.15-.577 29.98c-.8-.035-1.817-1.098-2.508-.456-1.002-1.094 2.57-2.114 2.485-3.96 2.735-1.675 6.144-2.786 8.055-5.14 3.454-.78 7.568-1.944 10.854-2.13.542-.633 1.228-1.144 1.663-1.867 10.47.013 17.235 1.798 23.984 5.031 2.043-1.425 4.068-2.805 6.942-3.97 1.31-.535 3.148-.896 3.894-2.108-.395-.606-1.813.583-2.23.008 1.274-.258 1.069-.69 1.66-1.166 7.294.864 15.063 1.33 18.97 5.044 3.876-3.048 7.594-7.17 13.897-6.091.864.15 1.828.764 2.79.923.802.129 1.701-.085 2.508-.009 5.616.5 9.532 3.62 12.294 6.698 4.014-2.04 4.19-7.809 9.992-7.24 1.275.124 2.12 1.028 3.35 1.383 2.762.794 6.247.547 8.644 2.061.493 1.766 2.136 2.56 3.36 3.709.452 1.485 1.27 2.665 2.525 3.476 1.277-1.15 1.426-2.8 2.49-3.96 1.226-1.339 3.27-1.696 4.44-3.035 9.838-.597 17.472 2.533 21.765 7.363.708-.765.87-2.023 1.655-2.796.469-.457 1.977-.917 3.054-1.637.675-.446 1.032-1.077 1.668-1.4.794-.404 2.277-.795 3.336-1.175 1.955-.697 2.909-1.27 5.287-1.413 6.352-.384 14.067 2.32 17.297 5.984 3.176-1.98 6.812-4.662 11.963-3.99 1.046.13 1.873.88 2.791 1.151.781.228 1.735.042 2.51.222 2.848.676 4.432 2.53 6.421 3.466.475 1.081 1.145 1.996 2.244 2.547 2.514-3.791 8.219-7.77 15.008-7.253 4.745.36 6.906 3.168 9.22 6.009 1.748-.866 2.715-1.939 4.448-2.805 2.64-1.322 5.906-1.28 8.334-2.817 1.87.158 3.057-.252 4.737-.248.996.171 1.13 1.071 1.405 1.855 4.222 1.273 5.214 5.263 6.449 9.042 2.598-.96 2.461-2.674 4.717-4.432 2.952-2.308 10.423-3.776 12.532-.975 1.292 1.73.876 6.16-2.479 6.053-6.005-5.046-12.292 4.7-15.285 7.26-.126 1.592-.857 2.686-2.493 3.028-2.783-1.667-1.847-5.35-2.827-8.127-.393-1.111-1.393-2.807-2.248-3.942-1.68-2.228-5.848-4.038-9.757-2.057-1.953.987-2.575 3.092-4.44 4.2-.097 1.133-.754 1.46-.265 2.557-1.609.374-.664 1.658-1.94 2.562-1.81 1.286-4.89.965-6.128-.676-.002-1.548.477-2.693 1.094-3.724-.899-2.821-2.264-5.252-4.766-6.722-3.864-.15-6.141 1.607-8.06 3.512-1.77 1.755-2.952 3.808-4.152 6.06-.987 1.85-2.457 3.529-5.556 3.269-.124-.283-.359-.471-.836-.458-1.405-4.5-3.659-8.284-7.574-10.666-6.29-.452-12.313 4.089-11.941 7.246-.811.203-.315.349-.271.93-1.527.052-1.519 1.366-2.788 1.636-1.665-.997-5.232.338-6.688-1.37-.455-.545-.827-1.97-.294-3.02-1.516-2.328-2.875-7.167-6.723-7.65-2.882-.362-7.323 1.736-9.732 3.288-2.989 1.926-4.81 4.566-6.095 6.53-.608.488.14.664.006 1.394-1.603-.169-1.126 1.386-2.22 1.635-2.01-.395-4.558.418-6.409-.443-1.79-.852-3.47-3.568-1.7-5.338-1.66-2.766-3.45-6.545-7.277-6.486-3.867.061-7.27 4.765-8.873 7.705-.578 1.056-1.361 1.392-1.103 3.022-.91.712-.945 2.146-2.212 2.567-3.783-.414-7.118.504-9.479-1.6-.172-.553-.408-1.055-.29-1.854-2.915-2.836-4.692-6.634-7.011-9.97-3.75 1.372-5.688 4.247-8.043 6.766-.246 1.063.466 1.318.565 2.091-1.846.171-1.412 1.705-3.331 2.104-.645.133-1.12-.389-2.233-.458-1.412-.087-2.994.384-3.9.247-1.114-.171-1.77-1.177-2.792-.921-.31-1.018-1.231-2.112-.57-3.25-.821-.446-1.153-1.333-1.686-2.087-.929-1.337-3.13-5.283-5.317-5.561-1.701-.218-3.94 1.18-5.562 2.11-1.764 1.011-3.05 2.143-4.16 3.269.43 2.484-.612 3.538-2.482 5.354-3.476-.34-7.187-.49-9.477-1.827-1.445-3.453-3.989-5.983-7.01-8.11-3.606-.034-7.101 1.413-8.336 3.282-1.017 1.533-.788 3.935-1.926 5.584-.7 1.025-1.821 1.635-3.052 2.338-3.189-.43-6.436-.806-8.923-1.83-2.254-3.904-5.817-6.977-11.74-7.397-1.067-.078-2.58.19-3.896.245-1.05.044-2.422-.093-3.342.01-6.957.8-13.046 4.476-16.953 7.498-4.08 4.8-7.188 10.41-10.228 16.073-.25.182-.628.254-1.117.237" mask="url(#prefix__b)"/>
    </g>
</svg>
