<svg xmlns="http://www.w3.org/2000/svg" width="24" height="24" viewBox="0 0 24 24">
    <g fill="#4F34C7" fill-rule="evenodd">
        <path fill-rule="nonzero" d="M4.929 3C3.869 3 3 3.869 3 4.929V16.5c0 1.06.869 1.929 1.929 1.929h.642v.642c0 1.06.87 1.929 1.929 1.929h11.571c1.06 0 1.929-.869 1.929-1.929V7.5c0-1.06-.869-1.929-1.929-1.929h-.642V4.93c0-1.06-.87-1.929-1.929-1.929H4.929zm0 1.286H16.5c.362 0 .643.281.643.643v.642H7.5c-1.06 0-1.929.87-1.929 1.929v9.643H4.93c-.362 0-.643-.281-.643-.643V4.929c0-.362.281-.643.643-.643zM7.5 6.857h11.571c.362 0 .643.281.643.643v11.571c0 .362-.281.643-.643.643H7.5c-.362 0-.643-.281-.643-.643V7.5c0-.362.281-.643.643-.643zm9 1.286c-.492 0-.99.19-1.366.562l-1.286 1.286c-.587.593-.698 1.467-.361 2.18-.005.005-.01.01-.01.02l-1.286 1.286c-.005 0-.01.005-.015.01 0 0 0 .005-.005 0-.713-.332-1.587-.226-2.18.361l-1.286 1.286c-.748.753-.748 1.979 0 2.732.367.362.854.563 1.366.563.513 0 1-.201 1.367-.563l1.285-1.286c.588-.592.698-1.466.362-2.18.005-.004.01-.01.01-.02l1.286-1.285h.01c.185-.191.236-.467.135-.713-.105-.241-.346-.392-.607-.387-.156.005-.302.06-.412.166l1.255-1.256 1.281-1.286c.126-.125.291-.19.457-.19.166 0 .326.065.457.19.246.247.246.658 0 .904l-1.29 1.286-1.276 1.286c.25.12.532.19.823.19.513 0 1-.2 1.366-.562l1.286-1.286c.748-.753.748-1.978 0-2.732-.377-.371-.874-.562-1.366-.562zm-4.36 5.379c-.22.256-.205.643.036.884.246.236.633.246.884.015l-1.25 1.245-1.287 1.291c-.24.241-.663.241-.904 0-.25-.251-.25-.663 0-.914l1.286-1.28 1.236-1.241z"/>
        <path fill-opacity=".2" d="M8 6H20V19H8z"/>
    </g>
</svg>
