<svg xmlns="http://www.w3.org/2000/svg" width="24" height="24" viewBox="0 0 24 24">
    <path fill="#4F34C7" d="M5.714 5C4.772 5 4 5.772 4 6.714v9.143c0 .942.772 1.714 1.714 1.714H7.43v.572c0 .942.772 1.714 1.714 1.714h9.143c.942 0 1.714-.772 1.714-1.714V9c0-.942-.772-1.714-1.714-1.714H16.57v-.572C16.571 5.772 15.8 5 14.857 5H5.714zm0 1.143h9.143c.322 0 .572.25.572.571v9.143c0 .322-.25.572-.572.572H5.714c-.321 0-.571-.25-.571-.572V6.714c0-.321.25-.571.571-.571zm10.857 2.286h1.715c.321 0 .571.25.571.571v9.143c0 .321-.25.571-.571.571H9.143c-.322 0-.572-.25-.572-.571v-.572h6.286c.942 0 1.714-.772 1.714-1.714V8.43z"/>
</svg>
