<svg xmlns="http://www.w3.org/2000/svg" width="24" height="24" viewBox="0 0 24 24">
    <path fill="#4F34C7" d="M10.534 4c-1.01 0-1.842.832-1.842 1.841v.62H5v1.231h1.23v10.462c0 1.014.832 1.846 1.847 1.846h7.385c1.014 0 1.846-.832 1.846-1.846V7.692h1.23v-1.23h-3.692v-.62c0-1.01-.832-1.842-1.841-1.842h-2.471zm0 1.23h2.47c.347 0 .611.265.611.611v.62H9.923v-.62c0-.346.265-.61.61-.61zM7.462 7.693h8.615v10.462c0 .346-.27.615-.615.615H8.077c-.346 0-.615-.269-.615-.615V7.692zm1.23 1.231v8.615h1.231V8.923h-1.23zm2.462 0v8.615h1.23V8.923h-1.23zm2.461 0v8.615h1.231V8.923h-1.23z"/>
</svg>
