<svg xmlns="http://www.w3.org/2000/svg" width="24" height="24" viewBox="0 0 24 24">
    <g fill="#4F34C7" fill-rule="evenodd">
        <path fill-opacity=".2" d="M15.888 7L17.654 8.772 8.647 17.726 6 18.606 6.886 15.954z"/>
        <path fill-rule="nonzero" d="M17.787 3c-.678 0-1.318.336-1.852.864L4.852 14.89 3 20.433l5.544-1.846.118-.112L19.638 7.568c.529-.534.86-1.174.86-1.852 0-.678-.331-1.318-.86-1.852C19.105 3.336 18.464 3 17.787 3zm-2.738 3.671l1.766 1.772-9.007 8.954-2.647.88.886-2.652 9.002-8.954z"/>
    </g>
</svg>
