<svg xmlns="http://www.w3.org/2000/svg" xmlns:xlink="http://www.w3.org/1999/xlink" width="36" height="36" viewBox="0 0 36 36">
    <defs>
        <circle id="prefix__a" cx="18" cy="18" r="18"/>
    </defs>
    <g fill="none" fill-rule="evenodd">
        <mask id="prefix__b" fill="#fff">
            <use xlink:href="#prefix__a"/>
        </mask>
        <use fill="#705BFD" xlink:href="#prefix__a"/>
        <g mask="url(#prefix__b)">
            <g transform="translate(3 5)">
                <g fill="#77718C" fill-rule="nonzero">
                    <path d="M4.78 8.35H.06c0-1.59.281-2.924.694-4.027l3.88 1.465.146 2.562z" transform="translate(4.639 24.586)"/>
                    <path d="M18.43 1.588l-1.916 3.854L11.67 8.35H9.073l-4.44-2.562-2.321-4.2C3.192.508 3.993.02 3.993.02H16.75s.802.487 1.681 1.568zM20.682 8.35h-4.72l.552-2.908 3.474-1.119c.413 1.103.694 2.438.694 4.027z" transform="translate(4.639 24.586)"/>
                </g>
                <path fill="#FF748F" fill-rule="nonzero" d="M.613 14.397C.613 6.458 7.07 0 15.01 0c3.846 0 7.46 1.498 10.18 4.217 2.72 2.719 4.217 6.334 4.217 10.18H.613z"/>
                <path fill="#FD5F7E" fill-rule="nonzero" d="M16.34.061C15.9.021 15.457 0 15.01 0 7.07 0 .613 6.458.613 14.397h2.65C3.264 6.904 9.019.73 16.34.061z"/>
                <circle cx="27.046" cy="15.746" r="2.97" fill="#FFCABD" fill-rule="nonzero"/>
                <path fill="#FFDCCE" fill-rule="nonzero" d="M24.254 6.689c-.868-1.04-2.251-1.5-3.574-1.21-4.183.916-5.961-.064-7.892-.653-2.83-.863-5.884.198-7.598 2.61-1.396 1.965-2.217 4.367-2.217 6.961 0 6.648 5.39 12.036 12.037 12.036 6.647 0 12.036-5.388 12.036-12.036 0-2.933-1.049-5.62-2.792-7.708z"/>
                <path fill="#5C586F" fill-rule="nonzero" d="M10.62 24.605H8.632s-.802.488-1.681 1.57l.91 1.648c.34-.656.715-1.203 1.078-1.649.88-1.08 1.681-1.569 1.681-1.569z"/>
                <path fill="#FFCABD" fill-rule="nonzero" d="M5.624 14.397c0-2.594.821-4.996 2.217-6.961 1.046-1.473 2.593-2.44 4.282-2.775-2.633-.523-5.353.55-6.933 2.775-1.1 1.55-1.843 3.37-2.108 5.343-.036-.002-.072-.003-.109-.003-1.64 0-2.97 1.33-2.97 2.97 0 1.64 1.33 2.97 2.97 2.97.28 0 .532-.04.757-.112 1.706 4.573 6.112 7.83 11.28 7.83.448 0 .89-.026 1.325-.073-6.024-.66-10.71-5.764-10.71-11.964z"/>
                <path fill="#77718C" fill-rule="nonzero" d="M24.067 13.005c-1.787-.464-2.889-2.267-3.493-3.667-.23-.537-.99-.535-1.229-.001-.724 1.62-2.107 3.781-4.335 3.781-2.229 0-3.612-2.16-4.335-3.781-.239-.534-.998-.536-1.23 0-.603 1.4-1.706 3.204-3.492 3.668-.515.134-.876.594-.876 1.125s.361.99.876 1.125c1.786.464 2.889 2.267 3.492 3.667.232.537.991.535 1.23.001.723-1.62 2.106-3.781 4.335-3.781 2.228 0 3.611 2.16 4.335 3.781.239.534.998.536 1.23 0 .603-1.401 1.705-3.204 3.492-3.668.514-.134.876-.594.876-1.125s-.362-.991-.876-1.125z"/>
                <g>
                    <path fill="#E8E8E8" fill-rule="nonzero" d="M.5 2.26c-.275 0-.497-.223-.497-.498V.54C.003.265.225.042.5.042c.274 0 .497.223.497.497v1.223c0 .275-.223.497-.497.497zM10.965 2.26c-.275 0-.497-.223-.497-.498V.54c0-.274.222-.497.497-.497.274 0 .497.223.497.497v1.223c0 .275-.223.497-.497.497z" transform="translate(9.278 13.254)"/>
                </g>
                <path fill="#423E4F" fill-rule="nonzero" d="M15.01 18.455c-.636 0-1.24-.275-1.658-.755-.18-.207-.159-.52.048-.701.207-.18.52-.159.701.048.23.263.56.414.909.414.348 0 .68-.15.908-.414.18-.207.495-.228.702-.048.207.18.228.494.048.701-.418.48-1.023.755-1.658.755z"/>
                <path fill="#5C586F" fill-rule="nonzero" d="M5.393 28.91c-.361.964-.622 2.107-.681 3.442-.009.19-.013.385-.013.584h1.988c0-1.282.183-2.398.47-3.36l-1.764-.667z"/>
                <path fill="#F9F097" fill-rule="nonzero" d="M13.712 32.936H9.419l-4.026-4.027c.432-1.159 1.01-2.062 1.558-2.735l6.76 6.762z"/>
                <path fill="#FCCB88" fill-rule="nonzero" d="M6.935 30.452c.117-.558.269-1.072.445-1.543.218-.585.474-1.104.743-1.562L6.95 26.174c-.656.805-1.182 1.729-1.558 2.735l1.543 1.543z"/>
                <path fill="#F9F097" fill-rule="nonzero" d="M24.627 28.91l-4.026 4.026h-4.293l6.761-6.762c.548.673 1.126 1.576 1.558 2.735z"/>
            </g>
        </g>
    </g>
</svg>
