<svg xmlns="http://www.w3.org/2000/svg" width="24" height="24" viewBox="0 0 24 24">
    <g fill="none" fill-rule="evenodd">
        <path fill="#FFC107" d="M8.692 1c2.31 0 3.717 1.869 3.857 2.062.146.277.437.45.754.45h.02l.02-.002.064-.005c.28-.03.525-.195.656-.44C14.196 2.881 15.606 1 17.923 1c2.602 0 4.692 2.059 4.692 4.62 0 2.17-2.115 5.272-4.35 7.691-2.226 2.411-4.443 4.173-4.458 4.185-.149.109-.314.17-.5.17-.185 0-.35-.061-.498-.17-.016-.012-2.233-1.774-4.46-4.185C6.117 10.891 4 7.79 4 5.621 4 3.059 6.09 1 8.692 1z"/>
        <path fill="#4F34C7" fill-rule="nonzero" d="M7.384 2C3.868 2 1 4.825 1 8.287c0 3.116 2.454 6.284 4.79 8.812 2.334 2.529 4.663 4.375 4.663 4.375l.022.016c.377.28.85.463 1.363.497.053.01.108.014.162.013.054 0 .107-.004.16-.013l.009-.002c.51-.035.981-.215 1.356-.495l.022-.016s2.329-1.846 4.664-4.375C20.546 14.57 23 11.403 23 8.287 23 4.825 20.132 2 16.616 2 14.404 2 12.838 3.199 12 4.048 11.162 3.198 9.596 2 7.384 2zm0 1.667c2.311 0 3.717 1.868 3.857 2.062.146.277.437.45.754.449h.02l.02-.002c.021 0 .043-.002.064-.004.28-.03.525-.195.656-.44.133-.184 1.543-2.065 3.86-2.065 2.602 0 4.693 2.058 4.693 4.62 0 2.17-2.116 5.271-4.35 7.69-2.227 2.412-4.444 4.173-4.459 4.185-.148.11-.314.171-.499.171s-.35-.062-.5-.17c-.014-.013-2.231-1.774-4.458-4.185-2.234-2.42-4.35-5.522-4.35-7.69 0-2.563 2.09-4.621 4.692-4.621z"/>
    </g>
</svg>
