<svg xmlns="http://www.w3.org/2000/svg" width="104" height="63" viewBox="0 0 104 63">
    <path fill="#0E004E" fill-rule="evenodd" d="M59.229 32.35c3.225-2.297 7.717-1.542 10.014 1.683 2.297 3.224 1.542 7.717-1.683 10.013-.352.252-.72.466-1.099.645l-.163.074 15.244 4.132c-.05-.423-.079-.851-.079-1.287 0-6.019 4.897-10.915 10.916-10.915 6.018 0 10.915 4.896 10.915 10.915 0 6.019-4.897 10.915-10.915 10.915-4.502 0-8.375-2.74-10.042-6.64l-.054-.13-19.925-5.4 7.097 14.377-2.3 1.135-7.31-14.81-15.207 7.96c-1.618.847-3.418 1.277-5.22 1.277-1.215 0-2.431-.195-3.596-.59-2.833-.96-5.076-2.96-6.318-5.631-.125-.269-.24-.543-.343-.822l-.075-.21-.133.02v-.005l-5.506.797-.735 6.553-2.548-.286.66-5.887-10.744 1.555-3.865 11.177-2.423-.838 3.432-9.925-6.857.993L0 50.657l8.167-1.183 4.52-13.07 2.424.838-4.088 11.819 10.096-1.462 1.224-10.918 2.548.285-1.149 10.253 4.823-.698c-.374-5.642 3.534-10.813 9.228-11.87 3.395-.629 6.825.298 9.44 2.545l.13.113-1.7 1.92c-2.035-1.801-4.733-2.551-7.403-2.056-4.29.796-7.272 4.613-7.155 8.845l.004.128 13.11-1.96.379 2.537-12.917 1.93c.047.114.096.227.148.339.943 2.03 2.654 3.551 4.816 4.284 2.184.74 4.603.571 6.664-.46l.14-.071 15.26-7.987-1.23-2.495c-.852-1.662-1.476-3.403-1.165-5.255.318-1.89 1.353-3.545 2.915-4.658zm33.15 6.91c-4.605 0-8.351 3.745-8.351 8.35 0 4.605 3.746 8.351 8.35 8.351 4.605 0 8.351-3.746 8.351-8.35 0-4.606-3.746-8.352-8.35-8.352zM63.385 33.58c-.952 0-1.878.295-2.668.858-1.005.715-1.67 1.779-1.874 2.994-.205 1.216.077 2.439.792 3.443.716 1.004 1.779 1.67 2.995 1.874 1.216.205 2.438-.077 3.442-.792 2.074-1.477 2.559-4.365 1.082-6.438-.715-1.004-1.779-1.67-2.994-1.874-.26-.043-.518-.065-.775-.065zm4.162-27.978c3.96 0 7.18 3.22 7.18 7.18 0 3.745-2.883 6.827-6.546 7.15l-.116.01 13.125 9.669c1.323.975 3.008 1.359 4.623 1.055 2.177-.41 4.098-1.617 5.408-3.398 1.313-1.785 1.857-3.95 1.532-6.095-.344-2.267-1.56-4.243-3.425-5.566-1.823-1.294-4.028-1.797-6.225-1.425l-.153.028-2.132.401 1.3 10.44-2.545.318-1.598-12.832 4.5-.847c2.938-.553 5.899.095 8.337 1.825 2.437 1.73 4.027 4.313 4.476 7.274.428 2.821-.283 5.662-2.001 7.998-1.696 2.307-4.182 3.869-7 4.4-.519.097-1.042.145-1.564.145-1.748 0-3.474-.539-4.915-1.557l-.14-.1L61.68 18.422 59.395 28.45l-2.5-.57 3.213-15.097c.989-4.988 3.534-7.18 7.44-7.18zM34.323 0l2.472.679-6.81 24.796c-.638 2.087-2.003 3.877-3.843 5.038-1.876 1.185-4.086 1.609-6.22 1.194-1.087-.21-2.085-.616-2.944-1.189-1.37 1.437-3.27 2.23-5.18 2.23-.713 0-1.427-.11-2.116-.338-.476-.158-.866-.343-1.191-.567-2.686-1.846-3.854-5.361-2.87-8.588l.04-.127 4.116-12.776 2.44.787-4.115 12.777c-.71 2.191.048 4.581 1.841 5.814l.049.031c.093.056.247.132.496.215 1.656.548 3.551.003 4.753-1.356l.072-.084.524-.621 1.883-.084c.687.68 1.617 1.15 2.691 1.36 3.005.582 6.09-1.318 7.082-4.341l.035-.108L34.323 0zm10.87 10.184c6.018 0 10.914 4.896 10.914 10.915 0 6.019-4.896 10.915-10.915 10.915-6.018 0-10.915-4.896-10.915-10.915 0-6.019 4.897-10.915 10.915-10.915zm0 2.564c-4.606 0-8.352 3.746-8.352 8.351s3.746 8.351 8.351 8.351 8.35-3.746 8.35-8.351-3.745-8.35-8.35-8.35zM19.316 14.19c2.893 0 5.246 2.354 5.246 5.246 0 2.893-2.353 5.246-5.246 5.246-2.892 0-5.245-2.353-5.245-5.246 0-2.892 2.353-5.246 5.245-5.246zm0 2.565c-1.478 0-2.681 1.203-2.681 2.681 0 1.479 1.203 2.682 2.681 2.682 1.48 0 2.682-1.203 2.682-2.682 0-1.478-1.203-2.681-2.682-2.681zm48.23-8.587c-2.545 0-4.616 2.07-4.616 4.616 0 2.545 2.07 4.615 4.616 4.615 2.545 0 4.616-2.07 4.616-4.615 0-2.545-2.07-4.616-4.616-4.616z"/>
</svg>
