<svg xmlns="http://www.w3.org/2000/svg" width="24" height="24" viewBox="0 0 24 24">
    <g fill="#4F34C7" fill-rule="evenodd">
        <path fill-rule="nonzero" d="M12 2C8.659 2 5.696 3.64 3.875 6.165c-.018.03-.042.06-.06.096-.415.595-.74 1.232-1.016 1.893h1.665c.192-.379.415-.74.661-1.088C6.663 4.933 9.163 3.538 12 3.538c4.681 0 8.462 3.78 8.462 8.462 0 4.681-3.78 8.462-8.462 8.462-2.758 0-5.198-1.31-6.743-3.348-.306-.402-.565-.83-.787-1.268H2.8c.306.733.678 1.436 1.16 2.091.017.03.041.06.06.097.005 0 .005.006.011.006v.006C5.858 20.444 8.755 22 12 22c5.517 0 10-4.483 10-10S17.517 2 12 2zm.77 6.154v3.077H2v1.538h10.77v3.077L16.614 12 12.77 8.154z"/>
        <circle cx="13.5" cy="10.5" r="7.5" fill-opacity=".2"/>
    </g>
</svg>
