<svg xmlns="http://www.w3.org/2000/svg" width="24" height="24" viewBox="0 0 24 24">
    <g fill="#4F34C7" fill-rule="evenodd">
        <path fill-rule="nonzero" d="M10.154 0C7.358 0 5.077 2.28 5.077 5.077c0 1.653.813 3.114 2.043 4.046-1.917.846-3.319 2.452-3.636 4.422-.483.007-.932.172-1.276.496-.357.33-.595.88-.49 1.434l.311 1.501C.88 17.214 0 18.246 0 19.462 0 20.856 1.144 22 2.538 22H17.77c1.395 0 2.539-1.144 2.539-2.538 0-1.237-.906-2.274-2.083-2.493l.364-1.474v-.026c.106-.549-.132-1.098-.483-1.428-.35-.324-.8-.49-1.282-.496-.317-1.97-1.719-3.576-3.636-4.422 1.23-.932 2.043-2.393 2.043-4.046C15.23 2.28 12.95 0 10.154 0zm0 1.692c1.877 0 3.384 1.508 3.384 3.385 0 1.877-1.507 3.385-3.384 3.385-1.878 0-3.385-1.508-3.385-3.385 0-1.877 1.507-3.385 3.385-3.385zm0 8.462c2.512 0 4.508 1.494 4.971 3.384H5.183c.462-1.89 2.459-3.384 4.97-3.384zM3.517 15.23H16.79c.06 0 .08.02.106.033l-1.217 5.024v.02H4.561c-.086 0-.132-.066-.139-.106l-1.01-4.938c.026-.013.052-.033.105-.033zm10.868 1.692c-.47 0-.847.377-.847.846 0 .47.377.846.847.846.469 0 .846-.376.846-.846s-.377-.846-.846-.846zm3.437 1.699c.45.033.793.383.793.84 0 .476-.37.846-.846.846h-.35l.403-1.686zm-15.449.026l.344 1.66h-.179c-.475 0-.846-.37-.846-.846 0-.417.291-.734.681-.814z" transform="translate(2 1)"/>
        <path fill-opacity=".2" d="M12.158 10.421c2.048 0 3.675 1.494 4.053 3.385H8.105c.378-1.891 2.005-3.385 4.053-3.385zM5.88 14.34h11.398c.05 0 .068.02.09.033l-1.044 5.024v.02H6.777c-.074 0-.113-.066-.12-.106l-.868-4.938c.023-.013.046-.033.091-.033z" transform="translate(2 1)"/>
    </g>
</svg>
