<svg xmlns="http://www.w3.org/2000/svg" width="24" height="24" viewBox="0 0 24 24">
    <g fill="#4F34C7" fill-rule="evenodd">
        <path fill-rule="nonzero" d="M9.64 2l-.346 1.842c-1.329.39-2.512 1.082-3.483 2.008l-1.769-.619L2 8.769l1.412 1.21c-.162.654-.302 1.318-.302 2.021 0 .703.14 1.367.302 2.02L2 15.231l2.042 3.538 1.764-.625c.976.937 2.16 1.624 3.488 2.02L9.64 22h4.084l.346-1.836c1.328-.396 2.511-1.088 3.482-2.02l1.764.625 2.048-3.538-1.418-1.21c.162-.654.307-1.318.307-2.021 0-.703-.14-1.367-.301-2.02l1.412-1.211-2.043-3.538-1.763.62c-.977-.932-2.16-1.619-3.488-2.01L13.724 2H9.64zm1.183 1.429h1.718l.28 1.506.457.112c1.417.324 2.667 1.066 3.627 2.093l.318.34 1.451-.508.86 1.484-1.161 1 .14.446c.2.658.312 1.367.312 2.098 0 .731-.112 1.434-.313 2.098l-.14.447 1.161.999-.859 1.484-1.45-.513-.319.345c-.96 1.027-2.21 1.77-3.627 2.099l-.458.1-.279 1.512h-1.718l-.28-1.512-.457-.1c-1.417-.33-2.667-1.072-3.627-2.099l-.324-.345-1.45.513-.855-1.484 1.161-1-.14-.446c-.2-.658-.312-1.367-.312-2.098 0-.731.112-1.44.313-2.098l.14-.447-1.162-.999.854-1.484 1.457.508.318-.34c.96-1.027 2.21-1.77 3.627-2.093l.458-.112.279-1.506zm.859 4.285c-2.36 0-4.286 1.926-4.286 4.286 0 2.36 1.925 4.286 4.286 4.286 2.36 0 4.286-1.926 4.286-4.286 0-2.36-1.926-4.286-4.286-4.286zm0 1.429c1.585 0 2.857 1.272 2.857 2.857 0 1.585-1.272 2.857-2.857 2.857-1.585 0-2.857-1.272-2.857-2.857 0-1.585 1.272-2.857 2.857-2.857z"/>
        <circle cx="13" cy="11" r="7" fill-opacity=".2"/>
    </g>
</svg>
