<svg xmlns="http://www.w3.org/2000/svg" width="24" height="24" viewBox="0 0 24 24">
    <g fill="#4F34C7" fill-rule="evenodd">
        <path fill-opacity=".2" d="M4.727 20C4.326 20 4 19.675 4 19.273c0-1.167.353-11.234 12.364-11.625v-2.92c0-.294.177-.56.448-.672.272-.114.585-.05.793.158l5.09 5.09c.285.285.285.744 0 1.029l-5.09 5.09c-.208.209-.52.271-.793.158-.271-.112-.448-.378-.448-.672v-2.898c-4.451.124-7.732 1.399-9.515 3.707-1.378 1.783-1.394 3.538-1.394 3.555 0 .402-.326.727-.728.727z"/>
        <path fill-rule="nonzero" d="M2.727 20C2.326 20 2 19.675 2 19.273c0-1.167.353-11.234 12.364-11.625v-2.92c0-.294.177-.56.448-.672.272-.114.585-.05.793.158l5.09 5.09c.285.285.285.744 0 1.029l-5.09 5.09c-.208.209-.52.271-.793.158-.271-.112-.448-.378-.448-.672v-2.898c-4.451.124-7.732 1.399-9.515 3.707-1.378 1.783-1.394 3.538-1.394 3.555 0 .402-.326.727-.728.727z"/>
    </g>
</svg>
