<svg xmlns="http://www.w3.org/2000/svg" width="42" height="42" viewBox="0 0 42 42">
    <g fill="none" fill-rule="evenodd">
        <rect width="42" height="42" fill="#FFC107" stroke="#4F34C7" rx="8"/>
        <path fill="#4F34C7" fill-rule="nonzero" d="M13.16 12c-1.187 0-2.16.973-2.16 2.16 0 1.186.973 2.159 2.16 2.159.331 0 .64-.085.922-.22l3.278 3.279c-.377.568-.602 1.248-.602 1.98 0 .573.146 1.113.394 1.596l-2.874 2.323c-.326-.197-.708-.321-1.119-.321-1.186 0-2.159.973-2.159 2.16 0 1.186.973 2.159 2.16 2.159 1.186 0 2.159-.973 2.159-2.16 0-.253-.05-.489-.135-.714l2.856-2.317c.63.535 1.434.872 2.317.872.388 0 .754-.079 1.102-.191l1.535 2.457c-.292.371-.478.827-.478 1.333 0 1.186.973 2.16 2.16 2.16 1.186 0 2.16-.974 2.16-2.16 0-1.187-.974-2.16-2.16-2.16-.158 0-.315.023-.467.051l-1.49-2.395c.478-.422.843-.968 1.046-1.592l3.098.636c.152 1.046 1.052 1.861 2.132 1.861 1.186 0 2.159-.973 2.159-2.16 0-1.186-.973-2.159-2.16-2.159-.776 0-1.456.428-1.838 1.046l-3.234-.663c-.09-.94-.534-1.772-1.214-2.362l1.495-2.396c.152.034.31.057.473.057 1.186 0 2.16-.973 2.16-2.16 0-1.186-.974-2.159-2.16-2.159-1.187 0-2.16.973-2.16 2.16 0 .5.18.96.473 1.326l-1.535 2.463c-.349-.112-.714-.19-1.097-.19-.73 0-1.411.224-1.98.6L15.1 15.083c.135-.282.22-.59.22-.923 0-1.186-.973-2.159-2.16-2.159zm0 1.44c.404 0 .72.314.72.72 0 .404-.316.72-.72.72-.406 0-.72-.316-.72-.72 0-.406.314-.72.72-.72zm11.516 0c.405 0 .72.314.72.72 0 .404-.315.72-.72.72-.405 0-.72-.316-.72-.72 0-.406.315-.72.72-.72zm-4.319 5.758c1.204 0 2.16.956 2.16 2.16 0 .775-.405 1.444-1.013 1.827-.073.028-.14.062-.202.112-.287.135-.607.22-.945.22-1.203 0-2.16-.956-2.16-2.16 0-1.203.957-2.16 2.16-2.16zm8.638 2.879c.404 0 .72.315.72.72 0 .405-.316.72-.72.72-.405 0-.72-.315-.72-.72 0-.405.315-.72.72-.72zm-15.836 4.319c.405 0 .72.315.72.72 0 .404-.315.72-.72.72-.405 0-.72-.316-.72-.72 0-.405.315-.72.72-.72zm11.517 1.44c.405 0 .72.314.72.719 0 .405-.315.72-.72.72-.405 0-.72-.315-.72-.72 0-.405.315-.72.72-.72z"/>
    </g>
</svg>
