<svg xmlns="http://www.w3.org/2000/svg" width="42" height="42" viewBox="0 0 42 42">
    <g fill="none" fill-rule="evenodd">
        <rect width="42" height="42" fill="#F6F5F8" stroke="#0E004E" stroke-opacity=".3" rx="8"/>
        <path fill="#0E004E" fill-opacity=".3" fill-rule="nonzero" d="M21 13c-2.748 0-5.139 1.91-5.8 4.535-1.618.24-2.901 1.53-3.153 3.205C10.254 21.35 9 23.06 9 25c0 2.479 2.021 4.5 4.5 4.5h15c2.479 0 4.5-2.021 4.5-4.5 0-1.348-.598-2.607-1.629-3.457.088-.346.129-.697.129-1.043 0-2.73-2.414-4.957-5.262-4.43C25.184 14.19 23.198 13 21 13zm0 1.5c1.81 0 3.44 1.078 4.148 2.742l.264.645.656-.223c.34-.111.645-.164.932-.164 1.652 0 3 1.348 3 3 0 .352-.07.709-.21 1.066l-.212.575.516.328c.879.556 1.406 1.5 1.406 2.531 0 1.652-1.348 3-3 3h-15c-1.652 0-3-1.348-3-3 0-1.424 1.014-2.66 2.402-2.941l.616-.176-.018-.633c0-1.242 1.008-2.25 2.174-2.256l.152.018h.65l.094-.65c.31-2.204 2.215-3.862 4.43-3.862zm-2.25 6c-.416 0-.75.334-.75.75s.334.75.75.75.75-.334.75-.75-.334-.75-.75-.75zm4.5 0c-.416 0-.75.334-.75.75s.334.75.75.75.75-.334.75-.75-.334-.75-.75-.75zm1.547 2.959c-.229 0-.44.1-.586.275 0 0-1.23 1.266-3.211 1.266-1.98 0-3.21-1.266-3.21-1.266-.142-.152-.33-.24-.534-.246-.305 0-.58.176-.703.457-.117.282-.059.61.158.82 0 0 1.658 1.735 4.289 1.735 2.63 0 4.29-1.734 4.29-1.734.228-.205.31-.534.204-.82-.111-.294-.387-.481-.697-.487z"/>
    </g>
</svg>
